<svg width="950" height="651" viewBox="0 0 950 651" fill="none" xmlns="http://www.w3.org/2000/svg">
<path d="M273.223 504.621C273.613 505.012 274.246 505.012 274.637 504.621L281.001 498.257C281.391 497.867 281.391 497.234 281.001 496.843C280.61 496.452 279.977 496.452 279.587 496.843L273.93 502.5L268.273 496.843C267.882 496.452 267.249 496.452 266.859 496.843C266.468 497.234 266.468 497.867 266.859 498.257L273.223 504.621ZM272.93 480.914L272.93 503.914L274.93 503.914L274.93 480.914L272.93 480.914Z" fill="black"/>
<rect x="177.43" y="397.406" width="193" height="75" fill="white"/>
<rect x="177.43" y="397.406" width="193" height="75" stroke="black"/>
<path d="M187.849 425.906V425.714L189.097 425.222V418.646H187.285L186.385 420.53H186.193V417.986H193.513V420.53H193.321L192.421 418.646H190.609V425.222L191.845 425.714V425.906H187.849ZM195.234 425.906V425.714L196.23 425.222V418.67L195.234 418.178V417.986H198.678V418.178L197.73 418.67V421.49H201.366V418.67L200.418 418.178V417.986H203.874V418.178L202.878 418.67V425.222L203.874 425.714V425.906H200.418V425.714L201.366 425.222V422.15H197.73V425.222L198.678 425.714V425.906H195.234ZM205.773 425.906V425.714L206.769 425.222V418.67L205.773 418.178V417.986H209.277V418.178L208.281 418.67V425.222L209.277 425.714V425.906H205.773ZM213.768 426.026C212.748 426.026 212.052 425.822 211.308 425.438L211.188 423.434H211.392L212.124 424.814C212.616 425.222 213.144 425.426 213.684 425.426C214.584 425.426 215.172 424.97 215.172 424.154C215.172 423.242 214.572 422.99 213.204 422.354C212.064 421.814 211.44 421.262 211.44 420.194C211.44 418.982 212.772 417.866 214.104 417.866C214.896 417.866 215.592 418.058 216.228 418.394L216.348 420.314H216.156L215.424 418.994C214.956 418.634 214.596 418.466 214.08 418.466C213.408 418.466 212.916 418.958 212.916 419.654C212.916 420.374 213.36 420.722 214.476 421.25C215.928 421.922 216.6 422.462 216.6 423.65C216.6 425.174 215.124 426.026 213.768 426.026ZM222.081 425.906V425.714L223.077 425.222V418.67L222.081 418.178V417.986H225.585V418.178L224.589 418.67V425.222L225.585 425.714V425.906H222.081ZM230.076 426.026C229.056 426.026 228.36 425.822 227.616 425.438L227.496 423.434H227.7L228.432 424.814C228.924 425.222 229.452 425.426 229.992 425.426C230.892 425.426 231.48 424.97 231.48 424.154C231.48 423.242 230.88 422.99 229.512 422.354C228.372 421.814 227.748 421.262 227.748 420.194C227.748 418.982 229.08 417.866 230.412 417.866C231.204 417.866 231.9 418.058 232.536 418.394L232.656 420.314H232.464L231.732 418.994C231.264 418.634 230.904 418.466 230.388 418.466C229.716 418.466 229.224 418.958 229.224 419.654C229.224 420.374 229.668 420.722 230.784 421.25C232.236 421.922 232.908 422.462 232.908 423.65C232.908 425.174 231.432 426.026 230.076 426.026ZM239.516 425.906V425.714L240.632 425.27V419.282L238.592 420.242V419.786L241.544 417.986H242.084V425.27L243.08 425.714V425.906H239.516ZM247.966 426.026C246.178 426.026 245.146 424.466 245.146 421.946C245.146 419.606 246.298 417.866 247.966 417.866C249.754 417.866 250.786 419.426 250.786 421.946C250.786 424.286 249.622 426.026 247.966 426.026ZM248.182 425.45C248.878 425.45 249.238 424.13 249.238 422.318C249.238 420.074 248.794 418.43 247.786 418.43C247.078 418.43 246.694 419.702 246.694 421.55C246.694 423.806 247.15 425.45 248.182 425.45ZM252.144 425.906V425.714L253.056 425.246L255.576 422.078L253.08 418.61L252.3 418.178V417.986H255.864V418.178L254.916 418.634V418.694L256.656 421.07L258.54 418.694V418.646L257.616 418.178V417.986H260.304V418.178L259.524 418.598L257.076 421.634L259.74 425.234L260.592 425.714V425.906H256.968V425.714L257.832 425.27V425.222L255.996 422.666L253.992 425.21L253.98 425.258L254.952 425.714V425.906H252.144ZM267.284 425.906V425.714L268.532 425.222V418.646H266.72L265.82 420.53H265.628V417.986H272.948V420.53H272.756L271.856 418.646H270.044V425.222L271.28 425.714V425.906H267.284ZM274.669 425.906V425.714L275.665 425.222V418.67L274.669 418.178V417.986H278.113V418.178L277.165 418.67V421.49H280.801V418.67L279.853 418.178V417.986H283.309V418.178L282.313 418.67V425.222L283.309 425.714V425.906H279.853V425.714L280.801 425.222V422.15H277.165V425.222L278.113 425.714V425.906H274.669ZM285.171 425.906V425.714L286.167 425.222V418.67L285.171 418.178V417.986H291.435V420.062H291.243L290.415 418.646H287.667V421.49H289.599L290.247 420.47H290.439V423.146H290.247L289.599 422.15H287.667V425.246H290.715L291.579 423.566H291.771V425.906H285.171ZM301.55 426.026C299.054 426.026 297.458 424.358 297.458 422.126C297.458 419.786 299.474 417.866 301.742 417.866C302.978 417.866 303.53 418.118 304.202 418.442L304.31 420.626H304.094L303.122 418.934C302.642 418.61 302.294 418.466 301.766 418.466C300.194 418.466 299.018 419.858 299.018 421.91C299.018 424.094 300.17 425.402 301.634 425.402C302.354 425.402 302.846 425.186 303.278 424.91L304.214 423.434H304.418L304.262 425.414C303.59 425.786 302.774 426.026 301.55 426.026ZM310.804 426.026C308.836 426.026 307.444 425.078 307.444 422.642V418.67L306.448 418.178V417.986H309.952V418.178L308.956 418.67V422.57C308.956 424.55 309.976 425.21 311.272 425.21C312.328 425.21 313.252 424.598 313.252 422.99V418.646L312.1 418.178V417.986H315.088V418.178L314.092 418.658V422.642C314.092 425.078 312.736 426.026 310.804 426.026ZM316.962 425.906V425.714L317.958 425.222V418.67L316.962 418.178V417.986H320.646C322.326 417.986 323.358 418.73 323.358 419.942C323.358 420.83 322.71 421.514 321.726 421.886L323.97 425.246L324.81 425.714V425.906H322.566L320.298 422.246H319.458V425.21L320.358 425.714V425.906H316.962ZM320.07 418.646H319.458V421.634H320.142C321.126 421.634 321.81 421.01 321.81 420.122C321.81 419.186 321.174 418.646 320.07 418.646ZM325.964 425.906V425.714L326.96 425.222V418.67L325.964 418.178V417.986H329.648C331.328 417.986 332.36 418.73 332.36 419.942C332.36 420.83 331.712 421.514 330.728 421.886L332.972 425.246L333.812 425.714V425.906H331.568L329.3 422.246H328.46V425.21L329.36 425.714V425.906H325.964ZM329.072 418.646H328.46V421.634H329.144C330.128 421.634 330.812 421.01 330.812 420.122C330.812 419.186 330.176 418.646 329.072 418.646ZM334.966 425.906V425.714L335.962 425.222V418.67L334.966 418.178V417.986H341.23V420.062H341.038L340.21 418.646H337.462V421.49H339.394L340.042 420.47H340.234V423.146H340.042L339.394 422.15H337.462V425.246H340.51L341.374 423.566H341.566V425.906H334.966ZM343.546 425.906V425.714L344.554 425.222V418.682L343.558 418.178V417.986H345.622L350.254 423.458V418.646L348.958 418.178V417.986H352.078V418.178L351.094 418.658V425.966H350.47L345.394 419.99V425.234L346.69 425.714V425.906H343.546ZM355.397 425.906V425.714L356.645 425.222V418.646H354.833L353.933 420.53H353.741V417.986H361.061V420.53H360.869L359.969 418.646H358.157V425.222L359.393 425.714V425.906H355.397ZM203.306 437.906V437.714L204.314 437.222V430.682L203.318 430.178V429.986H205.382L210.014 435.458V430.646L208.718 430.178V429.986H211.838V430.178L210.854 430.658V437.966H210.23L205.154 431.99V437.234L206.45 437.714V437.906H203.306ZM213.623 437.906V437.714L214.619 437.222V430.67L213.623 430.178V429.986H217.127V430.178L216.131 430.67V437.222L217.127 437.714V437.906H213.623ZM219.039 437.906V437.714L220.035 437.222V430.67L219.039 430.178V429.986H222.483V430.178L221.535 430.67V433.49H225.171V430.67L224.223 430.178V429.986H227.679V430.178L226.683 430.67V437.222L227.679 437.714V437.906H224.223V437.714L225.171 437.222V434.15H221.535V437.222L222.483 437.714V437.906H219.039ZM233.177 437.906V437.714L234.173 437.222V430.67L233.177 430.178V429.986H236.681V430.178L235.685 430.67V437.222L236.681 437.714V437.906H233.177ZM238.545 437.906V437.714L239.553 437.222V430.682L238.557 430.178V429.986H240.621L245.253 435.458V430.646L243.957 430.178V429.986H247.077V430.178L246.093 430.658V437.966H245.469L240.393 431.99V437.234L241.689 437.714V437.906H238.545ZM252.461 437.966L249.341 430.622L248.501 430.178V429.986H251.933V430.178L250.925 430.634L253.109 435.818H253.181L255.365 430.622L254.369 430.178V429.986H256.925V430.178L256.241 430.55L253.049 437.966H252.461ZM258.472 437.906V437.714L259.468 437.222V430.67L258.472 430.178V429.986H264.736V432.062H264.544L263.716 430.646H260.968V433.49H262.9L263.548 432.47H263.74V435.146H263.548L262.9 434.15H260.968V437.246H264.016L264.88 435.566H265.072V437.906H258.472ZM269.68 438.026C268.66 438.026 267.964 437.822 267.22 437.438L267.1 435.434H267.304L268.036 436.814C268.528 437.222 269.056 437.426 269.596 437.426C270.496 437.426 271.084 436.97 271.084 436.154C271.084 435.242 270.484 434.99 269.116 434.354C267.976 433.814 267.352 433.262 267.352 432.194C267.352 430.982 268.684 429.866 270.016 429.866C270.808 429.866 271.504 430.058 272.14 430.394L272.26 432.314H272.068L271.336 430.994C270.868 430.634 270.508 430.466 269.992 430.466C269.32 430.466 268.828 430.958 268.828 431.654C268.828 432.374 269.272 432.722 270.388 433.25C271.84 433.922 272.512 434.462 272.512 435.65C272.512 437.174 271.036 438.026 269.68 438.026ZM275.856 437.906V437.714L277.104 437.222V430.646H275.292L274.392 432.53H274.2V429.986H281.52V432.53H281.328L280.428 430.646H278.616V437.222L279.852 437.714V437.906H275.856ZM283.193 437.906V437.714L284.189 437.222L284.429 430.67L283.397 430.178V429.986H286.061L288.617 435.902L291.161 429.986H293.717V430.178L292.697 430.586L292.901 437.222L293.777 437.714V437.906H290.501V437.714L291.437 437.234L291.317 431.45L288.533 437.966H287.909L285.125 431.498L284.969 437.234L285.989 437.714V437.906H283.193ZM295.607 437.906V437.714L296.603 437.222V430.67L295.607 430.178V429.986H301.871V432.062H301.679L300.851 430.646H298.103V433.49H300.035L300.683 432.47H300.875V435.146H300.683L300.035 434.15H298.103V437.246H301.151L302.015 435.566H302.207V437.906H295.607ZM304.186 437.906V437.714L305.194 437.222V430.682L304.198 430.178V429.986H306.262L310.894 435.458V430.646L309.598 430.178V429.986H312.718V430.178L311.734 430.658V437.966H311.11L306.034 431.99V437.234L307.33 437.714V437.906H304.186ZM316.037 437.906V437.714L317.285 437.222V430.646H315.473L314.573 432.53H314.381V429.986H321.701V432.53H321.509L320.609 430.646H318.797V437.222L320.033 437.714V437.906H316.037ZM327.058 437.906V437.714L328.054 437.222V430.67L327.058 430.178V429.986H330.562V430.178L329.566 430.67V437.222L330.562 437.714V437.906H327.058ZM332.426 437.906V437.714L333.434 437.222V430.682L332.438 430.178V429.986H334.502L339.134 435.458V430.646L337.838 430.178V429.986H340.958V430.178L339.974 430.658V437.966H339.35L334.274 431.99V437.234L335.57 437.714V437.906H332.426ZM215.506 449.906V449.714L216.502 449.222V442.67L215.506 442.178V441.986H219.01C220.678 441.986 221.914 442.574 221.914 443.762C221.914 444.578 221.302 445.322 220.21 445.61C221.71 445.814 222.622 446.534 222.622 447.602C222.622 448.922 221.206 449.906 219.298 449.906H215.506ZM218.542 442.646H218.002V445.514H218.614C219.706 445.514 220.354 444.986 220.354 444.11C220.354 443.15 219.754 442.646 218.542 442.646ZM218.986 446.126H218.002V449.246H219.07C220.27 449.246 221.014 448.598 221.014 447.674C221.014 446.618 220.282 446.126 218.986 446.126ZM224.332 449.906V449.714L225.328 449.222V442.67L224.332 442.178V441.986H228.016C229.696 441.986 230.728 442.73 230.728 443.942C230.728 444.83 230.08 445.514 229.096 445.886L231.34 449.246L232.18 449.714V449.906H229.936L227.668 446.246H226.828V449.21L227.728 449.714V449.906H224.332ZM227.44 442.646H226.828V445.634H227.512C228.496 445.634 229.18 445.01 229.18 444.122C229.18 443.186 228.544 442.646 227.44 442.646ZM232.834 449.906V449.714L233.578 449.306L236.686 441.926H237.526L240.598 449.294L241.414 449.714V449.906H237.958V449.714L239.002 449.294L238.15 447.206H235.282L234.43 449.294L235.426 449.714V449.906H232.834ZM235.546 446.546H237.874L236.71 443.69L235.546 446.546ZM242.97 449.906V449.714L243.966 449.222V442.67L242.97 442.178V441.986H246.474V442.178L245.478 442.67V449.222L246.474 449.714V449.906H242.97ZM248.338 449.906V449.714L249.346 449.222V442.682L248.35 442.178V441.986H250.414L255.046 447.458V442.646L253.75 442.178V441.986H256.87V442.178L255.886 442.658V449.966H255.262L250.186 443.99V449.234L251.482 449.714V449.906H248.338ZM262.289 449.906V449.714L263.285 449.222V442.67L262.289 442.178V441.986H265.973C267.653 441.986 268.685 442.73 268.685 443.942C268.685 444.83 268.037 445.514 267.053 445.886L269.297 449.246L270.137 449.714V449.906H267.893L265.625 446.246H264.785V449.21L265.685 449.714V449.906H262.289ZM265.397 442.646H264.785V445.634H265.469C266.453 445.634 267.137 445.01 267.137 444.122C267.137 443.186 266.501 442.646 265.397 442.646ZM271.291 449.906V449.714L272.287 449.222V442.67L271.291 442.178V441.986H277.555V444.062H277.363L276.535 442.646H273.787V445.49H275.719L276.367 444.47H276.559V447.146H276.367L275.719 446.15H273.787V449.246H276.835L277.699 447.566H277.891V449.906H271.291ZM282.499 450.026C281.479 450.026 280.783 449.822 280.039 449.438L279.919 447.434H280.123L280.855 448.814C281.347 449.222 281.875 449.426 282.415 449.426C283.315 449.426 283.903 448.97 283.903 448.154C283.903 447.242 283.303 446.99 281.935 446.354C280.795 445.814 280.171 445.262 280.171 444.194C280.171 442.982 281.503 441.866 282.835 441.866C283.627 441.866 284.323 442.058 284.959 442.394L285.079 444.314H284.887L284.155 442.994C283.687 442.634 283.327 442.466 282.811 442.466C282.139 442.466 281.647 442.958 281.647 443.654C281.647 444.374 282.091 444.722 283.207 445.25C284.659 445.922 285.331 446.462 285.331 447.65C285.331 449.174 283.855 450.026 282.499 450.026ZM287.175 449.906V449.714L288.171 449.222V442.67L287.175 442.178V441.986H293.439V444.062H293.247L292.419 442.646H289.671V445.49H291.603L292.251 444.47H292.443V447.146H292.251L291.603 446.15H289.671V449.246H292.719L293.583 447.566H293.775V449.906H287.175ZM295.466 449.906V449.714L296.21 449.306L299.318 441.926H300.158L303.23 449.294L304.046 449.714V449.906H300.59V449.714L301.634 449.294L300.782 447.206H297.914L297.062 449.294L298.058 449.714V449.906H295.466ZM298.178 446.546H300.506L299.342 443.69L298.178 446.546ZM305.566 449.906V449.714L306.562 449.222V442.67L305.566 442.178V441.986H309.25C310.93 441.986 311.962 442.73 311.962 443.942C311.962 444.83 311.314 445.514 310.33 445.886L312.574 449.246L313.414 449.714V449.906H311.17L308.902 446.246H308.062V449.21L308.962 449.714V449.906H305.566ZM308.674 442.646H308.062V445.634H308.746C309.73 445.634 310.414 445.01 310.414 444.122C310.414 443.186 309.778 442.646 308.674 442.646ZM318.674 450.026C316.178 450.026 314.582 448.358 314.582 446.126C314.582 443.786 316.598 441.866 318.866 441.866C320.102 441.866 320.654 442.118 321.326 442.442L321.434 444.626H321.218L320.246 442.934C319.766 442.61 319.418 442.466 318.89 442.466C317.318 442.466 316.142 443.858 316.142 445.91C316.142 448.094 317.294 449.402 318.758 449.402C319.478 449.402 319.97 449.186 320.402 448.91L321.338 447.434H321.542L321.386 449.414C320.714 449.786 319.898 450.026 318.674 450.026ZM323.723 449.906V449.714L324.719 449.222V442.67L323.723 442.178V441.986H327.167V442.178L326.219 442.67V445.49H329.855V442.67L328.907 442.178V441.986H332.363V442.178L331.367 442.67V449.222L332.363 449.714V449.906H328.907V449.714L329.855 449.222V446.15H326.219V449.222L327.167 449.714V449.906H323.723Z" fill="black"/>
</svg>
