<svg width="950" height="651" viewBox="0 0 950 651" fill="none" xmlns="http://www.w3.org/2000/svg">
<g clip-path="url(#clip0_2324_417)">
<path d="M288.954 59.6719V59.3519L290.594 58.5519V47.5919L288.954 46.7919V46.4719H294.294V46.7919L292.674 47.5919V58.5519L294.294 59.3519V59.6719H288.954ZM297.684 59.6719V59.3519L299.304 58.5519V47.6319L297.704 46.7919V46.4719H300.844L308.504 55.8919V47.5719L306.444 46.7919V46.4719H311.504V46.7919L309.904 47.5719V59.7719H309.044L300.704 49.5319V58.5719L302.764 59.3519V59.6719H297.684ZM320.563 59.7719L315.443 47.5119L314.063 46.7919V46.4719H319.363V46.7919L317.623 47.5519L321.363 56.5519H321.463L325.163 47.4919L323.503 46.7919V46.4719H327.723V46.7919L326.583 47.4119L321.363 59.7719H320.563ZM330.565 59.6719V59.3519L332.185 58.5519V47.5919L330.565 46.7919V46.4719H340.605V49.9119H340.285L338.985 47.5719H334.285V52.3119H337.605L338.625 50.6319H338.945V55.0519H338.625L337.605 53.4119H334.285V58.5719H339.525L340.845 55.9319H341.165V59.6719H330.565ZM348.869 59.8719C348.029 59.8719 347.309 59.7919 346.709 59.6319C346.122 59.4719 345.515 59.2385 344.889 58.9319L344.689 55.6319H345.009L346.069 57.8119C346.535 58.1985 346.995 58.4785 347.449 58.6519C347.902 58.8252 348.355 58.9119 348.809 58.9119C349.582 58.9119 350.189 58.7119 350.629 58.3119C351.082 57.9119 351.309 57.3652 351.309 56.6719C351.309 56.1252 351.182 55.6919 350.929 55.3719C350.689 55.0385 350.322 54.7452 349.829 54.4919C349.349 54.2252 348.755 53.9185 348.049 53.5719C347.102 53.1185 346.375 52.6452 345.869 52.1519C345.362 51.6452 345.109 50.9385 345.109 50.0319C345.109 49.5519 345.222 49.0919 345.449 48.6519C345.689 48.1985 346.009 47.7985 346.409 47.4519C346.809 47.0919 347.255 46.8052 347.749 46.5919C348.242 46.3785 348.755 46.2719 349.289 46.2719C349.915 46.2719 350.502 46.3452 351.049 46.4919C351.595 46.6385 352.135 46.8519 352.669 47.1319L352.869 50.3319H352.549L351.509 48.1919C351.082 47.8585 350.695 47.6185 350.349 47.4719C350.002 47.3252 349.609 47.2519 349.169 47.2519C348.595 47.2519 348.115 47.4452 347.729 47.8319C347.355 48.2185 347.169 48.7052 347.169 49.2919C347.169 49.9452 347.369 50.4585 347.769 50.8319C348.182 51.2052 348.842 51.6052 349.749 52.0319C350.549 52.4185 351.209 52.7919 351.729 53.1519C352.262 53.4985 352.655 53.8919 352.909 54.3319C353.162 54.7719 353.289 55.3319 353.289 56.0119C353.289 56.6385 353.155 57.1919 352.889 57.6719C352.622 58.1519 352.269 58.5585 351.829 58.8919C351.389 59.2119 350.909 59.4585 350.389 59.6319C349.882 59.7919 349.375 59.8719 348.869 59.8719ZM359.109 59.6719V59.3519L361.129 58.5519V47.5719H357.969L356.549 50.5919H356.229V46.4719H368.109V50.5919H367.789L366.389 47.5719H363.209V58.5519L365.249 59.3519V59.6719H359.109ZM371.083 59.6719V59.3519L372.683 58.5519L373.103 47.5919L371.383 46.7919V46.4719H375.363L379.843 56.8119L384.303 46.4719H388.123V46.7919L386.423 47.5319L386.763 58.5519L388.203 59.3519V59.6719H383.263V59.3519L384.763 58.5719L384.563 48.7919L379.843 59.7719H378.883L374.203 48.9119L373.943 58.5719L375.603 59.3519V59.6719H371.083ZM391.518 59.6719V59.3519L393.138 58.5519V47.5919L391.518 46.7919V46.4719H401.558V49.9119H401.238L399.938 47.5719H395.238V52.3119H398.558L399.578 50.6319H399.898V55.0519H399.578L398.558 53.4119H395.238V58.5719H400.478L401.798 55.9319H402.118V59.6719H391.518ZM405.622 59.6719V59.3519L407.242 58.5519V47.6319L405.642 46.7919V46.4719H408.782L416.442 55.8919V47.5719L414.382 46.7919V46.4719H419.442V46.7919L417.842 47.5719V59.7719H416.982L408.642 49.5319V58.5719L410.702 59.3519V59.6719H405.622ZM425.297 59.6719V59.3519L427.317 58.5519V47.5719H424.157L422.737 50.5919H422.417V46.4719H434.297V50.5919H433.977L432.577 47.5719H429.397V58.5519L431.437 59.3519V59.6719H425.297ZM442.75 59.6719V59.3519L444.01 58.6919L449.15 46.3719H450.25L455.33 58.6319L456.67 59.3519V59.6719H451.39V59.3519L453.15 58.6519L451.67 55.0519H446.85L445.39 58.6719L447.07 59.3519V59.6719H442.75ZM447.31 53.9519H451.23L449.27 49.1319L447.31 53.9519ZM459.388 59.6719V59.3519L461.008 58.5519V47.6319L459.408 46.7919V46.4719H462.548L470.208 55.8919V47.5719L468.148 46.7919V46.4719H473.208V46.7919L471.608 47.5719V59.7719H470.748L462.408 49.5319V58.5719L464.468 59.3519V59.6719H459.388ZM476.346 59.6719V59.3519L477.966 58.5519V47.5919L476.346 46.7919V46.4719H482.426C483.92 46.4719 485.193 46.7319 486.246 47.2519C487.3 47.7719 488.1 48.4852 488.646 49.3919C489.206 50.2985 489.486 51.3252 489.486 52.4719C489.486 53.5119 489.306 54.4719 488.946 55.3519C488.586 56.2319 488.08 56.9919 487.426 57.6319C486.786 58.2719 486.026 58.7719 485.146 59.1319C484.28 59.4919 483.326 59.6719 482.286 59.6719H476.346ZM481.886 47.5719H480.066V58.5719H482.186C483.253 58.5719 484.166 58.3519 484.926 57.9119C485.686 57.4585 486.273 56.8252 486.686 56.0119C487.1 55.1852 487.306 54.2119 487.306 53.0919C487.306 51.9852 487.093 51.0185 486.666 50.1919C486.253 49.3519 485.64 48.7052 484.826 48.2519C484.026 47.7985 483.046 47.5719 481.886 47.5719ZM498.371 59.6719V59.3519L499.631 58.6919L504.771 46.3719H505.871L510.951 58.6319L512.291 59.3519V59.6719H507.011V59.3519L508.771 58.6519L507.291 55.0519H502.471L501.011 58.6719L502.691 59.3519V59.6719H498.371ZM502.931 53.9519H506.851L504.891 49.1319L502.931 53.9519ZM515.089 59.6719V59.3519L516.709 58.5519V47.5919L515.089 46.7919V46.4719H520.689C522.262 46.4719 523.522 46.7585 524.469 47.3319C525.429 47.9052 525.909 48.8119 525.909 50.0519C525.909 50.7852 525.655 51.4385 525.149 52.0119C524.655 52.5719 523.982 53.0185 523.129 53.3519C522.275 53.6719 521.302 53.8319 520.209 53.8319H518.809V58.5519L520.649 59.3519V59.6719H515.089ZM518.809 47.5719V52.7719H520.329C521.382 52.7719 522.209 52.5319 522.809 52.0519C523.409 51.5719 523.709 50.9585 523.709 50.2119C523.709 49.2785 523.402 48.6052 522.789 48.1919C522.189 47.7785 521.322 47.5719 520.189 47.5719H518.809ZM529.077 59.6719V59.3519L530.697 58.5519V47.5919L529.077 46.7919V46.4719H534.677C536.25 46.4719 537.51 46.7585 538.457 47.3319C539.417 47.9052 539.897 48.8119 539.897 50.0519C539.897 50.7852 539.644 51.4385 539.137 52.0119C538.644 52.5719 537.97 53.0185 537.117 53.3519C536.264 53.6719 535.29 53.8319 534.197 53.8319H532.797V58.5519L534.637 59.3519V59.6719H529.077ZM532.797 47.5719V52.7719H534.317C535.37 52.7719 536.197 52.5319 536.797 52.0519C537.397 51.5719 537.697 50.9585 537.697 50.2119C537.697 49.2785 537.39 48.6052 536.777 48.1919C536.177 47.7785 535.31 47.5719 534.177 47.5719H532.797ZM543.065 59.6719V59.3519L544.685 58.5519V47.5919L543.065 46.7919V46.4719H548.625C550.025 46.4719 551.125 46.7652 551.925 47.3519C552.739 47.9252 553.145 48.7185 553.145 49.7319C553.145 50.4785 552.892 51.1385 552.385 51.7119C551.879 52.2852 551.212 52.7252 550.385 53.0319L554.165 58.6119L555.505 59.3519V59.6719H552.285L548.445 53.5919H546.785V58.5319L548.285 59.3519V59.6719H543.065ZM547.965 47.5719H546.785V52.5319H548.085C548.912 52.5319 549.592 52.2985 550.125 51.8319C550.672 51.3519 550.945 50.7452 550.945 50.0119C550.945 49.2519 550.679 48.6585 550.145 48.2319C549.625 47.7919 548.899 47.5719 547.965 47.5719ZM564.401 59.8719C563.441 59.8719 562.548 59.7052 561.721 59.3719C560.908 59.0252 560.194 58.5519 559.581 57.9519C558.981 57.3385 558.514 56.6185 558.181 55.7919C557.848 54.9652 557.681 54.0585 557.681 53.0719C557.681 52.0852 557.848 51.1785 558.181 50.3519C558.514 49.5252 558.981 48.8119 559.581 48.2119C560.194 47.5985 560.908 47.1252 561.721 46.7919C562.548 46.4452 563.441 46.2719 564.401 46.2719C565.361 46.2719 566.248 46.4452 567.061 46.7919C567.888 47.1252 568.601 47.5985 569.201 48.2119C569.814 48.8119 570.288 49.5252 570.621 50.3519C570.968 51.1785 571.141 52.0852 571.141 53.0719C571.141 54.0585 570.968 54.9652 570.621 55.7919C570.288 56.6185 569.814 57.3385 569.201 57.9519C568.601 58.5519 567.888 59.0252 567.061 59.3719C566.248 59.7052 565.361 59.8719 564.401 59.8719ZM564.801 58.8719C565.614 58.8719 566.328 58.6585 566.941 58.2319C567.554 57.8052 568.034 57.2052 568.381 56.4319C568.728 55.6585 568.901 54.7452 568.901 53.6919C568.901 52.3985 568.688 51.2719 568.261 50.3119C567.834 49.3385 567.254 48.5852 566.521 48.0519C565.788 47.5185 564.974 47.2519 564.081 47.2519C563.268 47.2519 562.548 47.4652 561.921 47.8919C561.294 48.3052 560.801 48.8985 560.441 49.6719C560.094 50.4452 559.921 51.3585 559.921 52.4119C559.921 53.7052 560.134 54.8385 560.561 55.8119C561.001 56.7852 561.588 57.5385 562.321 58.0719C563.068 58.6052 563.894 58.8719 564.801 58.8719ZM573.49 59.6719V59.3519L574.95 58.6119L579.21 53.1719L575.05 47.5119L573.77 46.7919V46.4719H579.15V46.7919L577.55 47.5519V47.6519L580.65 51.7719L583.89 47.6319V47.5519L582.35 46.7919V46.4719H586.67V46.7919L585.39 47.5119L581.33 52.6719L585.75 58.5719L587.17 59.3519V59.6719H581.69V59.3519L583.15 58.6319V58.5519L579.87 54.0719L576.45 58.5319V58.6119L578.05 59.3519V59.6719H573.49ZM590.091 59.6719V59.3519L591.731 58.5519V47.5919L590.091 46.7919V46.4719H595.431V46.7919L593.811 47.5919V58.5519L595.431 59.3519V59.6719H590.091ZM598.821 59.6719V59.3519L600.421 58.5519L600.841 47.5919L599.121 46.7919V46.4719H603.101L607.581 56.8119L612.041 46.4719H615.861V46.7919L614.161 47.5319L614.501 58.5519L615.941 59.3519V59.6719H611.001V59.3519L612.501 58.5719L612.301 48.7919L607.581 59.7719H606.621L601.941 48.9119L601.681 58.5719L603.341 59.3519V59.6719H598.821ZM618.657 59.6719V59.3519L619.917 58.6919L625.057 46.3719H626.157L631.237 58.6319L632.577 59.3519V59.6719H627.297V59.3519L629.057 58.6519L627.577 55.0519H622.757L621.297 58.6719L622.977 59.3519V59.6719H618.657ZM623.217 53.9519H627.137L625.177 49.1319L623.217 53.9519ZM637.289 59.6719V59.3519L639.309 58.5519V47.5719H636.149L634.729 50.5919H634.409V46.4719H646.289V50.5919H645.969L644.569 47.5719H641.389V58.5519L643.429 59.3519V59.6719H637.289ZM649.343 59.6719V59.3519L650.963 58.5519V47.5919L649.343 46.7919V46.4719H659.383V49.9119H659.063L657.763 47.5719H653.063V52.3119H656.383L657.403 50.6319H657.723V55.0519H657.403L656.383 53.4119H653.063V58.5719H658.303L659.623 55.9319H659.943V59.6719H649.343ZM326.159 87.6719V87.3519L327.779 86.5519V75.5919L326.159 74.7919V74.4719H331.719C333.119 74.4719 334.219 74.7652 335.019 75.3519C335.832 75.9252 336.239 76.7185 336.239 77.7319C336.239 78.4785 335.986 79.1385 335.479 79.7119C334.972 80.2852 334.306 80.7252 333.479 81.0319L337.259 86.6119L338.599 87.3519V87.6719H335.379L331.539 81.5919H329.879V86.5319L331.379 87.3519V87.6719H326.159ZM331.059 75.5719H329.879V80.5319H331.179C332.006 80.5319 332.686 80.2985 333.219 79.8319C333.766 79.3519 334.039 78.7452 334.039 78.0119C334.039 77.2519 333.772 76.6585 333.239 76.2319C332.719 75.7919 331.992 75.5719 331.059 75.5719ZM340.694 87.6719V87.3519L342.314 86.5519V75.5919L340.694 74.7919V74.4719H350.734V77.9119H350.414L349.114 75.5719H344.414V80.3119H347.734L348.754 78.6319H349.074V83.0519H348.754L347.734 81.4119H344.414V86.5719H349.654L350.974 83.9319H351.294V87.6719H340.694ZM357.418 87.6719V87.3519L359.438 86.5519V75.5719H356.278L354.858 78.5919H354.538V74.4719H366.418V78.5919H366.098L364.698 75.5719H361.518V86.5519L363.558 87.3519V87.6719H357.418ZM376.451 87.8719C375.425 87.8719 374.505 87.6852 373.691 87.3119C372.878 86.9385 372.238 86.3519 371.771 85.5519C371.318 84.7519 371.091 83.7052 371.091 82.4119V75.5919L369.471 74.7919V74.4719H374.811V74.7919L373.191 75.5919V82.1919C373.191 83.2985 373.365 84.1785 373.711 84.8319C374.058 85.4719 374.525 85.9319 375.111 86.2119C375.698 86.4919 376.358 86.6319 377.091 86.6319C377.678 86.6319 378.218 86.5119 378.711 86.2719C379.218 86.0185 379.618 85.6185 379.911 85.0719C380.218 84.5119 380.371 83.7852 380.371 82.8919V75.5519L378.411 74.7919V74.4719H383.391V74.7919L381.771 75.5719V82.4119C381.771 83.7052 381.538 84.7519 381.071 85.5519C380.618 86.3519 379.991 86.9385 379.191 87.3119C378.391 87.6852 377.478 87.8719 376.451 87.8719ZM386.8 87.6719V87.3519L388.42 86.5519V75.5919L386.8 74.7919V74.4719H392.36C393.76 74.4719 394.86 74.7652 395.66 75.3519C396.473 75.9252 396.88 76.7185 396.88 77.7319C396.88 78.4785 396.626 79.1385 396.12 79.7119C395.613 80.2852 394.946 80.7252 394.12 81.0319L397.9 86.6119L399.24 87.3519V87.6719H396.02L392.18 81.5919H390.52V86.5319L392.02 87.3519V87.6719H386.8ZM391.7 75.5719H390.52V80.5319H391.82C392.646 80.5319 393.326 80.2985 393.86 79.8319C394.406 79.3519 394.68 78.7452 394.68 78.0119C394.68 77.2519 394.413 76.6585 393.88 76.2319C393.36 75.7919 392.633 75.5719 391.7 75.5719ZM401.255 87.6719V87.3519L402.875 86.5519V75.6319L401.275 74.7919V74.4719H404.415L412.075 83.8919V75.5719L410.015 74.7919V74.4719H415.075V74.7919L413.475 75.5719V87.7719H412.615L404.275 77.5319V86.5719L406.335 87.3519V87.6719H401.255ZM422.509 87.8719C421.669 87.8719 420.949 87.7919 420.349 87.6319C419.763 87.4719 419.156 87.2385 418.529 86.9319L418.329 83.6319H418.649L419.709 85.8119C420.176 86.1985 420.636 86.4785 421.089 86.6519C421.543 86.8252 421.996 86.9119 422.449 86.9119C423.223 86.9119 423.829 86.7119 424.269 86.3119C424.723 85.9119 424.949 85.3652 424.949 84.6719C424.949 84.1252 424.823 83.6919 424.569 83.3719C424.329 83.0385 423.963 82.7452 423.469 82.4919C422.989 82.2252 422.396 81.9185 421.689 81.5719C420.743 81.1185 420.016 80.6452 419.509 80.1519C419.003 79.6452 418.749 78.9385 418.749 78.0319C418.749 77.5519 418.863 77.0919 419.089 76.6519C419.329 76.1985 419.649 75.7985 420.049 75.4519C420.449 75.0919 420.896 74.8052 421.389 74.5919C421.883 74.3785 422.396 74.2719 422.929 74.2719C423.556 74.2719 424.143 74.3452 424.689 74.4919C425.236 74.6385 425.776 74.8519 426.309 75.1319L426.509 78.3319H426.189L425.149 76.1919C424.723 75.8585 424.336 75.6185 423.989 75.4719C423.643 75.3252 423.249 75.2519 422.809 75.2519C422.236 75.2519 421.756 75.4452 421.369 75.8319C420.996 76.2185 420.809 76.7052 420.809 77.2919C420.809 77.9452 421.009 78.4585 421.409 78.8319C421.823 79.2052 422.483 79.6052 423.389 80.0319C424.189 80.4185 424.849 80.7919 425.369 81.1519C425.903 81.4985 426.296 81.8919 426.549 82.3319C426.803 82.7719 426.929 83.3319 426.929 84.0119C426.929 84.6385 426.796 85.1919 426.529 85.6719C426.263 86.1519 425.909 86.5585 425.469 86.8919C425.029 87.2119 424.549 87.4585 424.029 87.6319C423.523 87.7919 423.016 87.8719 422.509 87.8719ZM443.03 87.8719C442.07 87.8719 441.176 87.7052 440.35 87.3719C439.536 87.0252 438.823 86.5519 438.21 85.9519C437.61 85.3385 437.143 84.6185 436.81 83.7919C436.476 82.9652 436.31 82.0585 436.31 81.0719C436.31 80.0852 436.476 79.1785 436.81 78.3519C437.143 77.5252 437.61 76.8119 438.21 76.2119C438.823 75.5985 439.536 75.1252 440.35 74.7919C441.176 74.4452 442.07 74.2719 443.03 74.2719C443.99 74.2719 444.876 74.4452 445.69 74.7919C446.516 75.1252 447.23 75.5985 447.83 76.2119C448.443 76.8119 448.916 77.5252 449.25 78.3519C449.596 79.1785 449.77 80.0852 449.77 81.0719C449.77 82.0585 449.596 82.9652 449.25 83.7919C448.916 84.6185 448.443 85.3385 447.83 85.9519C447.23 86.5519 446.516 87.0252 445.69 87.3719C444.876 87.7052 443.99 87.8719 443.03 87.8719ZM443.43 86.8719C444.243 86.8719 444.956 86.6585 445.57 86.2319C446.183 85.8052 446.663 85.2052 447.01 84.4319C447.356 83.6585 447.53 82.7452 447.53 81.6919C447.53 80.3985 447.316 79.2719 446.89 78.3119C446.463 77.3385 445.883 76.5852 445.15 76.0519C444.416 75.5185 443.603 75.2519 442.71 75.2519C441.896 75.2519 441.176 75.4652 440.55 75.8919C439.923 76.3052 439.43 76.8985 439.07 77.6719C438.723 78.4452 438.55 79.3585 438.55 80.4119C438.55 81.7052 438.763 82.8385 439.19 83.8119C439.63 84.7852 440.216 85.5385 440.95 86.0719C441.696 86.6052 442.523 86.8719 443.43 86.8719ZM453.184 87.6719V87.3519L454.804 86.5519V75.6319L453.204 74.7919V74.4719H456.344L464.004 83.8919V75.5719L461.944 74.7919V74.4719H467.004V74.7919L465.404 75.5719V87.7719H464.544L456.204 77.5319V86.5719L458.264 87.3519V87.6719H453.184ZM476.319 87.6719V87.3519L477.939 86.5519V75.5919L476.319 74.7919V74.4719H481.699C482.592 74.4719 483.392 74.5852 484.099 74.8119C484.819 75.0252 485.379 75.3519 485.779 75.7919C486.192 76.2185 486.399 76.7652 486.399 77.4319C486.399 78.1119 486.166 78.7385 485.699 79.3119C485.232 79.8719 484.559 80.2719 483.679 80.5119C484.892 80.6719 485.839 81.0452 486.519 81.6319C487.212 82.2052 487.559 82.9385 487.559 83.8319C487.559 84.5652 487.326 85.2252 486.859 85.8119C486.392 86.3852 485.752 86.8385 484.939 87.1719C484.126 87.5052 483.199 87.6719 482.159 87.6719H476.319ZM481.119 75.5719H480.039V80.3319H481.219C482.166 80.3319 482.899 80.1252 483.419 79.7119C483.939 79.2985 484.199 78.7319 484.199 78.0119C484.199 76.3852 483.172 75.5719 481.119 75.5719ZM481.859 81.3919H480.039V86.5719H481.999C483.026 86.5719 483.832 86.3319 484.419 85.8519C485.019 85.3585 485.319 84.7319 485.319 83.9719C485.319 83.0785 485.019 82.4252 484.419 82.0119C483.819 81.5985 482.966 81.3919 481.859 81.3919ZM490.698 87.6719V87.3519L492.318 86.5519V75.5919L490.698 74.7919V74.4719H496.258C497.658 74.4719 498.758 74.7652 499.558 75.3519C500.371 75.9252 500.778 76.7185 500.778 77.7319C500.778 78.4785 500.525 79.1385 500.018 79.7119C499.511 80.2852 498.845 80.7252 498.018 81.0319L501.798 86.6119L503.138 87.3519V87.6719H499.918L496.078 81.5919H494.418V86.5319L495.918 87.3519V87.6719H490.698ZM495.598 75.5719H494.418V80.5319H495.718C496.545 80.5319 497.225 80.2985 497.758 79.8319C498.305 79.3519 498.578 78.7452 498.578 78.0119C498.578 77.2519 498.311 76.6585 497.778 76.2319C497.258 75.7919 496.531 75.5719 495.598 75.5719ZM504.516 87.6719V87.3519L505.776 86.6919L510.916 74.3719H512.016L517.096 86.6319L518.436 87.3519V87.6719H513.156V87.3519L514.916 86.6519L513.436 83.0519H508.616L507.156 86.6719L508.836 87.3519V87.6719H504.516ZM509.076 81.9519H512.996L511.036 77.1319L509.076 81.9519ZM521.313 87.6719V87.3519L522.953 86.5519V75.5919L521.313 74.7919V74.4719H526.653V74.7919L525.033 75.5919V86.5519L526.653 87.3519V87.6719H521.313ZM530.044 87.6719V87.3519L531.664 86.5519V75.6319L530.064 74.7919V74.4719H533.204L540.864 83.8919V75.5719L538.804 74.7919V74.4719H543.864V74.7919L542.264 75.5719V87.7719H541.404L533.064 77.5319V86.5719L535.124 87.3519V87.6719H530.044ZM552.579 87.6719V87.3519L553.839 86.6919L558.979 74.3719H560.079L565.159 86.6319L566.499 87.3519V87.6719H561.219V87.3519L562.979 86.6519L561.499 83.0519H556.679L555.219 86.6719L556.899 87.3519V87.6719H552.579ZM557.139 81.9519H561.059L559.099 77.1319L557.139 81.9519ZM575.53 87.8719C574.57 87.8719 573.676 87.7119 572.85 87.3919C572.036 87.0719 571.33 86.6252 570.73 86.0519C570.13 85.4652 569.656 84.7785 569.31 83.9919C568.976 83.2052 568.81 82.3452 568.81 81.4119C568.81 80.3852 568.996 79.4385 569.37 78.5719C569.756 77.7052 570.283 76.9519 570.95 76.3119C571.616 75.6585 572.383 75.1585 573.25 74.8119C574.116 74.4519 575.043 74.2719 576.03 74.2719C576.736 74.2719 577.336 74.3119 577.83 74.3919C578.323 74.4719 578.763 74.5852 579.15 74.7319C579.55 74.8785 579.936 75.0452 580.31 75.2319L580.43 78.5919H580.11L578.67 76.1919C578.15 75.8452 577.703 75.6052 577.33 75.4719C576.956 75.3385 576.523 75.2719 576.03 75.2719C575.043 75.2719 574.163 75.4985 573.39 75.9519C572.616 76.4052 572.01 77.0319 571.57 77.8319C571.13 78.6319 570.91 79.5452 570.91 80.5719C570.91 81.8652 571.143 82.9719 571.61 83.8919C572.076 84.8119 572.696 85.5185 573.47 86.0119C574.256 86.4919 575.136 86.7319 576.11 86.7319C576.496 86.7319 576.876 86.7119 577.25 86.6719C577.636 86.6185 578.023 86.5252 578.41 86.3919V82.9719L576.63 82.1519V81.8319H581.91V82.1519L580.51 83.0319V86.1919C580.11 86.5385 579.63 86.8385 579.07 87.0919C578.51 87.3319 577.923 87.5252 577.31 87.6719C576.696 87.8052 576.103 87.8719 575.53 87.8719ZM585.083 87.6719V87.3519L586.723 86.5519V75.5919L585.083 74.7919V74.4719H590.423V74.7919L588.803 75.5919V86.5519L590.423 87.3519V87.6719H585.083ZM593.813 87.6719V87.3519L595.433 86.5519V75.6319L593.833 74.7919V74.4719H596.973L604.633 83.8919V75.5719L602.573 74.7919V74.4719H607.633V74.7919L606.033 75.5719V87.7719H605.173L596.833 77.5319V86.5719L598.893 87.3519V87.6719H593.813ZM617.768 87.8719C616.808 87.8719 615.915 87.7119 615.088 87.3919C614.275 87.0719 613.568 86.6252 612.968 86.0519C612.368 85.4652 611.895 84.7785 611.548 83.9919C611.215 83.2052 611.048 82.3452 611.048 81.4119C611.048 80.3852 611.235 79.4385 611.608 78.5719C611.995 77.7052 612.521 76.9519 613.188 76.3119C613.855 75.6585 614.621 75.1585 615.488 74.8119C616.355 74.4519 617.281 74.2719 618.268 74.2719C618.975 74.2719 619.575 74.3119 620.068 74.3919C620.561 74.4719 621.001 74.5852 621.388 74.7319C621.788 74.8785 622.175 75.0452 622.548 75.2319L622.668 78.5919H622.348L620.908 76.1919C620.388 75.8452 619.941 75.6052 619.568 75.4719C619.195 75.3385 618.761 75.2719 618.268 75.2719C617.281 75.2719 616.401 75.4985 615.628 75.9519C614.855 76.4052 614.248 77.0319 613.808 77.8319C613.368 78.6319 613.148 79.5452 613.148 80.5719C613.148 81.8652 613.381 82.9719 613.848 83.8919C614.315 84.8119 614.935 85.5185 615.708 86.0119C616.495 86.4919 617.375 86.7319 618.348 86.7319C618.735 86.7319 619.115 86.7119 619.488 86.6719C619.875 86.6185 620.261 86.5252 620.648 86.3919V82.9719L618.868 82.1519V81.8319H624.148V82.1519L622.748 83.0319V86.1919C622.348 86.5385 621.868 86.8385 621.308 87.0919C620.748 87.3319 620.161 87.5252 619.548 87.6719C618.935 87.8052 618.341 87.8719 617.768 87.8719Z" fill="black"/>
<path d="M287.674 62.5719H662.326V63.5719H287.674V62.5719ZM324.959 90.5719H625.048V91.5719H324.959V90.5719Z" fill="black"/>
<rect x="202.993" y="556.739" width="135.413" height="1.9869" fill="#BE8DD2" stroke="black" stroke-width="0.853927"/>
<rect x="400.771" y="552.669" width="135.413" height="6.05421" fill="#CAE9FF" stroke="black" stroke-width="0.853927"/>
<path d="M207.353 595.078V594.822L208.713 594.166V585.43L207.353 584.774V584.518H212.489V584.774L211.129 585.43V594.166L212.489 594.822V595.078H207.353ZM214.698 595.078V594.822L216.058 594.166V585.446L214.698 584.774V584.518H217.738L223.946 591.526V585.414L222.122 584.774V584.518H226.41V584.774L225.066 585.43V595.158H224.074L217.178 587.446V594.166L219.002 594.822V595.078H214.698ZM233.522 595.158L229.266 585.398L228.13 584.774V584.518H233.122V584.774L231.81 585.398L234.658 591.942H234.786L237.602 585.382L236.306 584.774V584.518H239.73V584.774L238.802 585.286L234.45 595.158H233.522ZM241.549 595.078V594.822L242.909 594.166V585.43L241.549 584.774V584.518H250.269V587.286H250.013L248.829 585.398H245.325V589.19H247.789L248.685 587.814H248.941V591.414H248.685L247.789 590.07H245.325V594.198H249.213L250.461 591.814H250.717V595.078H241.549ZM256.872 595.238C256.168 595.238 255.544 595.169 255 595.03C254.466 594.881 253.949 594.678 253.448 594.422L253.288 591.718H253.576L254.712 593.686C255 593.921 255.309 594.102 255.64 594.23C255.981 594.358 256.328 594.422 256.68 594.422C257.256 594.422 257.725 594.289 258.088 594.022C258.45 593.745 258.632 593.339 258.632 592.806C258.632 592.443 258.546 592.145 258.376 591.91C258.216 591.675 257.944 591.457 257.56 591.254C257.176 591.041 256.648 590.785 255.976 590.486C255.218 590.155 254.637 589.761 254.232 589.302C253.826 588.843 253.624 588.273 253.624 587.59C253.624 587.163 253.73 586.758 253.944 586.374C254.168 585.979 254.461 585.633 254.824 585.334C255.197 585.025 255.608 584.785 256.056 584.614C256.514 584.443 256.984 584.358 257.464 584.358C258.008 584.358 258.53 584.422 259.032 584.55C259.533 584.678 259.997 584.859 260.424 585.094L260.584 587.654H260.312L259.192 585.846C258.914 585.633 258.642 585.473 258.376 585.366C258.12 585.249 257.826 585.19 257.496 585.19C257.058 585.19 256.696 585.329 256.408 585.606C256.12 585.883 255.976 586.251 255.976 586.71C255.976 587.147 256.13 587.51 256.44 587.798C256.76 588.075 257.309 588.39 258.088 588.742C259.058 589.19 259.773 589.649 260.232 590.118C260.69 590.587 260.92 591.206 260.92 591.974C260.92 592.657 260.722 593.243 260.328 593.734C259.933 594.225 259.426 594.598 258.808 594.854C258.189 595.11 257.544 595.238 256.872 595.238ZM265.196 595.078V594.822L266.892 594.166V585.398H264.604L263.324 588.038H263.068V584.518H273.132V588.038H272.876L271.596 585.398H269.308V594.166L271.004 594.822V595.078H265.196ZM275.183 595.078V594.822L276.543 594.166L276.879 585.43L275.471 584.774V584.518H279.439L282.655 591.958L285.839 584.518H289.679V584.774L288.287 585.27L288.559 594.166L289.775 594.822V595.078H284.927V594.822L286.207 594.182L286.047 586.582L282.399 595.158H281.503L277.823 586.614L277.615 594.182L279.007 594.822V595.078H275.183ZM291.937 595.078V594.822L293.297 594.166V585.43L291.937 584.774V584.518H300.657V587.286H300.401L299.217 585.398H295.713V589.19H298.177L299.073 587.814H299.329V591.414H299.073L298.177 590.07H295.713V594.198H299.601L300.849 591.814H301.105V595.078H291.937ZM303.595 595.078V594.822L304.955 594.166V585.446L303.595 584.774V584.518H306.635L312.843 591.526V585.414L311.019 584.774V584.518H315.307V584.774L313.963 585.43V595.158H312.971L306.075 587.446V594.166L307.899 594.822V595.078H303.595ZM319.49 595.078V594.822L321.186 594.166V585.398H318.898L317.618 588.038H317.362V584.518H327.426V588.038H327.17L325.89 585.398H323.602V594.166L325.298 594.822V595.078H319.49Z" fill="black"/>
<path d="M423.917 595.078V594.822L425.437 594.262V586.358L422.781 587.558V586.918L426.765 584.518H427.773V594.262L429.133 594.822V595.078H423.917ZM439.574 595.078V594.822L441.014 594.166V590.15L437.526 585.398L436.438 584.774V584.518H441.382V584.774L440.182 585.366V585.43L442.966 589.19L445.462 585.462V585.398L444.23 584.774V584.518H447.878V584.774L446.806 585.302L443.43 590.134V594.166L444.854 594.822V595.078H439.574ZM449.684 595.078V594.822L451.044 594.166V585.43L449.684 584.774V584.518H458.404V587.286H458.148L456.964 585.398H453.46V589.19H455.924L456.82 587.814H457.076V591.414H456.82L455.924 590.07H453.46V594.198H457.348L458.596 591.814H458.852V595.078H449.684ZM460.975 595.078V594.822L461.951 594.278L466.127 584.438H467.535L471.663 594.246L472.751 594.822V595.078H467.695V594.822L469.087 594.246L467.999 591.59H464.207L463.119 594.246L464.447 594.822V595.078H460.975ZM464.575 590.71H467.631L466.111 586.982L464.575 590.71ZM474.565 595.078V594.822L475.925 594.166V585.43L474.565 584.774V584.518H480.037C481.157 584.518 482.037 584.753 482.677 585.222C483.328 585.681 483.653 586.315 483.653 587.126C483.653 587.713 483.456 588.219 483.061 588.646C482.667 589.062 482.149 589.393 481.509 589.638L484.469 594.182L485.621 594.822V595.078H482.149L479.189 590.182H478.341V594.15L479.541 594.822V595.078H474.565ZM478.981 585.398H478.341V589.398H479.077C479.739 589.398 480.261 589.211 480.645 588.838C481.029 588.465 481.221 587.979 481.221 587.382C481.221 586.753 481.029 586.267 480.645 585.926C480.272 585.574 479.717 585.398 478.981 585.398ZM497.39 595.238C496.601 595.238 495.87 595.105 495.198 594.838C494.526 594.561 493.94 594.182 493.438 593.702C492.948 593.211 492.564 592.635 492.286 591.974C492.009 591.313 491.87 590.587 491.87 589.798C491.87 589.009 492.009 588.283 492.286 587.622C492.564 586.961 492.948 586.39 493.438 585.91C493.94 585.419 494.526 585.041 495.198 584.774C495.87 584.497 496.601 584.358 497.39 584.358C498.19 584.358 498.926 584.497 499.598 584.774C500.27 585.041 500.852 585.419 501.342 585.91C501.844 586.39 502.233 586.961 502.51 587.622C502.788 588.283 502.926 589.009 502.926 589.798C502.926 590.587 502.788 591.313 502.51 591.974C502.233 592.635 501.844 593.211 501.342 593.702C500.852 594.182 500.27 594.561 499.598 594.838C498.926 595.105 498.19 595.238 497.39 595.238ZM497.646 594.406C498.18 594.406 498.649 594.235 499.054 593.894C499.47 593.553 499.79 593.073 500.014 592.454C500.249 591.835 500.366 591.11 500.366 590.278C500.366 589.254 500.222 588.358 499.934 587.59C499.657 586.822 499.278 586.23 498.798 585.814C498.318 585.387 497.78 585.174 497.182 585.174C496.649 585.174 496.174 585.345 495.758 585.686C495.342 586.017 495.012 586.491 494.766 587.11C494.532 587.729 494.414 588.454 494.414 589.286C494.414 590.31 494.558 591.206 494.846 591.974C495.134 592.742 495.524 593.339 496.014 593.766C496.505 594.193 497.049 594.406 497.646 594.406ZM505.215 595.078V594.822L506.575 594.166V585.43L505.215 584.774V584.518H513.775V587.286H513.519L512.431 585.398H508.991V589.238H511.295L512.191 587.862H512.447V591.366H512.191L511.295 590.022H508.991V594.166L510.623 594.822V595.078H505.215ZM415.745 611.078V610.822L417.105 610.166V601.43L415.745 600.774V600.518H421.217C422.337 600.518 423.217 600.753 423.857 601.222C424.508 601.681 424.833 602.315 424.833 603.126C424.833 603.713 424.636 604.219 424.241 604.646C423.846 605.062 423.329 605.393 422.689 605.638L425.649 610.182L426.801 610.822V611.078H423.329L420.369 606.182H419.521V610.15L420.721 610.822V611.078H415.745ZM420.161 601.398H419.521V605.398H420.257C420.918 605.398 421.441 605.211 421.825 604.838C422.209 604.465 422.401 603.979 422.401 603.382C422.401 602.753 422.209 602.267 421.825 601.926C421.452 601.574 420.897 601.398 420.161 601.398ZM428.17 611.078V610.822L429.53 610.166V601.43L428.17 600.774V600.518H436.89V603.286H436.634L435.45 601.398H431.946V605.19H434.41L435.306 603.814H435.562V607.414H435.306L434.41 606.07H431.946V610.198H435.834L437.082 607.814H437.338V611.078H428.17ZM441.861 611.078V610.822L443.557 610.166V601.398H441.269L439.989 604.038H439.733V600.518H449.797V604.038H449.541L448.261 601.398H445.973V610.166L447.669 610.822V611.078H441.861ZM457.943 611.238C457.015 611.238 456.199 611.089 455.495 610.79C454.791 610.481 454.242 609.985 453.847 609.302C453.453 608.609 453.255 607.686 453.255 606.534V601.43L451.879 600.774V600.518H457.047V600.774L455.671 601.43V606.55C455.671 607.435 455.805 608.134 456.071 608.646C456.349 609.147 456.717 609.505 457.175 609.718C457.645 609.931 458.162 610.038 458.727 610.038C459.197 610.038 459.634 609.942 460.039 609.75C460.445 609.558 460.77 609.249 461.015 608.822C461.261 608.385 461.383 607.814 461.383 607.11V601.398L459.879 600.774V600.518H463.879V600.774L462.503 601.414V606.534C462.503 607.686 462.311 608.609 461.927 609.302C461.543 609.985 461.01 610.481 460.327 610.79C459.645 611.089 458.85 611.238 457.943 611.238ZM466.086 611.078V610.822L467.446 610.166V601.43L466.086 600.774V600.518H471.558C472.678 600.518 473.558 600.753 474.198 601.222C474.848 601.681 475.174 602.315 475.174 603.126C475.174 603.713 474.976 604.219 474.582 604.646C474.187 605.062 473.67 605.393 473.03 605.638L475.99 610.182L477.142 610.822V611.078H473.67L470.71 606.182H469.862V610.15L471.062 610.822V611.078H466.086ZM470.502 601.398H469.862V605.398H470.598C471.259 605.398 471.782 605.211 472.166 604.838C472.55 604.465 472.742 603.979 472.742 603.382C472.742 602.753 472.55 602.267 472.166 601.926C471.792 601.574 471.238 601.398 470.502 601.398ZM478.479 611.078V610.822L479.839 610.166V601.446L478.479 600.774V600.518H481.519L487.727 607.526V601.414L485.903 600.774V600.518H490.191V600.774L488.847 601.43V611.158H487.855L480.959 603.446V610.166L482.783 610.822V611.078H478.479ZM499.173 611.078V610.822L500.869 610.166V601.398H498.581L497.301 604.038H497.045V600.518H507.109V604.038H506.853L505.573 601.398H503.285V610.166L504.981 610.822V611.078H499.173ZM514.792 611.238C514.003 611.238 513.272 611.105 512.6 610.838C511.928 610.561 511.341 610.182 510.84 609.702C510.349 609.211 509.965 608.635 509.688 607.974C509.411 607.313 509.272 606.587 509.272 605.798C509.272 605.009 509.411 604.283 509.688 603.622C509.965 602.961 510.349 602.39 510.84 601.91C511.341 601.419 511.928 601.041 512.6 600.774C513.272 600.497 514.003 600.358 514.792 600.358C515.592 600.358 516.328 600.497 517 600.774C517.672 601.041 518.253 601.419 518.744 601.91C519.245 602.39 519.635 602.961 519.912 603.622C520.189 604.283 520.328 605.009 520.328 605.798C520.328 606.587 520.189 607.313 519.912 607.974C519.635 608.635 519.245 609.211 518.744 609.702C518.253 610.182 517.672 610.561 517 610.838C516.328 611.105 515.592 611.238 514.792 611.238ZM515.048 610.406C515.581 610.406 516.051 610.235 516.456 609.894C516.872 609.553 517.192 609.073 517.416 608.454C517.651 607.835 517.768 607.11 517.768 606.278C517.768 605.254 517.624 604.358 517.336 603.59C517.059 602.822 516.68 602.23 516.2 601.814C515.72 601.387 515.181 601.174 514.584 601.174C514.051 601.174 513.576 601.345 513.16 601.686C512.744 602.017 512.413 602.491 512.168 603.11C511.933 603.729 511.816 604.454 511.816 605.286C511.816 606.31 511.96 607.206 512.248 607.974C512.536 608.742 512.925 609.339 513.416 609.766C513.907 610.193 514.451 610.406 515.048 610.406ZM455.667 626.238C454.899 626.238 454.179 626.11 453.507 625.854C452.846 625.587 452.259 625.219 451.747 624.75C451.246 624.281 450.851 623.731 450.563 623.102C450.286 622.462 450.147 621.769 450.147 621.022C450.147 620.201 450.307 619.449 450.627 618.766C450.947 618.073 451.39 617.47 451.955 616.958C452.521 616.446 453.166 616.051 453.891 615.774C454.617 615.497 455.379 615.358 456.179 615.358C456.745 615.358 457.225 615.39 457.619 615.454C458.025 615.518 458.382 615.609 458.691 615.726C459.011 615.843 459.326 615.977 459.635 616.126L459.811 618.942H459.523L457.987 616.622C457.699 616.441 457.422 616.318 457.155 616.254C456.889 616.179 456.585 616.142 456.243 616.142C455.571 616.142 454.963 616.334 454.419 616.718C453.875 617.102 453.443 617.641 453.123 618.334C452.803 619.017 452.643 619.817 452.643 620.734C452.643 621.694 452.798 622.521 453.107 623.214C453.417 623.897 453.833 624.425 454.355 624.798C454.889 625.171 455.481 625.358 456.131 625.358C456.313 625.358 456.51 625.353 456.723 625.342C456.937 625.321 457.15 625.289 457.363 625.246V622.286L455.939 621.534V621.278H460.963V621.534L459.763 622.302V624.894C459.433 625.171 459.033 625.411 458.563 625.614C458.105 625.806 457.619 625.961 457.107 626.078C456.606 626.185 456.126 626.238 455.667 626.238ZM462.945 626.078V625.822L464.305 625.166V616.43L462.945 615.774V615.518H468.401C469.67 615.518 470.748 615.726 471.633 616.142C472.518 616.558 473.19 617.129 473.649 617.854C474.118 618.579 474.353 619.401 474.353 620.318C474.353 621.15 474.198 621.918 473.889 622.622C473.59 623.326 473.169 623.934 472.625 624.446C472.081 624.958 471.441 625.358 470.705 625.646C469.969 625.934 469.164 626.078 468.289 626.078H462.945ZM467.745 616.398H466.721V625.198H467.969C469.206 625.198 470.161 624.803 470.833 624.014C471.505 623.214 471.841 622.147 471.841 620.814C471.841 619.47 471.494 618.398 470.801 617.598C470.118 616.798 469.1 616.398 467.745 616.398ZM476.573 626.078V625.822L477.933 625.166V616.43L476.573 615.774V615.518H482.109C483.368 615.518 484.376 615.747 485.133 616.206C485.901 616.654 486.285 617.374 486.285 618.366C486.285 618.963 486.082 619.491 485.677 619.95C485.282 620.398 484.744 620.75 484.061 621.006C483.378 621.251 482.6 621.374 481.725 621.374H480.349V625.166L481.981 625.822V626.078H476.573ZM480.349 616.398V620.59H481.117C481.97 620.59 482.637 620.393 483.117 619.998C483.597 619.603 483.837 619.107 483.837 618.51C483.837 617.763 483.592 617.225 483.101 616.894C482.61 616.563 481.917 616.398 481.021 616.398H480.349Z" fill="black"/>
<path d="M611.677 595.078V594.822L613.037 594.166V585.43L611.677 584.774V584.518H616.973V584.774L615.453 585.43V594.198H618.973L620.269 591.174H620.525V595.078H611.677ZM628.468 595.238C627.678 595.238 626.948 595.105 626.276 594.838C625.604 594.561 625.017 594.182 624.516 593.702C624.025 593.211 623.641 592.635 623.364 591.974C623.086 591.313 622.948 590.587 622.948 589.798C622.948 589.009 623.086 588.283 623.364 587.622C623.641 586.961 624.025 586.39 624.516 585.91C625.017 585.419 625.604 585.041 626.276 584.774C626.948 584.497 627.678 584.358 628.468 584.358C629.268 584.358 630.004 584.497 630.676 584.774C631.348 585.041 631.929 585.419 632.42 585.91C632.921 586.39 633.31 586.961 633.588 587.622C633.865 588.283 634.004 589.009 634.004 589.798C634.004 590.587 633.865 591.313 633.588 591.974C633.31 592.635 632.921 593.211 632.42 593.702C631.929 594.182 631.348 594.561 630.676 594.838C630.004 595.105 629.268 595.238 628.468 595.238ZM628.724 594.406C629.257 594.406 629.726 594.235 630.132 593.894C630.548 593.553 630.868 593.073 631.092 592.454C631.326 591.835 631.444 591.11 631.444 590.278C631.444 589.254 631.3 588.358 631.012 587.59C630.734 586.822 630.356 586.23 629.876 585.814C629.396 585.387 628.857 585.174 628.26 585.174C627.726 585.174 627.252 585.345 626.836 585.686C626.42 586.017 626.089 586.491 625.844 587.11C625.609 587.729 625.492 588.454 625.492 589.286C625.492 590.31 625.636 591.206 625.924 591.974C626.212 592.742 626.601 593.339 627.092 593.766C627.582 594.193 628.126 594.406 628.724 594.406ZM636.261 595.078V594.822L637.621 594.166V585.446L636.261 584.774V584.518H639.301L645.509 591.526V585.414L643.685 584.774V584.518H647.973V584.774L646.629 585.43V595.158H645.637L638.741 587.446V594.166L640.565 594.822V595.078H636.261ZM655.771 595.238C655.003 595.238 654.283 595.11 653.611 594.854C652.95 594.587 652.363 594.219 651.851 593.75C651.35 593.281 650.955 592.731 650.667 592.102C650.39 591.462 650.251 590.769 650.251 590.022C650.251 589.201 650.411 588.449 650.731 587.766C651.051 587.073 651.494 586.47 652.059 585.958C652.624 585.446 653.27 585.051 653.995 584.774C654.72 584.497 655.483 584.358 656.283 584.358C656.848 584.358 657.328 584.39 657.723 584.454C658.128 584.518 658.486 584.609 658.795 584.726C659.115 584.843 659.43 584.977 659.739 585.126L659.915 587.942H659.627L658.091 585.622C657.803 585.441 657.526 585.318 657.259 585.254C656.992 585.179 656.688 585.142 656.347 585.142C655.675 585.142 655.067 585.334 654.523 585.718C653.979 586.102 653.547 586.641 653.227 587.334C652.907 588.017 652.747 588.817 652.747 589.734C652.747 590.694 652.902 591.521 653.211 592.214C653.52 592.897 653.936 593.425 654.459 593.798C654.992 594.171 655.584 594.358 656.235 594.358C656.416 594.358 656.614 594.353 656.827 594.342C657.04 594.321 657.254 594.289 657.467 594.246V591.286L656.043 590.534V590.278H661.067V590.534L659.867 591.302V593.894C659.536 594.171 659.136 594.411 658.667 594.614C658.208 594.806 657.723 594.961 657.211 595.078C656.71 595.185 656.23 595.238 655.771 595.238ZM663.284 591.526V590.406H667.684V591.526H663.284ZM671.396 595.078V594.822L673.092 594.166V585.398H670.804L669.524 588.038H669.268V584.518H679.332V588.038H679.076L677.796 585.398H675.508V594.166L677.204 594.822V595.078H671.396ZM681.414 595.078V594.822L682.774 594.166V585.43L681.414 584.774V584.518H690.134V587.286H689.878L688.694 585.398H685.19V589.19H687.654L688.55 587.814H688.806V591.414H688.55L687.654 590.07H685.19V594.198H689.078L690.326 591.814H690.582V595.078H681.414ZM693.105 595.078V594.822L694.465 594.166V585.43L693.105 584.774V584.518H698.577C699.697 584.518 700.577 584.753 701.217 585.222C701.868 585.681 702.193 586.315 702.193 587.126C702.193 587.713 701.996 588.219 701.601 588.646C701.206 589.062 700.689 589.393 700.049 589.638L703.009 594.182L704.161 594.822V595.078H700.689L697.729 590.182H696.881V594.15L698.081 594.822V595.078H693.105ZM697.521 585.398H696.881V589.398H697.617C698.278 589.398 698.801 589.211 699.185 588.838C699.569 588.465 699.761 587.979 699.761 587.382C699.761 586.753 699.569 586.267 699.185 585.926C698.812 585.574 698.257 585.398 697.521 585.398ZM705.498 595.078V594.822L706.858 594.166L707.194 585.43L705.786 584.774V584.518H709.754L712.97 591.958L716.154 584.518H719.994V584.774L718.602 585.27L718.874 594.166L720.09 594.822V595.078H715.242V594.822L716.522 594.182L716.362 586.582L712.714 595.158H711.818L708.138 586.614L707.93 594.182L709.322 594.822V595.078H705.498ZM592.399 611.078V610.822L593.759 610.166V601.43L592.399 600.774V600.518H597.871C598.991 600.518 599.871 600.753 600.511 601.222C601.161 601.681 601.487 602.315 601.487 603.126C601.487 603.713 601.289 604.219 600.895 604.646C600.5 605.062 599.983 605.393 599.343 605.638L602.303 610.182L603.455 610.822V611.078H599.983L597.023 606.182H596.175V610.15L597.375 610.822V611.078H592.399ZM596.815 601.398H596.175V605.398H596.911C597.572 605.398 598.095 605.211 598.479 604.838C598.863 604.465 599.055 603.979 599.055 603.382C599.055 602.753 598.863 602.267 598.479 601.926C598.105 601.574 597.551 601.398 596.815 601.398ZM604.824 611.078V610.822L606.184 610.166V601.43L604.824 600.774V600.518H613.544V603.286H613.288L612.104 601.398H608.6V605.19H611.064L611.96 603.814H612.216V607.414H611.96L611.064 606.07H608.6V610.198H612.488L613.736 607.814H613.992V611.078H604.824ZM618.514 611.078V610.822L620.21 610.166V601.398H617.922L616.642 604.038H616.386V600.518H626.45V604.038H626.194L624.914 601.398H622.626V610.166L624.322 610.822V611.078H618.514ZM634.597 611.238C633.669 611.238 632.853 611.089 632.149 610.79C631.445 610.481 630.896 609.985 630.501 609.302C630.106 608.609 629.909 607.686 629.909 606.534V601.43L628.533 600.774V600.518H633.701V600.774L632.325 601.43V606.55C632.325 607.435 632.458 608.134 632.725 608.646C633.002 609.147 633.37 609.505 633.829 609.718C634.298 609.931 634.816 610.038 635.381 610.038C635.85 610.038 636.288 609.942 636.693 609.75C637.098 609.558 637.424 609.249 637.669 608.822C637.914 608.385 638.037 607.814 638.037 607.11V601.398L636.533 600.774V600.518H640.533V600.774L639.157 601.414V606.534C639.157 607.686 638.965 608.609 638.581 609.302C638.197 609.985 637.664 610.481 636.981 610.79C636.298 611.089 635.504 611.238 634.597 611.238ZM642.739 611.078V610.822L644.099 610.166V601.43L642.739 600.774V600.518H648.211C649.331 600.518 650.211 600.753 650.851 601.222C651.502 601.681 651.827 602.315 651.827 603.126C651.827 603.713 651.63 604.219 651.235 604.646C650.841 605.062 650.323 605.393 649.683 605.638L652.643 610.182L653.795 610.822V611.078H650.323L647.363 606.182H646.515V610.15L647.715 610.822V611.078H642.739ZM647.155 601.398H646.515V605.398H647.251C647.913 605.398 648.435 605.211 648.819 604.838C649.203 604.465 649.395 603.979 649.395 603.382C649.395 602.753 649.203 602.267 648.819 601.926C648.446 601.574 647.891 601.398 647.155 601.398ZM655.132 611.078V610.822L656.492 610.166V601.446L655.132 600.774V600.518H658.172L664.38 607.526V601.414L662.556 600.774V600.518H666.844V600.774L665.5 601.43V611.158H664.508L657.612 603.446V610.166L659.436 610.822V611.078H655.132ZM675.827 611.078V610.822L677.523 610.166V601.398H675.235L673.955 604.038H673.699V600.518H683.763V604.038H683.507L682.227 601.398H679.939V610.166L681.635 610.822V611.078H675.827ZM691.446 611.238C690.656 611.238 689.926 611.105 689.254 610.838C688.582 610.561 687.995 610.182 687.494 609.702C687.003 609.211 686.619 608.635 686.342 607.974C686.064 607.313 685.926 606.587 685.926 605.798C685.926 605.009 686.064 604.283 686.342 603.622C686.619 602.961 687.003 602.39 687.494 601.91C687.995 601.419 688.582 601.041 689.254 600.774C689.926 600.497 690.656 600.358 691.446 600.358C692.246 600.358 692.982 600.497 693.654 600.774C694.326 601.041 694.907 601.419 695.398 601.91C695.899 602.39 696.288 602.961 696.566 603.622C696.843 604.283 696.982 605.009 696.982 605.798C696.982 606.587 696.843 607.313 696.566 607.974C696.288 608.635 695.899 609.211 695.398 609.702C694.907 610.182 694.326 610.561 693.654 610.838C692.982 611.105 692.246 611.238 691.446 611.238ZM691.702 610.406C692.235 610.406 692.704 610.235 693.11 609.894C693.526 609.553 693.846 609.073 694.07 608.454C694.304 607.835 694.422 607.11 694.422 606.278C694.422 605.254 694.278 604.358 693.99 603.59C693.712 602.822 693.334 602.23 692.854 601.814C692.374 601.387 691.835 601.174 691.238 601.174C690.704 601.174 690.23 601.345 689.814 601.686C689.398 602.017 689.067 602.491 688.822 603.11C688.587 603.729 688.47 604.454 688.47 605.286C688.47 606.31 688.614 607.206 688.902 607.974C689.19 608.742 689.579 609.339 690.07 609.766C690.56 610.193 691.104 610.406 691.702 610.406ZM709.687 611.238C708.919 611.238 708.199 611.11 707.527 610.854C706.865 610.587 706.279 610.219 705.767 609.75C705.265 609.281 704.871 608.731 704.583 608.102C704.305 607.462 704.167 606.769 704.167 606.022C704.167 605.201 704.327 604.449 704.647 603.766C704.967 603.073 705.409 602.47 705.975 601.958C706.54 601.446 707.185 601.051 707.911 600.774C708.636 600.497 709.399 600.358 710.199 600.358C710.764 600.358 711.244 600.39 711.639 600.454C712.044 600.518 712.401 600.609 712.711 600.726C713.031 600.843 713.345 600.977 713.655 601.126L713.831 603.942H713.543L712.007 601.622C711.719 601.441 711.441 601.318 711.175 601.254C710.908 601.179 710.604 601.142 710.263 601.142C709.591 601.142 708.983 601.334 708.439 601.718C707.895 602.102 707.463 602.641 707.143 603.334C706.823 604.017 706.663 604.817 706.663 605.734C706.663 606.694 706.817 607.521 707.127 608.214C707.436 608.897 707.852 609.425 708.375 609.798C708.908 610.171 709.5 610.358 710.151 610.358C710.332 610.358 710.529 610.353 710.743 610.342C710.956 610.321 711.169 610.289 711.383 610.246V607.286L709.959 606.534V606.278H714.983V606.534L713.783 607.302V609.894C713.452 610.171 713.052 610.411 712.583 610.614C712.124 610.806 711.639 610.961 711.127 611.078C710.625 611.185 710.145 611.238 709.687 611.238ZM716.964 611.078V610.822L718.324 610.166V601.43L716.964 600.774V600.518H722.42C723.69 600.518 724.767 600.726 725.652 601.142C726.538 601.558 727.21 602.129 727.668 602.854C728.138 603.579 728.372 604.401 728.372 605.318C728.372 606.15 728.218 606.918 727.908 607.622C727.61 608.326 727.188 608.934 726.644 609.446C726.1 609.958 725.46 610.358 724.724 610.646C723.988 610.934 723.183 611.078 722.308 611.078H716.964ZM721.764 601.398H720.74V610.198H721.988C723.226 610.198 724.18 609.803 724.852 609.014C725.524 608.214 725.86 607.147 725.86 605.814C725.86 604.47 725.514 603.398 724.82 602.598C724.138 601.798 723.119 601.398 721.764 601.398ZM730.593 611.078V610.822L731.953 610.166V601.43L730.593 600.774V600.518H736.129C737.387 600.518 738.395 600.747 739.153 601.206C739.921 601.654 740.305 602.374 740.305 603.366C740.305 603.963 740.102 604.491 739.697 604.95C739.302 605.398 738.763 605.75 738.081 606.006C737.398 606.251 736.619 606.374 735.745 606.374H734.369V610.166L736.001 610.822V611.078H730.593ZM734.369 601.398V605.59H735.137C735.99 605.59 736.657 605.393 737.137 604.998C737.617 604.603 737.857 604.107 737.857 603.51C737.857 602.763 737.611 602.225 737.121 601.894C736.63 601.563 735.937 601.398 735.041 601.398H734.369Z" fill="black"/>
<path d="M157.891 558.602L846.638 558.602" stroke="black" stroke-width="0.894371"/>
<path d="M157.891 438.266L845.238 438.266" stroke="black" stroke-width="0.426964" stroke-dasharray="1.79 1.79"/>
<path d="M157.891 317.75L845.238 317.75" stroke="black" stroke-width="0.426964" stroke-dasharray="1.79 1.79"/>
<path d="M157.891 197.227L845.238 197.227" stroke="black" stroke-width="0.426964" stroke-dasharray="1.79 1.79"/>
<rect x="598.552" y="198.263" width="135.413" height="360.465" fill="#FBE0F3" stroke="black" stroke-width="0.853927"/>
<path d="M427.239 543.287L427.683 540.589C427.182 540.407 426.738 540.179 426.351 539.906C425.987 539.632 425.679 539.359 425.429 539.086C424.7 538.243 424.336 537.344 424.336 536.388C424.336 535.249 424.825 534.68 425.804 534.68H426.727L426.897 534.816L426.761 535.739C426.51 537.401 426.897 538.528 427.922 539.12L429.562 529.283C428.514 528.645 427.74 527.928 427.239 527.131C426.738 526.334 426.487 525.355 426.487 524.193C426.487 523.237 426.704 522.36 427.136 521.563C427.592 520.744 428.184 520.038 428.913 519.446C429.664 518.831 430.495 518.375 431.406 518.079L431.884 515.278H433.148L432.738 517.772C433.125 517.704 433.512 517.669 433.9 517.669C434.173 517.669 434.423 517.681 434.651 517.704L435.061 515.278H436.291L435.847 517.909C436.302 518.022 436.7 518.182 437.042 518.387C437.384 518.569 437.702 518.797 437.998 519.07C438.408 519.457 438.704 519.867 438.886 520.3C439.069 520.709 439.16 521.131 439.16 521.563C439.16 522.611 438.659 523.135 437.657 523.135H436.735L436.598 522.998L436.735 522.076C436.917 520.846 436.53 520.004 435.573 519.548L434.036 528.805C435.152 529.579 435.949 530.364 436.427 531.161C436.928 531.958 437.179 532.892 437.179 533.962C437.179 535.625 436.7 537.025 435.744 538.164C434.788 539.302 433.569 540.088 432.089 540.521L431.645 543.287H430.381L430.791 540.794C430.359 540.862 429.915 540.896 429.459 540.896C429.277 540.896 429.095 540.885 428.913 540.862L428.503 543.287H427.239ZM432.431 527.78C432.613 527.871 432.772 527.973 432.909 528.087L434.412 519.207C434.093 519.161 433.752 519.138 433.387 519.138C433.091 519.138 432.795 519.161 432.499 519.207L431.201 526.994C431.543 527.245 431.953 527.507 432.431 527.78ZM428.947 523.305C428.947 523.875 429.026 524.376 429.186 524.808C429.345 525.241 429.641 525.674 430.074 526.106L431.167 519.616C430.484 519.958 429.937 520.448 429.527 521.085C429.14 521.723 428.947 522.463 428.947 523.305ZM429.459 539.496C430.028 539.496 430.552 539.439 431.03 539.325L432.431 531.059C431.953 530.717 431.383 530.353 430.723 529.966L429.118 539.496C429.231 539.496 429.345 539.496 429.459 539.496ZM434.651 534.782C434.651 534.258 434.56 533.769 434.378 533.313C434.218 532.858 433.934 532.425 433.524 532.015L432.397 538.847C433.171 538.437 433.74 537.868 434.105 537.139C434.469 536.41 434.651 535.625 434.651 534.782ZM445.24 540.896C443.896 540.896 442.78 540.725 441.892 540.384C441.027 540.042 440.355 539.655 439.877 539.223C439.513 538.881 439.251 538.562 439.091 538.266C438.932 537.97 438.852 537.651 438.852 537.31C438.852 536.718 438.955 536.308 439.16 536.08C439.365 535.83 439.627 535.704 439.945 535.704H441.722L441.892 535.943L441.722 537.071C441.608 537.799 441.79 538.414 442.268 538.915C442.769 539.393 443.725 539.632 445.137 539.632C446.162 539.632 447.073 539.382 447.87 538.881C448.69 538.38 449.327 537.72 449.783 536.9C450.238 536.057 450.466 535.124 450.466 534.099C450.466 532.755 450.022 531.674 449.134 530.854C448.268 530.034 447.13 529.624 445.718 529.624H443.634L443.942 528.122H444.966C446.264 528.122 447.392 527.86 448.348 527.336C449.304 526.789 450.044 526.095 450.568 525.252C451.092 524.387 451.354 523.476 451.354 522.52C451.354 521.518 451.069 520.675 450.5 519.992C449.931 519.286 449.156 518.933 448.177 518.933C447.244 518.933 446.435 519.172 445.752 519.651C445.069 520.106 444.648 520.823 444.488 521.802L444.283 523.135L443.976 523.408H442.61C442.245 523.408 441.972 523.362 441.79 523.271C441.608 523.18 441.517 522.975 441.517 522.656C441.517 522.155 441.733 521.552 442.166 520.846C442.598 520.14 443.281 519.514 444.215 518.967C444.875 518.58 445.57 518.273 446.299 518.045C447.027 517.795 447.87 517.669 448.826 517.669C449.919 517.669 450.864 517.909 451.661 518.387C452.458 518.842 453.073 519.446 453.506 520.197C453.961 520.949 454.189 521.746 454.189 522.588C454.189 523.362 453.95 524.137 453.472 524.911C452.993 525.685 452.322 526.391 451.456 527.028C450.614 527.643 449.646 528.087 448.553 528.361C450.01 528.702 451.172 529.351 452.037 530.308C452.902 531.264 453.335 532.437 453.335 533.826C453.335 534.646 453.119 535.477 452.686 536.319C452.276 537.139 451.695 537.902 450.944 538.608C450.192 539.291 449.327 539.849 448.348 540.281C447.369 540.691 446.333 540.896 445.24 540.896ZM461.601 540.896C459.848 540.896 458.504 540.247 457.57 538.949C456.66 537.629 456.204 535.795 456.204 533.45C456.204 531.355 456.455 529.363 456.956 527.473C457.457 525.582 458.151 523.897 459.039 522.417C459.927 520.937 460.941 519.776 462.079 518.933C463.218 518.091 464.413 517.669 465.666 517.669C467.419 517.669 468.751 518.33 469.662 519.651C470.596 520.971 471.062 522.804 471.062 525.15C471.062 527.222 470.812 529.203 470.311 531.093C469.81 532.983 469.116 534.668 468.227 536.148C467.339 537.629 466.326 538.79 465.187 539.632C464.072 540.475 462.876 540.896 461.601 540.896ZM462.079 539.393C462.876 539.393 463.639 539.018 464.368 538.266C465.096 537.492 465.734 536.444 466.28 535.124C466.85 533.803 467.294 532.277 467.613 530.547C467.954 528.793 468.125 526.949 468.125 525.013C468.125 521.119 467.146 519.172 465.187 519.172C464.39 519.172 463.628 519.559 462.899 520.334C462.17 521.085 461.521 522.133 460.952 523.476C460.405 524.797 459.961 526.323 459.62 528.053C459.301 529.784 459.142 531.628 459.142 533.587C459.142 537.458 460.121 539.393 462.079 539.393ZM477.996 540.896C476.243 540.896 474.899 540.247 473.966 538.949C473.055 537.629 472.6 535.795 472.6 533.45C472.6 531.355 472.85 529.363 473.351 527.473C473.852 525.582 474.546 523.897 475.435 522.417C476.323 520.937 477.336 519.776 478.475 518.933C479.613 518.091 480.809 517.669 482.061 517.669C483.814 517.669 485.147 518.33 486.057 519.651C486.991 520.971 487.458 522.804 487.458 525.15C487.458 527.222 487.207 529.203 486.706 531.093C486.205 532.983 485.511 534.668 484.623 536.148C483.735 537.629 482.721 538.79 481.583 539.632C480.467 540.475 479.272 540.896 477.996 540.896ZM478.475 539.393C479.272 539.393 480.034 539.018 480.763 538.266C481.492 537.492 482.129 536.444 482.676 535.124C483.245 533.803 483.689 532.277 484.008 530.547C484.35 528.793 484.52 526.949 484.52 525.013C484.52 521.119 483.541 519.172 481.583 519.172C480.786 519.172 480.023 519.559 479.294 520.334C478.566 521.085 477.917 522.133 477.347 523.476C476.801 524.797 476.357 526.323 476.015 528.053C475.696 529.784 475.537 531.628 475.537 533.587C475.537 537.458 476.516 539.393 478.475 539.393ZM488.243 540.555L488.346 540.008L491.181 538.642L494.46 519.924L492.103 518.558L492.206 518.011H499.584C501.861 518.011 503.671 518.41 505.015 519.207C506.381 520.004 507.064 521.199 507.064 522.793C507.064 524 506.609 525.15 505.698 526.243C504.81 527.336 503.534 528.087 501.872 528.497C503.648 528.793 504.98 529.397 505.869 530.308C506.779 531.196 507.235 532.334 507.235 533.723C507.235 534.816 506.87 535.887 506.142 536.934C505.413 537.982 504.32 538.847 502.863 539.53C501.405 540.213 499.595 540.555 497.432 540.555H488.243ZM499.481 519.719H497.398L495.929 528.087H498.115C500.05 528.087 501.496 527.643 502.453 526.755C503.409 525.844 503.887 524.717 503.887 523.374C503.887 522.167 503.546 521.256 502.863 520.641C502.18 520.026 501.052 519.719 499.481 519.719ZM498.627 529.795H495.621L494.05 538.847H497.739C499.857 538.847 501.428 538.38 502.453 537.446C503.5 536.513 504.024 535.272 504.024 533.723C504.024 532.357 503.591 531.366 502.726 530.752C501.861 530.114 500.494 529.795 498.627 529.795Z" fill="black"/>
<path d="M605.876 189.6L606.32 186.901C605.819 186.719 605.375 186.491 604.988 186.218C604.623 185.945 604.316 185.672 604.065 185.398C603.337 184.556 602.972 183.656 602.972 182.7C602.972 181.561 603.462 180.992 604.441 180.992H605.363L605.534 181.129L605.397 182.051C605.147 183.713 605.534 184.841 606.559 185.433L608.198 175.595C607.151 174.958 606.377 174.24 605.876 173.443C605.375 172.646 605.124 171.667 605.124 170.506C605.124 169.55 605.341 168.673 605.773 167.876C606.229 167.056 606.821 166.35 607.549 165.758C608.301 165.143 609.132 164.688 610.043 164.392L610.521 161.591H611.785L611.375 164.084C611.762 164.016 612.149 163.982 612.536 163.982C612.81 163.982 613.06 163.993 613.288 164.016L613.698 161.591H614.927L614.483 164.221C614.939 164.335 615.337 164.494 615.679 164.699C616.02 164.881 616.339 165.109 616.635 165.382C617.045 165.769 617.341 166.179 617.523 166.612C617.705 167.022 617.796 167.443 617.796 167.876C617.796 168.923 617.296 169.447 616.294 169.447H615.371L615.235 169.31L615.371 168.388C615.553 167.159 615.166 166.316 614.21 165.861L612.673 175.117C613.789 175.891 614.586 176.677 615.064 177.474C615.565 178.271 615.815 179.205 615.815 180.275C615.815 181.937 615.337 183.338 614.381 184.476C613.424 185.615 612.206 186.4 610.726 186.833L610.282 189.6H609.018L609.428 187.106C608.995 187.175 608.551 187.209 608.096 187.209C607.914 187.209 607.732 187.197 607.549 187.175L607.139 189.6H605.876ZM611.068 174.092C611.25 174.184 611.409 174.286 611.546 174.4L613.049 165.519C612.73 165.473 612.388 165.451 612.024 165.451C611.728 165.451 611.432 165.473 611.136 165.519L609.838 173.307C610.179 173.557 610.589 173.819 611.068 174.092ZM607.584 169.618C607.584 170.187 607.663 170.688 607.823 171.121C607.982 171.553 608.278 171.986 608.711 172.419L609.804 165.929C609.121 166.27 608.574 166.76 608.164 167.398C607.777 168.035 607.584 168.775 607.584 169.618ZM608.096 185.808C608.665 185.808 609.189 185.751 609.667 185.638L611.068 177.372C610.589 177.03 610.02 176.666 609.36 176.278L607.754 185.808C607.868 185.808 607.982 185.808 608.096 185.808ZM613.288 181.095C613.288 180.571 613.197 180.081 613.014 179.626C612.855 179.17 612.57 178.738 612.161 178.328L611.033 185.159C611.808 184.749 612.377 184.18 612.741 183.451C613.106 182.723 613.288 181.937 613.288 181.095ZM620.153 186.867L620.29 186.321L623.432 184.954L626.472 167.739L620.734 170.643L620.973 169.447L629.137 164.324H629.82L626.165 184.954L628.556 186.321L628.453 186.867H620.153ZM639.145 187.209C637.551 187.209 636.378 187.004 635.626 186.594C634.898 186.184 634.533 185.694 634.533 185.125C634.533 184.715 634.773 184.351 635.251 184.032L636.549 183.11H636.856L637.164 183.896C637.346 184.351 637.687 184.738 638.188 185.057C638.689 185.353 639.395 185.501 640.306 185.501C641.308 185.501 642.23 185.285 643.073 184.852C643.938 184.396 644.621 183.736 645.122 182.871C645.646 181.983 645.908 180.878 645.908 179.558C645.908 178.191 645.441 177.053 644.507 176.142C643.574 175.231 642.105 174.776 640.101 174.776C639.213 174.776 638.154 174.878 636.924 175.083L638.803 164.324H649.153L648.674 166.954H639.759L638.803 172.282C639.6 172.214 640.306 172.18 640.921 172.18C642.606 172.18 643.984 172.453 645.054 172.999C646.124 173.546 646.91 174.286 647.411 175.22C647.934 176.153 648.196 177.212 648.196 178.396C648.196 179.489 647.98 180.56 647.547 181.607C647.137 182.632 646.534 183.577 645.737 184.442C644.94 185.285 643.984 185.956 642.868 186.457C641.752 186.958 640.511 187.209 639.145 187.209ZM656.633 187.209C654.88 187.209 653.536 186.56 652.603 185.262C651.692 183.941 651.236 182.108 651.236 179.763C651.236 177.668 651.487 175.675 651.988 173.785C652.489 171.895 653.183 170.21 654.071 168.73C654.959 167.25 655.973 166.088 657.111 165.246C658.25 164.403 659.445 163.982 660.698 163.982C662.451 163.982 663.783 164.642 664.694 165.963C665.628 167.284 666.095 169.117 666.095 171.462C666.095 173.535 665.844 175.516 665.343 177.406C664.842 179.296 664.148 180.981 663.26 182.461C662.371 183.941 661.358 185.102 660.22 185.945C659.104 186.787 657.908 187.209 656.633 187.209ZM657.111 185.706C657.908 185.706 658.671 185.33 659.4 184.579C660.128 183.804 660.766 182.757 661.313 181.436C661.882 180.115 662.326 178.59 662.645 176.859C662.986 175.106 663.157 173.261 663.157 171.326C663.157 167.432 662.178 165.485 660.22 165.485C659.423 165.485 658.66 165.872 657.931 166.646C657.202 167.398 656.553 168.445 655.984 169.789C655.438 171.109 654.994 172.635 654.652 174.366C654.333 176.096 654.174 177.941 654.174 179.899C654.174 183.77 655.153 185.706 657.111 185.706ZM673.028 187.209C671.275 187.209 669.932 186.56 668.998 185.262C668.087 183.941 667.632 182.108 667.632 179.763C667.632 177.668 667.882 175.675 668.383 173.785C668.884 171.895 669.579 170.21 670.467 168.73C671.355 167.25 672.368 166.088 673.507 165.246C674.645 164.403 675.841 163.982 677.093 163.982C678.847 163.982 680.179 164.642 681.09 165.963C682.023 167.284 682.49 169.117 682.49 171.462C682.49 173.535 682.24 175.516 681.739 177.406C681.238 179.296 680.543 180.981 679.655 182.461C678.767 183.941 677.754 185.102 676.615 185.945C675.499 186.787 674.304 187.209 673.028 187.209ZM673.507 185.706C674.304 185.706 675.067 185.33 675.795 184.579C676.524 183.804 677.161 182.757 677.708 181.436C678.277 180.115 678.721 178.59 679.04 176.859C679.382 175.106 679.552 173.261 679.552 171.326C679.552 167.432 678.573 165.485 676.615 165.485C675.818 165.485 675.055 165.872 674.326 166.646C673.598 167.398 672.949 168.445 672.379 169.789C671.833 171.109 671.389 172.635 671.047 174.366C670.729 176.096 670.569 177.941 670.569 179.899C670.569 183.77 671.548 185.706 673.507 185.706ZM689.424 187.209C687.67 187.209 686.327 186.56 685.393 185.262C684.482 183.941 684.027 182.108 684.027 179.763C684.027 177.668 684.278 175.675 684.779 173.785C685.279 171.895 685.974 170.21 686.862 168.73C687.75 167.25 688.764 166.088 689.902 165.246C691.041 164.403 692.236 163.982 693.489 163.982C695.242 163.982 696.574 164.642 697.485 165.963C698.419 167.284 698.885 169.117 698.885 171.462C698.885 173.535 698.635 175.516 698.134 177.406C697.633 179.296 696.938 180.981 696.05 182.461C695.162 183.941 694.149 185.102 693.01 185.945C691.895 186.787 690.699 187.209 689.424 187.209ZM689.902 185.706C690.699 185.706 691.462 185.33 692.191 184.579C692.919 183.804 693.557 182.757 694.103 181.436C694.673 180.115 695.117 178.59 695.436 176.859C695.777 175.106 695.948 173.261 695.948 171.326C695.948 167.432 694.969 165.485 693.01 165.485C692.213 165.485 691.451 165.872 690.722 166.646C689.993 167.398 689.344 168.445 688.775 169.789C688.228 171.109 687.784 172.635 687.443 174.366C687.124 176.096 686.965 177.941 686.965 179.899C686.965 183.77 687.944 185.706 689.902 185.706ZM699.671 186.867L699.773 186.321L702.609 184.954L705.888 166.236L703.531 164.87L703.633 164.324H711.011C713.288 164.324 715.099 164.722 716.442 165.519C717.808 166.316 718.492 167.512 718.492 169.106C718.492 170.312 718.036 171.462 717.125 172.555C716.237 173.648 714.962 174.4 713.3 174.81C715.076 175.106 716.408 175.709 717.296 176.62C718.207 177.508 718.662 178.647 718.662 180.036C718.662 181.129 718.298 182.199 717.569 183.247C716.841 184.294 715.748 185.159 714.29 185.842C712.833 186.526 711.023 186.867 708.859 186.867H699.671ZM710.909 166.031H708.825L707.356 174.4H709.542C711.478 174.4 712.924 173.956 713.88 173.068C714.837 172.157 715.315 171.03 715.315 169.686C715.315 168.479 714.973 167.568 714.29 166.954C713.607 166.339 712.48 166.031 710.909 166.031ZM710.055 176.108H707.049L705.478 185.159H709.167C711.284 185.159 712.856 184.693 713.88 183.759C714.928 182.825 715.452 181.584 715.452 180.036C715.452 178.669 715.019 177.679 714.154 177.064C713.288 176.427 711.922 176.108 710.055 176.108Z" fill="black"/>
<path d="M236.505 549.209L236.949 546.511C236.448 546.329 236.004 546.101 235.616 545.828C235.252 545.554 234.945 545.281 234.694 545.008C233.966 544.165 233.601 543.266 233.601 542.309C233.601 541.171 234.091 540.602 235.07 540.602H235.992L236.163 540.738L236.026 541.66C235.776 543.323 236.163 544.45 237.188 545.042L238.827 535.205C237.78 534.567 237.006 533.85 236.505 533.053C236.004 532.256 235.753 531.277 235.753 530.115C235.753 529.159 235.969 528.282 236.402 527.485C236.858 526.665 237.45 525.96 238.178 525.367C238.93 524.753 239.761 524.297 240.672 524.001L241.15 521.2H242.414L242.004 523.694C242.391 523.625 242.778 523.591 243.165 523.591C243.438 523.591 243.689 523.603 243.917 523.625L244.327 521.2H245.556L245.112 523.83C245.568 523.944 245.966 524.104 246.308 524.309C246.649 524.491 246.968 524.718 247.264 524.992C247.674 525.379 247.97 525.789 248.152 526.221C248.334 526.631 248.425 527.053 248.425 527.485C248.425 528.533 247.924 529.056 246.922 529.056H246L245.864 528.92L246 527.998C246.182 526.768 245.795 525.925 244.839 525.47L243.302 534.727C244.418 535.501 245.215 536.286 245.693 537.083C246.194 537.88 246.444 538.814 246.444 539.884C246.444 541.547 245.966 542.947 245.01 544.086C244.053 545.224 242.835 546.01 241.355 546.442L240.911 549.209H239.647L240.057 546.716C239.624 546.784 239.18 546.818 238.725 546.818C238.543 546.818 238.36 546.807 238.178 546.784L237.768 549.209H236.505ZM241.696 533.702C241.879 533.793 242.038 533.895 242.175 534.009L243.678 525.128C243.359 525.083 243.017 525.06 242.653 525.06C242.357 525.06 242.061 525.083 241.765 525.128L240.467 532.916C240.808 533.167 241.218 533.429 241.696 533.702ZM238.212 529.227C238.212 529.797 238.292 530.297 238.452 530.73C238.611 531.163 238.907 531.595 239.34 532.028L240.433 525.538C239.749 525.88 239.203 526.369 238.793 527.007C238.406 527.645 238.212 528.385 238.212 529.227ZM238.725 545.418C239.294 545.418 239.818 545.361 240.296 545.247L241.696 536.981C241.218 536.639 240.649 536.275 239.989 535.888L238.383 545.418C238.497 545.418 238.611 545.418 238.725 545.418ZM243.917 540.704C243.917 540.18 243.826 539.691 243.643 539.235C243.484 538.78 243.199 538.347 242.789 537.937L241.662 544.769C242.437 544.359 243.006 543.79 243.37 543.061C243.734 542.332 243.917 541.547 243.917 540.704ZM254.505 546.818C253.162 546.818 252.046 546.647 251.158 546.306C250.293 545.964 249.621 545.577 249.143 545.144C248.778 544.803 248.516 544.484 248.357 544.188C248.198 543.892 248.118 543.573 248.118 543.232C248.118 542.64 248.22 542.23 248.425 542.002C248.63 541.751 248.892 541.626 249.211 541.626H250.987L251.158 541.865L250.987 542.993C250.873 543.721 251.055 544.336 251.534 544.837C252.035 545.315 252.991 545.554 254.403 545.554C255.428 545.554 256.338 545.304 257.135 544.803C257.955 544.302 258.593 543.642 259.048 542.822C259.504 541.979 259.731 541.046 259.731 540.021C259.731 538.677 259.287 537.596 258.399 536.776C257.534 535.956 256.395 535.546 254.984 535.546H252.9L253.207 534.043H254.232C255.53 534.043 256.657 533.782 257.614 533.258C258.57 532.711 259.31 532.017 259.834 531.174C260.358 530.309 260.619 529.398 260.619 528.442C260.619 527.44 260.335 526.597 259.766 525.914C259.196 525.208 258.422 524.855 257.443 524.855C256.509 524.855 255.701 525.094 255.018 525.572C254.335 526.028 253.913 526.745 253.754 527.724L253.549 529.056L253.242 529.33H251.875C251.511 529.33 251.238 529.284 251.055 529.193C250.873 529.102 250.782 528.897 250.782 528.578C250.782 528.077 250.999 527.474 251.431 526.768C251.864 526.062 252.547 525.436 253.481 524.889C254.141 524.502 254.836 524.195 255.564 523.967C256.293 523.717 257.135 523.591 258.092 523.591C259.185 523.591 260.13 523.83 260.927 524.309C261.724 524.764 262.339 525.367 262.771 526.119C263.227 526.87 263.454 527.667 263.454 528.51C263.454 529.284 263.215 530.058 262.737 530.833C262.259 531.607 261.587 532.313 260.722 532.95C259.879 533.565 258.912 534.009 257.819 534.282C259.276 534.624 260.437 535.273 261.303 536.229C262.168 537.186 262.601 538.359 262.601 539.748C262.601 540.567 262.384 541.399 261.952 542.241C261.542 543.061 260.961 543.824 260.21 544.53C259.458 545.213 258.593 545.771 257.614 546.203C256.634 546.613 255.598 546.818 254.505 546.818ZM270.867 546.818C269.113 546.818 267.77 546.169 266.836 544.871C265.925 543.55 265.47 541.717 265.47 539.372C265.47 537.277 265.72 535.284 266.221 533.394C266.722 531.504 267.417 529.819 268.305 528.339C269.193 526.859 270.206 525.698 271.345 524.855C272.483 524.013 273.679 523.591 274.931 523.591C276.685 523.591 278.017 524.252 278.928 525.572C279.861 526.893 280.328 528.726 280.328 531.072C280.328 533.144 280.078 535.125 279.577 537.015C279.076 538.905 278.381 540.59 277.493 542.07C276.605 543.55 275.592 544.712 274.453 545.554C273.337 546.397 272.142 546.818 270.867 546.818ZM271.345 545.315C272.142 545.315 272.905 544.939 273.633 544.188C274.362 543.414 275 542.366 275.546 541.046C276.115 539.725 276.559 538.199 276.878 536.469C277.22 534.715 277.391 532.871 277.391 530.935C277.391 527.041 276.411 525.094 274.453 525.094C273.656 525.094 272.893 525.481 272.165 526.256C271.436 527.007 270.787 528.055 270.218 529.398C269.671 530.719 269.227 532.244 268.885 533.975C268.567 535.706 268.407 537.55 268.407 539.509C268.407 543.38 269.386 545.315 271.345 545.315ZM281.114 546.477L281.216 545.93L284.051 544.564L287.33 525.846L284.973 524.479L285.076 523.933H292.454C294.731 523.933 296.541 524.331 297.885 525.128C299.251 525.925 299.934 527.121 299.934 528.715C299.934 529.922 299.479 531.072 298.568 532.165C297.68 533.258 296.405 534.009 294.742 534.419C296.519 534.715 297.851 535.319 298.739 536.229C299.65 537.118 300.105 538.256 300.105 539.645C300.105 540.738 299.741 541.808 299.012 542.856C298.283 543.903 297.19 544.769 295.733 545.452C294.276 546.135 292.465 546.477 290.302 546.477H281.114ZM292.351 525.641H290.268L288.799 534.009H290.985C292.921 534.009 294.367 533.565 295.323 532.677C296.279 531.766 296.758 530.639 296.758 529.296C296.758 528.089 296.416 527.178 295.733 526.563C295.05 525.948 293.923 525.641 292.351 525.641ZM291.497 535.717H288.492L286.92 544.769H290.609C292.727 544.769 294.298 544.302 295.323 543.368C296.371 542.435 296.894 541.194 296.894 539.645C296.894 538.279 296.462 537.288 295.596 536.673C294.731 536.036 293.365 535.717 291.497 535.717Z" fill="black"/>
<mask id="mask0_2324_417" style="mask-type:alpha" maskUnits="userSpaceOnUse" x="127" y="51" width="791" height="815">
<line y1="-0.529065" x2="745.312" y2="-0.529065" transform="matrix(-0.434942 0.900459 -0.112972 -0.993598 834.578 168.359)" stroke="#FFF5E5" stroke-width="1.05813" stroke-dasharray="2.12 2.12"/>
<line y1="-0.529065" x2="745.312" y2="-0.529065" transform="matrix(-0.434942 0.900459 -0.112972 -0.993598 586.234 92.4375)" stroke="#FFF5E5" stroke-width="1.05813" stroke-dasharray="2.12 2.12"/>
<line y1="-0.529065" x2="745.312" y2="-0.529065" transform="matrix(-0.434942 0.900459 -0.112972 -0.993598 710.402 130.398)" stroke="#FFF5E5" stroke-width="1.05813" stroke-dasharray="2.12 2.12"/>
<line y1="-0.529065" x2="745.312" y2="-0.529065" transform="matrix(-0.434942 0.900459 -0.112972 -0.993598 462.059 54.4766)" stroke="#FFF5E5" stroke-width="1.05813" stroke-dasharray="2.12 2.12"/>
<line y1="-0.529065" x2="745.312" y2="-0.529065" transform="matrix(-0.434942 0.900459 -0.112972 -0.993598 875.969 181.016)" stroke="#FFF5E5" stroke-width="1.05813" stroke-dasharray="2.12 2.12"/>
<line y1="-0.529065" x2="745.312" y2="-0.529065" transform="matrix(-0.434942 0.900459 -0.112972 -0.993598 627.621 105.094)" stroke="#FFF5E5" stroke-width="1.05813" stroke-dasharray="2.12 2.12"/>
<line y1="-0.529065" x2="745.312" y2="-0.529065" transform="matrix(-0.434942 0.900459 -0.112972 -0.993598 751.797 143.055)" stroke="#FFF5E5" stroke-width="1.05813" stroke-dasharray="2.12 2.12"/>
<line y1="-0.529065" x2="745.312" y2="-0.529065" transform="matrix(-0.434942 0.900459 -0.112972 -0.993598 503.449 67.125)" stroke="#FFF5E5" stroke-width="1.05813" stroke-dasharray="2.12 2.12"/>
<line y1="-0.529065" x2="745.312" y2="-0.529065" transform="matrix(-0.434942 0.900459 -0.112972 -0.993598 917.359 193.672)" stroke="#FFF5E5" stroke-width="1.05813" stroke-dasharray="2.12 2.12"/>
<line y1="-0.529065" x2="745.312" y2="-0.529065" transform="matrix(-0.434942 0.900459 -0.112972 -0.993598 669.012 117.742)" stroke="#FFF5E5" stroke-width="1.05813" stroke-dasharray="2.12 2.12"/>
<line y1="-0.529065" x2="745.312" y2="-0.529065" transform="matrix(-0.434942 0.900459 -0.112972 -0.993598 793.184 155.703)" stroke="#FFF5E5" stroke-width="1.05813" stroke-dasharray="2.12 2.12"/>
<line y1="-0.529065" x2="745.312" y2="-0.529065" transform="matrix(-0.434942 0.900459 -0.112972 -0.993598 544.844 79.7812)" stroke="#FFF5E5" stroke-width="1.05813" stroke-dasharray="2.12 2.12"/>
<line y1="-0.529065" x2="745.312" y2="-0.529065" transform="matrix(-0.434942 0.900459 -0.112972 -0.993598 844.926 171.531)" stroke="#FFF5E5" stroke-width="1.05813" stroke-dasharray="2.12 2.12"/>
<line y1="-0.529065" x2="745.312" y2="-0.529065" transform="matrix(-0.434942 0.900459 -0.112972 -0.993598 596.578 95.5938)" stroke="#FFF5E5" stroke-width="1.05813" stroke-dasharray="2.12 2.12"/>
<line y1="-0.529065" x2="745.312" y2="-0.529065" transform="matrix(-0.434942 0.900459 -0.112972 -0.993598 720.75 133.562)" stroke="#FFF5E5" stroke-width="1.05813" stroke-dasharray="2.12 2.12"/>
<line y1="-0.529065" x2="745.312" y2="-0.529065" transform="matrix(-0.434942 0.900459 -0.112972 -0.993598 472.406 57.6328)" stroke="#FFF5E5" stroke-width="1.05813" stroke-dasharray="2.12 2.12"/>
<line y1="-0.529065" x2="745.312" y2="-0.529065" transform="matrix(-0.434942 0.900459 -0.112972 -0.993598 886.312 184.18)" stroke="#FFF5E5" stroke-width="1.05813" stroke-dasharray="2.12 2.12"/>
<line y1="-0.529065" x2="745.312" y2="-0.529065" transform="matrix(-0.434942 0.900459 -0.112972 -0.993598 637.969 108.25)" stroke="#FFF5E5" stroke-width="1.05813" stroke-dasharray="2.12 2.12"/>
<line y1="-0.529065" x2="745.312" y2="-0.529065" transform="matrix(-0.434942 0.900459 -0.112972 -0.993598 762.145 146.219)" stroke="#FFF5E5" stroke-width="1.05813" stroke-dasharray="2.12 2.12"/>
<line y1="-0.529065" x2="745.312" y2="-0.529065" transform="matrix(-0.434942 0.900459 -0.112972 -0.993598 513.801 70.2891)" stroke="#FFF5E5" stroke-width="1.05813" stroke-dasharray="2.12 2.12"/>
<line y1="-0.529065" x2="745.312" y2="-0.529065" transform="matrix(-0.434942 0.900459 -0.112972 -0.993598 679.363 120.906)" stroke="#FFF5E5" stroke-width="1.05813" stroke-dasharray="2.12 2.12"/>
<line y1="-0.529065" x2="745.312" y2="-0.529065" transform="matrix(-0.434942 0.900459 -0.112972 -0.993598 803.535 158.875)" stroke="#FFF5E5" stroke-width="1.05813" stroke-dasharray="2.12 2.12"/>
<line y1="-0.529065" x2="745.312" y2="-0.529065" transform="matrix(-0.434942 0.900459 -0.112972 -0.993598 555.188 82.9453)" stroke="#FFF5E5" stroke-width="1.05813" stroke-dasharray="2.12 2.12"/>
<line y1="-0.529065" x2="745.312" y2="-0.529065" transform="matrix(-0.434942 0.900459 -0.112972 -0.993598 855.273 174.688)" stroke="#FFF5E5" stroke-width="1.05813" stroke-dasharray="2.12 2.12"/>
<line y1="-0.529065" x2="745.312" y2="-0.529065" transform="matrix(-0.434942 0.900459 -0.112972 -0.993598 606.93 98.7656)" stroke="#FFF5E5" stroke-width="1.05813" stroke-dasharray="2.12 2.12"/>
<line y1="-0.529065" x2="745.312" y2="-0.529065" transform="matrix(-0.434942 0.900459 -0.112972 -0.993598 731.102 136.727)" stroke="#FFF5E5" stroke-width="1.05813" stroke-dasharray="2.12 2.12"/>
<line y1="-0.529065" x2="745.312" y2="-0.529065" transform="matrix(-0.434942 0.900459 -0.112972 -0.993598 482.754 60.8047)" stroke="#FFF5E5" stroke-width="1.05813" stroke-dasharray="2.12 2.12"/>
<line y1="-0.529065" x2="745.312" y2="-0.529065" transform="matrix(-0.434942 0.900459 -0.112972 -0.993598 896.664 187.344)" stroke="#FFF5E5" stroke-width="1.05813" stroke-dasharray="2.12 2.12"/>
<line y1="-0.529065" x2="745.312" y2="-0.529065" transform="matrix(-0.434942 0.900459 -0.112972 -0.993598 648.316 111.414)" stroke="#FFF5E5" stroke-width="1.05813" stroke-dasharray="2.12 2.12"/>
<line y1="-0.529065" x2="745.312" y2="-0.529065" transform="matrix(-0.434942 0.900459 -0.112972 -0.993598 772.488 149.383)" stroke="#FFF5E5" stroke-width="1.05813" stroke-dasharray="2.12 2.12"/>
<line y1="-0.529065" x2="745.312" y2="-0.529065" transform="matrix(-0.434942 0.900459 -0.112972 -0.993598 524.145 73.4531)" stroke="#FFF5E5" stroke-width="1.05813" stroke-dasharray="2.12 2.12"/>
<line y1="-0.529065" x2="745.312" y2="-0.529065" transform="matrix(-0.434942 0.900459 -0.112972 -0.993598 689.707 124.07)" stroke="#FFF5E5" stroke-width="1.05813" stroke-dasharray="2.12 2.12"/>
<line y1="-0.529065" x2="745.312" y2="-0.529065" transform="matrix(-0.434942 0.900459 -0.112972 -0.993598 813.879 162.031)" stroke="#FFF5E5" stroke-width="1.05813" stroke-dasharray="2.12 2.12"/>
<line y1="-0.529065" x2="745.312" y2="-0.529065" transform="matrix(-0.434942 0.900459 -0.112972 -0.993598 565.535 86.1094)" stroke="#FFF5E5" stroke-width="1.05813" stroke-dasharray="2.12 2.12"/>
<line y1="-0.529065" x2="745.312" y2="-0.529065" transform="matrix(-0.434942 0.900459 -0.112972 -0.993598 865.621 177.852)" stroke="#FFF5E5" stroke-width="1.05813" stroke-dasharray="2.12 2.12"/>
<line y1="-0.529065" x2="745.312" y2="-0.529065" transform="matrix(-0.434942 0.900459 -0.112972 -0.993598 617.273 101.922)" stroke="#FFF5E5" stroke-width="1.05813" stroke-dasharray="2.12 2.12"/>
<line y1="-0.529065" x2="745.312" y2="-0.529065" transform="matrix(-0.434942 0.900459 -0.112972 -0.993598 741.449 139.891)" stroke="#FFF5E5" stroke-width="1.05813" stroke-dasharray="2.12 2.12"/>
<line y1="-0.529065" x2="745.312" y2="-0.529065" transform="matrix(-0.434942 0.900459 -0.112972 -0.993598 493.102 63.9609)" stroke="#FFF5E5" stroke-width="1.05813" stroke-dasharray="2.12 2.12"/>
<line y1="-0.529065" x2="745.312" y2="-0.529065" transform="matrix(-0.434942 0.900459 -0.112972 -0.993598 907.008 190.508)" stroke="#FFF5E5" stroke-width="1.05813" stroke-dasharray="2.12 2.12"/>
<line y1="-0.529065" x2="745.312" y2="-0.529065" transform="matrix(-0.434942 0.900459 -0.112972 -0.993598 658.664 114.578)" stroke="#FFF5E5" stroke-width="1.05813" stroke-dasharray="2.12 2.12"/>
<line y1="-0.529065" x2="745.312" y2="-0.529065" transform="matrix(-0.434942 0.900459 -0.112972 -0.993598 782.84 152.547)" stroke="#FFF5E5" stroke-width="1.05813" stroke-dasharray="2.12 2.12"/>
<line y1="-0.529065" x2="745.312" y2="-0.529065" transform="matrix(-0.434942 0.900459 -0.112972 -0.993598 534.492 76.6172)" stroke="#FFF5E5" stroke-width="1.05813" stroke-dasharray="2.12 2.12"/>
<line y1="-0.529065" x2="745.312" y2="-0.529065" transform="matrix(-0.434942 0.900459 -0.112972 -0.993598 451.711 51.3047)" stroke="#FFF5E5" stroke-width="1.05813" stroke-dasharray="2.12 2.12"/>
<line y1="-0.529065" x2="745.312" y2="-0.529065" transform="matrix(-0.434942 0.900459 -0.112972 -0.993598 700.055 127.234)" stroke="#FFF5E5" stroke-width="1.05813" stroke-dasharray="2.12 2.12"/>
<line y1="-0.529065" x2="745.312" y2="-0.529065" transform="matrix(-0.434942 0.900459 -0.112972 -0.993598 824.227 165.203)" stroke="#FFF5E5" stroke-width="1.05813" stroke-dasharray="2.12 2.12"/>
<line y1="-0.529065" x2="745.312" y2="-0.529065" transform="matrix(-0.434942 0.900459 -0.112972 -0.993598 575.883 89.2734)" stroke="#FFF5E5" stroke-width="1.05813" stroke-dasharray="2.12 2.12"/>
</mask>
<g mask="url(#mask0_2324_417)">
<rect x="200.875" y="556.453" width="136.266" height="2.69406" fill="black"/>
<rect x="401.164" y="552.234" width="135.447" height="5.76794" fill="black"/>
<rect x="598.914" y="197.828" width="135.479" height="360.179" fill="black"/>
</g>
<path d="M99.1072 200.867L99.1712 200.611L100.659 199.955L102.051 192.067L99.4112 193.347L99.5232 192.707L103.363 190.307H104.227L102.531 199.955L103.747 200.611L103.699 200.867H99.1072ZM109.219 201.027C108.376 201.027 107.741 200.905 107.315 200.659C106.899 200.414 106.696 200.153 106.707 199.875C106.728 199.705 106.851 199.545 107.075 199.395L107.907 198.819H108.099L108.243 199.219C108.349 199.539 108.515 199.795 108.739 199.987C108.963 200.179 109.293 200.275 109.731 200.275C110.339 200.275 110.851 200.062 111.267 199.635C111.693 199.198 111.907 198.595 111.907 197.827C111.907 197.145 111.693 196.617 111.267 196.243C110.84 195.87 110.179 195.683 109.283 195.683C109.048 195.683 108.813 195.694 108.579 195.715C108.355 195.737 108.104 195.774 107.827 195.827L108.835 190.307H114.067L113.779 191.811H109.331L108.931 194.003C109.101 193.993 109.283 193.982 109.475 193.971C109.667 193.961 109.88 193.955 110.115 193.955C111.32 193.955 112.216 194.233 112.803 194.787C113.4 195.342 113.699 196.067 113.699 196.963C113.699 197.497 113.587 198.009 113.363 198.499C113.139 198.979 112.824 199.411 112.419 199.795C112.013 200.169 111.539 200.467 110.995 200.691C110.451 200.915 109.859 201.027 109.219 201.027ZM118.466 201.027C117.592 201.027 116.92 200.702 116.45 200.051C115.992 199.401 115.762 198.494 115.762 197.331C115.762 196.403 115.88 195.513 116.114 194.659C116.349 193.795 116.674 193.027 117.09 192.355C117.517 191.673 118.008 191.134 118.562 190.739C119.117 190.345 119.714 190.147 120.354 190.147C121.229 190.147 121.901 190.473 122.37 191.123C122.84 191.774 123.074 192.686 123.074 193.859C123.074 194.787 122.952 195.683 122.706 196.547C122.472 197.401 122.141 198.163 121.714 198.835C121.298 199.507 120.813 200.041 120.258 200.435C119.704 200.83 119.106 201.027 118.466 201.027ZM118.77 200.275C119.037 200.275 119.282 200.142 119.506 199.875C119.741 199.598 119.954 199.225 120.146 198.755C120.338 198.286 120.504 197.758 120.642 197.171C120.792 196.574 120.904 195.955 120.978 195.315C121.053 194.665 121.09 194.025 121.09 193.395C121.09 192.606 121.01 191.993 120.85 191.555C120.701 191.118 120.44 190.899 120.066 190.899C119.736 190.899 119.426 191.107 119.138 191.523C118.861 191.929 118.616 192.473 118.402 193.155C118.2 193.827 118.04 194.569 117.922 195.379C117.805 196.179 117.746 196.974 117.746 197.763C117.746 198.553 117.821 199.171 117.97 199.619C118.13 200.057 118.397 200.275 118.77 200.275ZM123.65 200.867L123.698 200.611L125.058 199.955L126.594 191.219L125.458 190.563L125.506 190.307H129.954L129.89 190.563L128.546 191.219L126.994 199.955L128.146 200.611L128.082 200.867H123.65ZM131.298 200.867L127.81 195.507L132.626 191.123L131.618 190.563L131.666 190.307H135.042L134.978 190.563L133.986 190.963L129.602 194.899L133.122 200.035L134.066 200.611L134.018 200.867H131.298Z" fill="black"/>
<path d="M157.891 196.867L143.064 196.867" stroke="black" stroke-width="0.983061"/>
<path d="M99.1072 321.461L99.1712 321.205L100.659 320.549L102.051 312.661L99.4112 313.941L99.5232 313.301L103.363 310.901H104.227L102.531 320.549L103.747 321.205L103.699 321.461H99.1072ZM109.779 321.621C108.904 321.621 108.232 321.296 107.763 320.645C107.304 319.994 107.075 319.088 107.075 317.925C107.075 316.997 107.192 316.106 107.427 315.253C107.661 314.389 107.987 313.621 108.403 312.949C108.829 312.266 109.32 311.728 109.875 311.333C110.429 310.938 111.027 310.741 111.667 310.741C112.541 310.741 113.213 311.066 113.683 311.717C114.152 312.368 114.387 313.28 114.387 314.453C114.387 315.381 114.264 316.277 114.019 317.141C113.784 317.994 113.453 318.757 113.027 319.429C112.611 320.101 112.125 320.634 111.571 321.029C111.016 321.424 110.419 321.621 109.779 321.621ZM110.083 320.869C110.349 320.869 110.595 320.736 110.819 320.469C111.053 320.192 111.267 319.818 111.459 319.349C111.651 318.88 111.816 318.352 111.955 317.765C112.104 317.168 112.216 316.549 112.291 315.909C112.365 315.258 112.403 314.618 112.403 313.989C112.403 313.2 112.323 312.586 112.163 312.149C112.013 311.712 111.752 311.493 111.379 311.493C111.048 311.493 110.739 311.701 110.451 312.117C110.173 312.522 109.928 313.066 109.715 313.749C109.512 314.421 109.352 315.162 109.235 315.973C109.117 316.773 109.059 317.568 109.059 318.357C109.059 319.146 109.133 319.765 109.283 320.213C109.443 320.65 109.709 320.869 110.083 320.869ZM118.466 321.621C117.592 321.621 116.92 321.296 116.45 320.645C115.992 319.994 115.762 319.088 115.762 317.925C115.762 316.997 115.88 316.106 116.114 315.253C116.349 314.389 116.674 313.621 117.09 312.949C117.517 312.266 118.008 311.728 118.562 311.333C119.117 310.938 119.714 310.741 120.354 310.741C121.229 310.741 121.901 311.066 122.37 311.717C122.84 312.368 123.074 313.28 123.074 314.453C123.074 315.381 122.952 316.277 122.706 317.141C122.472 317.994 122.141 318.757 121.714 319.429C121.298 320.101 120.813 320.634 120.258 321.029C119.704 321.424 119.106 321.621 118.466 321.621ZM118.77 320.869C119.037 320.869 119.282 320.736 119.506 320.469C119.741 320.192 119.954 319.818 120.146 319.349C120.338 318.88 120.504 318.352 120.642 317.765C120.792 317.168 120.904 316.549 120.978 315.909C121.053 315.258 121.09 314.618 121.09 313.989C121.09 313.2 121.01 312.586 120.85 312.149C120.701 311.712 120.44 311.493 120.066 311.493C119.736 311.493 119.426 311.701 119.138 312.117C118.861 312.522 118.616 313.066 118.402 313.749C118.2 314.421 118.04 315.162 117.922 315.973C117.805 316.773 117.746 317.568 117.746 318.357C117.746 319.146 117.821 319.765 117.97 320.213C118.13 320.65 118.397 320.869 118.77 320.869ZM123.65 321.461L123.698 321.205L125.058 320.549L126.594 311.813L125.458 311.157L125.506 310.901H129.954L129.89 311.157L128.546 311.813L126.994 320.549L128.146 321.205L128.082 321.461H123.65ZM131.298 321.461L127.81 316.101L132.626 311.717L131.618 311.157L131.666 310.901H135.042L134.978 311.157L133.986 311.557L129.602 315.493L133.122 320.629L134.066 321.205L134.018 321.461H131.298Z" fill="black"/>
<path d="M157.891 317.461L143.064 317.461" stroke="black" stroke-width="0.983061"/>
<path d="M109.219 442.215C108.376 442.215 107.741 442.092 107.315 441.847C106.899 441.601 106.696 441.34 106.707 441.063C106.728 440.892 106.851 440.732 107.075 440.583L107.907 440.007H108.099L108.243 440.407C108.349 440.727 108.515 440.983 108.739 441.175C108.963 441.367 109.293 441.463 109.731 441.463C110.339 441.463 110.851 441.249 111.267 440.823C111.693 440.385 111.907 439.783 111.907 439.015C111.907 438.332 111.693 437.804 111.267 437.431C110.84 437.057 110.179 436.871 109.283 436.871C109.048 436.871 108.813 436.881 108.579 436.903C108.355 436.924 108.104 436.961 107.827 437.015L108.835 431.495H114.067L113.779 432.999H109.331L108.931 435.191C109.101 435.18 109.283 435.169 109.475 435.159C109.667 435.148 109.88 435.143 110.115 435.143C111.32 435.143 112.216 435.42 112.803 435.975C113.4 436.529 113.699 437.255 113.699 438.151C113.699 438.684 113.587 439.196 113.363 439.687C113.139 440.167 112.824 440.599 112.419 440.983C112.013 441.356 111.539 441.655 110.995 441.879C110.451 442.103 109.859 442.215 109.219 442.215ZM118.466 442.215C117.592 442.215 116.92 441.889 116.45 441.239C115.992 440.588 115.762 439.681 115.762 438.519C115.762 437.591 115.88 436.7 116.114 435.847C116.349 434.983 116.674 434.215 117.09 433.543C117.517 432.86 118.008 432.321 118.562 431.927C119.117 431.532 119.714 431.335 120.354 431.335C121.229 431.335 121.901 431.66 122.37 432.311C122.84 432.961 123.074 433.873 123.074 435.047C123.074 435.975 122.952 436.871 122.706 437.735C122.472 438.588 122.141 439.351 121.714 440.023C121.298 440.695 120.813 441.228 120.258 441.623C119.704 442.017 119.106 442.215 118.466 442.215ZM118.77 441.463C119.037 441.463 119.282 441.329 119.506 441.063C119.741 440.785 119.954 440.412 120.146 439.943C120.338 439.473 120.504 438.945 120.642 438.359C120.792 437.761 120.904 437.143 120.978 436.503C121.053 435.852 121.09 435.212 121.09 434.583C121.09 433.793 121.01 433.18 120.85 432.743C120.701 432.305 120.44 432.087 120.066 432.087C119.736 432.087 119.426 432.295 119.138 432.711C118.861 433.116 118.616 433.66 118.402 434.343C118.2 435.015 118.04 435.756 117.922 436.567C117.805 437.367 117.746 438.161 117.746 438.951C117.746 439.74 117.821 440.359 117.97 440.807C118.13 441.244 118.397 441.463 118.77 441.463ZM123.65 442.055L123.698 441.799L125.058 441.143L126.594 432.407L125.458 431.751L125.506 431.495H129.954L129.89 431.751L128.546 432.407L126.994 441.143L128.146 441.799L128.082 442.055H123.65ZM131.298 442.055L127.81 436.695L132.626 432.311L131.618 431.751L131.666 431.495H135.042L134.978 431.751L133.986 432.151L129.602 436.087L133.122 441.223L134.066 441.799L134.018 442.055H131.298Z" fill="black"/>
<path d="M157.891 438.055L143.064 438.055" stroke="black" stroke-width="0.983061"/>
<path d="M129.904 562.808C129.029 562.808 128.357 562.483 127.888 561.832C127.429 561.182 127.2 560.275 127.2 559.112C127.2 558.184 127.317 557.294 127.552 556.44C127.786 555.576 128.112 554.808 128.528 554.136C128.954 553.454 129.445 552.915 130 552.52C130.554 552.126 131.152 551.928 131.792 551.928C132.666 551.928 133.338 552.254 133.808 552.904C134.277 553.555 134.512 554.467 134.512 555.64C134.512 556.568 134.389 557.464 134.144 558.328C133.909 559.182 133.578 559.944 133.152 560.616C132.736 561.288 132.25 561.822 131.696 562.216C131.141 562.611 130.544 562.808 129.904 562.808ZM130.208 562.056C130.474 562.056 130.72 561.923 130.944 561.656C131.178 561.379 131.392 561.006 131.584 560.536C131.776 560.067 131.941 559.539 132.08 558.952C132.229 558.355 132.341 557.736 132.416 557.096C132.49 556.446 132.528 555.806 132.528 555.176C132.528 554.387 132.448 553.774 132.288 553.336C132.138 552.899 131.877 552.68 131.504 552.68C131.173 552.68 130.864 552.888 130.576 553.304C130.298 553.71 130.053 554.254 129.84 554.936C129.637 555.608 129.477 556.35 129.36 557.16C129.242 557.96 129.184 558.755 129.184 559.544C129.184 560.334 129.258 560.952 129.408 561.4C129.568 561.838 129.834 562.056 130.208 562.056Z" fill="black"/>
<path d="M157.891 558.648L143.064 558.648" stroke="black" stroke-width="0.983061"/>
<path d="M67.4792 386.882H66.2792C66.2046 387.287 66.0979 387.644 65.9592 387.954C65.8099 388.263 65.6606 388.498 65.5112 388.658C65.2872 388.924 65.0366 389.122 64.7592 389.25C64.4712 389.378 64.2046 389.442 63.9592 389.442C63.7459 389.442 63.6072 389.372 63.5432 389.234C63.4792 389.084 63.4472 388.946 63.4472 388.818V388.13L63.5112 388.05H63.9432C64.2739 388.05 64.5726 387.948 64.8392 387.746C65.0952 387.532 65.2819 387.244 65.3992 386.882H61.7192C61.4419 387.522 61.1592 388.034 60.8712 388.418C60.5832 388.791 60.2579 389.058 59.8952 389.218C59.5326 389.378 59.1059 389.458 58.6152 389.458C58.1672 389.458 57.7459 389.346 57.3512 389.122C56.9566 388.887 56.6099 388.578 56.3112 388.194C56.0126 387.799 55.7939 387.362 55.6552 386.882H54.3592V386.274H55.5112C55.4899 386.092 55.4792 385.906 55.4792 385.714C55.4792 385.586 55.4846 385.458 55.4952 385.33H54.3592V384.722H55.5752C55.6286 384.434 55.7032 384.183 55.7992 383.97C55.8952 383.746 56.0019 383.559 56.1192 383.41C56.3326 383.143 56.5619 382.93 56.8072 382.77C57.0419 382.61 57.2819 382.53 57.5272 382.53C57.7406 382.53 57.8899 382.599 57.9752 382.738C58.0606 382.866 58.1032 382.994 58.1032 383.122V383.858L58.0392 383.938H57.6072C57.3406 383.938 57.1166 384.007 56.9352 384.146C56.7432 384.284 56.5939 384.476 56.4872 384.722H60.0712C60.3272 384.146 60.5939 383.671 60.8712 383.298C61.1379 382.914 61.4579 382.631 61.8312 382.45C62.1939 382.258 62.6419 382.162 63.1752 382.162C63.9112 382.162 64.5459 382.407 65.0792 382.898C65.6019 383.388 65.9699 383.996 66.1832 384.722H67.4792V385.33H66.3112C66.3432 385.554 66.3592 385.778 66.3592 386.002C66.3592 386.098 66.3592 386.188 66.3592 386.274H67.4792V386.882ZM59.7832 385.394L59.8152 385.33H56.3432C56.3219 385.468 56.3112 385.612 56.3112 385.762C56.3112 385.943 56.3272 386.114 56.3592 386.274H59.3992C59.5166 386.028 59.6446 385.735 59.7832 385.394ZM57.7192 387.538C57.9752 387.538 58.2099 387.495 58.4232 387.41C58.6259 387.324 58.8286 387.148 59.0312 386.882H56.5992C56.7272 387.084 56.8872 387.244 57.0792 387.362C57.2712 387.479 57.4846 387.538 57.7192 387.538ZM65.5432 385.986C65.5432 385.751 65.5219 385.532 65.4792 385.33H62.4232C62.2952 385.575 62.1459 385.89 61.9752 386.274H65.5272C65.5379 386.178 65.5432 386.082 65.5432 385.986ZM64.0552 384.034C63.7886 384.034 63.5592 384.082 63.3672 384.178C63.1646 384.274 62.9672 384.455 62.7752 384.722H65.2552C65.1272 384.508 64.9619 384.343 64.7592 384.226C64.5566 384.098 64.3219 384.034 64.0552 384.034ZM66.1992 375.097H65.9432L65.2872 373.737H56.5512L55.8952 375.097H55.6392V369.961H55.8952L56.5512 371.321H65.2872L65.9432 369.961H66.1992V375.097ZM66.1992 367.751H65.9432L65.2872 366.391H56.5672L55.8952 367.751H55.6392V364.711L62.6472 358.503H56.5352L55.8952 360.327H55.6392V356.039H55.8952L56.5512 357.383H66.2792V358.375L58.5672 365.271H65.2872L65.9432 363.447H66.1992V367.751ZM66.1992 349.057H65.9432L65.2872 347.697H56.5512L55.8952 349.057H55.6392V343.937C55.6392 343.169 55.7299 342.486 55.9112 341.889C56.0819 341.281 56.3432 340.806 56.6952 340.465C57.0366 340.113 57.4739 339.937 58.0072 339.937C58.5512 339.937 59.0526 340.145 59.5112 340.561C59.9699 340.966 60.2899 341.553 60.4712 342.321C60.6099 341.286 60.9139 340.476 61.3832 339.889C61.8419 339.292 62.4232 338.993 63.1272 338.993C63.7139 338.993 64.2419 339.19 64.7112 339.585C65.1699 339.98 65.5326 340.524 65.7992 341.217C66.0659 341.9 66.1992 342.678 66.1992 343.553V349.057ZM56.5192 344.737V345.281H60.3592V344.641C60.3592 343.937 60.1939 343.388 59.8632 342.993C59.5219 342.598 59.0632 342.401 58.4872 342.401C57.1752 342.401 56.5192 343.18 56.5192 344.737ZM61.1432 344.177V345.281H65.3192V344.065C65.3192 343.276 65.1219 342.662 64.7272 342.225C64.3326 341.777 63.8259 341.553 63.2072 341.553C62.5032 341.553 61.9859 341.782 61.6552 342.241C61.3139 342.689 61.1432 343.334 61.1432 344.177ZM66.1992 336.928H65.9432L65.2872 335.568H56.5512L55.8952 336.928H55.6392V331.792H55.8952L56.5512 333.152H65.2872L65.9432 331.792H66.1992V336.928ZM66.1992 329.551H65.9432L65.2872 328.191H56.5512L55.8952 329.551H55.6392L55.6392 324.255H55.8952L56.5512 325.775H65.3192V322.255L62.2952 320.959V320.703H66.1992V329.551ZM66.1992 318.423H65.9432L65.2872 317.063H56.5512L55.8952 318.423H55.6392V313.127H55.8952L56.5512 314.647H65.3192V311.127L62.2952 309.831V309.575H66.1992V318.423ZM66.1992 307.262H65.9432L65.2872 305.902H56.5512L55.8952 307.262H55.6392V302.126H55.8952L56.5512 303.486H65.2872L65.9432 302.126H66.1992V307.262ZM66.3592 294.285C66.3592 295.074 66.2259 295.805 65.9592 296.477C65.6819 297.149 65.3032 297.736 64.8232 298.237C64.3326 298.728 63.7566 299.112 63.0952 299.389C62.4339 299.666 61.7086 299.805 60.9192 299.805C60.1299 299.805 59.4046 299.666 58.7432 299.389C58.0819 299.112 57.5112 298.728 57.0312 298.237C56.5406 297.736 56.1619 297.149 55.8952 296.477C55.6179 295.805 55.4792 295.074 55.4792 294.285C55.4792 293.485 55.6179 292.749 55.8952 292.077C56.1619 291.405 56.5406 290.824 57.0312 290.333C57.5112 289.832 58.0819 289.442 58.7432 289.165C59.4046 288.888 60.1299 288.749 60.9192 288.749C61.7086 288.749 62.4339 288.888 63.0952 289.165C63.7566 289.442 64.3326 289.832 64.8232 290.333C65.3032 290.824 65.6819 291.405 65.9592 292.077C66.2259 292.749 66.3592 293.485 66.3592 294.285ZM65.5272 294.029C65.5272 293.496 65.3566 293.026 65.0152 292.621C64.6739 292.205 64.1939 291.885 63.5752 291.661C62.9566 291.426 62.2312 291.309 61.3992 291.309C60.3752 291.309 59.4792 291.453 58.7112 291.741C57.9432 292.018 57.3512 292.397 56.9352 292.877C56.5086 293.357 56.2952 293.896 56.2952 294.493C56.2952 295.026 56.4659 295.501 56.8072 295.917C57.1379 296.333 57.6126 296.664 58.2312 296.909C58.8499 297.144 59.5752 297.261 60.4072 297.261C61.4312 297.261 62.3272 297.117 63.0952 296.829C63.8632 296.541 64.4606 296.152 64.8872 295.661C65.3139 295.17 65.5272 294.626 65.5272 294.029ZM66.1992 286.492H65.9432L65.2872 285.132H56.5672L55.8952 286.492H55.6392V283.452L62.6472 277.244H56.5352L55.8952 279.068H55.6392V274.78H55.8952L56.5512 276.124H66.2792V277.116L58.5672 284.012H65.2872L65.9432 282.188H66.1992V286.492ZM66.3592 268.966C66.3592 269.67 66.2899 270.294 66.1512 270.838C66.0019 271.371 65.7992 271.888 65.5432 272.39L62.8392 272.55V272.262L64.8072 271.126C65.0419 270.838 65.2232 270.528 65.3512 270.198C65.4792 269.856 65.5432 269.51 65.5432 269.158C65.5432 268.582 65.4099 268.112 65.1432 267.75C64.8659 267.387 64.4606 267.206 63.9272 267.206C63.5646 267.206 63.2659 267.291 63.0312 267.462C62.7966 267.622 62.5779 267.894 62.3752 268.278C62.1619 268.662 61.9059 269.19 61.6072 269.862C61.2766 270.619 60.8819 271.2 60.4232 271.606C59.9646 272.011 59.3939 272.214 58.7112 272.214C58.2846 272.214 57.8792 272.107 57.4952 271.894C57.1006 271.67 56.7539 271.376 56.4552 271.014C56.1459 270.64 55.9059 270.23 55.7352 269.782C55.5646 269.323 55.4792 268.854 55.4792 268.374C55.4792 267.83 55.5432 267.307 55.6712 266.806C55.7992 266.304 55.9806 265.84 56.2152 265.414L58.7752 265.254V265.526L56.9672 266.646C56.7539 266.923 56.5939 267.195 56.4872 267.462C56.3699 267.718 56.3112 268.011 56.3112 268.342C56.3112 268.779 56.4499 269.142 56.7272 269.43C57.0046 269.718 57.3726 269.862 57.8312 269.862C58.2686 269.862 58.6312 269.707 58.9192 269.398C59.1966 269.078 59.5112 268.528 59.8632 267.75C60.3112 266.779 60.7699 266.064 61.2392 265.606C61.7086 265.147 62.3272 264.918 63.0952 264.918C63.7779 264.918 64.3646 265.115 64.8552 265.51C65.3459 265.904 65.7192 266.411 65.9752 267.03C66.2312 267.648 66.3592 268.294 66.3592 268.966Z" fill="black"/>
<path d="M157.891 558.742L157.891 169.379" stroke="black" stroke-width="0.983061"/>
</g>
<defs>
<clipPath id="clip0_2324_417">
<rect width="950" height="650" fill="white" transform="translate(0 0.609375)"/>
</clipPath>
</defs>
</svg>
