<svg width="950" height="650" viewBox="0 0 950 650" fill="none" xmlns="http://www.w3.org/2000/svg">
<g clip-path="url(#clip0_2452_156)">
<path d="M182.926 546.931V561.385" stroke="black" stroke-width="0.958394"/>
<path d="M179.702 579.261C180.033 578.685 180.369 578.109 180.71 577.533C181.062 576.957 181.452 576.338 181.878 575.677C182.305 575.005 182.801 574.253 183.366 573.421C183.942 572.578 184.63 571.607 185.43 570.509H180.15L180.47 568.701H187.11L187.03 569.229C186.38 570.199 185.734 571.181 185.094 572.173C184.454 573.154 183.836 574.221 183.238 575.373C182.652 576.525 182.108 577.821 181.606 579.261H179.702Z" fill="black"/>
<path d="M326.585 546.931V561.385" stroke="black" stroke-width="0.958394"/>
<path d="M325.761 579.421C324.833 579.421 324.076 579.213 323.489 578.797C322.903 578.381 322.609 577.81 322.609 577.085C322.609 576.423 322.844 575.853 323.313 575.373C323.783 574.893 324.439 574.439 325.281 574.013C324.759 573.618 324.391 573.239 324.177 572.877C323.975 572.503 323.873 572.087 323.873 571.629C323.873 571.063 324.028 570.546 324.337 570.077C324.657 569.607 325.084 569.234 325.617 568.957C326.161 568.679 326.759 568.541 327.409 568.541C327.975 568.541 328.465 568.642 328.881 568.845C329.297 569.047 329.623 569.33 329.857 569.693C330.092 570.045 330.209 570.445 330.209 570.893C330.209 571.415 330.012 571.885 329.617 572.301C329.223 572.706 328.615 573.095 327.793 573.469C328.497 573.959 328.972 574.429 329.217 574.877C329.463 575.314 329.585 575.783 329.585 576.285C329.585 576.882 329.415 577.415 329.073 577.885C328.732 578.354 328.273 578.727 327.697 579.005C327.121 579.282 326.476 579.421 325.761 579.421ZM325.697 570.925C325.697 571.266 325.788 571.613 325.969 571.965C326.161 572.306 326.572 572.679 327.201 573.085C327.585 572.839 327.884 572.61 328.097 572.397C328.321 572.173 328.476 571.938 328.561 571.693C328.657 571.447 328.705 571.154 328.705 570.813C328.705 570.301 328.577 569.911 328.321 569.645C328.065 569.378 327.719 569.245 327.281 569.245C326.748 569.245 326.348 569.41 326.081 569.741C325.825 570.071 325.697 570.466 325.697 570.925ZM324.193 576.941C324.193 577.506 324.348 577.949 324.657 578.269C324.967 578.578 325.393 578.733 325.937 578.733C326.503 578.733 326.951 578.567 327.281 578.237C327.623 577.895 327.793 577.453 327.793 576.909C327.793 576.557 327.724 576.253 327.585 575.997C327.457 575.73 327.244 575.474 326.945 575.229C326.657 574.973 326.268 574.685 325.777 574.365C325.351 574.674 325.02 574.957 324.785 575.213C324.561 575.458 324.407 575.714 324.321 575.981C324.236 576.247 324.193 576.567 324.193 576.941Z" fill="black"/>
<path d="M470.244 546.931V561.385" stroke="black" stroke-width="0.958394"/>
<path d="M466.492 579.421L466.588 578.909C467.559 578.589 468.38 578.162 469.052 577.629C469.735 577.085 470.289 576.477 470.716 575.805C471.143 575.122 471.457 574.413 471.66 573.677C471.351 574.082 470.988 574.402 470.572 574.637C470.167 574.861 469.719 574.973 469.228 574.973C468.439 574.973 467.852 574.733 467.468 574.253C467.084 573.773 466.892 573.154 466.892 572.397C466.892 571.607 467.068 570.925 467.42 570.349C467.783 569.773 468.257 569.33 468.844 569.021C469.431 568.701 470.076 568.541 470.78 568.541C471.793 568.541 472.567 568.839 473.1 569.437C473.644 570.034 473.916 570.823 473.916 571.805C473.916 572.935 473.623 574.013 473.036 575.037C472.46 576.061 471.617 576.957 470.508 577.725C469.409 578.493 468.071 579.058 466.492 579.421ZM468.764 572.173C468.764 573.303 469.169 573.869 469.98 573.869C470.332 573.869 470.673 573.778 471.004 573.597C471.335 573.405 471.623 573.133 471.868 572.781C471.943 572.301 471.98 571.815 471.98 571.325C471.98 570.61 471.863 570.087 471.628 569.757C471.393 569.426 471.079 569.261 470.684 569.261C470.14 569.261 469.681 569.527 469.308 570.061C468.945 570.583 468.764 571.287 468.764 572.173Z" fill="black"/>
<path d="M613.902 546.931V561.385" stroke="black" stroke-width="0.958394"/>
<path d="M606.623 579.261L606.687 579.005L608.175 578.349L609.567 570.461L606.927 571.741L607.039 571.101L610.879 568.701H611.743L610.047 578.349L611.263 579.005L611.215 579.261H606.623ZM617.294 579.421C616.42 579.421 615.748 579.095 615.278 578.445C614.82 577.794 614.59 576.887 614.59 575.725C614.59 574.797 614.708 573.906 614.942 573.053C615.177 572.189 615.502 571.421 615.918 570.749C616.345 570.066 616.836 569.527 617.39 569.133C617.945 568.738 618.542 568.541 619.182 568.541C620.057 568.541 620.729 568.866 621.198 569.517C621.668 570.167 621.902 571.079 621.902 572.253C621.902 573.181 621.78 574.077 621.534 574.941C621.3 575.794 620.969 576.557 620.542 577.229C620.126 577.901 619.641 578.434 619.086 578.829C618.532 579.223 617.934 579.421 617.294 579.421ZM617.598 578.669C617.865 578.669 618.11 578.535 618.334 578.269C618.569 577.991 618.782 577.618 618.974 577.149C619.166 576.679 619.332 576.151 619.47 575.565C619.62 574.967 619.732 574.349 619.806 573.709C619.881 573.058 619.918 572.418 619.918 571.789C619.918 570.999 619.838 570.386 619.678 569.949C619.529 569.511 619.268 569.293 618.894 569.293C618.564 569.293 618.254 569.501 617.966 569.917C617.689 570.322 617.444 570.866 617.23 571.549C617.028 572.221 616.868 572.962 616.75 573.773C616.633 574.573 616.574 575.367 616.574 576.157C616.574 576.946 616.649 577.565 616.798 578.013C616.958 578.45 617.225 578.669 617.598 578.669Z" fill="black"/>
<path d="M757.561 546.931V561.385" stroke="black" stroke-width="0.958394"/>
<path d="M750.282 579.261L750.346 579.005L751.834 578.349L753.226 570.461L750.586 571.741L750.698 571.101L754.538 568.701H755.402L753.706 578.349L754.922 579.005L754.874 579.261H750.282ZM758.969 579.261L759.033 579.005L760.521 578.349L761.913 570.461L759.273 571.741L759.385 571.101L763.225 568.701H764.089L762.393 578.349L763.609 579.005L763.561 579.261H758.969Z" fill="black"/>
<path d="M901.22 546.931V561.385" stroke="black" stroke-width="0.958394"/>
<path d="M893.941 579.261L894.005 579.005L895.493 578.349L896.885 570.461L894.245 571.741L894.357 571.101L898.197 568.701H899.061L897.365 578.349L898.581 579.005L898.533 579.261H893.941ZM901.364 579.261L901.476 578.717C902.511 577.703 903.369 576.834 904.052 576.109C904.745 575.373 905.305 574.749 905.732 574.237C906.159 573.714 906.479 573.266 906.692 572.893C906.905 572.509 907.049 572.157 907.124 571.837C907.199 571.517 907.236 571.191 907.236 570.861C907.236 570.402 907.103 570.034 906.836 569.757C906.569 569.479 906.228 569.341 905.812 569.341C905.343 569.341 904.975 569.495 904.708 569.805C904.452 570.114 904.276 570.562 904.18 571.149L904.068 571.773L903.908 571.949H903.092C902.889 571.949 902.74 571.927 902.644 571.885C902.559 571.831 902.543 571.655 902.596 571.357C902.639 571.058 902.756 570.749 902.948 570.429C903.14 570.109 903.449 569.805 903.876 569.517C904.143 569.335 904.399 569.17 904.644 569.021C904.889 568.871 905.167 568.754 905.476 568.669C905.785 568.583 906.164 568.541 906.612 568.541C907.103 568.541 907.54 568.642 907.924 568.845C908.319 569.037 908.628 569.314 908.852 569.677C909.087 570.029 909.204 570.434 909.204 570.893C909.204 571.309 909.124 571.714 908.964 572.109C908.804 572.493 908.516 572.93 908.1 573.421C907.684 573.901 907.097 574.482 906.34 575.165C905.593 575.847 904.633 576.69 903.46 577.693H907.236L908.356 576.029H908.612L907.924 579.261H901.364Z" fill="black"/>
<path d="M84.0233 205.601C83.0953 205.601 82.338 205.393 81.7513 204.977C81.1646 204.561 80.8713 203.991 80.8713 203.265C80.8713 202.604 81.106 202.033 81.5753 201.553C82.0446 201.073 82.7006 200.62 83.5433 200.193C83.0206 199.799 82.6526 199.42 82.4393 199.057C82.2366 198.684 82.1353 198.268 82.1353 197.809C82.1353 197.244 82.29 196.727 82.5993 196.257C82.9193 195.788 83.346 195.415 83.8793 195.137C84.4233 194.86 85.0206 194.721 85.6713 194.721C86.2366 194.721 86.7273 194.823 87.1433 195.025C87.5593 195.228 87.8846 195.511 88.1193 195.873C88.354 196.225 88.4713 196.625 88.4713 197.073C88.4713 197.596 88.274 198.065 87.8793 198.481C87.4846 198.887 86.8766 199.276 86.0553 199.649C86.7593 200.14 87.234 200.609 87.4793 201.057C87.7246 201.495 87.8473 201.964 87.8473 202.465C87.8473 203.063 87.6766 203.596 87.3353 204.065C86.994 204.535 86.5353 204.908 85.9593 205.185C85.3833 205.463 84.738 205.601 84.0233 205.601ZM83.9593 197.105C83.9593 197.447 84.05 197.793 84.2313 198.145C84.4233 198.487 84.834 198.86 85.4633 199.265C85.8473 199.02 86.146 198.791 86.3593 198.577C86.5833 198.353 86.738 198.119 86.8233 197.873C86.9193 197.628 86.9673 197.335 86.9673 196.993C86.9673 196.481 86.8393 196.092 86.5833 195.825C86.3273 195.559 85.9806 195.425 85.5433 195.425C85.01 195.425 84.61 195.591 84.3433 195.921C84.0873 196.252 83.9593 196.647 83.9593 197.105ZM82.4553 203.121C82.4553 203.687 82.61 204.129 82.9193 204.449C83.2286 204.759 83.6553 204.913 84.1993 204.913C84.7646 204.913 85.2126 204.748 85.5433 204.417C85.8846 204.076 86.0553 203.633 86.0553 203.089C86.0553 202.737 85.986 202.433 85.8473 202.177C85.7193 201.911 85.506 201.655 85.2073 201.409C84.9193 201.153 84.53 200.865 84.0393 200.545C83.6126 200.855 83.282 201.137 83.0473 201.393C82.8233 201.639 82.6686 201.895 82.5833 202.161C82.498 202.428 82.4553 202.748 82.4553 203.121ZM92.5828 205.601C91.7081 205.601 91.0361 205.276 90.5668 204.625C90.1081 203.975 89.8788 203.068 89.8788 201.905C89.8788 200.977 89.9961 200.087 90.2308 199.233C90.4655 198.369 90.7908 197.601 91.2068 196.929C91.6335 196.247 92.1241 195.708 92.6788 195.313C93.2335 194.919 93.8308 194.721 94.4708 194.721C95.3455 194.721 96.0175 195.047 96.4868 195.697C96.9561 196.348 97.1908 197.26 97.1908 198.433C97.1908 199.361 97.0681 200.257 96.8228 201.121C96.5881 201.975 96.2575 202.737 95.8308 203.409C95.4148 204.081 94.9295 204.615 94.3748 205.009C93.8201 205.404 93.2228 205.601 92.5828 205.601ZM92.8868 204.849C93.1535 204.849 93.3988 204.716 93.6228 204.449C93.8575 204.172 94.0708 203.799 94.2628 203.329C94.4548 202.86 94.6201 202.332 94.7588 201.745C94.9081 201.148 95.0201 200.529 95.0948 199.889C95.1695 199.239 95.2068 198.599 95.2068 197.969C95.2068 197.18 95.1268 196.567 94.9668 196.129C94.8175 195.692 94.5561 195.473 94.1828 195.473C93.8521 195.473 93.5428 195.681 93.2548 196.097C92.9775 196.503 92.7321 197.047 92.5188 197.729C92.3161 198.401 92.1561 199.143 92.0388 199.953C91.9215 200.753 91.8628 201.548 91.8628 202.337C91.8628 203.127 91.9375 203.745 92.0868 204.193C92.2468 204.631 92.5135 204.849 92.8868 204.849Z" fill="black"/>
<path d="M120 200.941L105.545 200.941" stroke="black" stroke-width="0.958394"/>
<path d="M81.6233 320.642C81.954 320.066 82.29 319.49 82.6313 318.914C82.9833 318.338 83.3726 317.719 83.7993 317.058C84.226 316.386 84.722 315.634 85.2873 314.802C85.8633 313.959 86.5513 312.988 87.3513 311.89H82.0713L82.3913 310.082H89.0313L88.9513 310.61C88.3006 311.58 87.6553 312.562 87.0153 313.554C86.3753 314.535 85.7566 315.602 85.1593 316.754C84.5726 317.906 84.0286 319.202 83.5273 320.642H81.6233ZM92.5828 320.802C91.7081 320.802 91.0361 320.476 90.5668 319.826C90.1081 319.175 89.8788 318.268 89.8788 317.106C89.8788 316.178 89.9961 315.287 90.2308 314.434C90.4655 313.57 90.7908 312.802 91.2068 312.13C91.6335 311.447 92.1241 310.908 92.6788 310.514C93.2335 310.119 93.8308 309.922 94.4708 309.922C95.3455 309.922 96.0175 310.247 96.4868 310.898C96.9561 311.548 97.1908 312.46 97.1908 313.634C97.1908 314.562 97.0681 315.458 96.8228 316.322C96.5881 317.175 96.2575 317.938 95.8308 318.61C95.4148 319.282 94.9295 319.815 94.3748 320.21C93.8201 320.604 93.2228 320.802 92.5828 320.802ZM92.8868 320.05C93.1535 320.05 93.3988 319.916 93.6228 319.65C93.8575 319.372 94.0708 318.999 94.2628 318.53C94.4548 318.06 94.6201 317.532 94.7588 316.946C94.9081 316.348 95.0201 315.73 95.0948 315.09C95.1695 314.439 95.2068 313.799 95.2068 313.17C95.2068 312.38 95.1268 311.767 94.9668 311.33C94.8175 310.892 94.5561 310.674 94.1828 310.674C93.8521 310.674 93.5428 310.882 93.2548 311.298C92.9775 311.703 92.7321 312.247 92.5188 312.93C92.3161 313.602 92.1561 314.343 92.0388 315.154C91.9215 315.954 91.8628 316.748 91.8628 317.538C91.8628 318.327 91.9375 318.946 92.0868 319.394C92.2468 319.831 92.5135 320.05 92.8868 320.05Z" fill="black"/>
<path d="M120 316.142L105.545 316.142" stroke="black" stroke-width="0.958394"/>
<path d="M84.1673 436.002C83.154 436.002 82.3806 435.703 81.8473 435.106C81.314 434.508 81.0473 433.719 81.0473 432.738C81.0473 431.607 81.3353 430.53 81.9113 429.506C82.4873 428.482 83.3246 427.586 84.4233 426.818C85.5326 426.05 86.882 425.484 88.4713 425.122L88.3753 425.634C87.4046 425.954 86.5726 426.386 85.8793 426.93C85.1966 427.463 84.642 428.076 84.2153 428.77C83.7886 429.452 83.474 430.162 83.2713 430.898C83.5913 430.482 83.954 430.156 84.3593 429.922C84.7753 429.687 85.2286 429.57 85.7193 429.57C86.5086 429.57 87.0953 429.81 87.4793 430.29C87.874 430.77 88.0713 431.388 88.0713 432.146C88.0713 432.935 87.89 433.618 87.5273 434.194C87.1753 434.77 86.7006 435.218 86.1033 435.538C85.5166 435.847 84.8713 436.002 84.1673 436.002ZM82.9673 433.218C82.9673 433.932 83.0846 434.455 83.3193 434.786C83.554 435.116 83.874 435.282 84.2793 435.282C84.8233 435.282 85.2766 435.02 85.6393 434.498C86.002 433.964 86.1833 433.255 86.1833 432.37C86.1833 431.239 85.7833 430.674 84.9833 430.674C84.6313 430.674 84.2846 430.77 83.9433 430.962C83.6126 431.154 83.3246 431.426 83.0793 431.778C83.0046 432.258 82.9673 432.738 82.9673 433.218ZM92.5828 436.002C91.7081 436.002 91.0361 435.676 90.5668 435.026C90.1081 434.375 89.8788 433.468 89.8788 432.306C89.8788 431.378 89.9961 430.487 90.2308 429.634C90.4655 428.77 90.7908 428.002 91.2068 427.33C91.6335 426.647 92.1241 426.108 92.6788 425.714C93.2335 425.319 93.8308 425.122 94.4708 425.122C95.3455 425.122 96.0175 425.447 96.4868 426.098C96.9561 426.748 97.1908 427.66 97.1908 428.834C97.1908 429.762 97.0681 430.658 96.8228 431.522C96.5881 432.375 96.2575 433.138 95.8308 433.81C95.4148 434.482 94.9295 435.015 94.3748 435.41C93.8201 435.804 93.2228 436.002 92.5828 436.002ZM92.8868 435.25C93.1535 435.25 93.3988 435.116 93.6228 434.85C93.8575 434.572 94.0708 434.199 94.2628 433.73C94.4548 433.26 94.6201 432.732 94.7588 432.146C94.9081 431.548 95.0201 430.93 95.0948 430.29C95.1695 429.639 95.2068 428.999 95.2068 428.37C95.2068 427.58 95.1268 426.967 94.9668 426.53C94.8175 426.092 94.5561 425.874 94.1828 425.874C93.8521 425.874 93.5428 426.082 93.2548 426.498C92.9775 426.903 92.7321 427.447 92.5188 428.13C92.3161 428.802 92.1561 429.543 92.0388 430.354C91.9215 431.154 91.8628 431.948 91.8628 432.738C91.8628 433.527 91.9375 434.146 92.0868 434.594C92.2468 435.031 92.5135 435.25 92.8868 435.25Z" fill="black"/>
<path d="M120 431.342L105.545 431.342" stroke="black" stroke-width="0.958394"/>
<path d="M83.3353 551.201C82.4926 551.201 81.858 551.078 81.4313 550.833C81.0153 550.588 80.8126 550.326 80.8233 550.049C80.8446 549.878 80.9673 549.718 81.1913 549.569L82.0233 548.993H82.2153L82.3593 549.393C82.466 549.713 82.6313 549.969 82.8553 550.161C83.0793 550.353 83.41 550.449 83.8473 550.449C84.4553 550.449 84.9673 550.236 85.3833 549.809C85.81 549.372 86.0233 548.769 86.0233 548.001C86.0233 547.318 85.81 546.79 85.3833 546.417C84.9566 546.044 84.2953 545.857 83.3993 545.857C83.1646 545.857 82.93 545.868 82.6953 545.889C82.4713 545.91 82.2206 545.948 81.9433 546.001L82.9513 540.481H88.1833L87.8953 541.985H83.4473L83.0473 544.177C83.218 544.166 83.3993 544.156 83.5913 544.145C83.7833 544.134 83.9966 544.129 84.2313 544.129C85.4366 544.129 86.3326 544.406 86.9193 544.961C87.5166 545.516 87.8153 546.241 87.8153 547.137C87.8153 547.67 87.7033 548.182 87.4793 548.673C87.2553 549.153 86.9406 549.585 86.5353 549.969C86.13 550.342 85.6553 550.641 85.1113 550.865C84.5673 551.089 83.9753 551.201 83.3353 551.201ZM92.5828 551.201C91.7081 551.201 91.0361 550.876 90.5668 550.225C90.1081 549.574 89.8788 548.668 89.8788 547.505C89.8788 546.577 89.9961 545.686 90.2308 544.833C90.4655 543.969 90.7908 543.201 91.2068 542.529C91.6335 541.846 92.1241 541.308 92.6788 540.913C93.2335 540.518 93.8308 540.321 94.4708 540.321C95.3455 540.321 96.0175 540.646 96.4868 541.297C96.9561 541.948 97.1908 542.86 97.1908 544.033C97.1908 544.961 97.0681 545.857 96.8228 546.721C96.5881 547.574 96.2575 548.337 95.8308 549.009C95.4148 549.681 94.9295 550.214 94.3748 550.609C93.8201 551.004 93.2228 551.201 92.5828 551.201ZM92.8868 550.449C93.1535 550.449 93.3988 550.316 93.6228 550.049C93.8575 549.772 94.0708 549.398 94.2628 548.929C94.4548 548.46 94.6201 547.932 94.7588 547.345C94.9081 546.748 95.0201 546.129 95.0948 545.489C95.1695 544.838 95.2068 544.198 95.2068 543.569C95.2068 542.78 95.1268 542.166 94.9668 541.729C94.8175 541.292 94.5561 541.073 94.1828 541.073C93.8521 541.073 93.5428 541.281 93.2548 541.697C92.9775 542.102 92.7321 542.646 92.5188 543.329C92.3161 544.001 92.1561 544.742 92.0388 545.553C91.9215 546.353 91.8628 547.148 91.8628 547.937C91.8628 548.726 91.9375 549.345 92.0868 549.793C92.2468 550.23 92.5135 550.449 92.8868 550.449Z" fill="black"/>
<path d="M120 546.541L105.545 546.541" stroke="black" stroke-width="0.958394"/>
<path d="M316.807 33.4531V33.1331L318.427 32.3331V21.3731L316.807 20.5731V20.2531H322.347V20.5731L320.527 21.3731V32.3531H325.267L326.687 28.9131H327.007V33.4531H316.807ZM330.426 33.4531V33.1331L332.066 32.3331V21.3731L330.426 20.5731V20.2531H335.766V20.5731L334.146 21.3731V32.3331L335.766 33.1331V33.4531H330.426ZM339.237 33.4531V33.1331L340.857 32.3331V21.3731L339.237 20.5731V20.2531H349.077V23.6931H348.757L347.497 21.3531H342.957V26.1131H346.077L347.097 24.4331H347.417V28.8131H347.097L346.077 27.1731H342.957V32.3331L344.797 33.1331V33.4531H339.237ZM352.6 33.4531V33.1331L354.22 32.3331V21.3731L352.6 20.5731V20.2531H362.64V23.6931H362.32L361.02 21.3531H356.32V26.0931H359.64L360.66 24.4131H360.98V28.8331H360.66L359.64 27.1931H356.32V32.3531H361.56L362.88 29.7131H363.2V33.4531H352.6ZM372.784 33.4531V33.1331L374.404 32.3331V21.3731L372.784 20.5731V20.2531H382.824V23.6931H382.504L381.204 21.3531H376.504V26.0931H379.824L380.844 24.4131H381.164V28.8331H380.844L379.824 27.1931H376.504V32.3531H381.744L383.064 29.7131H383.384V33.4531H372.784ZM386.408 33.4531V33.1331L387.868 32.3931L392.128 26.9531L387.968 21.2931L386.688 20.5731V20.2531H392.068V20.5731L390.468 21.3331V21.4331L393.568 25.5531L396.808 21.4131V21.3331L395.268 20.5731V20.2531H399.588V20.5731L398.308 21.2931L394.248 26.4531L398.668 32.3531L400.088 33.1331V33.4531H394.608V33.1331L396.068 32.4131V32.3331L392.788 27.8531L389.368 32.3131V32.3931L390.968 33.1331V33.4531H386.408ZM402.929 33.4531V33.1331L404.549 32.3331V21.3731L402.929 20.5731V20.2531H408.529C410.102 20.2531 411.362 20.5398 412.309 21.1131C413.269 21.6865 413.749 22.5931 413.749 23.8331C413.749 24.5665 413.495 25.2198 412.989 25.7931C412.495 26.3531 411.822 26.7998 410.969 27.1331C410.115 27.4531 409.142 27.6131 408.049 27.6131H406.649V32.3331L408.489 33.1331V33.4531H402.929ZM406.649 21.3531V26.5531H408.169C409.222 26.5531 410.049 26.3131 410.649 25.8331C411.249 25.3531 411.549 24.7398 411.549 23.9931C411.549 23.0598 411.242 22.3865 410.629 21.9731C410.029 21.5598 409.162 21.3531 408.029 21.3531H406.649ZM416.917 33.4531V33.1331L418.537 32.3331V21.3731L416.917 20.5731V20.2531H426.957V23.6931H426.637L425.337 21.3531H420.637V26.0931H423.957L424.977 24.4131H425.297V28.8331H424.977L423.957 27.1931H420.637V32.3531H425.877L427.197 29.7131H427.517V33.4531H416.917ZM437.9 33.6531C436.527 33.6531 435.34 33.3731 434.34 32.8131C433.34 32.2531 432.567 31.4865 432.02 30.5131C431.474 29.5398 431.2 28.4331 431.2 27.1931C431.2 26.2331 431.387 25.3265 431.76 24.4731C432.134 23.6198 432.64 22.8598 433.28 22.1931C433.934 21.5265 434.68 21.0065 435.52 20.6331C436.36 20.2465 437.254 20.0531 438.2 20.0531C438.88 20.0531 439.454 20.0998 439.92 20.1931C440.387 20.2731 440.8 20.3865 441.16 20.5331C441.534 20.6665 441.907 20.8265 442.28 21.0131L442.4 24.5731H442.04L440.66 21.9731C440.207 21.6531 439.794 21.4198 439.42 21.2731C439.06 21.1265 438.654 21.0531 438.2 21.0531C437.28 21.0531 436.454 21.2931 435.72 21.7731C434.987 22.2531 434.407 22.9198 433.98 23.7731C433.567 24.6131 433.36 25.5865 433.36 26.6931C433.36 27.9331 433.56 28.9998 433.96 29.8931C434.374 30.7731 434.927 31.4465 435.62 31.9131C436.314 32.3798 437.08 32.6131 437.92 32.6131C438.614 32.6131 439.194 32.5198 439.66 32.3331C440.14 32.1465 440.567 31.9265 440.94 31.6731L442.28 29.4331H442.62L442.38 32.6531C441.794 32.9465 441.167 33.1865 440.5 33.3731C439.834 33.5598 438.967 33.6531 437.9 33.6531ZM448.742 33.4531V33.1331L450.762 32.3331V21.3531H447.602L446.182 24.3731H445.862V20.2531H457.742V24.3731H457.422L456.022 21.3531H452.842V32.3331L454.882 33.1331V33.4531H448.742ZM459.571 33.4531V33.1331L460.831 32.4731L465.971 20.1531H467.071L472.151 32.4131L473.491 33.1331V33.4531H468.211V33.1331L469.971 32.4331L468.491 28.8331H463.671L462.211 32.4531L463.891 33.1331V33.4531H459.571ZM464.131 27.7331H468.051L466.091 22.9131L464.131 27.7331ZM476.208 33.4531V33.1331L477.828 32.3331V21.4131L476.228 20.5731V20.2531H479.368L487.028 29.6731V21.3531L484.968 20.5731V20.2531H490.028V20.5731L488.428 21.3531V33.5531H487.568L479.228 23.3131V32.3531L481.288 33.1331V33.4531H476.208ZM500.143 33.6531C498.769 33.6531 497.583 33.3731 496.583 32.8131C495.583 32.2531 494.809 31.4865 494.263 30.5131C493.716 29.5398 493.443 28.4331 493.443 27.1931C493.443 26.2331 493.629 25.3265 494.003 24.4731C494.376 23.6198 494.883 22.8598 495.523 22.1931C496.176 21.5265 496.923 21.0065 497.763 20.6331C498.603 20.2465 499.496 20.0531 500.443 20.0531C501.123 20.0531 501.696 20.0998 502.163 20.1931C502.629 20.2731 503.043 20.3865 503.403 20.5331C503.776 20.6665 504.149 20.8265 504.523 21.0131L504.643 24.5731H504.283L502.903 21.9731C502.449 21.6531 502.036 21.4198 501.663 21.2731C501.303 21.1265 500.896 21.0531 500.443 21.0531C499.523 21.0531 498.696 21.2931 497.963 21.7731C497.229 22.2531 496.649 22.9198 496.223 23.7731C495.809 24.6131 495.603 25.5865 495.603 26.6931C495.603 27.9331 495.803 28.9998 496.203 29.8931C496.616 30.7731 497.169 31.4465 497.863 31.9131C498.556 32.3798 499.323 32.6131 500.163 32.6131C500.856 32.6131 501.436 32.5198 501.903 32.3331C502.383 32.1465 502.809 31.9265 503.183 31.6731L504.523 29.4331H504.863L504.623 32.6531C504.036 32.9465 503.409 33.1865 502.743 33.3731C502.076 33.5598 501.209 33.6531 500.143 33.6531ZM511.744 33.4531V33.1331L513.544 32.3331V27.2931L509.124 21.2731L507.864 20.5731V20.2531H513.024V20.5731L511.564 21.2931V21.3731L515.104 26.1931L518.304 21.3931V21.3131L516.824 20.5731V20.2531H521.144V20.5731L519.844 21.2331L515.624 27.2731V32.3331L517.424 33.1331V33.4531H511.744ZM529.375 33.4531V33.1331L530.635 32.4731L535.775 20.1531H536.875L541.955 32.4131L543.295 33.1331V33.4531H538.015V33.1331L539.775 32.4331L538.295 28.8331H533.475L532.015 32.4531L533.695 33.1331V33.4531H529.375ZM533.935 27.7331H537.855L535.895 22.9131L533.935 27.7331ZM548.008 33.4531V33.1331L550.028 32.3331V21.3531H546.868L545.448 24.3731H545.128V20.2531H557.008V24.3731H556.688L555.288 21.3531H552.108V32.3331L554.148 33.1331V33.4531H548.008ZM566.061 33.4531V33.1331L567.681 32.3331V21.3731L566.061 20.5731V20.2531H571.441C572.335 20.2531 573.135 20.3665 573.841 20.5931C574.561 20.8065 575.121 21.1331 575.521 21.5731C575.935 21.9998 576.141 22.5465 576.141 23.2131C576.141 23.8931 575.908 24.5198 575.441 25.0931C574.975 25.6531 574.301 26.0531 573.421 26.2931C574.635 26.4531 575.581 26.8265 576.261 27.4131C576.955 27.9865 577.301 28.7198 577.301 29.6131C577.301 30.3465 577.068 31.0065 576.601 31.5931C576.135 32.1665 575.495 32.6198 574.681 32.9531C573.868 33.2865 572.941 33.4531 571.901 33.4531H566.061ZM570.861 21.3531H569.781V26.1131H570.961C571.908 26.1131 572.641 25.9065 573.161 25.4931C573.681 25.0798 573.941 24.5131 573.941 23.7931C573.941 22.1665 572.915 21.3531 570.861 21.3531ZM571.601 27.1731H569.781V32.3531H571.741C572.768 32.3531 573.575 32.1131 574.161 31.6331C574.761 31.1398 575.061 30.5131 575.061 29.7531C575.061 28.8598 574.761 28.2065 574.161 27.7931C573.561 27.3798 572.708 27.1731 571.601 27.1731ZM580.52 33.4531V33.1331L582.16 32.3331V21.3731L580.52 20.5731V20.2531H585.86V20.5731L584.24 21.3731V32.3331L585.86 33.1331V33.4531H580.52ZM589.331 33.4531V33.1331L590.951 32.3331V21.3731L589.331 20.5731V20.2531H594.891C596.291 20.2531 597.391 20.5465 598.191 21.1331C599.004 21.7065 599.411 22.4998 599.411 23.5131C599.411 24.2598 599.158 24.9198 598.651 25.4931C598.144 26.0665 597.478 26.5065 596.651 26.8131L600.431 32.3931L601.771 33.1331V33.4531H598.551L594.711 27.3731H593.051V32.3131L594.551 33.1331V33.4531H589.331ZM594.231 21.3531H593.051V26.3131H594.351C595.178 26.3131 595.858 26.0798 596.391 25.6131C596.938 25.1331 597.211 24.5265 597.211 23.7931C597.211 23.0331 596.944 22.4398 596.411 22.0131C595.891 21.5731 595.164 21.3531 594.231 21.3531ZM606.211 33.4531V33.1331L608.231 32.3331V21.3531H605.071L603.651 24.3731H603.331V20.2531H615.211V24.3731H614.891L613.491 21.3531H610.311V32.3331L612.351 33.1331V33.4531H606.211ZM618.264 33.4531V33.1331L619.884 32.3331V21.3731L618.264 20.5731V20.2531H623.564V20.5731L621.984 21.3731V26.0931H628.484V21.3731L626.884 20.5731V20.2531H632.184V20.5731L630.564 21.3731V32.3331L632.184 33.1331V33.4531H626.884V33.1331L628.484 32.3331V27.1931H621.984V32.3331L623.564 33.1331V33.4531H618.264ZM381.757 61.5531L376.637 49.2931L375.257 48.5731V48.2531H380.557V48.5731L378.817 49.3331L382.557 58.3331H382.657L386.357 49.2731L384.697 48.5731V48.2531H388.917V48.5731L387.777 49.1931L382.557 61.5531H381.757ZM391.759 61.4531V61.1331L393.379 60.3331V49.3731L391.759 48.5731V48.2531H401.799V51.6931H401.479L400.179 49.3531H395.479V54.0931H398.799L399.819 52.4131H400.139V56.8331H399.819L398.799 55.1931H395.479V60.3531H400.719L402.039 57.7131H402.359V61.4531H391.759ZM405.942 61.4531V61.1331L407.562 60.3331V49.3731L405.942 48.5731V48.2531H411.502C412.902 48.2531 414.002 48.5465 414.802 49.1331C415.616 49.7065 416.022 50.4998 416.022 51.5131C416.022 52.2598 415.769 52.9198 415.262 53.4931C414.756 54.0665 414.089 54.5065 413.262 54.8131L417.042 60.3931L418.382 61.1331V61.4531H415.162L411.322 55.3731H409.662V60.3131L411.162 61.1331V61.4531H405.942ZM410.842 49.3531H409.662V54.3131H410.962C411.789 54.3131 412.469 54.0798 413.002 53.6131C413.549 53.1331 413.822 52.5265 413.822 51.7931C413.822 51.0331 413.556 50.4398 413.022 50.0131C412.502 49.5731 411.776 49.3531 410.842 49.3531ZM424.597 61.6531C423.757 61.6531 423.037 61.5731 422.437 61.4131C421.851 61.2531 421.244 61.0198 420.617 60.7131L420.417 57.4131H420.737L421.797 59.5931C422.264 59.9798 422.724 60.2598 423.177 60.4331C423.631 60.6065 424.084 60.6931 424.537 60.6931C425.311 60.6931 425.917 60.4931 426.357 60.0931C426.811 59.6931 427.037 59.1465 427.037 58.4531C427.037 57.9065 426.911 57.4731 426.657 57.1531C426.417 56.8198 426.051 56.5265 425.557 56.2731C425.077 56.0065 424.484 55.6998 423.777 55.3531C422.831 54.8998 422.104 54.4265 421.597 53.9331C421.091 53.4265 420.837 52.7198 420.837 51.8131C420.837 51.3331 420.951 50.8731 421.177 50.4331C421.417 49.9798 421.737 49.5798 422.137 49.2331C422.537 48.8731 422.984 48.5865 423.477 48.3731C423.971 48.1598 424.484 48.0531 425.017 48.0531C425.644 48.0531 426.231 48.1265 426.777 48.2731C427.324 48.4198 427.864 48.6331 428.397 48.9131L428.597 52.1131H428.277L427.237 49.9731C426.811 49.6398 426.424 49.3998 426.077 49.2531C425.731 49.1065 425.337 49.0331 424.897 49.0331C424.324 49.0331 423.844 49.2265 423.457 49.6131C423.084 49.9998 422.897 50.4865 422.897 51.0731C422.897 51.7265 423.097 52.2398 423.497 52.6131C423.911 52.9865 424.571 53.3865 425.477 53.8131C426.277 54.1998 426.937 54.5731 427.457 54.9331C427.991 55.2798 428.384 55.6731 428.637 56.1131C428.891 56.5531 429.017 57.1131 429.017 57.7931C429.017 58.4198 428.884 58.9731 428.617 59.4531C428.351 59.9331 427.997 60.3398 427.557 60.6731C427.117 60.9931 426.637 61.2398 426.117 61.4131C425.611 61.5731 425.104 61.6531 424.597 61.6531ZM439.278 61.6531C438.251 61.6531 437.331 61.4665 436.518 61.0931C435.704 60.7198 435.064 60.1331 434.598 59.3331C434.144 58.5331 433.918 57.4865 433.918 56.1931V49.3731L432.298 48.5731V48.2531H437.638V48.5731L436.018 49.3731V55.9731C436.018 57.0798 436.191 57.9598 436.538 58.6131C436.884 59.2531 437.351 59.7131 437.938 59.9931C438.524 60.2731 439.184 60.4131 439.918 60.4131C440.504 60.4131 441.044 60.2931 441.538 60.0531C442.044 59.7998 442.444 59.3998 442.738 58.8531C443.044 58.2931 443.198 57.5665 443.198 56.6731V49.3331L441.238 48.5731V48.2531H446.218V48.5731L444.598 49.3531V56.1931C444.598 57.4865 444.364 58.5331 443.898 59.3331C443.444 60.1331 442.818 60.7198 442.018 61.0931C441.218 61.4665 440.304 61.6531 439.278 61.6531ZM453.746 61.6531C452.906 61.6531 452.186 61.5731 451.586 61.4131C450.999 61.2531 450.392 61.0198 449.766 60.7131L449.566 57.4131H449.886L450.946 59.5931C451.412 59.9798 451.872 60.2598 452.326 60.4331C452.779 60.6065 453.232 60.6931 453.686 60.6931C454.459 60.6931 455.066 60.4931 455.506 60.0931C455.959 59.6931 456.186 59.1465 456.186 58.4531C456.186 57.9065 456.059 57.4731 455.806 57.1531C455.566 56.8198 455.199 56.5265 454.706 56.2731C454.226 56.0065 453.632 55.6998 452.926 55.3531C451.979 54.8998 451.252 54.4265 450.746 53.9331C450.239 53.4265 449.986 52.7198 449.986 51.8131C449.986 51.3331 450.099 50.8731 450.326 50.4331C450.566 49.9798 450.886 49.5798 451.286 49.2331C451.686 48.8731 452.132 48.5865 452.626 48.3731C453.119 48.1598 453.632 48.0531 454.166 48.0531C454.792 48.0531 455.379 48.1265 455.926 48.2731C456.472 48.4198 457.012 48.6331 457.546 48.9131L457.746 52.1131H457.426L456.386 49.9731C455.959 49.6398 455.572 49.3998 455.226 49.2531C454.879 49.1065 454.486 49.0331 454.046 49.0331C453.472 49.0331 452.992 49.2265 452.606 49.6131C452.232 49.9998 452.046 50.4865 452.046 51.0731C452.046 51.7265 452.246 52.2398 452.646 52.6131C453.059 52.9865 453.719 53.3865 454.626 53.8131C455.426 54.1998 456.086 54.5731 456.606 54.9331C457.139 55.2798 457.532 55.6731 457.786 56.1131C458.039 56.5531 458.166 57.1131 458.166 57.7931C458.166 58.4198 458.032 58.9731 457.766 59.4531C457.499 59.9331 457.146 60.3398 456.706 60.6731C456.266 60.9931 455.786 61.2398 455.266 61.4131C454.759 61.5731 454.252 61.6531 453.746 61.6531ZM474.266 61.6531C473.306 61.6531 472.413 61.4931 471.586 61.1731C470.773 60.8531 470.066 60.4065 469.466 59.8331C468.866 59.2465 468.393 58.5598 468.046 57.7731C467.713 56.9865 467.546 56.1265 467.546 55.1931C467.546 54.1665 467.733 53.2198 468.106 52.3531C468.493 51.4865 469.019 50.7331 469.686 50.0931C470.353 49.4398 471.119 48.9398 471.986 48.5931C472.853 48.2331 473.779 48.0531 474.766 48.0531C475.473 48.0531 476.073 48.0931 476.566 48.1731C477.059 48.2531 477.499 48.3665 477.886 48.5131C478.286 48.6598 478.673 48.8265 479.046 49.0131L479.166 52.3731H478.846L477.406 49.9731C476.886 49.6265 476.439 49.3865 476.066 49.2531C475.693 49.1198 475.259 49.0531 474.766 49.0531C473.779 49.0531 472.899 49.2798 472.126 49.7331C471.353 50.1865 470.746 50.8131 470.306 51.6131C469.866 52.4131 469.646 53.3265 469.646 54.3531C469.646 55.6465 469.879 56.7531 470.346 57.6731C470.813 58.5931 471.433 59.2998 472.206 59.7931C472.993 60.2731 473.873 60.5131 474.846 60.5131C475.233 60.5131 475.613 60.4931 475.986 60.4531C476.373 60.3998 476.759 60.3065 477.146 60.1731V56.7531L475.366 55.9331V55.6131H480.646V55.9331L479.246 56.8131V59.9731C478.846 60.3198 478.366 60.6198 477.806 60.8731C477.246 61.1131 476.659 61.3065 476.046 61.4531C475.433 61.5865 474.839 61.6531 474.266 61.6531ZM483.739 61.4531V61.1331L485.359 60.3331V49.3731L483.739 48.5731V48.2531H489.819C491.312 48.2531 492.586 48.5131 493.639 49.0331C494.692 49.5531 495.492 50.2665 496.039 51.1731C496.599 52.0798 496.879 53.1065 496.879 54.2531C496.879 55.2931 496.699 56.2531 496.339 57.1331C495.979 58.0131 495.472 58.7731 494.819 59.4131C494.179 60.0531 493.419 60.5531 492.539 60.9131C491.672 61.2731 490.719 61.4531 489.679 61.4531H483.739ZM489.279 49.3531H487.459V60.3531H489.579C490.646 60.3531 491.559 60.1331 492.319 59.6931C493.079 59.2398 493.666 58.6065 494.079 57.7931C494.492 56.9665 494.699 55.9931 494.699 54.8731C494.699 53.7665 494.486 52.7998 494.059 51.9731C493.646 51.1331 493.032 50.4865 492.219 50.0331C491.419 49.5798 490.439 49.3531 489.279 49.3531ZM500.364 61.4531V61.1331L501.984 60.3331V49.3731L500.364 48.5731V48.2531H505.964C507.537 48.2531 508.797 48.5398 509.744 49.1131C510.704 49.6865 511.184 50.5931 511.184 51.8331C511.184 52.5665 510.931 53.2198 510.424 53.7931C509.931 54.3531 509.257 54.7998 508.404 55.1331C507.551 55.4531 506.577 55.6131 505.484 55.6131H504.084V60.3331L505.924 61.1331V61.4531H500.364ZM504.084 49.3531V54.5531H505.604C506.657 54.5531 507.484 54.3131 508.084 53.8331C508.684 53.3531 508.984 52.7398 508.984 51.9931C508.984 51.0598 508.677 50.3865 508.064 49.9731C507.464 49.5598 506.597 49.3531 505.464 49.3531H504.084ZM523.632 64.4531C522.552 63.1465 521.712 61.7531 521.112 60.2731C520.526 58.7798 520.232 57.2065 520.232 55.5531C520.232 53.8998 520.526 52.3331 521.112 50.8531C521.712 49.3598 522.552 47.9598 523.632 46.6531H524.072V46.7131C523.272 47.9931 522.659 49.3331 522.232 50.7331C521.806 52.1198 521.592 53.7265 521.592 55.5531C521.592 56.7665 521.686 57.8798 521.872 58.8931C522.072 59.9065 522.352 60.8598 522.712 61.7531C523.086 62.6465 523.539 63.5265 524.072 64.3931V64.4531H523.632ZM526.251 61.4531V60.8931C527.384 59.5998 528.318 58.5198 529.051 57.6531C529.798 56.7731 530.378 56.0398 530.791 55.4531C531.218 54.8665 531.524 54.3665 531.711 53.9531C531.911 53.5398 532.038 53.1531 532.091 52.7931C532.144 52.4198 532.171 52.0065 532.171 51.5531C532.171 50.7798 531.971 50.1665 531.571 49.7131C531.184 49.2465 530.684 49.0131 530.071 49.0131C528.671 49.0131 527.971 49.7531 527.971 51.2331V52.1331L527.851 52.2931H526.831C526.564 52.2931 526.364 52.2465 526.231 52.1531C526.098 52.0598 526.031 51.8265 526.031 51.4531C526.031 51.0931 526.138 50.7331 526.351 50.3731C526.564 49.9998 526.898 49.6465 527.351 49.3131C527.711 49.0598 528.044 48.8398 528.351 48.6531C528.671 48.4665 529.018 48.3198 529.391 48.2131C529.778 48.1065 530.231 48.0531 530.751 48.0531C531.458 48.0531 532.084 48.2131 532.631 48.5331C533.178 48.8531 533.604 49.2798 533.911 49.8131C534.231 50.3465 534.391 50.9398 534.391 51.5931C534.391 52.0331 534.338 52.4331 534.231 52.7931C534.138 53.1531 533.964 53.5265 533.711 53.9131C533.458 54.2998 533.111 54.7465 532.671 55.2531C532.231 55.7598 531.671 56.3731 530.991 57.0931C530.311 57.7998 529.484 58.6598 528.511 59.6731H533.371L534.411 57.7131H534.731L534.531 61.4531H526.251ZM541.624 61.6531C540.678 61.6531 539.871 61.3798 539.204 60.8331C538.538 60.2865 538.024 59.5065 537.664 58.4931C537.318 57.4665 537.144 56.2531 537.144 54.8531C537.144 53.5465 537.331 52.3865 537.704 51.3731C538.091 50.3465 538.618 49.5398 539.284 48.9531C539.964 48.3531 540.744 48.0531 541.624 48.0531C542.571 48.0531 543.378 48.3265 544.044 48.8731C544.724 49.4198 545.238 50.2065 545.584 51.2331C545.944 52.2465 546.124 53.4531 546.124 54.8531C546.124 56.1598 545.931 57.3265 545.544 58.3531C545.158 59.3665 544.624 60.1731 543.944 60.7731C543.278 61.3598 542.504 61.6531 541.624 61.6531ZM542.024 60.7131C542.438 60.7131 542.791 60.4865 543.084 60.0331C543.378 59.5798 543.598 58.9598 543.744 58.1731C543.904 57.3731 543.984 56.4731 543.984 55.4731C543.984 54.1798 543.884 53.0465 543.684 52.0731C543.498 51.0998 543.204 50.3465 542.804 49.8131C542.404 49.2665 541.904 48.9931 541.304 48.9931C540.864 48.9931 540.491 49.2198 540.184 49.6731C539.891 50.1131 539.664 50.7265 539.504 51.5131C539.358 52.2865 539.284 53.1798 539.284 54.1931C539.284 55.4998 539.384 56.6465 539.584 57.6331C539.784 58.6065 540.084 59.3665 540.484 59.9131C540.884 60.4465 541.398 60.7131 542.024 60.7131ZM548.798 61.4531V60.8931C549.931 59.5998 550.864 58.5198 551.598 57.6531C552.344 56.7731 552.924 56.0398 553.338 55.4531C553.764 54.8665 554.071 54.3665 554.258 53.9531C554.458 53.5398 554.584 53.1531 554.638 52.7931C554.691 52.4198 554.718 52.0065 554.718 51.5531C554.718 50.7798 554.518 50.1665 554.118 49.7131C553.731 49.2465 553.231 49.0131 552.618 49.0131C551.218 49.0131 550.518 49.7531 550.518 51.2331V52.1331L550.398 52.2931H549.378C549.111 52.2931 548.911 52.2465 548.778 52.1531C548.644 52.0598 548.578 51.8265 548.578 51.4531C548.578 51.0931 548.684 50.7331 548.898 50.3731C549.111 49.9998 549.444 49.6465 549.898 49.3131C550.258 49.0598 550.591 48.8398 550.898 48.6531C551.218 48.4665 551.564 48.3198 551.938 48.2131C552.324 48.1065 552.778 48.0531 553.298 48.0531C554.004 48.0531 554.631 48.2131 555.178 48.5331C555.724 48.8531 556.151 49.2798 556.458 49.8131C556.778 50.3465 556.938 50.9398 556.938 51.5931C556.938 52.0331 556.884 52.4331 556.778 52.7931C556.684 53.1531 556.511 53.5265 556.258 53.9131C556.004 54.2998 555.658 54.7465 555.218 55.2531C554.778 55.7598 554.218 56.3731 553.538 57.0931C552.858 57.7998 552.031 58.6598 551.058 59.6731H555.918L556.958 57.7131H557.278L557.078 61.4531H548.798ZM560.071 61.4531V60.8931C561.205 59.5998 562.138 58.5198 562.871 57.6531C563.618 56.7731 564.198 56.0398 564.611 55.4531C565.038 54.8665 565.345 54.3665 565.531 53.9531C565.731 53.5398 565.858 53.1531 565.911 52.7931C565.965 52.4198 565.991 52.0065 565.991 51.5531C565.991 50.7798 565.791 50.1665 565.391 49.7131C565.005 49.2465 564.505 49.0131 563.891 49.0131C562.491 49.0131 561.791 49.7531 561.791 51.2331V52.1331L561.671 52.2931H560.651C560.385 52.2931 560.185 52.2465 560.051 52.1531C559.918 52.0598 559.851 51.8265 559.851 51.4531C559.851 51.0931 559.958 50.7331 560.171 50.3731C560.385 49.9998 560.718 49.6465 561.171 49.3131C561.531 49.0598 561.865 48.8398 562.171 48.6531C562.491 48.4665 562.838 48.3198 563.211 48.2131C563.598 48.1065 564.051 48.0531 564.571 48.0531C565.278 48.0531 565.905 48.2131 566.451 48.5331C566.998 48.8531 567.425 49.2798 567.731 49.8131C568.051 50.3465 568.211 50.9398 568.211 51.5931C568.211 52.0331 568.158 52.4331 568.051 52.7931C567.958 53.1531 567.785 53.5265 567.531 53.9131C567.278 54.2998 566.931 54.7465 566.491 55.2531C566.051 55.7598 565.491 56.3731 564.811 57.0931C564.131 57.7998 563.305 58.6598 562.331 59.6731H567.191L568.231 57.7131H568.551L568.351 61.4531H560.071ZM570.445 64.4531V64.3931C570.978 63.5265 571.425 62.6465 571.785 61.7531C572.158 60.8598 572.438 59.9065 572.625 58.8931C572.825 57.8798 572.925 56.7665 572.925 55.5531C572.925 53.7265 572.711 52.1198 572.285 50.7331C571.858 49.3331 571.245 47.9931 570.445 46.7131V46.6531H570.885C571.965 47.9598 572.798 49.3598 573.385 50.8531C573.985 52.3331 574.285 53.8998 574.285 55.5531C574.285 57.2065 573.985 58.7798 573.385 60.2731C572.798 61.7531 571.965 63.1465 570.885 64.4531H570.445Z" fill="black"/>
<path d="M315.607 36.3531H634.393V37.3531H315.607V36.3531ZM374.637 64.3531H575.365V65.3531H374.637V64.3531Z" fill="black"/>
<path d="M49 336.175H48.744L48.088 334.735H44.072L39.32 338.223L38.696 339.311H38.44V334.367H38.696L39.288 335.567H39.352L43.112 332.783L39.384 330.287H39.32L38.696 331.519H38.44V327.871H38.696L39.224 328.943L44.056 332.319H48.088L48.744 330.895H49V336.175ZM49 326.065H48.744L48.088 324.705H39.352L38.696 326.065H38.44V317.345H41.208V317.601L39.32 318.785V322.289H43.112V319.825L41.736 318.929V318.673H45.336V318.929L43.992 319.825V322.289H48.12V318.401L45.736 317.153V316.897H49V326.065ZM49 314.774H48.744L48.2 313.798L38.36 309.622V308.214L48.168 304.086L48.744 302.998H49V308.054H48.744L48.168 306.662L45.512 307.75V311.542L48.168 312.63L48.744 311.302H49V314.774ZM44.632 311.174V308.118L40.904 309.638L44.632 311.174ZM49 301.183H48.744L48.088 299.823H39.352L38.696 301.183H38.44V295.711C38.44 294.591 38.6747 293.711 39.144 293.071C39.6027 292.421 40.2373 292.095 41.048 292.095C41.6347 292.095 42.1413 292.293 42.568 292.687C42.984 293.082 43.3147 293.599 43.56 294.239L48.104 291.279L48.744 290.127H49V293.599L44.104 296.559V297.407H48.072L48.744 296.207H49V301.183ZM39.32 296.767V297.407H43.32V296.671C43.32 296.01 43.1333 295.487 42.76 295.103C42.3867 294.719 41.9013 294.527 41.304 294.527C40.6747 294.527 40.1893 294.719 39.848 295.103C39.496 295.477 39.32 296.031 39.32 296.767ZM49.16 285.127C49.16 285.831 49.0907 286.455 48.952 286.999C48.8027 287.532 48.6 288.049 48.344 288.551L45.64 288.711V288.423L47.608 287.287C47.8427 286.999 48.024 286.689 48.152 286.359C48.28 286.017 48.344 285.671 48.344 285.319C48.344 284.743 48.2107 284.273 47.944 283.911C47.6667 283.548 47.2613 283.367 46.728 283.367C46.3653 283.367 46.0667 283.452 45.832 283.623C45.5973 283.783 45.3787 284.055 45.176 284.439C44.9627 284.823 44.7067 285.351 44.408 286.023C44.0773 286.78 43.6827 287.361 43.224 287.767C42.7653 288.172 42.1947 288.375 41.512 288.375C41.0853 288.375 40.68 288.268 40.296 288.055C39.9013 287.831 39.5547 287.537 39.256 287.175C38.9467 286.801 38.7067 286.391 38.536 285.943C38.3653 285.484 38.28 285.015 38.28 284.535C38.28 283.991 38.344 283.468 38.472 282.967C38.6 282.465 38.7813 282.001 39.016 281.575L41.576 281.415V281.687L39.768 282.807C39.5547 283.084 39.3947 283.356 39.288 283.623C39.1707 283.879 39.112 284.172 39.112 284.503C39.112 284.94 39.2507 285.303 39.528 285.591C39.8053 285.879 40.1733 286.023 40.632 286.023C41.0693 286.023 41.432 285.868 41.72 285.559C41.9973 285.239 42.312 284.689 42.664 283.911C43.112 282.94 43.5707 282.225 44.04 281.767C44.5093 281.308 45.128 281.079 45.896 281.079C46.5787 281.079 47.1653 281.276 47.656 281.671C48.1467 282.065 48.52 282.572 48.776 283.191C49.032 283.809 49.16 284.455 49.16 285.127Z" fill="black"/>
<path d="M119.354 546.521L925.653 546.52" stroke="black" stroke-width="0.958394"/>
<path d="M120.27 546.521L120.27 112.954" stroke="black" stroke-width="0.958394"/>
<path d="M182.686 546.521L182.686 117.481" stroke="black" stroke-width="0.457528" stroke-dasharray="1.92 1.92"/>
<path d="M120.539 546.521L120.539 117.481" stroke="black" stroke-width="0.457528" stroke-dasharray="1.92 1.92"/>
<path d="M119.783 431.098L922.603 431.098" stroke="black" stroke-width="0.457528" stroke-dasharray="1.92 1.92"/>
<path d="M121.455 315.801L924.275 315.801" stroke="black" stroke-width="0.457528" stroke-dasharray="1.92 1.92"/>
<path d="M121.455 200.504L924.275 200.504" stroke="black" stroke-width="0.457528" stroke-dasharray="1.92 1.92"/>
<path d="M326.574 546.521L326.574 117.481" stroke="black" stroke-width="0.457528" stroke-dasharray="1.92 1.92"/>
<path d="M470.465 546.521L470.465 117.481" stroke="black" stroke-width="0.457528" stroke-dasharray="1.92 1.92"/>
<path d="M614.355 546.521L614.355 117.481" stroke="black" stroke-width="0.457528" stroke-dasharray="1.92 1.92"/>
<path d="M758.246 546.521L758.246 117.481" stroke="black" stroke-width="0.457528" stroke-dasharray="1.92 1.92"/>
<path d="M901.221 546.521L901.221 117.481" stroke="black" stroke-width="0.457528" stroke-dasharray="1.92 1.92"/>
<path d="M378.404 625.17V624.914L379.764 624.258V615.522L378.404 614.866V614.61H383.7V614.866L382.18 615.522V624.29H385.7L386.996 621.266H387.252V625.17H378.404ZM395.195 625.33C394.405 625.33 393.675 625.197 393.003 624.93C392.331 624.653 391.744 624.274 391.243 623.794C390.752 623.303 390.368 622.727 390.091 622.066C389.813 621.405 389.675 620.679 389.675 619.89C389.675 619.101 389.813 618.375 390.091 617.714C390.368 617.053 390.752 616.482 391.243 616.002C391.744 615.511 392.331 615.133 393.003 614.866C393.675 614.589 394.405 614.45 395.195 614.45C395.995 614.45 396.731 614.589 397.403 614.866C398.075 615.133 398.656 615.511 399.147 616.002C399.648 616.482 400.037 617.053 400.315 617.714C400.592 618.375 400.731 619.101 400.731 619.89C400.731 620.679 400.592 621.405 400.315 622.066C400.037 622.727 399.648 623.303 399.147 623.794C398.656 624.274 398.075 624.653 397.403 624.93C396.731 625.197 395.995 625.33 395.195 625.33ZM395.451 624.498C395.984 624.498 396.453 624.327 396.859 623.986C397.275 623.645 397.595 623.165 397.819 622.546C398.053 621.927 398.171 621.202 398.171 620.37C398.171 619.346 398.027 618.45 397.739 617.682C397.461 616.914 397.083 616.322 396.603 615.906C396.123 615.479 395.584 615.266 394.987 615.266C394.453 615.266 393.979 615.437 393.563 615.778C393.147 616.109 392.816 616.583 392.571 617.202C392.336 617.821 392.219 618.546 392.219 619.378C392.219 620.402 392.363 621.298 392.651 622.066C392.939 622.834 393.328 623.431 393.819 623.858C394.309 624.285 394.853 624.498 395.451 624.498ZM409.089 625.33C408.321 625.33 407.601 625.202 406.929 624.946C406.267 624.679 405.681 624.311 405.169 623.842C404.667 623.373 404.273 622.823 403.985 622.194C403.707 621.554 403.569 620.861 403.569 620.114C403.569 619.293 403.729 618.541 404.049 617.858C404.369 617.165 404.811 616.562 405.377 616.05C405.942 615.538 406.587 615.143 407.313 614.866C408.038 614.589 408.801 614.45 409.601 614.45C410.166 614.45 410.646 614.482 411.041 614.546C411.446 614.61 411.803 614.701 412.113 614.818C412.433 614.935 412.747 615.069 413.057 615.218L413.233 618.034H412.945L411.409 615.714C411.121 615.533 410.843 615.41 410.577 615.346C410.31 615.271 410.006 615.234 409.665 615.234C408.993 615.234 408.385 615.426 407.841 615.81C407.297 616.194 406.865 616.733 406.545 617.426C406.225 618.109 406.065 618.909 406.065 619.826C406.065 620.786 406.219 621.613 406.529 622.306C406.838 622.989 407.254 623.517 407.777 623.89C408.31 624.263 408.902 624.45 409.553 624.45C409.734 624.45 409.931 624.445 410.145 624.434C410.358 624.413 410.571 624.381 410.785 624.338V621.378L409.361 620.626V620.37H414.385V620.626L413.185 621.394V623.986C412.854 624.263 412.454 624.503 411.985 624.706C411.526 624.898 411.041 625.053 410.529 625.17C410.027 625.277 409.547 625.33 409.089 625.33ZM426.782 625.33C426.014 625.33 425.294 625.202 424.622 624.946C423.961 624.679 423.374 624.311 422.862 623.842C422.361 623.373 421.966 622.823 421.678 622.194C421.401 621.554 421.262 620.861 421.262 620.114C421.262 619.293 421.422 618.541 421.742 617.858C422.062 617.165 422.505 616.562 423.07 616.05C423.636 615.538 424.281 615.143 425.006 614.866C425.732 614.589 426.494 614.45 427.294 614.45C427.86 614.45 428.34 614.482 428.734 614.546C429.14 614.61 429.497 614.701 429.806 614.818C430.126 614.935 430.441 615.069 430.75 615.218L430.926 618.034H430.638L429.102 615.714C428.814 615.533 428.537 615.41 428.27 615.346C428.004 615.271 427.7 615.234 427.358 615.234C426.686 615.234 426.078 615.426 425.534 615.81C424.99 616.194 424.558 616.733 424.238 617.426C423.918 618.109 423.758 618.909 423.758 619.826C423.758 620.786 423.913 621.613 424.222 622.306C424.532 622.989 424.948 623.517 425.47 623.89C426.004 624.263 426.596 624.45 427.246 624.45C427.428 624.45 427.625 624.445 427.838 624.434C428.052 624.413 428.265 624.381 428.478 624.338V621.378L427.054 620.626V620.37H432.078V620.626L430.878 621.394V623.986C430.548 624.263 430.148 624.503 429.678 624.706C429.22 624.898 428.734 625.053 428.222 625.17C427.721 625.277 427.241 625.33 426.782 625.33ZM434.06 625.17V624.914L435.42 624.258V615.522L434.06 614.866V614.61H439.516C440.786 614.61 441.863 614.818 442.748 615.234C443.634 615.65 444.306 616.221 444.764 616.946C445.234 617.671 445.468 618.493 445.468 619.41C445.468 620.242 445.314 621.01 445.004 621.714C444.706 622.418 444.284 623.026 443.74 623.538C443.196 624.05 442.556 624.45 441.82 624.738C441.084 625.026 440.279 625.17 439.404 625.17H434.06ZM438.86 615.49H437.836V624.29H439.084C440.322 624.29 441.276 623.895 441.948 623.106C442.62 622.306 442.956 621.239 442.956 619.906C442.956 618.562 442.61 617.49 441.916 616.69C441.234 615.89 440.215 615.49 438.86 615.49ZM447.688 625.17V624.914L449.048 624.258V615.522L447.688 614.866V614.61H453.224C454.483 614.61 455.491 614.839 456.248 615.298C457.016 615.746 457.4 616.466 457.4 617.458C457.4 618.055 457.198 618.583 456.792 619.042C456.398 619.49 455.859 619.842 455.176 620.098C454.494 620.343 453.715 620.466 452.84 620.466H451.464V624.258L453.096 624.914V625.17H447.688ZM451.464 615.49V619.682H452.232C453.086 619.682 453.752 619.485 454.232 619.09C454.712 618.695 454.952 618.199 454.952 617.602C454.952 616.855 454.707 616.317 454.216 615.986C453.726 615.655 453.032 615.49 452.136 615.49H451.464ZM464.226 625.17V624.914L465.586 624.258V615.522L464.226 614.866V614.61H469.762C471.021 614.61 472.029 614.839 472.786 615.298C473.554 615.746 473.938 616.466 473.938 617.458C473.938 618.055 473.735 618.583 473.33 619.042C472.935 619.49 472.397 619.842 471.714 620.098C471.031 620.343 470.253 620.466 469.378 620.466H468.002V624.258L469.634 624.914V625.17H464.226ZM468.002 615.49V619.682H468.77C469.623 619.682 470.29 619.485 470.77 619.09C471.25 618.695 471.49 618.199 471.49 617.602C471.49 616.855 471.245 616.317 470.754 615.986C470.263 615.655 469.57 615.49 468.674 615.49H468.002ZM475.963 625.17V624.914L477.323 624.258V615.522L475.963 614.866V614.61H484.683V617.378H484.427L483.243 615.49H479.739V619.282H482.203L483.099 617.906H483.355V621.506H483.099L482.203 620.162H479.739V624.29H483.627L484.875 621.906H485.131V625.17H475.963ZM487.654 625.17V624.914L489.014 624.258V615.522L487.654 614.866V614.61H493.126C494.246 614.61 495.126 614.845 495.766 615.314C496.417 615.773 496.742 616.407 496.742 617.218C496.742 617.805 496.545 618.311 496.15 618.738C495.755 619.154 495.238 619.485 494.598 619.73L497.558 624.274L498.71 624.914V625.17H495.238L492.278 620.274H491.43V624.242L492.63 624.914V625.17H487.654ZM492.07 615.49H491.43V619.49H492.166C492.827 619.49 493.35 619.303 493.734 618.93C494.118 618.557 494.31 618.071 494.31 617.474C494.31 616.845 494.118 616.359 493.734 616.018C493.361 615.666 492.806 615.49 492.07 615.49ZM510.559 625.33C509.439 625.33 508.458 625.101 507.615 624.642C506.772 624.183 506.116 623.565 505.647 622.786C505.188 621.997 504.959 621.106 504.959 620.114C504.959 619.314 505.119 618.573 505.439 617.89C505.759 617.207 506.191 616.61 506.735 616.098C507.29 615.575 507.914 615.17 508.607 614.882C509.311 614.594 510.047 614.45 510.815 614.45C511.38 614.45 511.85 614.482 512.223 614.546C512.596 614.61 512.932 614.701 513.231 614.818C513.53 614.935 513.828 615.069 514.127 615.218L514.303 618.21H514.015L512.495 615.73C512.228 615.559 511.978 615.437 511.743 615.362C511.508 615.287 511.226 615.25 510.895 615.25C510.244 615.25 509.658 615.447 509.135 615.842C508.623 616.226 508.218 616.775 507.919 617.49C507.62 618.194 507.471 619.015 507.471 619.954C507.471 620.882 507.615 621.687 507.903 622.37C508.191 623.042 508.58 623.565 509.071 623.938C509.572 624.301 510.132 624.482 510.751 624.482C511.146 624.482 511.498 624.434 511.807 624.338C512.127 624.231 512.431 624.098 512.719 623.938L514.159 621.794H514.431L514.207 624.498C513.77 624.754 513.242 624.957 512.623 625.106C512.015 625.255 511.327 625.33 510.559 625.33ZM516.435 625.17V624.914L517.411 624.37L521.587 614.53H522.995L527.123 624.338L528.211 624.914V625.17H523.155V624.914L524.547 624.338L523.459 621.682H519.667L518.579 624.338L519.907 624.914V625.17H516.435ZM520.035 620.802H523.091L521.571 617.074L520.035 620.802ZM530.026 625.17V624.914L531.386 624.258V615.522L530.026 614.866V614.61H535.562C536.821 614.61 537.829 614.839 538.586 615.298C539.354 615.746 539.738 616.466 539.738 617.458C539.738 618.055 539.535 618.583 539.13 619.042C538.735 619.49 538.197 619.842 537.514 620.098C536.831 620.343 536.053 620.466 535.178 620.466H533.802V624.258L535.434 624.914V625.17H530.026ZM533.802 615.49V619.682H534.57C535.423 619.682 536.09 619.485 536.57 619.09C537.05 618.695 537.29 618.199 537.29 617.602C537.29 616.855 537.045 616.317 536.554 615.986C536.063 615.655 535.37 615.49 534.474 615.49H533.802ZM541.795 625.17V624.914L543.155 624.258V615.522L541.795 614.866V614.61H546.931V614.866L545.571 615.522V624.258L546.931 624.914V625.17H541.795ZM551.173 625.17V624.914L552.869 624.258V615.49H550.581L549.301 618.13H549.045V614.61H559.109V618.13H558.853L557.573 615.49H555.285V624.258L556.981 624.914V625.17H551.173ZM560.213 625.17V624.914L561.189 624.37L565.365 614.53H566.773L570.901 624.338L571.989 624.914V625.17H566.933V624.914L568.325 624.338L567.237 621.682H563.445L562.357 624.338L563.685 624.914V625.17H560.213ZM563.813 620.802H566.869L565.349 617.074L563.813 620.802Z" fill="black"/>
<g style="mix-blend-mode:multiply">
<path d="M153.487 479.092L154.062 509.391C270.723 450.121 505.5 332.689 510.731 329.864C515.962 327.039 763.673 214.523 886.362 158.149L885.188 132.197C762.007 193.722 512.513 317.06 503.442 321.445C494.37 325.83 266.488 427.934 153.487 479.092Z" fill="#FBE0F3"/>
<path d="M153.487 479.092L154.062 509.391C270.723 450.121 505.5 332.689 510.731 329.864C515.962 327.039 763.673 214.523 886.362 158.149L885.188 132.197C762.007 193.722 512.513 317.06 503.442 321.445C494.37 325.83 266.488 427.934 153.487 479.092Z" stroke="black" stroke-width="0.457528" stroke-dasharray="0.92 0.92"/>
</g>
<path d="M154.191 494.142L886.363 144.961" stroke="#FFF5E5" stroke-width="1.83011"/>
<g style="mix-blend-mode:multiply">
<circle cx="428.865" cy="280.458" r="3.67686" fill="#F06560" stroke="#D18EBA" stroke-width="0.46"/>
<circle cx="438.692" cy="297.687" r="3.67686" fill="#F06560" stroke="#D18EBA" stroke-width="0.46"/>
<circle cx="447.401" cy="306.945" r="3.67686" fill="#F06560" stroke="#D18EBA" stroke-width="0.46"/>
<circle cx="443.494" cy="313.41" r="3.67686" fill="#F06560" stroke="#D18EBA" stroke-width="0.46"/>
<circle cx="455.215" cy="325.882" r="3.67686" fill="#F06560" stroke="#D18EBA" stroke-width="0.46"/>
<circle cx="428.125" cy="365.701" r="3.67686" fill="#F06560" stroke="#D18EBA" stroke-width="0.46"/>
<circle cx="417.145" cy="356.515" r="3.67686" fill="#F06560" stroke="#D18EBA" stroke-width="0.46"/>
<circle cx="424.959" cy="337.085" r="3.67686" fill="#F06560" stroke="#D18EBA" stroke-width="0.46"/>
<circle cx="421.053" cy="333.696" r="3.67686" fill="#F06560" stroke="#D18EBA" stroke-width="0.46"/>
<circle cx="404.723" cy="323.462" r="3.67686" fill="#F06560" stroke="#D18EBA" stroke-width="0.46"/>
<circle cx="397.801" cy="316.883" r="3.67686" fill="#F06560" stroke="#D18EBA" stroke-width="0.46"/>
<circle cx="387.721" cy="306.256" r="3.67686" fill="#F06560" stroke="#D18EBA" stroke-width="0.46"/>
<circle cx="369.699" cy="310.852" r="3.67686" fill="#F06560" stroke="#D18EBA" stroke-width="0.46"/>
<circle cx="334.803" cy="316.882" r="3.67686" fill="#F06560" stroke="#D18EBA" stroke-width="0.46"/>
<circle cx="328.643" cy="357.488" r="3.67686" fill="#F06560" stroke="#D18EBA" stroke-width="0.46"/>
<circle cx="319.721" cy="375.235" r="3.67686" fill="#F06560" stroke="#D18EBA" stroke-width="0.46"/>
<circle cx="348.695" cy="376.339" r="3.67686" fill="#F06560" stroke="#D18EBA" stroke-width="0.46"/>
<circle cx="336.457" cy="398.497" r="3.67686" fill="#F06560" stroke="#D18EBA" stroke-width="0.46"/>
<circle cx="321.518" cy="399.702" r="3.67686" fill="#F06560" stroke="#D18EBA" stroke-width="0.46"/>
<circle cx="323.627" cy="409.028" r="3.67686" fill="#F06560" stroke="#D18EBA" stroke-width="0.46"/>
<circle cx="337.162" cy="409.628" r="3.67686" fill="#F06560" stroke="#D18EBA" stroke-width="0.46"/>
<circle cx="321.518" cy="424.87" r="3.67686" fill="#F06560" stroke="#D18EBA" stroke-width="0.46"/>
<circle cx="298.484" cy="445.998" r="3.67686" fill="#F06560" stroke="#D18EBA" stroke-width="0.46"/>
<circle cx="305.791" cy="446.713" r="3.67686" fill="#F06560" stroke="#D18EBA" stroke-width="0.46"/>
<circle cx="303.43" cy="451.216" r="3.67686" fill="#F06560" stroke="#D18EBA" stroke-width="0.46"/>
<circle cx="257.793" cy="529.635" r="3.67686" fill="#F06560" stroke="#D18EBA" stroke-width="0.46"/>
<circle cx="230.279" cy="491.596" r="3.67686" fill="#F06560" stroke="#D18EBA" stroke-width="0.46"/>
<circle cx="182.043" cy="511.345" r="3.67686" fill="#F06560" stroke="#D18EBA" stroke-width="0.46"/>
<circle cx="154.192" cy="419.886" r="3.67686" fill="#F06560" stroke="#D18EBA" stroke-width="0.46"/>
<circle cx="249.92" cy="380.743" r="3.67686" fill="#F06560" stroke="#D18EBA" stroke-width="0.46"/>
<circle cx="253.25" cy="408.941" r="3.67686" fill="#F06560" stroke="#D18EBA" stroke-width="0.46"/>
<circle cx="249.92" cy="418.392" r="3.67686" fill="#F06560" stroke="#D18EBA" stroke-width="0.46"/>
<circle cx="244.109" cy="431.096" r="3.67686" fill="#F06560" stroke="#D18EBA" stroke-width="0.46"/>
<circle cx="248.016" cy="438.91" r="3.67686" fill="#F06560" stroke="#D18EBA" stroke-width="0.46"/>
<circle cx="228.262" cy="447.352" r="3.67686" fill="#F06560" stroke="#D18EBA" stroke-width="0.46"/>
<circle cx="230.975" cy="448.9" r="3.67686" fill="#F06560" stroke="#D18EBA" stroke-width="0.46"/>
<circle cx="273.434" cy="408.941" r="3.67686" fill="#F06560" stroke="#D18EBA" stroke-width="0.46"/>
<circle cx="286.332" cy="407.696" r="3.67686" fill="#F06560" stroke="#D18EBA" stroke-width="0.46"/>
<circle cx="339.672" cy="351.071" r="3.67686" fill="#F06560" stroke="#D18EBA" stroke-width="0.46"/>
<circle cx="357.219" cy="361.395" r="3.67686" fill="#F06560" stroke="#D18EBA" stroke-width="0.46"/>
<circle cx="355.012" cy="399.183" r="3.67686" fill="#F06560" stroke="#D18EBA" stroke-width="0.46"/>
<circle cx="386.988" cy="347.958" r="3.67686" fill="#F06560" stroke="#D18EBA" stroke-width="0.46"/>
<circle cx="380.672" cy="371.721" r="3.67686" fill="#F06560" stroke="#D18EBA" stroke-width="0.46"/>
<circle cx="376.168" cy="378.637" r="3.67686" fill="#F06560" stroke="#D18EBA" stroke-width="0.46"/>
<circle cx="366.645" cy="384.153" r="3.67686" fill="#F06560" stroke="#D18EBA" stroke-width="0.46"/>
<circle cx="320.828" cy="313.24" r="3.67686" fill="#F06560" stroke="#D18EBA" stroke-width="0.46"/>
<circle cx="614.195" cy="204.411" r="3.67686" fill="#F06560" stroke="#D18EBA" stroke-width="0.46"/>
<circle cx="606.383" cy="257.996" r="3.67686" fill="#F06560" stroke="#D18EBA" stroke-width="0.46"/>
<circle cx="596.303" cy="246.975" r="3.67686" fill="#F06560" stroke="#D18EBA" stroke-width="0.46"/>
<circle cx="597.602" cy="246.975" r="3.67686" fill="#F06560" stroke="#D18EBA" stroke-width="0.46"/>
<circle cx="621.115" cy="238.061" r="3.67686" fill="#F06560" stroke="#D18EBA" stroke-width="0.46"/>
<circle cx="626.297" cy="235.892" r="3.67686" fill="#F06560" stroke="#D18EBA" stroke-width="0.46"/>
<circle cx="624.416" cy="262.418" r="3.67686" fill="#F06560" stroke="#D18EBA" stroke-width="0.46"/>
<circle cx="638.07" cy="295.967" r="3.67686" fill="#F06560" stroke="#D18EBA" stroke-width="0.46"/>
<circle cx="640.133" cy="279.53" r="3.67686" fill="#F06560" stroke="#D18EBA" stroke-width="0.46"/>
<circle cx="610.563" cy="298.109" r="3.67686" fill="#F06560" stroke="#D18EBA" stroke-width="0.46"/>
<circle cx="615.551" cy="302.827" r="3.67686" fill="#F06560" stroke="#D18EBA" stroke-width="0.46"/>
<circle cx="622.809" cy="306.733" r="3.67686" fill="#F06560" stroke="#D18EBA" stroke-width="0.46"/>
<circle cx="630.797" cy="272.374" r="3.67686" fill="#F06560" stroke="#D18EBA" stroke-width="0.46"/>
<circle cx="632.229" cy="255.88" r="3.67686" fill="#F06560" stroke="#D18EBA" stroke-width="0.46"/>
<circle cx="638.611" cy="232.55" r="3.67686" fill="#F06560" stroke="#D18EBA" stroke-width="0.46"/>
<circle cx="681.143" cy="269.717" r="3.67686" fill="#F06560" stroke="#D18EBA" stroke-width="0.46"/>
<circle cx="604.432" cy="277.043" r="3.67686" fill="#F06560" stroke="#D18EBA" stroke-width="0.46"/>
<circle cx="616.602" cy="279.528" r="3.67686" fill="#F06560" stroke="#D18EBA" stroke-width="0.46"/>
<circle cx="608.787" cy="252.852" r="3.67686" fill="#F06560" stroke="#D18EBA" stroke-width="0.46"/>
<circle cx="626.297" cy="267.761" r="3.67686" fill="#F06560" stroke="#D18EBA" stroke-width="0.46"/>
<circle cx="599.551" cy="319.01" r="3.67686" fill="#F06560" stroke="#D18EBA" stroke-width="0.46"/>
<circle cx="624.416" cy="263.724" r="3.67686" fill="#F06560" stroke="#D18EBA" stroke-width="0.46"/>
<circle cx="638.611" cy="309.963" r="3.67686" fill="#F06560" stroke="#D18EBA" stroke-width="0.46"/>
<circle cx="597.602" cy="278.051" r="3.67686" fill="#F06560" stroke="#D18EBA" stroke-width="0.46"/>
<circle cx="602.475" cy="280.951" r="3.67686" fill="#F06560" stroke="#D18EBA" stroke-width="0.46"/>
<circle cx="599.215" cy="282.992" r="3.67686" fill="#F06560" stroke="#D18EBA" stroke-width="0.46"/>
<circle cx="594.682" cy="280.186" r="3.67686" fill="#F06560" stroke="#D18EBA" stroke-width="0.46"/>
<circle cx="606.383" cy="278.051" r="3.67686" fill="#F06560" stroke="#D18EBA" stroke-width="0.46"/>
<circle cx="627.453" cy="271.714" r="3.67686" fill="#F06560" stroke="#D18EBA" stroke-width="0.46"/>
<circle cx="615.584" cy="216.827" r="3.67686" fill="#F06560" stroke="#D18EBA" stroke-width="0.46"/>
<circle cx="685.051" cy="268.495" r="3.67686" fill="#F06560" stroke="#D18EBA" stroke-width="0.46"/>
<circle cx="569.918" cy="339.583" r="3.67686" fill="#F06560" stroke="#D18EBA" stroke-width="0.46"/>
<circle cx="539.918" cy="338.843" r="3.67686" fill="#F06560" stroke="#D18EBA" stroke-width="0.46"/>
<circle cx="527.199" cy="331.03" r="3.67686" fill="#F06560" stroke="#D18EBA" stroke-width="0.46"/>
<circle cx="584.885" cy="334.936" r="3.67686" fill="#F06560" stroke="#D18EBA" stroke-width="0.46"/>
<circle cx="502.899" cy="383.796" r="3.67686" fill="#F06560" stroke="#D18EBA" stroke-width="0.46"/>
<circle cx="588.84" cy="372.075" r="3.67686" fill="#F06560" stroke="#D18EBA" stroke-width="0.46"/>
<circle cx="607.029" cy="375.982" r="3.67686" fill="#F06560" stroke="#D18EBA" stroke-width="0.46"/>
<circle cx="582.965" cy="228.644" r="3.67686" fill="#F06560" stroke="#D18EBA" stroke-width="0.46"/>
<circle cx="561.432" cy="427.064" r="3.67686" fill="#F06560" stroke="#D18EBA" stroke-width="0.46"/>
<circle cx="595.996" cy="429.152" r="3.67686" fill="#F06560" stroke="#D18EBA" stroke-width="0.46"/>
<circle cx="525.856" cy="467.938" r="3.67686" fill="#F06560" stroke="#D18EBA" stroke-width="0.46"/>
<circle cx="511.688" cy="489.599" r="3.67686" fill="#F06560" stroke="#D18EBA" stroke-width="0.46"/>
<circle cx="426.516" cy="521.873" r="3.67686" fill="#F06560" stroke="#D18EBA" stroke-width="0.46"/>
<circle cx="309.942" cy="529.686" r="3.67686" fill="#F06560" stroke="#D18EBA" stroke-width="0.46"/>
<circle cx="353.42" cy="451.638" r="3.67686" fill="#F06560" stroke="#D18EBA" stroke-width="0.46"/>
<circle cx="365.578" cy="444.708" r="3.67686" fill="#F06560" stroke="#D18EBA" stroke-width="0.46"/>
<circle cx="369.486" cy="456.299" r="3.67686" fill="#F06560" stroke="#D18EBA" stroke-width="0.46"/>
<circle cx="452.285" cy="457.145" r="3.67686" fill="#F06560" stroke="#D18EBA" stroke-width="0.46"/>
<circle cx="403.35" cy="472.663" r="3.67686" fill="#F06560" stroke="#D18EBA" stroke-width="0.46"/>
<circle cx="388.35" cy="434.824" r="3.67686" fill="#F06560" stroke="#D18EBA" stroke-width="0.46"/>
<circle cx="379.176" cy="438.12" r="3.67686" fill="#F06560" stroke="#D18EBA" stroke-width="0.46"/>
<circle cx="361.672" cy="422.324" r="3.67686" fill="#F06560" stroke="#D18EBA" stroke-width="0.46"/>
<circle cx="377.299" cy="409.028" r="3.67686" fill="#F06560" stroke="#D18EBA" stroke-width="0.46"/>
<circle cx="395.535" cy="395.277" r="3.67686" fill="#F06560" stroke="#D18EBA" stroke-width="0.46"/>
<circle cx="410.244" cy="385.501" r="3.67686" fill="#F06560" stroke="#D18EBA" stroke-width="0.46"/>
<circle cx="410.244" cy="422.324" r="3.67686" fill="#F06560" stroke="#D18EBA" stroke-width="0.46"/>
<circle cx="422.865" cy="419.211" r="3.67686" fill="#F06560" stroke="#D18EBA" stroke-width="0.46"/>
<circle cx="428.848" cy="428.755" r="3.67686" fill="#F06560" stroke="#D18EBA" stroke-width="0.46"/>
<circle cx="439.01" cy="409.496" r="3.67686" fill="#F06560" stroke="#D18EBA" stroke-width="0.46"/>
<circle cx="441.633" cy="406.954" r="3.67686" fill="#F06560" stroke="#D18EBA" stroke-width="0.46"/>
<circle cx="450.32" cy="396.464" r="3.67686" fill="#F06560" stroke="#D18EBA" stroke-width="0.46"/>
<circle cx="449.447" cy="381.593" r="3.67686" fill="#F06560" stroke="#D18EBA" stroke-width="0.46"/>
<circle cx="440.022" cy="386.839" r="3.67686" fill="#F06560" stroke="#D18EBA" stroke-width="0.46"/>
<circle cx="402.58" cy="432.663" r="3.67686" fill="#F06560" stroke="#D18EBA" stroke-width="0.46"/>
<circle cx="716.279" cy="239.164" r="3.67686" fill="#F06560" stroke="#D18EBA" stroke-width="0.46"/>
<circle cx="670.277" cy="275.179" r="3.67686" fill="#F06560" stroke="#D18EBA" stroke-width="0.46"/>
<circle cx="656.07" cy="265.81" r="3.67686" fill="#F06560" stroke="#D18EBA" stroke-width="0.46"/>
<circle cx="660.582" cy="275.623" r="3.67686" fill="#F06560" stroke="#D18EBA" stroke-width="0.46"/>
<circle cx="650.352" cy="284.858" r="3.67686" fill="#F06560" stroke="#D18EBA" stroke-width="0.46"/>
<circle cx="662.598" cy="297.687" r="3.67686" fill="#F06560" stroke="#D18EBA" stroke-width="0.46"/>
<circle cx="656.676" cy="288.491" r="3.67686" fill="#F06560" stroke="#D18EBA" stroke-width="0.46"/>
<circle cx="674.186" cy="270.211" r="3.67686" fill="#F06560" stroke="#D18EBA" stroke-width="0.46"/>
<circle cx="699.668" cy="371.312" r="3.67686" fill="#F06560" stroke="#D18EBA" stroke-width="0.46"/>
<circle cx="709.945" cy="257.997" r="3.67686" fill="#F06560" stroke="#D18EBA" stroke-width="0.46"/>
<circle cx="721.652" cy="234.105" r="3.67686" fill="#F06560" stroke="#D18EBA" stroke-width="0.46"/>
<circle cx="708.252" cy="230.199" r="3.67686" fill="#F06560" stroke="#D18EBA" stroke-width="0.46"/>
<circle cx="703.143" cy="236.389" r="3.67686" fill="#F06560" stroke="#D18EBA" stroke-width="0.46"/>
<circle cx="684.635" cy="238.727" r="3.67686" fill="#F06560" stroke="#D18EBA" stroke-width="0.46"/>
<circle cx="679.645" cy="246.541" r="3.67686" fill="#F06560" stroke="#D18EBA" stroke-width="0.46"/>
<circle cx="670.41" cy="225.023" r="3.67686" fill="#F06560" stroke="#D18EBA" stroke-width="0.46"/>
<circle cx="692.863" cy="219.014" r="3.67686" fill="#F06560" stroke="#D18EBA" stroke-width="0.46"/>
<circle cx="695.33" cy="193.006" r="3.67686" fill="#F06560" stroke="#D18EBA" stroke-width="0.46"/>
<circle cx="717.758" cy="204.041" r="3.67686" fill="#F06560" stroke="#D18EBA" stroke-width="0.46"/>
<circle cx="721.463" cy="226.828" r="3.67686" fill="#F06560" stroke="#D18EBA" stroke-width="0.46"/>
<circle cx="725.572" cy="225.023" r="3.67686" fill="#F06560" stroke="#D18EBA" stroke-width="0.46"/>
<circle cx="742.893" cy="226.292" r="3.67686" fill="#F06560" stroke="#D18EBA" stroke-width="0.46"/>
<circle cx="735.926" cy="211.854" r="3.67686" fill="#F06560" stroke="#D18EBA" stroke-width="0.46"/>
<circle cx="713.852" cy="181.74" r="3.67686" fill="#F06560" stroke="#D18EBA" stroke-width="0.46"/>
<circle cx="722.676" cy="151.706" r="3.67686" fill="#F06560" stroke="#D18EBA" stroke-width="0.46"/>
<circle cx="726.942" cy="163.007" r="3.67686" fill="#F06560" stroke="#D18EBA" stroke-width="0.46"/>
<circle cx="738.289" cy="166.232" r="3.67686" fill="#F06560" stroke="#D18EBA" stroke-width="0.46"/>
<circle cx="737.008" cy="167.995" r="3.67686" fill="#F06560" stroke="#D18EBA" stroke-width="0.46"/>
<circle cx="735.926" cy="167.672" r="3.67686" fill="#F06560" stroke="#D18EBA" stroke-width="0.46"/>
<circle cx="734.756" cy="184.691" r="3.67686" fill="#F06560" stroke="#D18EBA" stroke-width="0.46"/>
<circle cx="741.637" cy="177.328" r="3.67686" fill="#F06560" stroke="#D18EBA" stroke-width="0.46"/>
<circle cx="749.451" cy="175.487" r="3.67686" fill="#F06560" stroke="#D18EBA" stroke-width="0.46"/>
<circle cx="751.533" cy="173.421" r="3.67686" fill="#F06560" stroke="#D18EBA" stroke-width="0.46"/>
<circle cx="755.561" cy="167.674" r="3.67686" fill="#F06560" stroke="#D18EBA" stroke-width="0.46"/>
<circle cx="776.197" cy="179.96" r="3.67686" fill="#F06560" stroke="#D18EBA" stroke-width="0.46"/>
<circle cx="762.109" cy="184.692" r="3.67686" fill="#F06560" stroke="#D18EBA" stroke-width="0.46"/>
<circle cx="763.451" cy="185.975" r="3.67686" fill="#F06560" stroke="#D18EBA" stroke-width="0.46"/>
<circle cx="769.379" cy="161.153" r="3.67686" fill="#F06560" stroke="#D18EBA" stroke-width="0.46"/>
<circle cx="776.211" cy="163.007" r="3.67686" fill="#F06560" stroke="#D18EBA" stroke-width="0.46"/>
<circle cx="777.192" cy="155.613" r="3.67686" fill="#F06560" stroke="#D18EBA" stroke-width="0.46"/>
<circle cx="760.516" cy="135.175" r="3.67686" fill="#F06560" stroke="#D18EBA" stroke-width="0.46"/>
<circle cx="792.617" cy="160.182" r="3.67686" fill="#F06560" stroke="#D18EBA" stroke-width="0.46"/>
<circle cx="781.799" cy="187.209" r="3.67686" fill="#F06560" stroke="#D18EBA" stroke-width="0.46"/>
<circle cx="773.285" cy="191.71" r="3.67686" fill="#F06560" stroke="#D18EBA" stroke-width="0.46"/>
<circle cx="760.516" cy="198.567" r="3.67686" fill="#F06560" stroke="#D18EBA" stroke-width="0.46"/>
<circle cx="786.983" cy="173.615" r="3.67686" fill="#F06560" stroke="#D18EBA" stroke-width="0.46"/>
<circle cx="788.711" cy="179.395" r="3.67686" fill="#F06560" stroke="#D18EBA" stroke-width="0.46"/>
<circle cx="795.783" cy="184.889" r="3.67686" fill="#F06560" stroke="#D18EBA" stroke-width="0.46"/>
<circle cx="817.568" cy="158.421" r="3.67686" fill="#F06560" stroke="#D18EBA" stroke-width="0.46"/>
<circle cx="747.625" cy="165.059" r="3.67686" fill="#F06560" stroke="#D18EBA" stroke-width="0.46"/>
<circle cx="665.457" cy="206.912" r="3.67686" fill="#F06560" stroke="#D18EBA" stroke-width="0.46"/>
<circle cx="656.07" cy="209.595" r="3.67686" fill="#F06560" stroke="#D18EBA" stroke-width="0.46"/>
<circle cx="716.065" cy="262.169" r="3.67686" fill="#F06560" stroke="#D18EBA" stroke-width="0.46"/>
<circle cx="709.408" cy="274.546" r="3.67686" fill="#F06560" stroke="#D18EBA" stroke-width="0.46"/>
<circle cx="709.945" cy="249.129" r="3.67686" fill="#F06560" stroke="#D18EBA" stroke-width="0.46"/>
<circle cx="790.887" cy="226.829" r="3.67686" fill="#F06560" stroke="#D18EBA" stroke-width="0.46"/>
<circle cx="653.25" cy="248.518" r="3.67686" fill="#F06560" stroke="#D18EBA" stroke-width="0.46"/>
<circle cx="725.369" cy="269.227" r="3.67686" fill="#F06560" stroke="#D18EBA" stroke-width="0.46"/>
<circle cx="702.131" cy="266.732" r="3.67686" fill="#F06560" stroke="#D18EBA" stroke-width="0.46"/>
<circle cx="886.363" cy="163.437" r="3.67686" fill="#F06560" stroke="#D18EBA" stroke-width="0.46"/>
<circle cx="793.947" cy="231.748" r="3.67686" fill="#F06560" stroke="#D18EBA" stroke-width="0.46"/>
<circle cx="804.524" cy="266.731" r="3.67686" fill="#F06560" stroke="#D18EBA" stroke-width="0.46"/>
<circle cx="734.756" cy="250.883" r="3.67686" fill="#F06560" stroke="#D18EBA" stroke-width="0.46"/>
<circle cx="873.358" cy="163.439" r="3.67686" fill="#F06560" stroke="#D18EBA" stroke-width="0.46"/>
<circle cx="797.166" cy="210.235" r="3.67686" fill="#F06560" stroke="#D18EBA" stroke-width="0.46"/>
<circle cx="758.203" cy="206.382" r="3.67686" fill="#F06560" stroke="#D18EBA" stroke-width="0.46"/>
<circle cx="759.346" cy="209.595" r="3.67686" fill="#F06560" stroke="#D18EBA" stroke-width="0.46"/>
<circle cx="747.625" cy="204.921" r="3.67686" fill="#F06560" stroke="#D18EBA" stroke-width="0.46"/>
<circle cx="747.748" cy="197.106" r="3.67686" fill="#F06560" stroke="#D18EBA" stroke-width="0.46"/>
<circle cx="750.707" cy="191.116" r="3.67686" fill="#F06560" stroke="#D18EBA" stroke-width="0.46"/>
<circle cx="756.609" cy="179.395" r="3.67686" fill="#F06560" stroke="#D18EBA" stroke-width="0.46"/>
<circle cx="841.516" cy="181.427" r="3.67686" fill="#F06560" stroke="#D18EBA" stroke-width="0.46"/>
<circle cx="859.127" cy="181.427" r="3.67686" fill="#F06560" stroke="#D18EBA" stroke-width="0.46"/>
<circle cx="863.035" cy="169.323" r="3.67686" fill="#F06560" stroke="#D18EBA" stroke-width="0.46"/>
<circle cx="881.172" cy="165.415" r="3.67686" fill="#F06560" stroke="#D18EBA" stroke-width="0.46"/>
<circle cx="702.131" cy="291.149" r="3.67686" fill="#F06560" stroke="#D18EBA" stroke-width="0.46"/>
<circle cx="528.549" cy="395.284" r="3.67686" fill="#F06560" stroke="#D18EBA" stroke-width="0.46"/>
<circle cx="426.867" cy="290.533" r="3.67686" fill="#F06560" stroke="#D18EBA" stroke-width="0.46"/>
<circle cx="457.758" cy="265.81" r="3.67686" fill="#F06560" stroke="#D18EBA" stroke-width="0.46"/>
<circle cx="473.877" cy="264.71" r="3.67686" fill="#F06560" stroke="#D18EBA" stroke-width="0.46"/>
<circle cx="649.344" cy="246.541" r="3.67686" fill="#F06560" stroke="#D18EBA" stroke-width="0.46"/>
<circle cx="473.027" cy="277.531" r="3.67686" fill="#F06560" stroke="#D18EBA" stroke-width="0.46"/>
<circle cx="487.002" cy="261.904" r="3.67686" fill="#F06560" stroke="#D18EBA" stroke-width="0.46"/>
<circle cx="496.805" cy="271.158" r="3.67686" fill="#F06560" stroke="#D18EBA" stroke-width="0.46"/>
<circle cx="618.902" cy="190.547" r="3.67686" fill="#F06560" stroke="#D18EBA" stroke-width="0.46"/>
<circle cx="538.559" cy="269.717" r="3.67686" fill="#F06560" stroke="#D18EBA" stroke-width="0.46"/>
<circle cx="549.276" cy="241.919" r="3.67686" fill="#F06560" stroke="#D18EBA" stroke-width="0.46"/>
<circle cx="548.254" cy="266.442" r="3.67686" fill="#F06560" stroke="#D18EBA" stroke-width="0.46"/>
<circle cx="535.129" cy="268.72" r="3.67686" fill="#F06560" stroke="#D18EBA" stroke-width="0.46"/>
<circle cx="498.992" cy="295.958" r="3.67686" fill="#F06560" stroke="#D18EBA" stroke-width="0.46"/>
<circle cx="510.713" cy="314.758" r="3.67686" fill="#F06560" stroke="#D18EBA" stroke-width="0.46"/>
<circle cx="521.949" cy="304.729" r="3.67686" fill="#F06560" stroke="#D18EBA" stroke-width="0.46"/>
<circle cx="484.748" cy="301.598" r="3.67686" fill="#F06560" stroke="#D18EBA" stroke-width="0.46"/>
<circle cx="480.84" cy="334.936" r="3.67686" fill="#F06560" stroke="#D18EBA" stroke-width="0.46"/>
<circle cx="476.932" cy="344.899" r="3.67686" fill="#F06560" stroke="#D18EBA" stroke-width="0.46"/>
<circle cx="477.914" cy="356.515" r="3.67686" fill="#F06560" stroke="#D18EBA" stroke-width="0.46"/>
<circle cx="465.57" cy="420.941" r="3.67686" fill="#F06560" stroke="#D18EBA" stroke-width="0.46"/>
<circle cx="542.942" cy="342.75" r="3.67686" fill="#F06560" stroke="#D18EBA" stroke-width="0.46"/>
<circle cx="567.975" cy="339.583" r="3.67686" fill="#F06560" stroke="#D18EBA" stroke-width="0.46"/>
<circle cx="552.969" cy="316.12" r="3.67686" fill="#F06560" stroke="#D18EBA" stroke-width="0.46"/>
<circle cx="543.457" cy="294.398" r="3.67686" fill="#F06560" stroke="#D18EBA" stroke-width="0.46"/>
<circle cx="539.918" cy="310.229" r="3.67686" fill="#F06560" stroke="#D18EBA" stroke-width="0.46"/>
<circle cx="549.549" cy="306.322" r="3.67686" fill="#F06560" stroke="#D18EBA" stroke-width="0.46"/>
<circle cx="555.375" cy="306.786" r="3.67686" fill="#F06560" stroke="#D18EBA" stroke-width="0.46"/>
<circle cx="544.869" cy="294.398" r="3.67686" fill="#F06560" stroke="#D18EBA" stroke-width="0.46"/>
<circle cx="557.361" cy="295.027" r="3.67686" fill="#F06560" stroke="#D18EBA" stroke-width="0.46"/>
<circle cx="572.059" cy="289.873" r="3.67686" fill="#F06560" stroke="#D18EBA" stroke-width="0.46"/>
<circle cx="569.244" cy="316.882" r="3.67686" fill="#F06560" stroke="#D18EBA" stroke-width="0.46"/>
<circle cx="579.059" cy="307.525" r="3.67686" fill="#F06560" stroke="#D18EBA" stroke-width="0.46"/>
<circle cx="582.363" cy="320.42" r="3.67686" fill="#F06560" stroke="#D18EBA" stroke-width="0.46"/>
<circle cx="584.932" cy="286.584" r="3.67686" fill="#F06560" stroke="#D18EBA" stroke-width="0.46"/>
<circle cx="569.244" cy="286.584" r="3.67686" fill="#F06560" stroke="#D18EBA" stroke-width="0.46"/>
<circle cx="567.041" cy="235.255" r="3.67686" fill="#F06560" stroke="#D18EBA" stroke-width="0.46"/>
<circle cx="572.059" cy="266.731" r="3.67686" fill="#F06560" stroke="#D18EBA" stroke-width="0.46"/>
<circle cx="558.572" cy="226.332" r="3.67686" fill="#F06560" stroke="#D18EBA" stroke-width="0.46"/>
<circle cx="569.918" cy="257.441" r="3.67686" fill="#F06560" stroke="#D18EBA" stroke-width="0.46"/>
<circle cx="595.34" cy="239.162" r="3.67686" fill="#F06560" stroke="#D18EBA" stroke-width="0.46"/>
<circle cx="569.918" cy="281.315" r="3.67686" fill="#F06560" stroke="#D18EBA" stroke-width="0.46"/>
<circle cx="595.309" cy="296.305" r="3.67686" fill="#F06560" stroke="#D18EBA" stroke-width="0.46"/>
<circle cx="541.453" cy="317.608" r="3.67686" fill="#F06560" stroke="#D18EBA" stroke-width="0.46"/>
<circle cx="551.467" cy="343.49" r="3.67686" fill="#F06560" stroke="#D18EBA" stroke-width="0.46"/>
<circle cx="487.645" cy="350.564" r="3.67686" fill="#F06560" stroke="#D18EBA" stroke-width="0.46"/>
<circle cx="546.85" cy="206.88" r="3.67686" fill="#F06560" stroke="#D18EBA" stroke-width="0.46"/>
</g>
</g>
<defs>
<clipPath id="clip0_2452_156">
<rect width="950" height="650" fill="white"/>
</clipPath>
</defs>
</svg>
