<svg width="950" height="650" viewBox="0 0 950 650" fill="none" xmlns="http://www.w3.org/2000/svg">
<g clip-path="url(#clip0_2452_445)">
<path d="M251.691 545.086V559.662" stroke="black" stroke-width="0.966441"/>
<path d="M248.467 577.562C248.797 576.986 249.133 576.41 249.475 575.834C249.827 575.258 250.216 574.639 250.643 573.978C251.069 573.306 251.565 572.554 252.131 571.722C252.707 570.879 253.395 569.908 254.195 568.81H248.915L249.235 567.002H255.875L255.795 567.53C255.144 568.5 254.499 569.482 253.859 570.474C253.219 571.455 252.6 572.522 252.003 573.674C251.416 574.826 250.872 576.122 250.371 577.562H248.467Z" fill="black"/>
<path d="M382.715 545.086V559.662" stroke="black" stroke-width="0.966441"/>
<path d="M381.891 577.722C380.963 577.722 380.205 577.514 379.619 577.098C379.032 576.682 378.739 576.111 378.739 575.386C378.739 574.724 378.973 574.154 379.443 573.674C379.912 573.194 380.568 572.74 381.411 572.314C380.888 571.919 380.52 571.54 380.307 571.178C380.104 570.804 380.003 570.388 380.003 569.93C380.003 569.364 380.157 568.847 380.467 568.378C380.787 567.908 381.213 567.535 381.747 567.258C382.291 566.98 382.888 566.842 383.539 566.842C384.104 566.842 384.595 566.943 385.011 567.146C385.427 567.348 385.752 567.631 385.987 567.994C386.221 568.346 386.339 568.746 386.339 569.194C386.339 569.716 386.141 570.186 385.747 570.602C385.352 571.007 384.744 571.396 383.923 571.77C384.627 572.26 385.101 572.73 385.347 573.178C385.592 573.615 385.715 574.084 385.715 574.586C385.715 575.183 385.544 575.716 385.203 576.186C384.861 576.655 384.403 577.028 383.827 577.306C383.251 577.583 382.605 577.722 381.891 577.722ZM381.827 569.226C381.827 569.567 381.917 569.914 382.099 570.266C382.291 570.607 382.701 570.98 383.331 571.386C383.715 571.14 384.013 570.911 384.227 570.698C384.451 570.474 384.605 570.239 384.691 569.994C384.787 569.748 384.835 569.455 384.835 569.114C384.835 568.602 384.707 568.212 384.451 567.946C384.195 567.679 383.848 567.546 383.411 567.546C382.877 567.546 382.477 567.711 382.211 568.042C381.955 568.372 381.827 568.767 381.827 569.226ZM380.323 575.242C380.323 575.807 380.477 576.25 380.787 576.57C381.096 576.879 381.523 577.034 382.067 577.034C382.632 577.034 383.08 576.868 383.411 576.538C383.752 576.196 383.923 575.754 383.923 575.21C383.923 574.858 383.853 574.554 383.715 574.298C383.587 574.031 383.373 573.775 383.075 573.53C382.787 573.274 382.397 572.986 381.907 572.666C381.48 572.975 381.149 573.258 380.915 573.514C380.691 573.759 380.536 574.015 380.451 574.282C380.365 574.548 380.323 574.868 380.323 575.242Z" fill="black"/>
<path d="M513.739 545.086V559.662" stroke="black" stroke-width="0.966441"/>
<path d="M509.986 577.722L510.082 577.21C511.053 576.89 511.874 576.463 512.546 575.93C513.229 575.386 513.784 574.778 514.21 574.106C514.637 573.423 514.952 572.714 515.154 571.978C514.845 572.383 514.482 572.703 514.066 572.938C513.661 573.162 513.213 573.274 512.722 573.274C511.933 573.274 511.346 573.034 510.962 572.554C510.578 572.074 510.386 571.455 510.386 570.698C510.386 569.908 510.562 569.226 510.914 568.65C511.277 568.074 511.752 567.631 512.338 567.322C512.925 567.002 513.57 566.842 514.274 566.842C515.288 566.842 516.061 567.14 516.594 567.738C517.138 568.335 517.41 569.124 517.41 570.106C517.41 571.236 517.117 572.314 516.53 573.338C515.954 574.362 515.112 575.258 514.002 576.026C512.904 576.794 511.565 577.359 509.986 577.722ZM512.258 570.474C512.258 571.604 512.664 572.17 513.474 572.17C513.826 572.17 514.168 572.079 514.498 571.898C514.829 571.706 515.117 571.434 515.362 571.082C515.437 570.602 515.474 570.116 515.474 569.626C515.474 568.911 515.357 568.388 515.122 568.058C514.888 567.727 514.573 567.562 514.178 567.562C513.634 567.562 513.176 567.828 512.802 568.362C512.44 568.884 512.258 569.588 512.258 570.474Z" fill="black"/>
<path d="M644.762 545.086V559.662" stroke="black" stroke-width="0.966441"/>
<path d="M637.483 577.562L637.547 577.306L639.035 576.65L640.427 568.762L637.787 570.042L637.899 569.402L641.739 567.002H642.603L640.907 576.65L642.123 577.306L642.075 577.562H637.483ZM648.154 577.722C647.279 577.722 646.607 577.396 646.138 576.746C645.679 576.095 645.45 575.188 645.45 574.026C645.45 573.098 645.567 572.207 645.802 571.354C646.037 570.49 646.362 569.722 646.778 569.05C647.205 568.367 647.695 567.828 648.25 567.434C648.805 567.039 649.402 566.842 650.042 566.842C650.917 566.842 651.589 567.167 652.058 567.818C652.527 568.468 652.762 569.38 652.762 570.554C652.762 571.482 652.639 572.378 652.394 573.242C652.159 574.095 651.829 574.858 651.402 575.53C650.986 576.202 650.501 576.735 649.946 577.13C649.391 577.524 648.794 577.722 648.154 577.722ZM648.458 576.97C648.725 576.97 648.97 576.836 649.194 576.57C649.429 576.292 649.642 575.919 649.834 575.45C650.026 574.98 650.191 574.452 650.33 573.866C650.479 573.268 650.591 572.65 650.666 572.01C650.741 571.359 650.778 570.719 650.778 570.09C650.778 569.3 650.698 568.687 650.538 568.25C650.389 567.812 650.127 567.594 649.754 567.594C649.423 567.594 649.114 567.802 648.826 568.218C648.549 568.623 648.303 569.167 648.09 569.85C647.887 570.522 647.727 571.263 647.61 572.074C647.493 572.874 647.434 573.668 647.434 574.458C647.434 575.247 647.509 575.866 647.658 576.314C647.818 576.751 648.085 576.97 648.458 576.97Z" fill="black"/>
<path d="M775.786 545.086V559.662" stroke="black" stroke-width="0.966441"/>
<path d="M768.507 577.562L768.571 577.306L770.059 576.65L771.451 568.762L768.811 570.042L768.923 569.402L772.763 567.002H773.627L771.931 576.65L773.147 577.306L773.099 577.562H768.507ZM777.194 577.562L777.258 577.306L778.746 576.65L780.138 568.762L777.498 570.042L777.61 569.402L781.45 567.002H782.314L780.618 576.65L781.834 577.306L781.786 577.562H777.194Z" fill="black"/>
<path d="M906.81 545.086V559.662" stroke="black" stroke-width="0.966441"/>
<path d="M899.53 577.562L899.594 577.306L901.082 576.65L902.474 568.762L899.834 570.042L899.946 569.402L903.786 567.002H904.65L902.954 576.65L904.17 577.306L904.122 577.562H899.53ZM906.954 577.562L907.066 577.018C908.101 576.004 908.959 575.135 909.642 574.41C910.335 573.674 910.895 573.05 911.322 572.538C911.749 572.015 912.069 571.567 912.282 571.194C912.495 570.81 912.639 570.458 912.714 570.138C912.789 569.818 912.826 569.492 912.826 569.162C912.826 568.703 912.693 568.335 912.426 568.058C912.159 567.78 911.818 567.642 911.402 567.642C910.933 567.642 910.565 567.796 910.298 568.106C910.042 568.415 909.866 568.863 909.77 569.45L909.658 570.074L909.498 570.25H908.682C908.479 570.25 908.33 570.228 908.234 570.186C908.149 570.132 908.133 569.956 908.186 569.658C908.229 569.359 908.346 569.05 908.538 568.73C908.73 568.41 909.039 568.106 909.466 567.818C909.733 567.636 909.989 567.471 910.234 567.322C910.479 567.172 910.757 567.055 911.066 566.97C911.375 566.884 911.754 566.842 912.202 566.842C912.693 566.842 913.13 566.943 913.514 567.146C913.909 567.338 914.218 567.615 914.442 567.978C914.677 568.33 914.794 568.735 914.794 569.194C914.794 569.61 914.714 570.015 914.554 570.41C914.394 570.794 914.106 571.231 913.69 571.722C913.274 572.202 912.687 572.783 911.93 573.466C911.183 574.148 910.223 574.991 909.05 575.994H912.826L913.946 574.33H914.202L913.514 577.562H906.954Z" fill="black"/>
<path d="M84.8143 125.091C83.9716 125.091 83.337 124.968 82.9103 124.723C82.4943 124.477 82.2916 124.216 82.3023 123.939C82.3236 123.768 82.4463 123.608 82.6703 123.459L83.5023 122.883H83.6943L83.8383 123.283C83.945 123.603 84.1103 123.859 84.3343 124.051C84.5583 124.243 84.889 124.339 85.3263 124.339C85.9343 124.339 86.4463 124.125 86.8623 123.699C87.289 123.261 87.5023 122.659 87.5023 121.891C87.5023 121.208 87.289 120.68 86.8623 120.307C86.4356 119.933 85.7743 119.747 84.8783 119.747C84.6436 119.747 84.409 119.757 84.1743 119.779C83.9503 119.8 83.6996 119.837 83.4223 119.891L84.4303 114.371H89.6623L89.3743 115.875H84.9263L84.5263 118.067C84.697 118.056 84.8783 118.045 85.0703 118.035C85.2623 118.024 85.4756 118.019 85.7103 118.019C86.9156 118.019 87.8116 118.296 88.3983 118.851C88.9956 119.405 89.2943 120.131 89.2943 121.027C89.2943 121.56 89.1823 122.072 88.9583 122.563C88.7343 123.043 88.4196 123.475 88.0143 123.859C87.609 124.232 87.1343 124.531 86.5903 124.755C86.0463 124.979 85.4543 125.091 84.8143 125.091ZM94.0618 125.091C93.1871 125.091 92.5151 124.765 92.0458 124.115C91.5871 123.464 91.3578 122.557 91.3578 121.395C91.3578 120.467 91.4751 119.576 91.7098 118.723C91.9445 117.859 92.2698 117.091 92.6858 116.419C93.1125 115.736 93.6031 115.197 94.1578 114.803C94.7125 114.408 95.3098 114.211 95.9498 114.211C96.8245 114.211 97.4965 114.536 97.9658 115.187C98.4351 115.837 98.6698 116.749 98.6698 117.923C98.6698 118.851 98.5471 119.747 98.3018 120.611C98.0671 121.464 97.7365 122.227 97.3098 122.899C96.8938 123.571 96.4085 124.104 95.8538 124.499C95.2991 124.893 94.7018 125.091 94.0618 125.091ZM94.3658 124.339C94.6325 124.339 94.8778 124.205 95.1018 123.939C95.3365 123.661 95.5498 123.288 95.7418 122.819C95.9338 122.349 96.0991 121.821 96.2378 121.235C96.3871 120.637 96.4991 120.019 96.5738 119.379C96.6485 118.728 96.6858 118.088 96.6858 117.459C96.6858 116.669 96.6058 116.056 96.4458 115.619C96.2965 115.181 96.0351 114.963 95.6618 114.963C95.3311 114.963 95.0218 115.171 94.7338 115.587C94.4565 115.992 94.2111 116.536 93.9978 117.219C93.7951 117.891 93.6351 118.632 93.5178 119.443C93.4005 120.243 93.3418 121.037 93.3418 121.827C93.3418 122.616 93.4165 123.235 93.5658 123.683C93.7258 124.12 93.9925 124.339 94.3658 124.339Z" fill="black"/>
<path d="M121.665 120.431L107.089 120.431" stroke="black" stroke-width="0.966441"/>
<path d="M85.5663 209.931L86.0783 207.051H81.9983L82.0943 206.603L88.5103 199.371H89.3103L88.1583 205.899H89.9183L89.7423 207.051H87.9663L87.4543 209.931H85.5663ZM83.6463 205.899H86.2703L86.9423 202.091L83.6463 205.899ZM94.0618 210.091C93.1871 210.091 92.5151 209.765 92.0458 209.115C91.5871 208.464 91.3578 207.557 91.3578 206.395C91.3578 205.467 91.4751 204.576 91.7098 203.723C91.9445 202.859 92.2698 202.091 92.6858 201.419C93.1125 200.736 93.6031 200.197 94.1578 199.803C94.7125 199.408 95.3098 199.211 95.9498 199.211C96.8245 199.211 97.4965 199.536 97.9658 200.187C98.4351 200.837 98.6698 201.749 98.6698 202.923C98.6698 203.851 98.5471 204.747 98.3018 205.611C98.0671 206.464 97.7365 207.227 97.3098 207.899C96.8938 208.571 96.4085 209.104 95.8538 209.499C95.2991 209.893 94.7018 210.091 94.0618 210.091ZM94.3658 209.339C94.6325 209.339 94.8778 209.205 95.1018 208.939C95.3365 208.661 95.5498 208.288 95.7418 207.819C95.9338 207.349 96.0991 206.821 96.2378 206.235C96.3871 205.637 96.4991 205.019 96.5738 204.379C96.6485 203.728 96.6858 203.088 96.6858 202.459C96.6858 201.669 96.6058 201.056 96.4458 200.619C96.2965 200.181 96.0351 199.963 95.6618 199.963C95.3311 199.963 95.0218 200.171 94.7338 200.587C94.4565 200.992 94.2111 201.536 93.9978 202.219C93.7951 202.891 93.6351 203.632 93.5178 204.443C93.4005 205.243 93.3418 206.037 93.3418 206.827C93.3418 207.616 93.4165 208.235 93.5658 208.683C93.7258 209.12 93.9925 209.339 94.3658 209.339Z" fill="black"/>
<path d="M121.665 205.431L107.089 205.431" stroke="black" stroke-width="0.966441"/>
<path d="M72.5417 295.091C71.987 295.091 71.5123 295.021 71.1177 294.883C70.723 294.744 70.4083 294.568 70.1737 294.355C69.7897 294.035 69.5977 293.672 69.5977 293.267C69.5977 292.957 69.651 292.744 69.7577 292.627C69.8643 292.509 70.0083 292.451 70.1897 292.451H71.1657L71.2617 292.611L71.1817 293.155C71.0323 293.997 71.491 294.419 72.5577 294.419C73.2083 294.419 73.7363 294.173 74.1417 293.683C74.5577 293.181 74.7657 292.531 74.7657 291.731C74.7657 291.155 74.5897 290.696 74.2377 290.355C73.8857 290.013 73.3737 289.843 72.7017 289.843H71.7417L71.8857 289.091H72.3497C72.9043 289.091 73.395 288.968 73.8217 288.723C74.2483 288.477 74.579 288.152 74.8137 287.747C75.0483 287.331 75.1657 286.872 75.1657 286.371C75.1657 285.923 75.059 285.565 74.8457 285.299C74.643 285.021 74.3497 284.883 73.9657 284.883C73.5603 284.883 73.219 285 72.9417 285.235C72.675 285.459 72.5043 285.805 72.4297 286.275L72.3177 286.947L72.1577 287.107H71.2937C71.1337 287.107 71.011 287.085 70.9257 287.043C70.8403 287 70.7977 286.893 70.7977 286.723C70.7977 286.445 70.8937 286.157 71.0857 285.859C71.2777 285.549 71.571 285.261 71.9657 284.995C72.3177 284.749 72.6803 284.557 73.0537 284.419C73.427 284.28 73.8643 284.211 74.3657 284.211C74.931 284.211 75.4217 284.312 75.8377 284.515C76.2537 284.717 76.5737 284.989 76.7977 285.331C77.0217 285.672 77.1337 286.045 77.1337 286.451C77.1337 286.888 77.0057 287.293 76.7497 287.667C76.5043 288.04 76.1577 288.365 75.7097 288.643C75.2723 288.909 74.771 289.096 74.2057 289.203C75.027 289.341 75.6563 289.629 76.0937 290.067C76.5417 290.504 76.7657 291.043 76.7657 291.683C76.7657 292.131 76.6537 292.557 76.4297 292.963C76.2057 293.368 75.8963 293.731 75.5017 294.051C75.1177 294.371 74.6697 294.627 74.1577 294.819C73.6457 295 73.107 295.091 72.5417 295.091ZM81.4212 295.091C80.5465 295.091 79.8745 294.765 79.4052 294.115C78.9465 293.464 78.7172 292.557 78.7172 291.395C78.7172 290.467 78.8345 289.576 79.0692 288.723C79.3038 287.859 79.6292 287.091 80.0452 286.419C80.4718 285.736 80.9625 285.197 81.5172 284.803C82.0718 284.408 82.6692 284.211 83.3092 284.211C84.1838 284.211 84.8558 284.536 85.3252 285.187C85.7945 285.837 86.0292 286.749 86.0292 287.923C86.0292 288.851 85.9065 289.747 85.6612 290.611C85.4265 291.464 85.0958 292.227 84.6692 292.899C84.2532 293.571 83.7678 294.104 83.2132 294.499C82.6585 294.893 82.0612 295.091 81.4212 295.091ZM81.7252 294.339C81.9918 294.339 82.2372 294.205 82.4612 293.939C82.6958 293.661 82.9092 293.288 83.1012 292.819C83.2932 292.349 83.4585 291.821 83.5972 291.235C83.7465 290.637 83.8585 290.019 83.9332 289.379C84.0078 288.728 84.0452 288.088 84.0452 287.459C84.0452 286.669 83.9652 286.056 83.8052 285.619C83.6558 285.181 83.3945 284.963 83.0212 284.963C82.6905 284.963 82.3812 285.171 82.0932 285.587C81.8158 285.992 81.5705 286.536 81.3572 287.219C81.1545 287.891 80.9945 288.632 80.8772 289.443C80.7598 290.243 80.7012 291.037 80.7012 291.827C80.7012 292.616 80.7758 293.235 80.9252 293.683C81.0852 294.12 81.3518 294.339 81.7252 294.339ZM88.1087 295.011C87.81 295.011 87.5913 294.925 87.4527 294.755C87.314 294.584 87.2447 294.371 87.2447 294.115C87.2447 293.805 87.346 293.533 87.5487 293.299C87.7513 293.064 88.0127 292.947 88.3327 292.947C88.6313 292.947 88.85 293.032 88.9887 293.203C89.1273 293.363 89.1967 293.576 89.1967 293.843C89.1967 294.141 89.0953 294.413 88.8927 294.659C88.7007 294.893 88.4393 295.011 88.1087 295.011ZM94.0618 295.091C93.1871 295.091 92.5151 294.765 92.0458 294.115C91.5871 293.464 91.3578 292.557 91.3578 291.395C91.3578 290.467 91.4751 289.576 91.7098 288.723C91.9445 287.859 92.2698 287.091 92.6858 286.419C93.1125 285.736 93.6031 285.197 94.1578 284.803C94.7125 284.408 95.3098 284.211 95.9498 284.211C96.8245 284.211 97.4965 284.536 97.9658 285.187C98.4351 285.837 98.6698 286.749 98.6698 287.923C98.6698 288.851 98.5471 289.747 98.3018 290.611C98.0671 291.464 97.7365 292.227 97.3098 292.899C96.8938 293.571 96.4085 294.104 95.8538 294.499C95.2991 294.893 94.7018 295.091 94.0618 295.091ZM94.3658 294.339C94.6325 294.339 94.8778 294.205 95.1018 293.939C95.3365 293.661 95.5498 293.288 95.7418 292.819C95.9338 292.349 96.0991 291.821 96.2378 291.235C96.3871 290.637 96.4991 290.019 96.5738 289.379C96.6485 288.728 96.6858 288.088 96.6858 287.459C96.6858 286.669 96.6058 286.056 96.4458 285.619C96.2965 285.181 96.0351 284.963 95.6618 284.963C95.3311 284.963 95.0218 285.171 94.7338 285.587C94.4565 285.992 94.2111 286.536 93.9978 287.219C93.7951 287.891 93.6351 288.632 93.5178 289.443C93.4005 290.243 93.3418 291.037 93.3418 291.827C93.3418 292.616 93.4165 293.235 93.5658 293.683C93.7258 294.12 93.9925 294.339 94.3658 294.339Z" fill="black"/>
<path d="M121.665 290.431L107.089 290.431" stroke="black" stroke-width="0.966441"/>
<path d="M82.1263 379.931L82.2383 379.387C83.273 378.373 84.1316 377.504 84.8143 376.779C85.5076 376.043 86.0676 375.419 86.4943 374.907C86.921 374.384 87.241 373.936 87.4543 373.563C87.6676 373.179 87.8116 372.827 87.8863 372.507C87.961 372.187 87.9983 371.861 87.9983 371.531C87.9983 371.072 87.865 370.704 87.5983 370.427C87.3316 370.149 86.9903 370.011 86.5743 370.011C86.105 370.011 85.737 370.165 85.4703 370.475C85.2143 370.784 85.0383 371.232 84.9423 371.819L84.8303 372.443L84.6703 372.619H83.8543C83.6516 372.619 83.5023 372.597 83.4063 372.555C83.321 372.501 83.305 372.325 83.3583 372.027C83.401 371.728 83.5183 371.419 83.7103 371.099C83.9023 370.779 84.2116 370.475 84.6383 370.187C84.905 370.005 85.161 369.84 85.4063 369.691C85.6516 369.541 85.929 369.424 86.2383 369.339C86.5476 369.253 86.9263 369.211 87.3743 369.211C87.865 369.211 88.3023 369.312 88.6863 369.515C89.081 369.707 89.3903 369.984 89.6143 370.347C89.849 370.699 89.9663 371.104 89.9663 371.563C89.9663 371.979 89.8863 372.384 89.7263 372.779C89.5663 373.163 89.2783 373.6 88.8623 374.091C88.4463 374.571 87.8596 375.152 87.1023 375.835C86.3556 376.517 85.3956 377.36 84.2223 378.363H87.9983L89.1183 376.699H89.3743L88.6863 379.931H82.1263ZM94.0618 380.091C93.1871 380.091 92.5151 379.765 92.0458 379.115C91.5871 378.464 91.3578 377.557 91.3578 376.395C91.3578 375.467 91.4751 374.576 91.7098 373.723C91.9445 372.859 92.2698 372.091 92.6858 371.419C93.1125 370.736 93.6031 370.197 94.1578 369.803C94.7125 369.408 95.3098 369.211 95.9498 369.211C96.8245 369.211 97.4965 369.536 97.9658 370.187C98.4351 370.837 98.6698 371.749 98.6698 372.923C98.6698 373.851 98.5471 374.747 98.3018 375.611C98.0671 376.464 97.7365 377.227 97.3098 377.899C96.8938 378.571 96.4085 379.104 95.8538 379.499C95.2991 379.893 94.7018 380.091 94.0618 380.091ZM94.3658 379.339C94.6325 379.339 94.8778 379.205 95.1018 378.939C95.3365 378.661 95.5498 378.288 95.7418 377.819C95.9338 377.349 96.0991 376.821 96.2378 376.235C96.3871 375.637 96.4991 375.019 96.5738 374.379C96.6485 373.728 96.6858 373.088 96.6858 372.459C96.6858 371.669 96.6058 371.056 96.4458 370.619C96.2965 370.181 96.0351 369.963 95.6618 369.963C95.3311 369.963 95.0218 370.171 94.7338 370.587C94.4565 370.992 94.2111 371.536 93.9978 372.219C93.7951 372.891 93.6351 373.632 93.5178 374.443C93.4005 375.243 93.3418 376.037 93.3418 376.827C93.3418 377.616 93.4165 378.235 93.5658 378.683C93.7258 379.12 93.9925 379.339 94.3658 379.339Z" fill="black"/>
<path d="M121.665 375.431L107.089 375.431" stroke="black" stroke-width="0.966441"/>
<path d="M83.3903 464.931L83.4543 464.675L84.9423 464.019L86.3343 456.131L83.6943 457.411L83.8063 456.771L87.6463 454.371H88.5103L86.8143 464.019L88.0303 464.675L87.9823 464.931H83.3903ZM94.0618 465.091C93.1871 465.091 92.5151 464.765 92.0458 464.115C91.5871 463.464 91.3578 462.557 91.3578 461.395C91.3578 460.467 91.4751 459.576 91.7098 458.723C91.9445 457.859 92.2698 457.091 92.6858 456.419C93.1125 455.736 93.6031 455.197 94.1578 454.803C94.7125 454.408 95.3098 454.211 95.9498 454.211C96.8245 454.211 97.4965 454.536 97.9658 455.187C98.4351 455.837 98.6698 456.749 98.6698 457.923C98.6698 458.851 98.5471 459.747 98.3018 460.611C98.0671 461.464 97.7365 462.227 97.3098 462.899C96.8938 463.571 96.4085 464.104 95.8538 464.499C95.2991 464.893 94.7018 465.091 94.0618 465.091ZM94.3658 464.339C94.6325 464.339 94.8778 464.205 95.1018 463.939C95.3365 463.661 95.5498 463.288 95.7418 462.819C95.9338 462.349 96.0991 461.821 96.2378 461.235C96.3871 460.637 96.4991 460.019 96.5738 459.379C96.6485 458.728 96.6858 458.088 96.6858 457.459C96.6858 456.669 96.6058 456.056 96.4458 455.619C96.2965 455.181 96.0351 454.963 95.6618 454.963C95.3311 454.963 95.0218 455.171 94.7338 455.587C94.4565 455.992 94.2111 456.536 93.9978 457.219C93.7951 457.891 93.6351 458.632 93.5178 459.443C93.4005 460.243 93.3418 461.037 93.3418 461.827C93.3418 462.616 93.4165 463.235 93.5658 463.683C93.7258 464.12 93.9925 464.339 94.3658 464.339Z" fill="black"/>
<path d="M121.665 460.431L107.089 460.431" stroke="black" stroke-width="0.966441"/>
<path d="M94.0618 550.091C93.1871 550.091 92.5151 549.765 92.0458 549.115C91.5871 548.464 91.3578 547.557 91.3578 546.395C91.3578 545.467 91.4751 544.576 91.7098 543.723C91.9445 542.859 92.2698 542.091 92.6858 541.419C93.1125 540.736 93.6031 540.197 94.1578 539.803C94.7125 539.408 95.3098 539.211 95.9498 539.211C96.8245 539.211 97.4965 539.536 97.9658 540.187C98.4351 540.837 98.6698 541.749 98.6698 542.923C98.6698 543.851 98.5471 544.747 98.3018 545.611C98.0671 546.464 97.7365 547.227 97.3098 547.899C96.8938 548.571 96.4085 549.104 95.8538 549.499C95.2991 549.893 94.7018 550.091 94.0618 550.091ZM94.3658 549.339C94.6325 549.339 94.8778 549.205 95.1018 548.939C95.3365 548.661 95.5498 548.288 95.7418 547.819C95.9338 547.349 96.0991 546.821 96.2378 546.235C96.3871 545.637 96.4991 545.019 96.5738 544.379C96.6485 543.728 96.6858 543.088 96.6858 542.459C96.6858 541.669 96.6058 541.056 96.4458 540.619C96.2965 540.181 96.0351 539.963 95.6618 539.963C95.3311 539.963 95.0218 540.171 94.7338 540.587C94.4565 540.992 94.2111 541.536 93.9978 542.219C93.7951 542.891 93.6351 543.632 93.5178 544.443C93.4005 545.243 93.3418 546.037 93.3418 546.827C93.3418 547.616 93.4165 548.235 93.5658 548.683C93.7258 549.12 93.9925 549.339 94.3658 549.339Z" fill="black"/>
<path d="M121.665 545.431L107.089 545.431" stroke="black" stroke-width="0.966441"/>
<path d="M331.219 33.4531V33.1331L332.859 32.3331V21.3731L331.219 20.5731V20.2531H336.559V20.5731L334.939 21.3731V32.3331L336.559 33.1331V33.4531H331.219ZM339.95 33.4531V33.1331L341.57 32.3331V21.4131L339.97 20.5731V20.2531H343.11L350.77 29.6731V21.3531L348.71 20.5731V20.2531H353.77V20.5731L352.17 21.3531V33.5531H351.31L342.97 23.3131V32.3531L345.03 33.1331V33.4531H339.95ZM356.909 33.4531V33.1331L358.529 32.3331V21.3731L356.909 20.5731V20.2531H366.749V23.6931H366.429L365.169 21.3531H360.629V26.1131H363.749L364.769 24.4331H365.089V28.8131H364.769L363.749 27.1731H360.629V32.3331L362.469 33.1331V33.4531H356.909ZM367.895 33.4531V33.1331L369.155 32.4731L374.295 20.1531H375.395L380.475 32.4131L381.815 33.1331V33.4531H376.535V33.1331L378.295 32.4331L376.815 28.8331H371.995L370.535 32.4531L372.215 33.1331V33.4531H367.895ZM372.455 27.7331H376.375L374.415 22.9131L372.455 27.7331ZM384.532 33.4531V33.1331L386.152 32.3331V21.4131L384.552 20.5731V20.2531H387.692L395.352 29.6731V21.3531L393.292 20.5731V20.2531H398.352V20.5731L396.752 21.3531V33.5531H395.892L387.552 23.3131V32.3531L389.612 33.1331V33.4531H384.532ZM404.207 33.4531V33.1331L406.227 32.3331V21.3531H403.067L401.647 24.3731H401.327V20.2531H413.207V24.3731H412.887L411.487 21.3531H408.307V32.3331L410.347 33.1331V33.4531H404.207ZM422.181 33.4531V33.1331L423.781 32.3331L424.201 21.3731L422.481 20.5731V20.2531H426.461L430.941 30.5931L435.401 20.2531H439.221V20.5731L437.521 21.3131L437.861 32.3331L439.301 33.1331V33.4531H434.361V33.1331L435.861 32.3531L435.661 22.5731L430.941 33.5531H429.981L425.301 22.6931L425.041 32.3531L426.701 33.1331V33.4531H422.181ZM449.358 33.6531C448.398 33.6531 447.505 33.4865 446.678 33.1531C445.865 32.8065 445.151 32.3331 444.538 31.7331C443.938 31.1198 443.471 30.3998 443.138 29.5731C442.805 28.7465 442.638 27.8398 442.638 26.8531C442.638 25.8665 442.805 24.9598 443.138 24.1331C443.471 23.3065 443.938 22.5931 444.538 21.9931C445.151 21.3798 445.865 20.9065 446.678 20.5731C447.505 20.2265 448.398 20.0531 449.358 20.0531C450.318 20.0531 451.205 20.2265 452.018 20.5731C452.845 20.9065 453.558 21.3798 454.158 21.9931C454.771 22.5931 455.245 23.3065 455.578 24.1331C455.925 24.9598 456.098 25.8665 456.098 26.8531C456.098 27.8398 455.925 28.7465 455.578 29.5731C455.245 30.3998 454.771 31.1198 454.158 31.7331C453.558 32.3331 452.845 32.8065 452.018 33.1531C451.205 33.4865 450.318 33.6531 449.358 33.6531ZM449.758 32.6531C450.571 32.6531 451.285 32.4398 451.898 32.0131C452.511 31.5865 452.991 30.9865 453.338 30.2131C453.685 29.4398 453.858 28.5265 453.858 27.4731C453.858 26.1798 453.645 25.0531 453.218 24.0931C452.791 23.1198 452.211 22.3665 451.478 21.8331C450.745 21.2998 449.931 21.0331 449.038 21.0331C448.225 21.0331 447.505 21.2465 446.878 21.6731C446.251 22.0865 445.758 22.6798 445.398 23.4531C445.051 24.2265 444.878 25.1398 444.878 26.1931C444.878 27.4865 445.091 28.6198 445.518 29.5931C445.958 30.5665 446.545 31.3198 447.278 31.8531C448.025 32.3865 448.851 32.6531 449.758 32.6531ZM459.593 33.4531V33.1331L461.213 32.3331V21.3731L459.593 20.5731V20.2531H465.153C466.553 20.2531 467.653 20.5465 468.453 21.1331C469.266 21.7065 469.673 22.4998 469.673 23.5131C469.673 24.2598 469.419 24.9198 468.913 25.4931C468.406 26.0665 467.739 26.5065 466.913 26.8131L470.693 32.3931L472.033 33.1331V33.4531H468.813L464.973 27.3731H463.313V32.3131L464.813 33.1331V33.4531H459.593ZM464.493 21.3531H463.313V26.3131H464.613C465.439 26.3131 466.119 26.0798 466.653 25.6131C467.199 25.1331 467.473 24.5265 467.473 23.7931C467.473 23.0331 467.206 22.4398 466.673 22.0131C466.153 21.5731 465.426 21.3531 464.493 21.3531ZM476.472 33.4531V33.1331L478.492 32.3331V21.3531H475.332L473.912 24.3731H473.592V20.2531H485.472V24.3731H485.152L483.752 21.3531H480.572V32.3331L482.612 33.1331V33.4531H476.472ZM487.301 33.4531V33.1331L488.561 32.4731L493.701 20.1531H494.801L499.881 32.4131L501.221 33.1331V33.4531H495.941V33.1331L497.701 32.4331L496.221 28.8331H491.401L489.941 32.4531L491.621 33.1331V33.4531H487.301ZM491.861 27.7331H495.781L493.821 22.9131L491.861 27.7331ZM504.018 33.4531V33.1331L505.638 32.3331V21.3731L504.018 20.5731V20.2531H509.558V20.5731L507.738 21.3731V32.3531H512.478L513.898 28.9131H514.218V33.4531H504.018ZM517.637 33.4531V33.1331L519.277 32.3331V21.3731L517.637 20.5731V20.2531H522.977V20.5731L521.357 21.3731V32.3331L522.977 33.1331V33.4531H517.637ZM528.988 33.4531V33.1331L531.008 32.3331V21.3531H527.848L526.428 24.3731H526.108V20.2531H537.988V24.3731H537.668L536.268 21.3531H533.088V32.3331L535.128 33.1331V33.4531H528.988ZM544.342 33.4531V33.1331L546.142 32.3331V27.2931L541.722 21.2731L540.462 20.5731V20.2531H545.622V20.5731L544.162 21.2931V21.3731L547.702 26.1931L550.902 21.3931V21.3131L549.422 20.5731V20.2531H553.742V20.5731L552.442 21.2331L548.222 27.2731V32.3331L550.022 33.1331V33.4531H544.342ZM562.573 33.4531V33.1331L564.193 32.3331V21.3731L562.573 20.5731V20.2531H568.133C569.533 20.2531 570.633 20.5465 571.433 21.1331C572.246 21.7065 572.653 22.4998 572.653 23.5131C572.653 24.2598 572.4 24.9198 571.893 25.4931C571.386 26.0665 570.72 26.5065 569.893 26.8131L573.673 32.3931L575.013 33.1331V33.4531H571.793L567.953 27.3731H566.293V32.3131L567.793 33.1331V33.4531H562.573ZM567.473 21.3531H566.293V26.3131H567.593C568.42 26.3131 569.1 26.0798 569.633 25.6131C570.18 25.1331 570.453 24.5265 570.453 23.7931C570.453 23.0331 570.186 22.4398 569.653 22.0131C569.133 21.5731 568.406 21.3531 567.473 21.3531ZM576.391 33.4531V33.1331L577.651 32.4731L582.791 20.1531H583.891L588.971 32.4131L590.311 33.1331V33.4531H585.031V33.1331L586.791 32.4331L585.311 28.8331H580.491L579.031 32.4531L580.711 33.1331V33.4531H576.391ZM580.951 27.7331H584.871L582.911 22.9131L580.951 27.7331ZM595.023 33.4531V33.1331L597.043 32.3331V21.3531H593.883L592.463 24.3731H592.143V20.2531H604.023V24.3731H603.703L602.303 21.3531H599.123V32.3331L601.163 33.1331V33.4531H595.023ZM607.077 33.4531V33.1331L608.697 32.3331V21.3731L607.077 20.5731V20.2531H617.117V23.6931H616.797L615.497 21.3531H610.797V26.0931H614.117L615.137 24.4131H615.457V28.8331H615.137L614.117 27.1931H610.797V32.3531H616.037L617.357 29.7131H617.677V33.4531H607.077ZM381.757 61.5531L376.637 49.2931L375.257 48.5731V48.2531H380.557V48.5731L378.817 49.3331L382.557 58.3331H382.657L386.357 49.2731L384.697 48.5731V48.2531H388.917V48.5731L387.777 49.1931L382.557 61.5531H381.757ZM391.759 61.4531V61.1331L393.379 60.3331V49.3731L391.759 48.5731V48.2531H401.799V51.6931H401.479L400.179 49.3531H395.479V54.0931H398.799L399.819 52.4131H400.139V56.8331H399.819L398.799 55.1931H395.479V60.3531H400.719L402.039 57.7131H402.359V61.4531H391.759ZM405.942 61.4531V61.1331L407.562 60.3331V49.3731L405.942 48.5731V48.2531H411.502C412.902 48.2531 414.002 48.5465 414.802 49.1331C415.616 49.7065 416.022 50.4998 416.022 51.5131C416.022 52.2598 415.769 52.9198 415.262 53.4931C414.756 54.0665 414.089 54.5065 413.262 54.8131L417.042 60.3931L418.382 61.1331V61.4531H415.162L411.322 55.3731H409.662V60.3131L411.162 61.1331V61.4531H405.942ZM410.842 49.3531H409.662V54.3131H410.962C411.789 54.3131 412.469 54.0798 413.002 53.6131C413.549 53.1331 413.822 52.5265 413.822 51.7931C413.822 51.0331 413.556 50.4398 413.022 50.0131C412.502 49.5731 411.776 49.3531 410.842 49.3531ZM424.597 61.6531C423.757 61.6531 423.037 61.5731 422.437 61.4131C421.851 61.2531 421.244 61.0198 420.617 60.7131L420.417 57.4131H420.737L421.797 59.5931C422.264 59.9798 422.724 60.2598 423.177 60.4331C423.631 60.6065 424.084 60.6931 424.537 60.6931C425.311 60.6931 425.917 60.4931 426.357 60.0931C426.811 59.6931 427.037 59.1465 427.037 58.4531C427.037 57.9065 426.911 57.4731 426.657 57.1531C426.417 56.8198 426.051 56.5265 425.557 56.2731C425.077 56.0065 424.484 55.6998 423.777 55.3531C422.831 54.8998 422.104 54.4265 421.597 53.9331C421.091 53.4265 420.837 52.7198 420.837 51.8131C420.837 51.3331 420.951 50.8731 421.177 50.4331C421.417 49.9798 421.737 49.5798 422.137 49.2331C422.537 48.8731 422.984 48.5865 423.477 48.3731C423.971 48.1598 424.484 48.0531 425.017 48.0531C425.644 48.0531 426.231 48.1265 426.777 48.2731C427.324 48.4198 427.864 48.6331 428.397 48.9131L428.597 52.1131H428.277L427.237 49.9731C426.811 49.6398 426.424 49.3998 426.077 49.2531C425.731 49.1065 425.337 49.0331 424.897 49.0331C424.324 49.0331 423.844 49.2265 423.457 49.6131C423.084 49.9998 422.897 50.4865 422.897 51.0731C422.897 51.7265 423.097 52.2398 423.497 52.6131C423.911 52.9865 424.571 53.3865 425.477 53.8131C426.277 54.1998 426.937 54.5731 427.457 54.9331C427.991 55.2798 428.384 55.6731 428.637 56.1131C428.891 56.5531 429.017 57.1131 429.017 57.7931C429.017 58.4198 428.884 58.9731 428.617 59.4531C428.351 59.9331 427.997 60.3398 427.557 60.6731C427.117 60.9931 426.637 61.2398 426.117 61.4131C425.611 61.5731 425.104 61.6531 424.597 61.6531ZM439.278 61.6531C438.251 61.6531 437.331 61.4665 436.518 61.0931C435.704 60.7198 435.064 60.1331 434.598 59.3331C434.144 58.5331 433.918 57.4865 433.918 56.1931V49.3731L432.298 48.5731V48.2531H437.638V48.5731L436.018 49.3731V55.9731C436.018 57.0798 436.191 57.9598 436.538 58.6131C436.884 59.2531 437.351 59.7131 437.938 59.9931C438.524 60.2731 439.184 60.4131 439.918 60.4131C440.504 60.4131 441.044 60.2931 441.538 60.0531C442.044 59.7998 442.444 59.3998 442.738 58.8531C443.044 58.2931 443.198 57.5665 443.198 56.6731V49.3331L441.238 48.5731V48.2531H446.218V48.5731L444.598 49.3531V56.1931C444.598 57.4865 444.364 58.5331 443.898 59.3331C443.444 60.1331 442.818 60.7198 442.018 61.0931C441.218 61.4665 440.304 61.6531 439.278 61.6531ZM453.746 61.6531C452.906 61.6531 452.186 61.5731 451.586 61.4131C450.999 61.2531 450.392 61.0198 449.766 60.7131L449.566 57.4131H449.886L450.946 59.5931C451.412 59.9798 451.872 60.2598 452.326 60.4331C452.779 60.6065 453.232 60.6931 453.686 60.6931C454.459 60.6931 455.066 60.4931 455.506 60.0931C455.959 59.6931 456.186 59.1465 456.186 58.4531C456.186 57.9065 456.059 57.4731 455.806 57.1531C455.566 56.8198 455.199 56.5265 454.706 56.2731C454.226 56.0065 453.632 55.6998 452.926 55.3531C451.979 54.8998 451.252 54.4265 450.746 53.9331C450.239 53.4265 449.986 52.7198 449.986 51.8131C449.986 51.3331 450.099 50.8731 450.326 50.4331C450.566 49.9798 450.886 49.5798 451.286 49.2331C451.686 48.8731 452.132 48.5865 452.626 48.3731C453.119 48.1598 453.632 48.0531 454.166 48.0531C454.792 48.0531 455.379 48.1265 455.926 48.2731C456.472 48.4198 457.012 48.6331 457.546 48.9131L457.746 52.1131H457.426L456.386 49.9731C455.959 49.6398 455.572 49.3998 455.226 49.2531C454.879 49.1065 454.486 49.0331 454.046 49.0331C453.472 49.0331 452.992 49.2265 452.606 49.6131C452.232 49.9998 452.046 50.4865 452.046 51.0731C452.046 51.7265 452.246 52.2398 452.646 52.6131C453.059 52.9865 453.719 53.3865 454.626 53.8131C455.426 54.1998 456.086 54.5731 456.606 54.9331C457.139 55.2798 457.532 55.6731 457.786 56.1131C458.039 56.5531 458.166 57.1131 458.166 57.7931C458.166 58.4198 458.032 58.9731 457.766 59.4531C457.499 59.9331 457.146 60.3398 456.706 60.6731C456.266 60.9931 455.786 61.2398 455.266 61.4131C454.759 61.5731 454.252 61.6531 453.746 61.6531ZM474.266 61.6531C473.306 61.6531 472.413 61.4931 471.586 61.1731C470.773 60.8531 470.066 60.4065 469.466 59.8331C468.866 59.2465 468.393 58.5598 468.046 57.7731C467.713 56.9865 467.546 56.1265 467.546 55.1931C467.546 54.1665 467.733 53.2198 468.106 52.3531C468.493 51.4865 469.019 50.7331 469.686 50.0931C470.353 49.4398 471.119 48.9398 471.986 48.5931C472.853 48.2331 473.779 48.0531 474.766 48.0531C475.473 48.0531 476.073 48.0931 476.566 48.1731C477.059 48.2531 477.499 48.3665 477.886 48.5131C478.286 48.6598 478.673 48.8265 479.046 49.0131L479.166 52.3731H478.846L477.406 49.9731C476.886 49.6265 476.439 49.3865 476.066 49.2531C475.693 49.1198 475.259 49.0531 474.766 49.0531C473.779 49.0531 472.899 49.2798 472.126 49.7331C471.353 50.1865 470.746 50.8131 470.306 51.6131C469.866 52.4131 469.646 53.3265 469.646 54.3531C469.646 55.6465 469.879 56.7531 470.346 57.6731C470.813 58.5931 471.433 59.2998 472.206 59.7931C472.993 60.2731 473.873 60.5131 474.846 60.5131C475.233 60.5131 475.613 60.4931 475.986 60.4531C476.373 60.3998 476.759 60.3065 477.146 60.1731V56.7531L475.366 55.9331V55.6131H480.646V55.9331L479.246 56.8131V59.9731C478.846 60.3198 478.366 60.6198 477.806 60.8731C477.246 61.1131 476.659 61.3065 476.046 61.4531C475.433 61.5865 474.839 61.6531 474.266 61.6531ZM483.739 61.4531V61.1331L485.359 60.3331V49.3731L483.739 48.5731V48.2531H489.819C491.312 48.2531 492.586 48.5131 493.639 49.0331C494.692 49.5531 495.492 50.2665 496.039 51.1731C496.599 52.0798 496.879 53.1065 496.879 54.2531C496.879 55.2931 496.699 56.2531 496.339 57.1331C495.979 58.0131 495.472 58.7731 494.819 59.4131C494.179 60.0531 493.419 60.5531 492.539 60.9131C491.672 61.2731 490.719 61.4531 489.679 61.4531H483.739ZM489.279 49.3531H487.459V60.3531H489.579C490.646 60.3531 491.559 60.1331 492.319 59.6931C493.079 59.2398 493.666 58.6065 494.079 57.7931C494.492 56.9665 494.699 55.9931 494.699 54.8731C494.699 53.7665 494.486 52.7998 494.059 51.9731C493.646 51.1331 493.032 50.4865 492.219 50.0331C491.419 49.5798 490.439 49.3531 489.279 49.3531ZM500.364 61.4531V61.1331L501.984 60.3331V49.3731L500.364 48.5731V48.2531H505.964C507.537 48.2531 508.797 48.5398 509.744 49.1131C510.704 49.6865 511.184 50.5931 511.184 51.8331C511.184 52.5665 510.931 53.2198 510.424 53.7931C509.931 54.3531 509.257 54.7998 508.404 55.1331C507.551 55.4531 506.577 55.6131 505.484 55.6131H504.084V60.3331L505.924 61.1331V61.4531H500.364ZM504.084 49.3531V54.5531H505.604C506.657 54.5531 507.484 54.3131 508.084 53.8331C508.684 53.3531 508.984 52.7398 508.984 51.9931C508.984 51.0598 508.677 50.3865 508.064 49.9731C507.464 49.5598 506.597 49.3531 505.464 49.3531H504.084ZM523.632 64.4531C522.552 63.1465 521.712 61.7531 521.112 60.2731C520.526 58.7798 520.232 57.2065 520.232 55.5531C520.232 53.8998 520.526 52.3331 521.112 50.8531C521.712 49.3598 522.552 47.9598 523.632 46.6531H524.072V46.7131C523.272 47.9931 522.659 49.3331 522.232 50.7331C521.806 52.1198 521.592 53.7265 521.592 55.5531C521.592 56.7665 521.686 57.8798 521.872 58.8931C522.072 59.9065 522.352 60.8598 522.712 61.7531C523.086 62.6465 523.539 63.5265 524.072 64.3931V64.4531H523.632ZM526.251 61.4531V60.8931C527.384 59.5998 528.318 58.5198 529.051 57.6531C529.798 56.7731 530.378 56.0398 530.791 55.4531C531.218 54.8665 531.524 54.3665 531.711 53.9531C531.911 53.5398 532.038 53.1531 532.091 52.7931C532.144 52.4198 532.171 52.0065 532.171 51.5531C532.171 50.7798 531.971 50.1665 531.571 49.7131C531.184 49.2465 530.684 49.0131 530.071 49.0131C528.671 49.0131 527.971 49.7531 527.971 51.2331V52.1331L527.851 52.2931H526.831C526.564 52.2931 526.364 52.2465 526.231 52.1531C526.098 52.0598 526.031 51.8265 526.031 51.4531C526.031 51.0931 526.138 50.7331 526.351 50.3731C526.564 49.9998 526.898 49.6465 527.351 49.3131C527.711 49.0598 528.044 48.8398 528.351 48.6531C528.671 48.4665 529.018 48.3198 529.391 48.2131C529.778 48.1065 530.231 48.0531 530.751 48.0531C531.458 48.0531 532.084 48.2131 532.631 48.5331C533.178 48.8531 533.604 49.2798 533.911 49.8131C534.231 50.3465 534.391 50.9398 534.391 51.5931C534.391 52.0331 534.338 52.4331 534.231 52.7931C534.138 53.1531 533.964 53.5265 533.711 53.9131C533.458 54.2998 533.111 54.7465 532.671 55.2531C532.231 55.7598 531.671 56.3731 530.991 57.0931C530.311 57.7998 529.484 58.6598 528.511 59.6731H533.371L534.411 57.7131H534.731L534.531 61.4531H526.251ZM541.624 61.6531C540.678 61.6531 539.871 61.3798 539.204 60.8331C538.538 60.2865 538.024 59.5065 537.664 58.4931C537.318 57.4665 537.144 56.2531 537.144 54.8531C537.144 53.5465 537.331 52.3865 537.704 51.3731C538.091 50.3465 538.618 49.5398 539.284 48.9531C539.964 48.3531 540.744 48.0531 541.624 48.0531C542.571 48.0531 543.378 48.3265 544.044 48.8731C544.724 49.4198 545.238 50.2065 545.584 51.2331C545.944 52.2465 546.124 53.4531 546.124 54.8531C546.124 56.1598 545.931 57.3265 545.544 58.3531C545.158 59.3665 544.624 60.1731 543.944 60.7731C543.278 61.3598 542.504 61.6531 541.624 61.6531ZM542.024 60.7131C542.438 60.7131 542.791 60.4865 543.084 60.0331C543.378 59.5798 543.598 58.9598 543.744 58.1731C543.904 57.3731 543.984 56.4731 543.984 55.4731C543.984 54.1798 543.884 53.0465 543.684 52.0731C543.498 51.0998 543.204 50.3465 542.804 49.8131C542.404 49.2665 541.904 48.9931 541.304 48.9931C540.864 48.9931 540.491 49.2198 540.184 49.6731C539.891 50.1131 539.664 50.7265 539.504 51.5131C539.358 52.2865 539.284 53.1798 539.284 54.1931C539.284 55.4998 539.384 56.6465 539.584 57.6331C539.784 58.6065 540.084 59.3665 540.484 59.9131C540.884 60.4465 541.398 60.7131 542.024 60.7131ZM548.798 61.4531V60.8931C549.931 59.5998 550.864 58.5198 551.598 57.6531C552.344 56.7731 552.924 56.0398 553.338 55.4531C553.764 54.8665 554.071 54.3665 554.258 53.9531C554.458 53.5398 554.584 53.1531 554.638 52.7931C554.691 52.4198 554.718 52.0065 554.718 51.5531C554.718 50.7798 554.518 50.1665 554.118 49.7131C553.731 49.2465 553.231 49.0131 552.618 49.0131C551.218 49.0131 550.518 49.7531 550.518 51.2331V52.1331L550.398 52.2931H549.378C549.111 52.2931 548.911 52.2465 548.778 52.1531C548.644 52.0598 548.578 51.8265 548.578 51.4531C548.578 51.0931 548.684 50.7331 548.898 50.3731C549.111 49.9998 549.444 49.6465 549.898 49.3131C550.258 49.0598 550.591 48.8398 550.898 48.6531C551.218 48.4665 551.564 48.3198 551.938 48.2131C552.324 48.1065 552.778 48.0531 553.298 48.0531C554.004 48.0531 554.631 48.2131 555.178 48.5331C555.724 48.8531 556.151 49.2798 556.458 49.8131C556.778 50.3465 556.938 50.9398 556.938 51.5931C556.938 52.0331 556.884 52.4331 556.778 52.7931C556.684 53.1531 556.511 53.5265 556.258 53.9131C556.004 54.2998 555.658 54.7465 555.218 55.2531C554.778 55.7598 554.218 56.3731 553.538 57.0931C552.858 57.7998 552.031 58.6598 551.058 59.6731H555.918L556.958 57.7131H557.278L557.078 61.4531H548.798ZM560.071 61.4531V60.8931C561.205 59.5998 562.138 58.5198 562.871 57.6531C563.618 56.7731 564.198 56.0398 564.611 55.4531C565.038 54.8665 565.345 54.3665 565.531 53.9531C565.731 53.5398 565.858 53.1531 565.911 52.7931C565.965 52.4198 565.991 52.0065 565.991 51.5531C565.991 50.7798 565.791 50.1665 565.391 49.7131C565.005 49.2465 564.505 49.0131 563.891 49.0131C562.491 49.0131 561.791 49.7531 561.791 51.2331V52.1331L561.671 52.2931H560.651C560.385 52.2931 560.185 52.2465 560.051 52.1531C559.918 52.0598 559.851 51.8265 559.851 51.4531C559.851 51.0931 559.958 50.7331 560.171 50.3731C560.385 49.9998 560.718 49.6465 561.171 49.3131C561.531 49.0598 561.865 48.8398 562.171 48.6531C562.491 48.4665 562.838 48.3198 563.211 48.2131C563.598 48.1065 564.051 48.0531 564.571 48.0531C565.278 48.0531 565.905 48.2131 566.451 48.5331C566.998 48.8531 567.425 49.2798 567.731 49.8131C568.051 50.3465 568.211 50.9398 568.211 51.5931C568.211 52.0331 568.158 52.4331 568.051 52.7931C567.958 53.1531 567.785 53.5265 567.531 53.9131C567.278 54.2998 566.931 54.7465 566.491 55.2531C566.051 55.7598 565.491 56.3731 564.811 57.0931C564.131 57.7998 563.305 58.6598 562.331 59.6731H567.191L568.231 57.7131H568.551L568.351 61.4531H560.071ZM570.445 64.4531V64.3931C570.978 63.5265 571.425 62.6465 571.785 61.7531C572.158 60.8598 572.438 59.9065 572.625 58.8931C572.825 57.8798 572.925 56.7665 572.925 55.5531C572.925 53.7265 572.711 52.1198 572.285 50.7331C571.858 49.3331 571.245 47.9931 570.445 46.7131V46.6531H570.885C571.965 47.9598 572.798 49.3598 573.385 50.8531C573.985 52.3331 574.285 53.8998 574.285 55.5531C574.285 57.2065 573.985 58.7798 573.385 60.2731C572.798 61.7531 571.965 63.1465 570.885 64.4531H570.445Z" fill="black"/>
<path d="M329.939 36.3531H620.061V37.3531H329.939V36.3531ZM374.637 64.3531H575.365V65.3531H374.637V64.3531Z" fill="black"/>
<path d="M23.9141 427.618H23.6581L23.0021 426.258H14.2661L13.6101 427.618H13.3541V422.322H13.6101L14.2661 423.842H23.0341V420.322L20.0101 419.026V418.77H23.9141V427.618ZM24.0741 410.827C24.0741 411.617 23.9407 412.347 23.6741 413.019C23.3967 413.691 23.0181 414.278 22.5381 414.779C22.0474 415.27 21.4714 415.654 20.8101 415.931C20.1487 416.209 19.4234 416.347 18.6341 416.347C17.8447 416.347 17.1194 416.209 16.4581 415.931C15.7967 415.654 15.2261 415.27 14.7461 414.779C14.2554 414.278 13.8767 413.691 13.6101 413.019C13.3327 412.347 13.1941 411.617 13.1941 410.827C13.1941 410.027 13.3327 409.291 13.6101 408.619C13.8767 407.947 14.2554 407.366 14.7461 406.875C15.2261 406.374 15.7967 405.985 16.4581 405.707C17.1194 405.43 17.8447 405.291 18.6341 405.291C19.4234 405.291 20.1487 405.43 20.8101 405.707C21.4714 405.985 22.0474 406.374 22.5381 406.875C23.0181 407.366 23.3967 407.947 23.6741 408.619C23.9407 409.291 24.0741 410.027 24.0741 410.827ZM23.2421 410.571C23.2421 410.038 23.0714 409.569 22.7301 409.163C22.3887 408.747 21.9087 408.427 21.2901 408.203C20.6714 407.969 19.9461 407.851 19.1141 407.851C18.0901 407.851 17.1941 407.995 16.4261 408.283C15.6581 408.561 15.0661 408.939 14.6501 409.419C14.2234 409.899 14.0101 410.438 14.0101 411.035C14.0101 411.569 14.1807 412.043 14.5221 412.459C14.8527 412.875 15.3274 413.206 15.9461 413.451C16.5647 413.686 17.2901 413.803 18.1221 413.803C19.1461 413.803 20.0421 413.659 20.8101 413.371C21.5781 413.083 22.1754 412.694 22.6021 412.203C23.0287 411.713 23.2421 411.169 23.2421 410.571ZM24.0741 396.933C24.0741 397.701 23.9461 398.421 23.6901 399.093C23.4234 399.755 23.0554 400.341 22.5861 400.853C22.1167 401.355 21.5674 401.749 20.9381 402.037C20.2981 402.315 19.6047 402.453 18.8581 402.453C18.0367 402.453 17.2847 402.293 16.6021 401.973C15.9087 401.653 15.3061 401.211 14.7941 400.645C14.2821 400.08 13.8874 399.435 13.6101 398.709C13.3327 397.984 13.1941 397.221 13.1941 396.421C13.1941 395.856 13.2261 395.376 13.2901 394.981C13.3541 394.576 13.4447 394.219 13.5621 393.909C13.6794 393.589 13.8127 393.275 13.9621 392.965L16.7781 392.789V393.077L14.4581 394.613C14.2767 394.901 14.1541 395.179 14.0901 395.445C14.0154 395.712 13.9781 396.016 13.9781 396.357C13.9781 397.029 14.1701 397.637 14.5541 398.181C14.9381 398.725 15.4767 399.157 16.1701 399.477C16.8527 399.797 17.6527 399.957 18.5701 399.957C19.5301 399.957 20.3567 399.803 21.0501 399.493C21.7327 399.184 22.2607 398.768 22.6341 398.245C23.0074 397.712 23.1941 397.12 23.1941 396.469C23.1941 396.288 23.1887 396.091 23.1781 395.877C23.1567 395.664 23.1247 395.451 23.0821 395.237H20.1221L19.3701 396.661H19.1141V391.637H19.3701L20.1381 392.837H22.7301C23.0074 393.168 23.2474 393.568 23.4501 394.037C23.6421 394.496 23.7967 394.981 23.9141 395.493C24.0207 395.995 24.0741 396.475 24.0741 396.933ZM23.9141 384.824H23.6581L23.0021 383.464H14.2661L13.6101 384.824H13.3541V379.688H13.6101L14.2661 381.048H23.0021L23.6581 379.688H23.9141V384.824ZM23.9141 377.478H23.6581L23.0021 376.118H14.2821L13.6101 377.478H13.3541L13.3541 374.438L20.3621 368.23H14.2501L13.6101 370.054H13.3541V365.766H13.6101L14.2661 367.11H23.9941V368.102L16.2821 374.998H23.0021L23.6581 373.174H23.9141V377.478ZM23.9141 363.646H23.6581L23.0021 362.286H14.2661L13.6101 363.646H13.3541V355.086H16.1221V355.342L14.2341 356.43V359.87H18.0741V357.566L16.6981 356.67V356.414H20.2021V356.67L18.8581 357.566V359.87H23.0021L23.6581 358.238H23.9141V363.646ZM23.9141 354.496H23.6581L23.1141 353.52L13.2741 349.344V347.936L23.0821 343.808L23.6581 342.72H23.9141V347.776H23.6581L23.0821 346.384L20.4261 347.472V351.264L23.0821 352.352L23.6581 351.024H23.9141V354.496ZM19.5461 350.896V347.84L15.8181 349.36L19.5461 350.896ZM23.9141 340.938H23.6581L23.0021 339.578H14.2821L13.6101 340.938H13.3541V337.898L20.3621 331.69H14.2501L13.6101 333.514H13.3541V329.226H13.6101L14.2661 330.57H23.9941V331.562L16.2821 338.458H23.0021L23.6581 336.634H23.9141V340.938ZM23.9141 325.043H23.6581L23.0021 323.347H14.2341V325.635L16.8741 326.915V327.171H13.3541V317.107H16.8741V317.363L14.2341 318.643V320.931H23.0021L23.6581 319.235H23.9141V325.043ZM23.9141 310.256H23.6581L23.0021 308.896L14.2661 308.56L13.6101 309.968H13.3541V306L20.7941 302.784L13.3541 299.6V295.76H13.6101L14.1061 297.152L23.0021 296.88L23.6581 295.664H23.9141V300.512H23.6581L23.0181 299.232L15.4181 299.392L23.9941 303.04V303.936L15.4501 307.616L23.0181 307.824L23.6581 306.432H23.9141V310.256ZM24.0741 287.934C24.0741 288.723 23.9407 289.454 23.6741 290.126C23.3967 290.798 23.0181 291.384 22.5381 291.886C22.0474 292.376 21.4714 292.76 20.8101 293.038C20.1487 293.315 19.4234 293.454 18.6341 293.454C17.8447 293.454 17.1194 293.315 16.4581 293.038C15.7967 292.76 15.2261 292.376 14.7461 291.886C14.2554 291.384 13.8767 290.798 13.6101 290.126C13.3327 289.454 13.1941 288.723 13.1941 287.934C13.1941 287.134 13.3327 286.398 13.6101 285.726C13.8767 285.054 14.2554 284.472 14.7461 283.982C15.2261 283.48 15.7967 283.091 16.4581 282.814C17.1194 282.536 17.8447 282.398 18.6341 282.398C19.4234 282.398 20.1487 282.536 20.8101 282.814C21.4714 283.091 22.0474 283.48 22.5381 283.982C23.0181 284.472 23.3967 285.054 23.6741 285.726C23.9407 286.398 24.0741 287.134 24.0741 287.934ZM23.2421 287.678C23.2421 287.144 23.0714 286.675 22.7301 286.27C22.3887 285.854 21.9087 285.534 21.2901 285.31C20.6714 285.075 19.9461 284.958 19.1141 284.958C18.0901 284.958 17.1941 285.102 16.4261 285.39C15.6581 285.667 15.0661 286.046 14.6501 286.526C14.2234 287.006 14.0101 287.544 14.0101 288.142C14.0101 288.675 14.1807 289.15 14.5221 289.566C14.8527 289.982 15.3274 290.312 15.9461 290.558C16.5647 290.792 17.2901 290.91 18.1221 290.91C19.1461 290.91 20.0421 290.766 20.8101 290.478C21.5781 290.19 22.1754 289.8 22.6021 289.31C23.0287 288.819 23.2421 288.275 23.2421 287.678ZM23.9141 280.109H23.6581L23.0021 278.749H14.2661L13.6101 280.109H13.3541V274.637C13.3541 273.517 13.5887 272.637 14.0581 271.997C14.5167 271.346 15.1514 271.021 15.9621 271.021C16.5487 271.021 17.0554 271.218 17.4821 271.613C17.8981 272.007 18.2287 272.525 18.4741 273.165L23.0181 270.205L23.6581 269.053H23.9141V272.525L19.0181 275.485V276.333H22.9861L23.6581 275.133H23.9141V280.109ZM14.2341 275.693V276.333H18.2341V275.597C18.2341 274.935 18.0474 274.413 17.6741 274.029C17.3007 273.645 16.8154 273.453 16.2181 273.453C15.5887 273.453 15.1034 273.645 14.7621 274.029C14.4101 274.402 14.2341 274.957 14.2341 275.693ZM23.9141 265.84H23.6581L23.0021 264.144H14.2341V266.432L16.8741 267.712V267.968H13.3541L13.3541 257.904H16.8741V258.16L14.2341 259.44V261.728H23.0021L23.6581 260.032H23.9141L23.9141 265.84ZM23.9141 256.799H23.6581L23.1141 255.823L13.2741 251.647V250.239L23.0821 246.111L23.6581 245.023H23.9141V250.079H23.6581L23.0821 248.687L20.4261 249.775V253.567L23.0821 254.655L23.6581 253.327H23.9141V256.799ZM19.5461 253.199V250.143L15.8181 251.663L19.5461 253.199ZM23.9141 243.209H23.6581L23.0021 241.849H14.2661L13.6101 243.209H13.3541V237.913H13.6101L14.2661 239.433H23.0341V235.913L20.0101 234.617V234.361H23.9141V243.209ZM23.9141 232.049H23.6581L23.0021 230.689H14.2661L13.6101 232.049H13.3541V226.913H13.6101L14.2661 228.273H23.0021L23.6581 226.913H23.9141V232.049ZM23.9141 222.671H23.6581L23.0021 220.975H14.2341V223.263L16.8741 224.543V224.799H13.3541V214.735H16.8741V214.991L14.2341 216.271V218.559H23.0021L23.6581 216.863H23.9141V222.671ZM23.9141 209.9H23.6581L23.0021 208.46H18.9861L14.2341 211.948L13.6101 213.036H13.3541V208.092H13.6101L14.2021 209.292H14.2661L18.0261 206.508L14.2981 204.012H14.2341L13.6101 205.244H13.3541V201.596H13.6101L14.1381 202.668L18.9701 206.044H23.0021L23.6581 204.62H23.9141V209.9ZM39.9141 442.673H39.6581L39.0021 441.313H30.2661L29.6101 442.673H29.3541V437.201C29.3541 436.081 29.5887 435.201 30.0581 434.561C30.5167 433.91 31.1514 433.585 31.9621 433.585C32.5487 433.585 33.0554 433.782 33.4821 434.177C33.8981 434.571 34.2287 435.089 34.4741 435.729L39.0181 432.769L39.6581 431.617H39.9141V435.089L35.0181 438.049V438.897H38.9861L39.6581 437.697H39.9141V442.673ZM30.2341 438.257V438.897H34.2341V438.161C34.2341 437.499 34.0474 436.977 33.6741 436.593C33.3007 436.209 32.8154 436.017 32.2181 436.017C31.5887 436.017 31.1034 436.209 30.7621 436.593C30.4101 436.966 30.2341 437.521 30.2341 438.257ZM39.9141 431.038H39.6581L39.1141 430.062L29.2741 425.886V424.478L39.0821 420.35L39.6581 419.262H39.9141V424.318H39.6581L39.0821 422.926L36.4261 424.014V427.806L39.0821 428.894L39.6581 427.566H39.9141V431.038ZM35.5461 427.438V424.382L31.8181 425.902L35.5461 427.438ZM39.9141 416.026H39.6581L39.0021 414.33H30.2341V416.618L32.8741 417.898V418.154H29.3541V408.09H32.8741V408.346L30.2341 409.626V411.914H39.0021L39.6581 410.218H39.9141V416.026ZM39.9141 406.007H39.6581L39.0021 404.647H30.2661L29.6101 406.007H29.3541V397.287H32.1221V397.543L30.2341 398.727V402.231H34.0261V399.767L32.6501 398.871V398.615H36.2501V398.871L34.9061 399.767V402.231H39.0341V398.343L36.6501 397.095V396.839H39.9141V406.007ZM39.9141 389.517H39.6581L39.0021 388.157H30.2661L29.6101 389.517H29.3541V383.981C29.3541 382.722 29.5834 381.714 30.0421 380.957C30.4901 380.189 31.2101 379.805 32.2021 379.805C32.7994 379.805 33.3274 380.007 33.7861 380.413C34.2341 380.807 34.5861 381.346 34.8421 382.029C35.0874 382.711 35.2101 383.49 35.2101 384.365V385.741H39.0021L39.6581 384.109H39.9141V389.517ZM30.2341 385.741H34.4261V384.973C34.4261 384.119 34.2287 383.453 33.8341 382.973C33.4394 382.493 32.9434 382.253 32.3461 382.253C31.5994 382.253 31.0607 382.498 30.7301 382.989C30.3994 383.479 30.2341 384.173 30.2341 385.069V385.741ZM39.9141 377.779H39.6581L39.0021 376.419H30.2661L29.6101 377.779H29.3541V369.059H32.1221V369.315L30.2341 370.499V374.003H34.0261V371.539L32.6501 370.643V370.387H36.2501V370.643L34.9061 371.539V374.003H39.0341V370.115L36.6501 368.867V368.611H39.9141V377.779ZM39.9141 366.088H39.6581L39.0021 364.728H30.2661L29.6101 366.088H29.3541L29.3541 360.616C29.3541 359.496 29.5887 358.616 30.0581 357.976C30.5167 357.326 31.1514 357 31.9621 357C32.5487 357 33.0554 357.198 33.4821 357.592C33.8981 357.987 34.2287 358.504 34.4741 359.144L39.0181 356.184L39.6581 355.032H39.9141V358.504L35.0181 361.464V362.312H38.9861L39.6581 361.112H39.9141L39.9141 366.088ZM30.2341 361.672V362.312H34.2341V361.576C34.2341 360.915 34.0474 360.392 33.6741 360.008C33.3007 359.624 32.8154 359.432 32.2181 359.432C31.5887 359.432 31.1034 359.624 30.7621 360.008C30.4101 360.382 30.2341 360.936 30.2341 361.672ZM39.9141 347.199H39.6581L39.0981 345.679H31.1941L32.3941 348.335H31.7541L29.3541 344.351V343.343H39.0981L39.6581 341.983H39.9141V347.199ZM43.3221 338.903H42.8261C42.5701 338.38 42.2821 338.023 41.9621 337.831C41.6527 337.639 41.3541 337.543 41.0661 337.543C40.7567 337.543 40.4954 337.623 40.2821 337.783C40.0794 337.932 39.9034 338.129 39.7541 338.375L39.4501 338.919L39.2581 338.967L38.1701 338.311C38.0421 338.236 37.9514 338.172 37.8981 338.119C37.8447 338.065 37.8181 337.996 37.8181 337.911C37.8181 337.825 37.8661 337.692 37.9621 337.511C38.1861 337.116 38.4901 336.812 38.8741 336.599C39.2474 336.375 39.6527 336.263 40.0901 336.263C40.6874 336.263 41.2741 336.46 41.8501 336.855C42.4367 337.239 42.9274 337.921 43.3221 338.903ZM40.0741 330.237C40.0741 331.069 39.8554 331.784 39.4181 332.381C38.9807 332.968 38.3567 333.421 37.5461 333.741C36.7247 334.051 35.7541 334.205 34.6341 334.205C33.5887 334.205 32.6607 334.04 31.8501 333.709C31.0287 333.368 30.3834 332.899 29.9141 332.301C29.4341 331.704 29.1941 331.016 29.1941 330.237C29.1941 329.405 29.4127 328.691 29.8501 328.093C30.2874 327.496 30.9167 327.043 31.7381 326.733C32.5487 326.413 33.5141 326.253 34.6341 326.253C35.6794 326.253 36.6127 326.424 37.4341 326.765C38.2447 327.107 38.8901 327.576 39.3701 328.173C39.8394 328.771 40.0741 329.459 40.0741 330.237ZM39.2901 329.965C39.2901 329.688 39.1141 329.459 38.7621 329.277C38.3994 329.096 37.9087 328.963 37.2901 328.877C36.6607 328.792 35.9407 328.749 35.1301 328.749C34.1807 328.749 33.3167 328.808 32.5381 328.925C31.7594 329.032 31.1354 329.208 30.6661 329.453C30.1967 329.699 29.9621 330.029 29.9621 330.445C29.9621 330.872 30.3407 331.192 31.0981 331.405C31.8447 331.608 32.8474 331.709 34.1061 331.709C35.0554 331.709 35.9247 331.651 36.7141 331.533C37.4927 331.416 38.1167 331.229 38.5861 330.973C39.0554 330.717 39.2901 330.381 39.2901 329.965ZM40.0741 320.469C40.0741 321.301 39.8554 322.015 39.4181 322.613C38.9807 323.199 38.3567 323.653 37.5461 323.973C36.7247 324.282 35.7541 324.437 34.6341 324.437C33.5887 324.437 32.6607 324.271 31.8501 323.941C31.0287 323.599 30.3834 323.13 29.9141 322.533C29.4341 321.935 29.1941 321.247 29.1941 320.469C29.1941 319.637 29.4127 318.922 29.8501 318.325C30.2874 317.727 30.9167 317.274 31.7381 316.965C32.5487 316.645 33.5141 316.485 34.6341 316.485C35.6794 316.485 36.6127 316.655 37.4341 316.997C38.2447 317.338 38.8901 317.807 39.3701 318.405C39.8394 319.002 40.0741 319.69 40.0741 320.469ZM39.2901 320.197C39.2901 319.919 39.1141 319.69 38.7621 319.509C38.3994 319.327 37.9087 319.194 37.2901 319.109C36.6607 319.023 35.9407 318.981 35.1301 318.981C34.1807 318.981 33.3167 319.039 32.5381 319.157C31.7594 319.263 31.1354 319.439 30.6661 319.685C30.1967 319.93 29.9621 320.261 29.9621 320.677C29.9621 321.103 30.3407 321.423 31.0981 321.637C31.8447 321.839 32.8474 321.941 34.1061 321.941C35.0554 321.941 35.9247 321.882 36.7141 321.765C37.4927 321.647 38.1167 321.461 38.5861 321.205C39.0554 320.949 39.2901 320.613 39.2901 320.197ZM40.0741 310.7C40.0741 311.532 39.8554 312.247 39.4181 312.844C38.9807 313.431 38.3567 313.884 37.5461 314.204C36.7247 314.513 35.7541 314.668 34.6341 314.668C33.5887 314.668 32.6607 314.503 31.8501 314.172C31.0287 313.831 30.3834 313.361 29.9141 312.764C29.4341 312.167 29.1941 311.479 29.1941 310.7C29.1941 309.868 29.4127 309.153 29.8501 308.556C30.2874 307.959 30.9167 307.505 31.7381 307.196C32.5487 306.876 33.5141 306.716 34.6341 306.716C35.6794 306.716 36.6127 306.887 37.4341 307.228C38.2447 307.569 38.8901 308.039 39.3701 308.636C39.8394 309.233 40.0741 309.921 40.0741 310.7ZM39.2901 310.428C39.2901 310.151 39.1141 309.921 38.7621 309.74C38.3994 309.559 37.9087 309.425 37.2901 309.34C36.6607 309.255 35.9407 309.212 35.1301 309.212C34.1807 309.212 33.3167 309.271 32.5381 309.388C31.7594 309.495 31.1354 309.671 30.6661 309.916C30.1967 310.161 29.9621 310.492 29.9621 310.908C29.9621 311.335 30.3407 311.655 31.0981 311.868C31.8447 312.071 32.8474 312.172 34.1061 312.172C35.0554 312.172 35.9247 312.113 36.7141 311.996C37.4927 311.879 38.1167 311.692 38.5861 311.436C39.0554 311.18 39.2901 310.844 39.2901 310.428ZM39.9141 299.907H39.6581L39.0021 298.547H30.2661L29.6101 299.907H29.3541V294.611H29.6101L30.2661 296.131H39.0341V292.611L36.0101 291.315V291.059H39.9141V299.907ZM39.9141 288.747H39.6581L39.0021 287.387H30.2661L29.6101 288.747H29.3541V283.611H29.6101L30.2661 284.971H39.0021L39.6581 283.611H39.9141V288.747ZM39.9941 276.378L30.2341 280.634L29.6101 281.77H29.3541V276.778H29.6101L30.2341 278.09L36.7781 275.242V275.114L30.2181 272.298L29.6101 273.594H29.3541V270.17H29.6101L30.1221 271.098L39.9941 275.45V276.378ZM39.9141 268.351H39.6581L39.0021 266.991H30.2661L29.6101 268.351H29.3541V259.631H32.1221V259.887L30.2341 261.071V264.575H34.0261V262.111L32.6501 261.215V260.959H36.2501V261.215L34.9061 262.111V264.575H39.0341V260.687L36.6501 259.439V259.183H39.9141V268.351ZM39.9141 251.86H39.6581L39.0021 250.5H30.2661L29.6101 251.86H29.3541L29.3541 246.74C29.3541 245.972 29.4447 245.29 29.6261 244.692C29.7967 244.084 30.0581 243.61 30.4101 243.268C30.7514 242.916 31.1887 242.74 31.7221 242.74C32.2661 242.74 32.7674 242.948 33.2261 243.364C33.6847 243.77 34.0047 244.356 34.1861 245.124C34.3247 244.09 34.6287 243.279 35.0981 242.692C35.5567 242.095 36.1381 241.796 36.8421 241.796C37.4287 241.796 37.9567 241.994 38.4261 242.388C38.8847 242.783 39.2474 243.327 39.5141 244.02C39.7807 244.703 39.9141 245.482 39.9141 246.356V251.86ZM30.2341 247.54L30.2341 248.084H34.0741V247.444C34.0741 246.74 33.9087 246.191 33.5781 245.796C33.2367 245.402 32.7781 245.204 32.2021 245.204C30.8901 245.204 30.2341 245.983 30.2341 247.54ZM34.8581 246.98V248.084H39.0341V246.868C39.0341 246.079 38.8367 245.466 38.4421 245.028C38.0474 244.58 37.5407 244.356 36.9221 244.356C36.2181 244.356 35.7007 244.586 35.3701 245.044C35.0287 245.492 34.8581 246.138 34.8581 246.98ZM39.9141 239.731H39.6581L39.0021 238.371H30.2661L29.6101 239.731H29.3541V234.595H29.6101L30.2661 235.955H39.0021L39.6581 234.595H39.9141V239.731ZM39.9141 232.354H39.6581L39.0021 230.994H30.2661L29.6101 232.354H29.3541V226.882C29.3541 225.762 29.5887 224.882 30.0581 224.242C30.5167 223.591 31.1514 223.266 31.9621 223.266C32.5487 223.266 33.0554 223.463 33.4821 223.858C33.8981 224.253 34.2287 224.77 34.4741 225.41L39.0181 222.45L39.6581 221.298H39.9141V224.77L35.0181 227.73V228.578H38.9861L39.6581 227.378H39.9141V232.354ZM30.2341 227.938V228.578H34.2341V227.842C34.2341 227.181 34.0474 226.658 33.6741 226.274C33.3007 225.89 32.8154 225.698 32.2181 225.698C31.5887 225.698 31.1034 225.89 30.7621 226.274C30.4101 226.647 30.2341 227.202 30.2341 227.938ZM39.9141 218.085H39.6581L39.0021 216.389H30.2341V218.677L32.8741 219.957V220.213H29.3541V210.149H32.8741V210.405L30.2341 211.685V213.973H39.0021L39.6581 212.277H39.9141V218.085ZM39.9141 208.067H39.6581L39.0021 206.707H30.2661L29.6101 208.067H29.3541V203.043H29.6101L30.2661 204.291H34.0421V199.859H30.2661L29.6101 201.139H29.3541V196.099H29.6101L30.2661 197.443H39.0021L39.6581 196.099H39.9141V201.139H39.6581L39.0021 199.859H34.9221V204.291H39.0021L39.6581 203.043H39.9141V208.067ZM40.0741 190.26C40.0741 190.964 40.0047 191.588 39.8661 192.132C39.7167 192.665 39.5141 193.182 39.2581 193.684L36.5541 193.844V193.556L38.5221 192.42C38.7567 192.132 38.9381 191.822 39.0661 191.492C39.1941 191.15 39.2581 190.804 39.2581 190.452C39.2581 189.876 39.1247 189.406 38.8581 189.044C38.5807 188.681 38.1754 188.5 37.6421 188.5C37.2794 188.5 36.9807 188.585 36.7461 188.756C36.5114 188.916 36.2927 189.188 36.0901 189.572C35.8767 189.956 35.6207 190.484 35.3221 191.156C34.9914 191.913 34.5967 192.494 34.1381 192.9C33.6794 193.305 33.1087 193.508 32.4261 193.508C31.9994 193.508 31.5941 193.401 31.2101 193.188C30.8154 192.964 30.4687 192.67 30.1701 192.308C29.8607 191.934 29.6207 191.524 29.4501 191.076C29.2794 190.617 29.1941 190.148 29.1941 189.668C29.1941 189.124 29.2581 188.601 29.3861 188.1C29.5141 187.598 29.6954 187.134 29.9301 186.708L32.4901 186.548V186.82L30.6821 187.94C30.4687 188.217 30.3087 188.489 30.2021 188.756C30.0847 189.012 30.0261 189.305 30.0261 189.636C30.0261 190.073 30.1647 190.436 30.4421 190.724C30.7194 191.012 31.0874 191.156 31.5461 191.156C31.9834 191.156 32.3461 191.001 32.6341 190.692C32.9114 190.372 33.2261 189.822 33.5781 189.044C34.0261 188.073 34.4847 187.358 34.9541 186.9C35.4234 186.441 36.0421 186.212 36.8101 186.212C37.4927 186.212 38.0794 186.409 38.5701 186.804C39.0607 187.198 39.4341 187.705 39.6901 188.324C39.9461 188.942 40.0741 189.588 40.0741 190.26Z" fill="black"/>
<path d="M121.012 545.431L934.081 545.431" stroke="black" stroke-width="0.966441"/>
<path d="M121.393 545.086L121.393 107.879" stroke="black" stroke-width="0.966441"/>
<path d="M251.689 545.085L251.689 112.443" stroke="black" stroke-width="0.461369" stroke-dasharray="1.93 1.93"/>
<path d="M121.664 545.086L121.664 112.444" stroke="black" stroke-width="0.461369" stroke-dasharray="1.93 1.93"/>
<path d="M121.664 460.006L931.225 460.006" stroke="black" stroke-width="0.461369" stroke-dasharray="1.93 1.93"/>
<path d="M121.664 375.114L931.225 375.114" stroke="black" stroke-width="0.461369" stroke-dasharray="1.93 1.93"/>
<path d="M121.664 290.223L931.225 290.223" stroke="black" stroke-width="0.461369" stroke-dasharray="1.93 1.93"/>
<path d="M121.664 205.33L931.224 205.33" stroke="black" stroke-width="0.461369" stroke-dasharray="1.93 1.93"/>
<path d="M121.664 120.438H930.388" stroke="black" stroke-width="0.461369" stroke-dasharray="1.93 1.93"/>
<path d="M382.713 545.085L382.713 112.443" stroke="black" stroke-width="0.461369" stroke-dasharray="1.93 1.93"/>
<path d="M513.738 545.085L513.738 112.443" stroke="black" stroke-width="0.461369" stroke-dasharray="1.93 1.93"/>
<path d="M644.762 545.085L644.762 112.443" stroke="black" stroke-width="0.461369" stroke-dasharray="1.93 1.93"/>
<path d="M775.785 545.085L775.785 112.443" stroke="black" stroke-width="0.461369" stroke-dasharray="1.93 1.93"/>
<path d="M906.809 545.085L906.809 112.443" stroke="black" stroke-width="0.461369" stroke-dasharray="1.93 1.93"/>
<path d="M378.404 623.638V623.382L379.764 622.726V613.99L378.404 613.334V613.078H383.7V613.334L382.18 613.99V622.758H385.7L386.996 619.734H387.252V623.638H378.404ZM395.195 623.798C394.405 623.798 393.675 623.664 393.003 623.398C392.331 623.12 391.744 622.742 391.243 622.262C390.752 621.771 390.368 621.195 390.091 620.534C389.813 619.872 389.675 619.147 389.675 618.358C389.675 617.568 389.813 616.843 390.091 616.182C390.368 615.52 390.752 614.95 391.243 614.47C391.744 613.979 392.331 613.6 393.003 613.334C393.675 613.056 394.405 612.918 395.195 612.918C395.995 612.918 396.731 613.056 397.403 613.334C398.075 613.6 398.656 613.979 399.147 614.47C399.648 614.95 400.037 615.52 400.315 616.182C400.592 616.843 400.731 617.568 400.731 618.358C400.731 619.147 400.592 619.872 400.315 620.534C400.037 621.195 399.648 621.771 399.147 622.262C398.656 622.742 398.075 623.12 397.403 623.398C396.731 623.664 395.995 623.798 395.195 623.798ZM395.451 622.966C395.984 622.966 396.453 622.795 396.859 622.454C397.275 622.112 397.595 621.632 397.819 621.014C398.053 620.395 398.171 619.67 398.171 618.838C398.171 617.814 398.027 616.918 397.739 616.15C397.461 615.382 397.083 614.79 396.603 614.374C396.123 613.947 395.584 613.734 394.987 613.734C394.453 613.734 393.979 613.904 393.563 614.246C393.147 614.576 392.816 615.051 392.571 615.67C392.336 616.288 392.219 617.014 392.219 617.846C392.219 618.87 392.363 619.766 392.651 620.534C392.939 621.302 393.328 621.899 393.819 622.326C394.309 622.752 394.853 622.966 395.451 622.966ZM409.089 623.798C408.321 623.798 407.601 623.67 406.929 623.414C406.267 623.147 405.681 622.779 405.169 622.31C404.667 621.84 404.273 621.291 403.985 620.662C403.707 620.022 403.569 619.328 403.569 618.582C403.569 617.76 403.729 617.008 404.049 616.326C404.369 615.632 404.811 615.03 405.377 614.518C405.942 614.006 406.587 613.611 407.313 613.334C408.038 613.056 408.801 612.918 409.601 612.918C410.166 612.918 410.646 612.95 411.041 613.014C411.446 613.078 411.803 613.168 412.113 613.286C412.433 613.403 412.747 613.536 413.057 613.686L413.233 616.502H412.945L411.409 614.182C411.121 614 410.843 613.878 410.577 613.814C410.31 613.739 410.006 613.702 409.665 613.702C408.993 613.702 408.385 613.894 407.841 614.278C407.297 614.662 406.865 615.2 406.545 615.894C406.225 616.576 406.065 617.376 406.065 618.294C406.065 619.254 406.219 620.08 406.529 620.774C406.838 621.456 407.254 621.984 407.777 622.358C408.31 622.731 408.902 622.918 409.553 622.918C409.734 622.918 409.931 622.912 410.145 622.902C410.358 622.88 410.571 622.848 410.785 622.806V619.846L409.361 619.094V618.838H414.385V619.094L413.185 619.862V622.454C412.854 622.731 412.454 622.971 411.985 623.174C411.526 623.366 411.041 623.52 410.529 623.638C410.027 623.744 409.547 623.798 409.089 623.798ZM426.782 623.798C426.014 623.798 425.294 623.67 424.622 623.414C423.961 623.147 423.374 622.779 422.862 622.31C422.361 621.84 421.966 621.291 421.678 620.662C421.401 620.022 421.262 619.328 421.262 618.582C421.262 617.76 421.422 617.008 421.742 616.326C422.062 615.632 422.505 615.03 423.07 614.518C423.636 614.006 424.281 613.611 425.006 613.334C425.732 613.056 426.494 612.918 427.294 612.918C427.86 612.918 428.34 612.95 428.734 613.014C429.14 613.078 429.497 613.168 429.806 613.286C430.126 613.403 430.441 613.536 430.75 613.686L430.926 616.502H430.638L429.102 614.182C428.814 614 428.537 613.878 428.27 613.814C428.004 613.739 427.7 613.702 427.358 613.702C426.686 613.702 426.078 613.894 425.534 614.278C424.99 614.662 424.558 615.2 424.238 615.894C423.918 616.576 423.758 617.376 423.758 618.294C423.758 619.254 423.913 620.08 424.222 620.774C424.532 621.456 424.948 621.984 425.47 622.358C426.004 622.731 426.596 622.918 427.246 622.918C427.428 622.918 427.625 622.912 427.838 622.902C428.052 622.88 428.265 622.848 428.478 622.806V619.846L427.054 619.094V618.838H432.078V619.094L430.878 619.862V622.454C430.548 622.731 430.148 622.971 429.678 623.174C429.22 623.366 428.734 623.52 428.222 623.638C427.721 623.744 427.241 623.798 426.782 623.798ZM434.06 623.638V623.382L435.42 622.726V613.99L434.06 613.334V613.078H439.516C440.786 613.078 441.863 613.286 442.748 613.702C443.634 614.118 444.306 614.688 444.764 615.414C445.234 616.139 445.468 616.96 445.468 617.878C445.468 618.71 445.314 619.478 445.004 620.182C444.706 620.886 444.284 621.494 443.74 622.006C443.196 622.518 442.556 622.918 441.82 623.206C441.084 623.494 440.279 623.638 439.404 623.638H434.06ZM438.86 613.958H437.836V622.758H439.084C440.322 622.758 441.276 622.363 441.948 621.574C442.62 620.774 442.956 619.707 442.956 618.374C442.956 617.03 442.61 615.958 441.916 615.158C441.234 614.358 440.215 613.958 438.86 613.958ZM447.688 623.638V623.382L449.048 622.726V613.99L447.688 613.334V613.078H453.224C454.483 613.078 455.491 613.307 456.248 613.766C457.016 614.214 457.4 614.934 457.4 615.926C457.4 616.523 457.198 617.051 456.792 617.51C456.398 617.958 455.859 618.31 455.176 618.566C454.494 618.811 453.715 618.934 452.84 618.934H451.464V622.726L453.096 623.382V623.638H447.688ZM451.464 613.958V618.15H452.232C453.086 618.15 453.752 617.952 454.232 617.558C454.712 617.163 454.952 616.667 454.952 616.07C454.952 615.323 454.707 614.784 454.216 614.454C453.726 614.123 453.032 613.958 452.136 613.958H451.464ZM464.226 623.638V623.382L465.586 622.726V613.99L464.226 613.334V613.078H469.762C471.021 613.078 472.029 613.307 472.786 613.766C473.554 614.214 473.938 614.934 473.938 615.926C473.938 616.523 473.735 617.051 473.33 617.51C472.935 617.958 472.397 618.31 471.714 618.566C471.031 618.811 470.253 618.934 469.378 618.934H468.002V622.726L469.634 623.382V623.638H464.226ZM468.002 613.958V618.15H468.77C469.623 618.15 470.29 617.952 470.77 617.558C471.25 617.163 471.49 616.667 471.49 616.07C471.49 615.323 471.245 614.784 470.754 614.454C470.263 614.123 469.57 613.958 468.674 613.958H468.002ZM475.963 623.638V623.382L477.323 622.726V613.99L475.963 613.334V613.078H484.683V615.846H484.427L483.243 613.958H479.739V617.75H482.203L483.099 616.374H483.355V619.974H483.099L482.203 618.63H479.739V622.758H483.627L484.875 620.374H485.131V623.638H475.963ZM487.654 623.638V623.382L489.014 622.726V613.99L487.654 613.334V613.078H493.126C494.246 613.078 495.126 613.312 495.766 613.782C496.417 614.24 496.742 614.875 496.742 615.686C496.742 616.272 496.545 616.779 496.15 617.206C495.755 617.622 495.238 617.952 494.598 618.198L497.558 622.742L498.71 623.382V623.638H495.238L492.278 618.742H491.43V622.71L492.63 623.382V623.638H487.654ZM492.07 613.958H491.43V617.958H492.166C492.827 617.958 493.35 617.771 493.734 617.398C494.118 617.024 494.31 616.539 494.31 615.942C494.31 615.312 494.118 614.827 493.734 614.486C493.361 614.134 492.806 613.958 492.07 613.958ZM510.559 623.798C509.439 623.798 508.458 623.568 507.615 623.11C506.772 622.651 506.116 622.032 505.647 621.254C505.188 620.464 504.959 619.574 504.959 618.582C504.959 617.782 505.119 617.04 505.439 616.358C505.759 615.675 506.191 615.078 506.735 614.566C507.29 614.043 507.914 613.638 508.607 613.35C509.311 613.062 510.047 612.918 510.815 612.918C511.38 612.918 511.85 612.95 512.223 613.014C512.596 613.078 512.932 613.168 513.231 613.286C513.53 613.403 513.828 613.536 514.127 613.686L514.303 616.678H514.015L512.495 614.198C512.228 614.027 511.978 613.904 511.743 613.83C511.508 613.755 511.226 613.718 510.895 613.718C510.244 613.718 509.658 613.915 509.135 614.31C508.623 614.694 508.218 615.243 507.919 615.958C507.62 616.662 507.471 617.483 507.471 618.422C507.471 619.35 507.615 620.155 507.903 620.838C508.191 621.51 508.58 622.032 509.071 622.406C509.572 622.768 510.132 622.95 510.751 622.95C511.146 622.95 511.498 622.902 511.807 622.806C512.127 622.699 512.431 622.566 512.719 622.406L514.159 620.262H514.431L514.207 622.966C513.77 623.222 513.242 623.424 512.623 623.574C512.015 623.723 511.327 623.798 510.559 623.798ZM516.435 623.638V623.382L517.411 622.838L521.587 612.998H522.995L527.123 622.806L528.211 623.382V623.638H523.155V623.382L524.547 622.806L523.459 620.15H519.667L518.579 622.806L519.907 623.382V623.638H516.435ZM520.035 619.27H523.091L521.571 615.542L520.035 619.27ZM530.026 623.638V623.382L531.386 622.726V613.99L530.026 613.334V613.078H535.562C536.821 613.078 537.829 613.307 538.586 613.766C539.354 614.214 539.738 614.934 539.738 615.926C539.738 616.523 539.535 617.051 539.13 617.51C538.735 617.958 538.197 618.31 537.514 618.566C536.831 618.811 536.053 618.934 535.178 618.934H533.802V622.726L535.434 623.382V623.638H530.026ZM533.802 613.958V618.15H534.57C535.423 618.15 536.09 617.952 536.57 617.558C537.05 617.163 537.29 616.667 537.29 616.07C537.29 615.323 537.045 614.784 536.554 614.454C536.063 614.123 535.37 613.958 534.474 613.958H533.802ZM541.795 623.638V623.382L543.155 622.726V613.99L541.795 613.334V613.078H546.931V613.334L545.571 613.99V622.726L546.931 623.382V623.638H541.795ZM551.173 623.638V623.382L552.869 622.726V613.958H550.581L549.301 616.598H549.045V613.078H559.109V616.598H558.853L557.573 613.958H555.285V622.726L556.981 623.382V623.638H551.173ZM560.213 623.638V623.382L561.189 622.838L565.365 612.998H566.773L570.901 622.806L571.989 623.382V623.638H566.933V623.382L568.325 622.806L567.237 620.15H563.445L562.357 622.806L563.685 623.382V623.638H560.213ZM563.813 619.27H566.869L565.349 615.542L563.813 619.27Z" fill="black"/>
<g style="mix-blend-mode:multiply">
<path d="M159.818 156.245V125.687C276.565 183.211 511.368 298.946 516.605 301.694C521.843 304.442 768.487 414.108 891.154 468.597V494.128C767.903 434.456 519.132 314.049 510.058 309.802C500.985 305.554 272.784 205.661 159.818 156.245Z" fill="#FBE0F3"/>
<path d="M159.818 156.245V125.687C276.565 183.211 511.368 298.946 516.605 301.694C521.843 304.442 768.487 414.108 891.154 468.597V494.128C767.903 434.456 519.132 314.049 510.058 309.802C500.985 305.554 272.784 205.661 159.818 156.245Z" stroke="black" stroke-width="0.461369" stroke-dasharray="0.92 0.92"/>
</g>
<path d="M159.408 140.919L891.348 480.847" stroke="#FFF5E5" stroke-width="2"/>
<g style="mix-blend-mode:multiply">
<circle cx="159.406" cy="240.017" r="3.70898" fill="#F0696B" stroke="#BE8DD2" stroke-width="0.461369"/>
<circle cx="187.054" cy="179.981" r="3.70898" fill="#F0696B" stroke="#BE8DD2" stroke-width="0.461369"/>
<circle cx="235.306" cy="186.591" r="3.70898" fill="#F0696B" stroke="#BE8DD2" stroke-width="0.461369"/>
<circle cx="253.379" cy="177.241" r="3.70898" fill="#F0696B" stroke="#BE8DD2" stroke-width="0.461369"/>
<circle cx="254.641" cy="196.763" r="3.70898" fill="#F0696B" stroke="#BE8DD2" stroke-width="0.461369"/>
<circle cx="233.537" cy="197.332" r="3.70898" fill="#F0696B" stroke="#BE8DD2" stroke-width="0.461369"/>
<circle cx="236.318" cy="214.966" r="3.70898" fill="#F0696B" stroke="#BE8DD2" stroke-width="0.461369"/>
<circle cx="249.27" cy="205.212" r="3.70898" fill="#F0696B" stroke="#BE8DD2" stroke-width="0.461369"/>
<circle cx="254.958" cy="221.641" r="3.70898" fill="#F0696B" stroke="#BE8DD2" stroke-width="0.461369"/>
<circle cx="258.118" cy="256.33" r="3.70898" fill="#F0696B" stroke="#BE8DD2" stroke-width="0.461369"/>
<circle cx="278.399" cy="222.333" r="3.70898" fill="#F0696B" stroke="#BE8DD2" stroke-width="0.461369"/>
<circle cx="262.838" cy="191.595" r="3.70898" fill="#F0696B" stroke="#BE8DD2" stroke-width="0.461369"/>
<circle cx="291.809" cy="220.682" r="3.70898" fill="#F0696B" stroke="#BE8DD2" stroke-width="0.461369"/>
<circle cx="303.099" cy="215.442" r="3.70898" fill="#F0696B" stroke="#BE8DD2" stroke-width="0.461369"/>
<circle cx="310.72" cy="212.579" r="3.70898" fill="#F0696B" stroke="#BE8DD2" stroke-width="0.461369"/>
<circle cx="315.075" cy="202.659" r="3.70898" fill="#F0696B" stroke="#BE8DD2" stroke-width="0.461369"/>
<circle cx="308.26" cy="197.174" r="3.70898" fill="#F0696B" stroke="#BE8DD2" stroke-width="0.461369"/>
<circle cx="326.707" cy="227.739" r="3.70898" fill="#F0696B" stroke="#BE8DD2" stroke-width="0.461369"/>
<circle cx="341.384" cy="223.804" r="3.70898" fill="#F0696B" stroke="#BE8DD2" stroke-width="0.461369"/>
<circle cx="342.056" cy="222.657" r="3.70898" fill="#F0696B" stroke="#BE8DD2" stroke-width="0.461369"/>
<circle cx="344.278" cy="223.804" r="3.70898" fill="#F0696B" stroke="#BE8DD2" stroke-width="0.461369"/>
<circle cx="324.822" cy="246.158" r="3.70898" fill="#F0696B" stroke="#BE8DD2" stroke-width="0.461369"/>
<circle cx="328.762" cy="248.919" r="3.70898" fill="#F0696B" stroke="#BE8DD2" stroke-width="0.461369"/>
<circle cx="326.707" cy="256.121" r="3.70898" fill="#F0696B" stroke="#BE8DD2" stroke-width="0.461369"/>
<circle cx="333.504" cy="260.065" r="3.70898" fill="#F0696B" stroke="#BE8DD2" stroke-width="0.461369"/>
<circle cx="353.566" cy="238.856" r="3.70898" fill="#F0696B" stroke="#BE8DD2" stroke-width="0.461369"/>
<circle cx="360.03" cy="236.159" r="3.70898" fill="#F0696B" stroke="#BE8DD2" stroke-width="0.461369"/>
<circle cx="358.952" cy="244.039" r="3.70898" fill="#F0696B" stroke="#BE8DD2" stroke-width="0.461369"/>
<circle cx="362.385" cy="256.799" r="3.70898" fill="#F0696B" stroke="#BE8DD2" stroke-width="0.461369"/>
<circle cx="366.832" cy="234.242" r="3.70898" fill="#F0696B" stroke="#BE8DD2" stroke-width="0.461369"/>
<circle cx="371.679" cy="227.242" r="3.70898" fill="#F0696B" stroke="#BE8DD2" stroke-width="0.461369"/>
<circle cx="370.264" cy="206.956" r="3.70898" fill="#F0696B" stroke="#BE8DD2" stroke-width="0.461369"/>
<circle cx="374.711" cy="194.341" r="3.70898" fill="#F0696B" stroke="#BE8DD2" stroke-width="0.461369"/>
<circle cx="384.674" cy="211.829" r="3.70898" fill="#F0696B" stroke="#BE8DD2" stroke-width="0.461369"/>
<circle cx="382.469" cy="230.306" r="3.70898" fill="#F0696B" stroke="#BE8DD2" stroke-width="0.461369"/>
<circle cx="381.384" cy="229.903" r="3.70898" fill="#F0696B" stroke="#BE8DD2" stroke-width="0.461369"/>
<circle cx="393.177" cy="215.261" r="3.70898" fill="#F0696B" stroke="#BE8DD2" stroke-width="0.461369"/>
<circle cx="400.428" cy="221.223" r="3.70898" fill="#F0696B" stroke="#BE8DD2" stroke-width="0.461369"/>
<circle cx="407.478" cy="218.311" r="3.70898" fill="#F0696B" stroke="#BE8DD2" stroke-width="0.461369"/>
<circle cx="414.933" cy="212.954" r="3.70898" fill="#F0696B" stroke="#BE8DD2" stroke-width="0.461369"/>
<circle cx="408.308" cy="198.652" r="3.70898" fill="#F0696B" stroke="#BE8DD2" stroke-width="0.461369"/>
<circle cx="431.863" cy="186.123" r="3.70898" fill="#F0696B" stroke="#BE8DD2" stroke-width="0.461369"/>
<circle cx="433.799" cy="206.531" r="3.70898" fill="#F0696B" stroke="#BE8DD2" stroke-width="0.461369"/>
<circle cx="432.831" cy="211.318" r="3.70898" fill="#F0696B" stroke="#BE8DD2" stroke-width="0.461369"/>
<circle cx="426.282" cy="229.103" r="3.70898" fill="#F0696B" stroke="#BE8DD2" stroke-width="0.461369"/>
<circle cx="444.066" cy="223.717" r="3.70898" fill="#F0696B" stroke="#BE8DD2" stroke-width="0.461369"/>
<circle cx="457.252" cy="209.011" r="3.70898" fill="#F0696B" stroke="#BE8DD2" stroke-width="0.461369"/>
<circle cx="470.439" cy="220.502" r="3.70898" fill="#F0696B" stroke="#BE8DD2" stroke-width="0.461369"/>
<circle cx="422.343" cy="249.72" r="3.70898" fill="#F0696B" stroke="#BE8DD2" stroke-width="0.461369"/>
<circle cx="427.793" cy="255.364" r="3.70898" fill="#F0696B" stroke="#BE8DD2" stroke-width="0.461369"/>
<circle cx="444.747" cy="252.459" r="3.70898" fill="#F0696B" stroke="#BE8DD2" stroke-width="0.461369"/>
<circle cx="446.426" cy="253.072" r="3.70898" fill="#F0696B" stroke="#BE8DD2" stroke-width="0.461369"/>
<circle cx="455.208" cy="252.005" r="3.70898" fill="#F0696B" stroke="#BE8DD2" stroke-width="0.461369"/>
<circle cx="453.834" cy="275.751" r="3.70898" fill="#F0696B" stroke="#BE8DD2" stroke-width="0.461369"/>
<circle cx="460.608" cy="294.162" r="3.70898" fill="#F0696B" stroke="#BE8DD2" stroke-width="0.461369"/>
<circle cx="443.277" cy="313.323" r="3.70898" fill="#F0696B" stroke="#BE8DD2" stroke-width="0.461369"/>
<circle cx="448.575" cy="322.594" r="3.70898" fill="#F0696B" stroke="#BE8DD2" stroke-width="0.461369"/>
<circle cx="463.148" cy="327.784" r="3.70898" fill="#F0696B" stroke="#BE8DD2" stroke-width="0.461369"/>
<circle cx="452.729" cy="356.043" r="3.70898" fill="#F0696B" stroke="#BE8DD2" stroke-width="0.461369"/>
<circle cx="430.209" cy="340.357" r="3.70898" fill="#F0696B" stroke="#BE8DD2" stroke-width="0.461369"/>
<circle cx="434.147" cy="332.478" r="3.70898" fill="#F0696B" stroke="#BE8DD2" stroke-width="0.461369"/>
<circle cx="431.83" cy="322.594" r="3.70898" fill="#F0696B" stroke="#BE8DD2" stroke-width="0.461369"/>
<circle cx="414.608" cy="303.498" r="3.70898" fill="#F0696B" stroke="#BE8DD2" stroke-width="0.461369"/>
<circle cx="409.861" cy="290.227" r="3.70898" fill="#F0696B" stroke="#BE8DD2" stroke-width="0.461369"/>
<circle cx="374.341" cy="289.059" r="3.70898" fill="#F0696B" stroke="#BE8DD2" stroke-width="0.461369"/>
<circle cx="339.646" cy="312.458" r="3.70898" fill="#F0696B" stroke="#BE8DD2" stroke-width="0.461369"/>
<circle cx="325.757" cy="311.767" r="3.70898" fill="#F0696B" stroke="#BE8DD2" stroke-width="0.461369"/>
<circle cx="601.023" cy="204.571" r="3.70898" fill="#F0696B" stroke="#BE8DD2" stroke-width="0.461369"/>
<circle cx="611.379" cy="260.079" r="3.70898" fill="#F0696B" stroke="#BE8DD2" stroke-width="0.461369"/>
<circle cx="615.318" cy="262.746" r="3.70898" fill="#F0696B" stroke="#BE8DD2" stroke-width="0.461369"/>
<circle cx="632.089" cy="266.596" r="3.70898" fill="#F0696B" stroke="#BE8DD2" stroke-width="0.461369"/>
<circle cx="642.924" cy="283.212" r="3.70898" fill="#F0696B" stroke="#BE8DD2" stroke-width="0.461369"/>
<circle cx="660.821" cy="275.332" r="3.70898" fill="#F0696B" stroke="#BE8DD2" stroke-width="0.461369"/>
<circle cx="621.014" cy="309.906" r="3.70898" fill="#F0696B" stroke="#BE8DD2" stroke-width="0.461369"/>
<circle cx="627.274" cy="310.469" r="3.70898" fill="#F0696B" stroke="#BE8DD2" stroke-width="0.461369"/>
<circle cx="643.486" cy="310.887" r="3.70898" fill="#F0696B" stroke="#BE8DD2" stroke-width="0.461369"/>
<circle cx="644.61" cy="325.492" r="3.70898" fill="#F0696B" stroke="#BE8DD2" stroke-width="0.461369"/>
<circle cx="625.829" cy="337.048" r="3.70898" fill="#F0696B" stroke="#BE8DD2" stroke-width="0.461369"/>
<circle cx="628.893" cy="342.584" r="3.70898" fill="#F0696B" stroke="#BE8DD2" stroke-width="0.461369"/>
<circle cx="635.605" cy="338.642" r="3.70898" fill="#F0696B" stroke="#BE8DD2" stroke-width="0.461369"/>
<circle cx="661.691" cy="322.911" r="3.70898" fill="#F0696B" stroke="#BE8DD2" stroke-width="0.461369"/>
<circle cx="668.271" cy="326.04" r="3.70898" fill="#F0696B" stroke="#BE8DD2" stroke-width="0.461369"/>
<circle cx="664.742" cy="331.735" r="3.70898" fill="#F0696B" stroke="#BE8DD2" stroke-width="0.461369"/>
<circle cx="609.618" cy="326.04" r="3.70898" fill="#F0696B" stroke="#BE8DD2" stroke-width="0.461369"/>
<circle cx="604.358" cy="317.087" r="3.70898" fill="#F0696B" stroke="#BE8DD2" stroke-width="0.461369"/>
<circle cx="608.297" cy="324.476" r="3.70898" fill="#F0696B" stroke="#BE8DD2" stroke-width="0.461369"/>
<circle cx="602.814" cy="325.492" r="3.70898" fill="#F0696B" stroke="#BE8DD2" stroke-width="0.461369"/>
<circle cx="599.294" cy="331.389" r="3.70898" fill="#F0696B" stroke="#BE8DD2" stroke-width="0.461369"/>
<circle cx="600.995" cy="332.701" r="3.70898" fill="#F0696B" stroke="#BE8DD2" stroke-width="0.461369"/>
<circle cx="602.814" cy="333.105" r="3.70898" fill="#F0696B" stroke="#BE8DD2" stroke-width="0.461369"/>
<circle cx="611.05" cy="345.432" r="3.70898" fill="#F0696B" stroke="#BE8DD2" stroke-width="0.461369"/>
<circle cx="613.558" cy="343.947" r="3.70898" fill="#F0696B" stroke="#BE8DD2" stroke-width="0.461369"/>
<circle cx="587.366" cy="349.513" r="3.70898" fill="#F0696B" stroke="#BE8DD2" stroke-width="0.461369"/>
<circle cx="589.908" cy="349.513" r="3.70898" fill="#F0696B" stroke="#BE8DD2" stroke-width="0.461369"/>
<circle cx="576.793" cy="348.229" r="3.70898" fill="#F0696B" stroke="#BE8DD2" stroke-width="0.461369"/>
<circle cx="574.459" cy="333.371" r="3.70898" fill="#F0696B" stroke="#BE8DD2" stroke-width="0.461369"/>
<circle cx="574.627" cy="337.315" r="3.70898" fill="#F0696B" stroke="#BE8DD2" stroke-width="0.461369"/>
<circle cx="576.793" cy="338.706" r="3.70898" fill="#F0696B" stroke="#BE8DD2" stroke-width="0.461369"/>
<circle cx="600.417" cy="360.052" r="3.70898" fill="#F0696B" stroke="#BE8DD2" stroke-width="0.461369"/>
<circle cx="606.754" cy="357.759" r="3.70898" fill="#F0696B" stroke="#BE8DD2" stroke-width="0.461369"/>
<circle cx="599.952" cy="365.639" r="3.70898" fill="#F0696B" stroke="#BE8DD2" stroke-width="0.461369"/>
<circle cx="620.468" cy="366.352" r="3.70898" fill="#F0696B" stroke="#BE8DD2" stroke-width="0.461369"/>
<circle cx="630.698" cy="374.232" r="3.70898" fill="#F0696B" stroke="#BE8DD2" stroke-width="0.461369"/>
<circle cx="618.931" cy="380.993" r="3.70898" fill="#F0696B" stroke="#BE8DD2" stroke-width="0.461369"/>
<circle cx="572.854" cy="380.993" r="3.70898" fill="#F0696B" stroke="#BE8DD2" stroke-width="0.461369"/>
<circle cx="611.05" cy="406.268" r="3.70898" fill="#F0696B" stroke="#BE8DD2" stroke-width="0.461369"/>
<circle cx="620.318" cy="413.383" r="3.70898" fill="#F0696B" stroke="#BE8DD2" stroke-width="0.461369"/>
<circle cx="623.501" cy="413.383" r="3.70898" fill="#F0696B" stroke="#BE8DD2" stroke-width="0.461369"/>
<circle cx="628.743" cy="426.301" r="3.70898" fill="#F0696B" stroke="#BE8DD2" stroke-width="0.461369"/>
<circle cx="631.38" cy="426.957" r="3.70898" fill="#F0696B" stroke="#BE8DD2" stroke-width="0.461369"/>
<circle cx="635.967" cy="420.686" r="3.70898" fill="#F0696B" stroke="#BE8DD2" stroke-width="0.461369"/>
<circle cx="642.707" cy="382.111" r="3.70898" fill="#F0696B" stroke="#BE8DD2" stroke-width="0.461369"/>
<circle cx="657.496" cy="365.17" r="3.70898" fill="#F0696B" stroke="#BE8DD2" stroke-width="0.461369"/>
<circle cx="660.586" cy="368.443" r="3.70898" fill="#F0696B" stroke="#BE8DD2" stroke-width="0.461369"/>
<circle cx="676.151" cy="360.564" r="3.70898" fill="#F0696B" stroke="#BE8DD2" stroke-width="0.461369"/>
<circle cx="678.96" cy="340.991" r="3.70898" fill="#F0696B" stroke="#BE8DD2" stroke-width="0.461369"/>
<circle cx="689.256" cy="338.642" r="3.70898" fill="#F0696B" stroke="#BE8DD2" stroke-width="0.461369"/>
<circle cx="690.942" cy="362.041" r="3.70898" fill="#F0696B" stroke="#BE8DD2" stroke-width="0.461369"/>
<circle cx="697.775" cy="366.352" r="3.70898" fill="#F0696B" stroke="#BE8DD2" stroke-width="0.461369"/>
<circle cx="714.063" cy="359.238" r="3.70898" fill="#F0696B" stroke="#BE8DD2" stroke-width="0.461369"/>
<circle cx="684.764" cy="384.699" r="3.70898" fill="#F0696B" stroke="#BE8DD2" stroke-width="0.461369"/>
<circle cx="669.57" cy="403.045" r="3.70898" fill="#F0696B" stroke="#BE8DD2" stroke-width="0.461369"/>
<circle cx="675.019" cy="399.773" r="3.70898" fill="#F0696B" stroke="#BE8DD2" stroke-width="0.461369"/>
<circle cx="686.346" cy="409.505" r="3.70898" fill="#F0696B" stroke="#BE8DD2" stroke-width="0.461369"/>
<circle cx="707.595" cy="411.567" r="3.70898" fill="#F0696B" stroke="#BE8DD2" stroke-width="0.461369"/>
<circle cx="714.063" cy="401.625" r="3.70898" fill="#F0696B" stroke="#BE8DD2" stroke-width="0.461369"/>
<circle cx="726.981" cy="388.642" r="3.70898" fill="#F0696B" stroke="#BE8DD2" stroke-width="0.461369"/>
<circle cx="752.909" cy="376.286" r="3.70898" fill="#F0696B" stroke="#BE8DD2" stroke-width="0.461369"/>
<circle cx="747.667" cy="401.625" r="3.70898" fill="#F0696B" stroke="#BE8DD2" stroke-width="0.461369"/>
<circle cx="752.909" cy="400.969" r="3.70898" fill="#F0696B" stroke="#BE8DD2" stroke-width="0.461369"/>
<circle cx="763.768" cy="399.939" r="3.70898" fill="#F0696B" stroke="#BE8DD2" stroke-width="0.461369"/>
<circle cx="760.789" cy="411.567" r="3.70898" fill="#F0696B" stroke="#BE8DD2" stroke-width="0.461369"/>
<circle cx="767.706" cy="422.048" r="3.70898" fill="#F0696B" stroke="#BE8DD2" stroke-width="0.461369"/>
<circle cx="762.372" cy="426.727" r="3.70898" fill="#F0696B" stroke="#BE8DD2" stroke-width="0.461369"/>
<circle cx="765.462" cy="429.351" r="3.70898" fill="#F0696B" stroke="#BE8DD2" stroke-width="0.461369"/>
<circle cx="795.135" cy="404.905" r="3.70898" fill="#F0696B" stroke="#BE8DD2" stroke-width="0.461369"/>
<circle cx="799.075" cy="402.844" r="3.70898" fill="#F0696B" stroke="#BE8DD2" stroke-width="0.461369"/>
<circle cx="808.499" cy="364.16" r="3.70898" fill="#F0696B" stroke="#BE8DD2" stroke-width="0.461369"/>
<circle cx="801.466" cy="422.783" r="3.70898" fill="#F0696B" stroke="#BE8DD2" stroke-width="0.461369"/>
<circle cx="793.586" cy="442.759" r="3.70898" fill="#F0696B" stroke="#BE8DD2" stroke-width="0.461369"/>
<circle cx="800.62" cy="450.639" r="3.70898" fill="#F0696B" stroke="#BE8DD2" stroke-width="0.461369"/>
<circle cx="822.281" cy="440.229" r="3.70898" fill="#F0696B" stroke="#BE8DD2" stroke-width="0.461369"/>
<circle cx="863.702" cy="418.848" r="3.70898" fill="#F0696B" stroke="#BE8DD2" stroke-width="0.461369"/>
<circle cx="877.803" cy="461.899" r="3.70898" fill="#F0696B" stroke="#BE8DD2" stroke-width="0.461369"/>
<circle cx="891.154" cy="479.813" r="3.70898" fill="#F0696B" stroke="#BE8DD2" stroke-width="0.461369"/>
<circle cx="886.348" cy="496.955" r="3.70898" fill="#F0696B" stroke="#BE8DD2" stroke-width="0.461369"/>
<circle cx="867.568" cy="496.955" r="3.70898" fill="#F0696B" stroke="#BE8DD2" stroke-width="0.461369"/>
<circle cx="707.595" cy="433.294" r="3.70898" fill="#F0696B" stroke="#BE8DD2" stroke-width="0.461369"/>
<circle cx="712.076" cy="430.67" r="3.70898" fill="#F0696B" stroke="#BE8DD2" stroke-width="0.461369"/>
<circle cx="721.191" cy="429.928" r="3.70898" fill="#F0696B" stroke="#BE8DD2" stroke-width="0.461369"/>
<circle cx="726.128" cy="433.294" r="3.70898" fill="#F0696B" stroke="#BE8DD2" stroke-width="0.461369"/>
<circle cx="742.61" cy="431.247" r="3.70898" fill="#F0696B" stroke="#BE8DD2" stroke-width="0.461369"/>
<circle cx="699.717" cy="445.419" r="3.70898" fill="#F0696B" stroke="#BE8DD2" stroke-width="0.461369"/>
<circle cx="716.016" cy="445.419" r="3.70898" fill="#F0696B" stroke="#BE8DD2" stroke-width="0.461369"/>
<circle cx="708.137" cy="460.01" r="3.70898" fill="#F0696B" stroke="#BE8DD2" stroke-width="0.461369"/>
<circle cx="653.687" cy="475.813" r="3.70898" fill="#F0696B" stroke="#BE8DD2" stroke-width="0.461369"/>
<circle cx="654.421" cy="492.371" r="3.70898" fill="#F0696B" stroke="#BE8DD2" stroke-width="0.461369"/>
<circle cx="730.068" cy="512.52" r="3.70898" fill="#F0696B" stroke="#BE8DD2" stroke-width="0.461369"/>
<circle cx="727.63" cy="501.836" r="3.70898" fill="#F0696B" stroke="#BE8DD2" stroke-width="0.461369"/>
<circle cx="739.63" cy="492.465" r="3.70898" fill="#F0696B" stroke="#BE8DD2" stroke-width="0.461369"/>
<circle cx="741.037" cy="483.749" r="3.70898" fill="#F0696B" stroke="#BE8DD2" stroke-width="0.461369"/>
<circle cx="741.037" cy="472.597" r="3.70898" fill="#F0696B" stroke="#BE8DD2" stroke-width="0.461369"/>
<circle cx="731.763" cy="469.129" r="3.70898" fill="#F0696B" stroke="#BE8DD2" stroke-width="0.461369"/>
<circle cx="738.671" cy="456.074" r="3.70898" fill="#F0696B" stroke="#BE8DD2" stroke-width="0.461369"/>
<circle cx="741.579" cy="462.497" r="3.70898" fill="#F0696B" stroke="#BE8DD2" stroke-width="0.461369"/>
<circle cx="746.55" cy="462.497" r="3.70898" fill="#F0696B" stroke="#BE8DD2" stroke-width="0.461369"/>
<circle cx="754.429" cy="437.807" r="3.70898" fill="#F0696B" stroke="#BE8DD2" stroke-width="0.461369"/>
<circle cx="756.323" cy="445.419" r="3.70898" fill="#F0696B" stroke="#BE8DD2" stroke-width="0.461369"/>
<circle cx="755.579" cy="450.358" r="3.70898" fill="#F0696B" stroke="#BE8DD2" stroke-width="0.461369"/>
<circle cx="761.057" cy="455.497" r="3.70898" fill="#F0696B" stroke="#BE8DD2" stroke-width="0.461369"/>
<circle cx="751.64" cy="479.806" r="3.70898" fill="#F0696B" stroke="#BE8DD2" stroke-width="0.461369"/>
<circle cx="768.277" cy="492.465" r="3.70898" fill="#F0696B" stroke="#BE8DD2" stroke-width="0.461369"/>
<circle cx="780.587" cy="487.693" r="3.70898" fill="#F0696B" stroke="#BE8DD2" stroke-width="0.461369"/>
<circle cx="791.406" cy="488.096" r="3.70898" fill="#F0696B" stroke="#BE8DD2" stroke-width="0.461369"/>
<circle cx="780.992" cy="465.842" r="3.70898" fill="#F0696B" stroke="#BE8DD2" stroke-width="0.461369"/>
<circle cx="786.605" cy="465.23" r="3.70898" fill="#F0696B" stroke="#BE8DD2" stroke-width="0.461369"/>
<circle cx="774.955" cy="447.618" r="3.70898" fill="#F0696B" stroke="#BE8DD2" stroke-width="0.461369"/>
<circle cx="777.051" cy="454.301" r="3.70898" fill="#F0696B" stroke="#BE8DD2" stroke-width="0.461369"/>
<circle cx="780.992" cy="450.639" r="3.70898" fill="#F0696B" stroke="#BE8DD2" stroke-width="0.461369"/>
<circle cx="719.013" cy="465.662" r="3.70898" fill="#F0696B" stroke="#BE8DD2" stroke-width="0.461369"/>
<circle cx="551.552" cy="362.416" r="3.70898" fill="#F0696B" stroke="#BE8DD2" stroke-width="0.461369"/>
<circle cx="554.36" cy="399.953" r="3.70898" fill="#F0696B" stroke="#BE8DD2" stroke-width="0.461369"/>
<circle cx="402.815" cy="279.687" r="3.70898" fill="#F0696B" stroke="#BE8DD2" stroke-width="0.461369"/>
<circle cx="392.55" cy="266.654" r="3.70898" fill="#F0696B" stroke="#BE8DD2" stroke-width="0.461369"/>
<circle cx="392.55" cy="262.537" r="3.70898" fill="#F0696B" stroke="#BE8DD2" stroke-width="0.461369"/>
<circle cx="385.324" cy="247.485" r="3.70898" fill="#F0696B" stroke="#BE8DD2" stroke-width="0.461369"/>
<circle cx="482.145" cy="246.527" r="3.70898" fill="#F0696B" stroke="#BE8DD2" stroke-width="0.461369"/>
<circle cx="481.769" cy="254.405" r="3.70898" fill="#F0696B" stroke="#BE8DD2" stroke-width="0.461369"/>
<circle cx="485.343" cy="249.136" r="3.70898" fill="#F0696B" stroke="#BE8DD2" stroke-width="0.461369"/>
<circle cx="477.83" cy="275.289" r="3.70898" fill="#F0696B" stroke="#BE8DD2" stroke-width="0.461369"/>
<circle cx="491.85" cy="270.395" r="3.70898" fill="#F0696B" stroke="#BE8DD2" stroke-width="0.461369"/>
<circle cx="503.291" cy="283.63" r="3.70898" fill="#F0696B" stroke="#BE8DD2" stroke-width="0.461369"/>
<circle cx="516.095" cy="232.418" r="3.70898" fill="#F0696B" stroke="#BE8DD2" stroke-width="0.461369"/>
<circle cx="530.383" cy="260.785" r="3.70898" fill="#F0696B" stroke="#BE8DD2" stroke-width="0.461369"/>
<circle cx="546.418" cy="255.069" r="3.70898" fill="#F0696B" stroke="#BE8DD2" stroke-width="0.461369"/>
<circle cx="547.37" cy="277.135" r="3.70898" fill="#F0696B" stroke="#BE8DD2" stroke-width="0.461369"/>
<circle cx="533.002" cy="281.821" r="3.70898" fill="#F0696B" stroke="#BE8DD2" stroke-width="0.461369"/>
<circle cx="507.232" cy="292.937" r="3.70898" fill="#F0696B" stroke="#BE8DD2" stroke-width="0.461369"/>
<circle cx="515.111" cy="309.906" r="3.70898" fill="#F0696B" stroke="#BE8DD2" stroke-width="0.461369"/>
<circle cx="491.85" cy="317.26" r="3.70898" fill="#F0696B" stroke="#BE8DD2" stroke-width="0.461369"/>
<circle cx="501.988" cy="332.701" r="3.70898" fill="#F0696B" stroke="#BE8DD2" stroke-width="0.461369"/>
<circle cx="489.217" cy="335.664" r="3.70898" fill="#F0696B" stroke="#BE8DD2" stroke-width="0.461369"/>
<circle cx="478.796" cy="345.576" r="3.70898" fill="#F0696B" stroke="#BE8DD2" stroke-width="0.461369"/>
<circle cx="527.002" cy="348.943" r="3.70898" fill="#F0696B" stroke="#BE8DD2" stroke-width="0.461369"/>
<circle cx="563.679" cy="345.576" r="3.70898" fill="#F0696B" stroke="#BE8DD2" stroke-width="0.461369"/>
<circle cx="552.862" cy="309.207" r="3.70898" fill="#F0696B" stroke="#BE8DD2" stroke-width="0.461369"/>
<circle cx="544.984" cy="296.332" r="3.70898" fill="#F0696B" stroke="#BE8DD2" stroke-width="0.461369"/>
<circle cx="548.923" cy="302.871" r="3.70898" fill="#F0696B" stroke="#BE8DD2" stroke-width="0.461369"/>
<circle cx="549.555" cy="301.328" r="3.70898" fill="#F0696B" stroke="#BE8DD2" stroke-width="0.461369"/>
<circle cx="556.802" cy="300.016" r="3.70898" fill="#F0696B" stroke="#BE8DD2" stroke-width="0.461369"/>
<circle cx="554.274" cy="291.481" r="3.70898" fill="#F0696B" stroke="#BE8DD2" stroke-width="0.461369"/>
<circle cx="562.537" cy="290.847" r="3.70898" fill="#F0696B" stroke="#BE8DD2" stroke-width="0.461369"/>
<circle cx="571.826" cy="296.851" r="3.70898" fill="#F0696B" stroke="#BE8DD2" stroke-width="0.461369"/>
<circle cx="573.768" cy="315.818" r="3.70898" fill="#F0696B" stroke="#BE8DD2" stroke-width="0.461369"/>
<circle cx="574.627" cy="319.113" r="3.70898" fill="#F0696B" stroke="#BE8DD2" stroke-width="0.461369"/>
<circle cx="586.747" cy="313.151" r="3.70898" fill="#F0696B" stroke="#BE8DD2" stroke-width="0.461369"/>
<circle cx="589.838" cy="302.871" r="3.70898" fill="#F0696B" stroke="#BE8DD2" stroke-width="0.461369"/>
<circle cx="578.566" cy="282.477" r="3.70898" fill="#F0696B" stroke="#BE8DD2" stroke-width="0.461369"/>
<circle cx="560.742" cy="266.596" r="3.70898" fill="#F0696B" stroke="#BE8DD2" stroke-width="0.461369"/>
<circle cx="565.421" cy="263.416" r="3.70898" fill="#F0696B" stroke="#BE8DD2" stroke-width="0.461369"/>
<circle cx="557.543" cy="256.143" r="3.70898" fill="#F0696B" stroke="#BE8DD2" stroke-width="0.461369"/>
<circle cx="573.768" cy="254.139" r="3.70898" fill="#F0696B" stroke="#BE8DD2" stroke-width="0.461369"/>
<circle cx="592.575" cy="252.906" r="3.70898" fill="#F0696B" stroke="#BE8DD2" stroke-width="0.461369"/>
<circle cx="583.964" cy="275.809" r="3.70898" fill="#F0696B" stroke="#BE8DD2" stroke-width="0.461369"/>
<circle cx="602.814" cy="309.38" r="3.70898" fill="#F0696B" stroke="#BE8DD2" stroke-width="0.461369"/>
<circle cx="539.887" cy="316.25" r="3.70898" fill="#F0696B" stroke="#BE8DD2" stroke-width="0.461369"/>
<circle cx="544.984" cy="350.68" r="3.70898" fill="#F0696B" stroke="#BE8DD2" stroke-width="0.461369"/>
<circle cx="544.984" cy="356.109" r="3.70898" fill="#F0696B" stroke="#BE8DD2" stroke-width="0.461369"/>
<circle cx="531.737" cy="269.775" r="3.70898" fill="#F0696B" stroke="#BE8DD2" stroke-width="0.461369"/>
</g>
</g>
<defs>
<clipPath id="clip0_2452_445">
<rect width="950" height="650" fill="white"/>
</clipPath>
</defs>
</svg>
