<svg width="950" height="650" viewBox="0 0 950 650" fill="none" xmlns="http://www.w3.org/2000/svg">
<rect x="784.5" y="370.549" width="99.1797" height="37" fill="white"/>
<rect x="784.5" y="370.549" width="99.1797" height="37" stroke="black"/>
<path d="M796.624 387.049V386.857L797.632 386.365V379.813L796.624 379.321V379.129H800.08V379.321L799.132 379.813V382.633H802.768V379.813L801.82 379.321V379.129H805.264V379.321L804.28 379.813V386.365L805.264 386.857V387.049H801.82V386.857L802.768 386.365V383.293H799.132V386.365L800.08 386.857V387.049H796.624ZM807.174 387.049V386.857L808.17 386.365V379.813L807.174 379.321V379.129H810.678V379.321L809.682 379.813V386.365L810.678 386.857V387.049H807.174ZM816.73 387.169C816.154 387.169 815.618 387.073 815.122 386.881C814.626 386.689 814.194 386.417 813.826 386.065C813.458 385.713 813.17 385.301 812.962 384.829C812.754 384.357 812.65 383.841 812.65 383.281C812.65 382.665 812.766 382.097 812.998 381.577C813.238 381.057 813.562 380.605 813.97 380.221C814.378 379.837 814.846 379.541 815.374 379.333C815.91 379.117 816.474 379.009 817.066 379.009C817.49 379.009 817.85 379.033 818.146 379.081C818.45 379.129 818.718 379.197 818.95 379.285C819.19 379.373 819.426 379.473 819.658 379.585L819.754 381.637H819.55L818.566 380.077C818.294 379.901 818.05 379.777 817.834 379.705C817.618 379.633 817.37 379.597 817.09 379.597C816.546 379.597 816.054 379.737 815.614 380.017C815.174 380.297 814.826 380.685 814.57 381.181C814.314 381.677 814.186 382.249 814.186 382.897C814.186 383.649 814.314 384.293 814.57 384.829C814.834 385.365 815.182 385.777 815.614 386.065C816.054 386.353 816.542 386.497 817.078 386.497C817.262 386.497 817.454 386.489 817.654 386.473C817.854 386.449 818.054 386.409 818.254 386.353V384.217L817.186 383.689V383.497H820.63V383.689L819.754 384.241V386.161C819.514 386.369 819.222 386.549 818.878 386.701C818.534 386.845 818.174 386.961 817.798 387.049C817.43 387.129 817.074 387.169 816.73 387.169ZM822.307 387.049V386.857L823.315 386.365V379.813L822.307 379.321V379.129H825.763V379.321L824.815 379.813V382.633H828.451V379.813L827.503 379.321V379.129H830.947V379.321L829.963 379.813V386.365L830.947 386.857V387.049H827.503V386.857L828.451 386.365V383.293H824.815V386.365L825.763 386.857V387.049H822.307ZM796.624 399.049V398.857L797.632 398.365V391.813L796.624 391.321V391.129H802.9V393.205H802.708L801.88 391.789H799.132V394.633H801.064L801.712 393.613H801.904V396.289H801.712L801.064 395.293H799.132V398.389H802.18L803.044 396.709H803.236V399.049H796.624ZM805.215 399.049V398.857L806.211 398.365L806.463 391.813L805.419 391.321V391.129H808.083L810.639 397.057L813.183 391.129H815.739V391.321L814.719 391.729L814.923 398.365L815.799 398.857V399.049H812.523V398.857L813.459 398.377L813.339 392.593L810.555 399.109H809.931L807.147 392.653L806.991 398.377L808.011 398.857V399.049H805.215ZM817.665 399.049V398.857L818.661 398.365V391.813L817.665 391.321V391.129H821.169V391.321L820.173 391.813V398.365L821.169 398.857V399.049H817.665ZM825.661 399.169C825.149 399.169 824.701 399.121 824.317 399.025C823.941 398.921 823.565 398.773 823.189 398.581L823.069 396.577H823.285L824.017 397.957C824.513 398.365 825.033 398.569 825.577 398.569C826.025 398.569 826.385 398.461 826.657 398.245C826.929 398.021 827.065 397.705 827.065 397.297C827.065 396.993 826.993 396.749 826.849 396.565C826.713 396.373 826.501 396.201 826.213 396.049C825.925 395.889 825.549 395.705 825.085 395.497C824.525 395.225 824.093 394.933 823.789 394.621C823.485 394.301 823.333 393.873 823.333 393.337C823.333 393.033 823.409 392.741 823.561 392.461C823.713 392.181 823.913 391.933 824.161 391.717C824.417 391.501 824.701 391.329 825.013 391.201C825.333 391.073 825.661 391.009 825.997 391.009C826.397 391.009 826.769 391.057 827.113 391.153C827.465 391.241 827.801 391.369 828.121 391.537L828.241 393.457H828.037L827.305 392.137C827.073 391.961 826.857 391.829 826.657 391.741C826.457 391.653 826.229 391.609 825.973 391.609C825.637 391.609 825.357 391.721 825.133 391.945C824.917 392.169 824.809 392.453 824.809 392.797C824.809 393.157 824.929 393.449 825.169 393.673C825.409 393.889 825.809 394.129 826.369 394.393C826.857 394.617 827.257 394.837 827.569 395.053C827.881 395.269 828.113 395.513 828.265 395.785C828.417 396.057 828.493 396.393 828.493 396.793C828.493 397.177 828.409 397.517 828.241 397.813C828.081 398.101 827.861 398.349 827.581 398.557C827.309 398.757 827.005 398.909 826.669 399.013C826.333 399.117 825.997 399.169 825.661 399.169ZM832.917 399.169C832.405 399.169 831.957 399.121 831.573 399.025C831.197 398.921 830.821 398.773 830.445 398.581L830.325 396.577H830.541L831.273 397.957C831.769 398.365 832.289 398.569 832.833 398.569C833.281 398.569 833.641 398.461 833.913 398.245C834.185 398.021 834.321 397.705 834.321 397.297C834.321 396.993 834.249 396.749 834.105 396.565C833.969 396.373 833.757 396.201 833.469 396.049C833.181 395.889 832.805 395.705 832.341 395.497C831.781 395.225 831.349 394.933 831.045 394.621C830.741 394.301 830.589 393.873 830.589 393.337C830.589 393.033 830.665 392.741 830.817 392.461C830.969 392.181 831.169 391.933 831.417 391.717C831.673 391.501 831.957 391.329 832.269 391.201C832.589 391.073 832.917 391.009 833.253 391.009C833.653 391.009 834.025 391.057 834.369 391.153C834.721 391.241 835.057 391.369 835.377 391.537L835.497 393.457H835.293L834.561 392.137C834.329 391.961 834.113 391.829 833.913 391.741C833.713 391.653 833.485 391.609 833.229 391.609C832.893 391.609 832.613 391.721 832.389 391.945C832.173 392.169 832.065 392.453 832.065 392.797C832.065 393.157 832.185 393.449 832.425 393.673C832.665 393.889 833.065 394.129 833.625 394.393C834.113 394.617 834.513 394.837 834.825 395.053C835.137 395.269 835.369 395.513 835.521 395.785C835.673 396.057 835.749 396.393 835.749 396.793C835.749 397.177 835.665 397.517 835.497 397.813C835.337 398.101 835.117 398.349 834.837 398.557C834.565 398.757 834.261 398.909 833.925 399.013C833.589 399.117 833.253 399.169 832.917 399.169ZM837.629 399.049V398.857L838.625 398.365V391.813L837.629 391.321V391.129H841.133V391.321L840.137 391.813V398.365L841.133 398.857V399.049H837.629ZM847.185 399.169C846.601 399.169 846.061 399.069 845.565 398.869C845.069 398.661 844.637 398.377 844.269 398.017C843.901 397.649 843.613 397.217 843.405 396.721C843.205 396.225 843.105 395.681 843.105 395.089C843.105 394.497 843.205 393.953 843.405 393.457C843.613 392.961 843.901 392.533 844.269 392.173C844.637 391.805 845.069 391.521 845.565 391.321C846.061 391.113 846.601 391.009 847.185 391.009C847.777 391.009 848.321 391.113 848.817 391.321C849.313 391.521 849.745 391.805 850.113 392.173C850.481 392.533 850.765 392.961 850.965 393.457C851.173 393.953 851.277 394.497 851.277 395.089C851.277 395.681 851.173 396.225 850.965 396.721C850.765 397.217 850.481 397.649 850.113 398.017C849.745 398.377 849.313 398.661 848.817 398.869C848.321 399.069 847.777 399.169 847.185 399.169ZM847.401 398.557C847.849 398.557 848.241 398.429 848.577 398.173C848.921 397.917 849.189 397.557 849.381 397.093C849.573 396.629 849.669 396.081 849.669 395.449C849.669 394.673 849.549 393.997 849.309 393.421C849.077 392.845 848.757 392.401 848.349 392.089C847.949 391.769 847.501 391.609 847.005 391.609C846.565 391.609 846.169 391.737 845.817 391.993C845.473 392.241 845.201 392.597 845.001 393.061C844.801 393.525 844.701 394.073 844.701 394.705C844.701 395.481 844.821 396.157 845.061 396.733C845.301 397.309 845.625 397.757 846.033 398.077C846.449 398.397 846.905 398.557 847.401 398.557ZM853.147 399.049V398.857L854.143 398.365V391.825L853.159 391.321V391.129H855.223L859.855 396.601V391.789L858.559 391.321V391.129H861.679V391.321L860.695 391.801V399.109H860.071L854.983 393.133V398.377L856.291 398.857V399.049H853.147ZM866.079 399.169C865.567 399.169 865.119 399.121 864.735 399.025C864.359 398.921 863.983 398.773 863.607 398.581L863.487 396.577H863.703L864.435 397.957C864.931 398.365 865.451 398.569 865.995 398.569C866.443 398.569 866.803 398.461 867.075 398.245C867.347 398.021 867.483 397.705 867.483 397.297C867.483 396.993 867.411 396.749 867.267 396.565C867.131 396.373 866.919 396.201 866.631 396.049C866.343 395.889 865.967 395.705 865.503 395.497C864.943 395.225 864.511 394.933 864.207 394.621C863.903 394.301 863.751 393.873 863.751 393.337C863.751 393.033 863.827 392.741 863.979 392.461C864.131 392.181 864.331 391.933 864.579 391.717C864.835 391.501 865.119 391.329 865.431 391.201C865.751 391.073 866.079 391.009 866.415 391.009C866.815 391.009 867.187 391.057 867.531 391.153C867.883 391.241 868.219 391.369 868.539 391.537L868.659 393.457H868.455L867.723 392.137C867.491 391.961 867.275 391.829 867.075 391.741C866.875 391.653 866.647 391.609 866.391 391.609C866.055 391.609 865.775 391.721 865.551 391.945C865.335 392.169 865.227 392.453 865.227 392.797C865.227 393.157 865.347 393.449 865.587 393.673C865.827 393.889 866.227 394.129 866.787 394.393C867.275 394.617 867.675 394.837 867.987 395.053C868.299 395.269 868.531 395.513 868.683 395.785C868.835 396.057 868.911 396.393 868.911 396.793C868.911 397.177 868.827 397.517 868.659 397.813C868.499 398.101 868.279 398.349 867.999 398.557C867.727 398.757 867.423 398.909 867.087 399.013C866.751 399.117 866.415 399.169 866.079 399.169Z" fill="black"/>
<rect x="391.895" y="327.549" width="111.18" height="49" fill="white"/>
<rect x="391.895" y="327.549" width="111.18" height="49" stroke="black"/>
<path d="M408.387 344.169C407.731 344.169 407.151 344.057 406.647 343.833C406.143 343.609 405.747 343.249 405.459 342.753C405.171 342.257 405.027 341.601 405.027 340.785V336.813L404.019 336.321V336.129H407.535V336.321L406.539 336.813V340.713C406.539 341.369 406.643 341.893 406.851 342.285C407.059 342.669 407.335 342.945 407.679 343.113C408.031 343.273 408.423 343.353 408.855 343.353C409.207 343.353 409.531 343.281 409.827 343.137C410.131 342.985 410.375 342.749 410.559 342.429C410.743 342.101 410.835 341.669 410.835 341.133V336.789L409.683 336.321V336.129H412.671V336.321L411.675 336.801V340.785C411.675 341.601 411.535 342.257 411.255 342.753C410.975 343.249 410.587 343.609 410.091 343.833C409.595 344.057 409.027 344.169 408.387 344.169ZM417.125 344.169C416.613 344.169 416.165 344.121 415.781 344.025C415.405 343.921 415.029 343.773 414.653 343.581L414.533 341.577H414.749L415.481 342.957C415.977 343.365 416.497 343.569 417.041 343.569C417.489 343.569 417.849 343.461 418.121 343.245C418.393 343.021 418.529 342.705 418.529 342.297C418.529 341.993 418.457 341.749 418.313 341.565C418.177 341.373 417.965 341.201 417.677 341.049C417.389 340.889 417.013 340.705 416.549 340.497C415.989 340.225 415.557 339.933 415.253 339.621C414.949 339.301 414.797 338.873 414.797 338.337C414.797 338.033 414.873 337.741 415.025 337.461C415.177 337.181 415.377 336.933 415.625 336.717C415.881 336.501 416.165 336.329 416.477 336.201C416.797 336.073 417.125 336.009 417.461 336.009C417.861 336.009 418.233 336.057 418.577 336.153C418.929 336.241 419.265 336.369 419.585 336.537L419.705 338.457H419.501L418.769 337.137C418.537 336.961 418.321 336.829 418.121 336.741C417.921 336.653 417.693 336.609 417.437 336.609C417.101 336.609 416.821 336.721 416.597 336.945C416.381 337.169 416.273 337.453 416.273 337.797C416.273 338.157 416.393 338.449 416.633 338.673C416.873 338.889 417.273 339.129 417.833 339.393C418.321 339.617 418.721 339.837 419.033 340.053C419.345 340.269 419.577 340.513 419.729 340.785C419.881 341.057 419.957 341.393 419.957 341.793C419.957 342.177 419.873 342.517 419.705 342.813C419.545 343.101 419.325 343.349 419.045 343.557C418.773 343.757 418.469 343.909 418.133 344.013C417.797 344.117 417.461 344.169 417.125 344.169ZM425.389 344.049V343.857L426.397 343.365V336.813L425.389 336.321V336.129H429.121C430.065 336.129 430.821 336.301 431.389 336.645C431.965 336.981 432.253 337.521 432.253 338.265C432.253 338.713 432.101 339.109 431.797 339.453C431.501 339.789 431.093 340.053 430.573 340.245C430.061 340.437 429.481 340.533 428.833 340.533H427.897V343.365L429.073 343.857V344.049H425.389ZM427.897 336.789V339.921H428.665C429.297 339.921 429.793 339.777 430.153 339.489C430.513 339.193 430.693 338.821 430.693 338.373C430.693 337.813 430.509 337.409 430.141 337.161C429.781 336.913 429.261 336.789 428.581 336.789H427.897ZM432.732 344.049V343.857L433.476 343.449L436.584 336.069H437.424L440.496 343.425L441.312 343.857V344.049H437.856V343.857L438.9 343.437L438.048 341.349H435.168L434.328 343.437L435.324 343.857V344.049H432.732ZM435.444 340.689H437.772L436.608 337.821L435.444 340.689ZM442.82 344.049V343.857L443.828 343.365V336.813L442.82 336.321V336.129H446.516C447.356 336.129 448.016 336.305 448.496 336.657C448.984 337.001 449.228 337.477 449.228 338.085C449.228 338.533 449.076 338.925 448.772 339.261C448.476 339.589 448.084 339.845 447.596 340.029L449.84 343.401L450.68 343.857V344.049H448.436L446.168 340.389H445.328V343.353L446.228 343.857V344.049H442.82ZM445.94 336.789H445.328V339.777H446.012C446.508 339.777 446.908 339.637 447.212 339.357C447.524 339.077 447.68 338.713 447.68 338.265C447.68 337.801 447.528 337.441 447.224 337.185C446.92 336.921 446.492 336.789 445.94 336.789ZM451.87 344.049V343.857L452.866 343.365V336.813L451.87 336.321V336.129H455.374V336.321L454.378 336.813V343.365L455.374 343.857V344.049H451.87ZM459.866 344.169C459.354 344.169 458.906 344.121 458.522 344.025C458.146 343.921 457.77 343.773 457.394 343.581L457.274 341.577H457.49L458.222 342.957C458.718 343.365 459.238 343.569 459.782 343.569C460.23 343.569 460.59 343.461 460.862 343.245C461.134 343.021 461.27 342.705 461.27 342.297C461.27 341.993 461.198 341.749 461.054 341.565C460.918 341.373 460.706 341.201 460.418 341.049C460.13 340.889 459.754 340.705 459.29 340.497C458.73 340.225 458.298 339.933 457.994 339.621C457.69 339.301 457.538 338.873 457.538 338.337C457.538 338.033 457.614 337.741 457.766 337.461C457.918 337.181 458.118 336.933 458.366 336.717C458.622 336.501 458.906 336.329 459.218 336.201C459.538 336.073 459.866 336.009 460.202 336.009C460.602 336.009 460.974 336.057 461.318 336.153C461.67 336.241 462.006 336.369 462.326 336.537L462.446 338.457H462.242L461.51 337.137C461.278 336.961 461.062 336.829 460.862 336.741C460.662 336.653 460.434 336.609 460.178 336.609C459.842 336.609 459.562 336.721 459.338 336.945C459.122 337.169 459.014 337.453 459.014 337.797C459.014 338.157 459.134 338.449 459.374 338.673C459.614 338.889 460.014 339.129 460.574 339.393C461.062 339.617 461.462 339.837 461.774 340.053C462.086 340.269 462.318 340.513 462.47 340.785C462.622 341.057 462.698 341.393 462.698 341.793C462.698 342.177 462.614 342.517 462.446 342.813C462.286 343.101 462.066 343.349 461.786 343.557C461.514 343.757 461.21 343.909 460.874 344.013C460.538 344.117 460.202 344.169 459.866 344.169ZM403.695 356.049V355.857L404.439 355.449L407.547 348.069H408.387L411.459 355.425L412.275 355.857V356.049H408.819V355.857L409.863 355.437L409.011 353.349H406.131L405.291 355.437L406.287 355.857V356.049H403.695ZM406.407 352.689H408.735L407.571 349.821L406.407 352.689ZM417.619 356.169C417.043 356.169 416.507 356.073 416.011 355.881C415.515 355.689 415.083 355.417 414.715 355.065C414.347 354.713 414.059 354.301 413.851 353.829C413.643 353.357 413.539 352.841 413.539 352.281C413.539 351.665 413.655 351.097 413.887 350.577C414.127 350.057 414.451 349.605 414.859 349.221C415.267 348.837 415.735 348.541 416.263 348.333C416.799 348.117 417.363 348.009 417.955 348.009C418.379 348.009 418.739 348.033 419.035 348.081C419.339 348.129 419.607 348.197 419.839 348.285C420.079 348.373 420.315 348.473 420.547 348.585L420.643 350.637H420.439L419.455 349.077C419.183 348.901 418.939 348.777 418.723 348.705C418.507 348.633 418.259 348.597 417.979 348.597C417.435 348.597 416.943 348.737 416.503 349.017C416.063 349.297 415.715 349.685 415.459 350.181C415.203 350.677 415.075 351.249 415.075 351.897C415.075 352.649 415.203 353.293 415.459 353.829C415.723 354.365 416.071 354.777 416.503 355.065C416.943 355.353 417.431 355.497 417.967 355.497C418.151 355.497 418.343 355.489 418.543 355.473C418.743 355.449 418.943 355.409 419.143 355.353V353.217L418.075 352.689V352.497H421.519V352.689L420.643 353.241V355.161C420.403 355.369 420.111 355.549 419.767 355.701C419.423 355.845 419.063 355.961 418.687 356.049C418.319 356.129 417.963 356.169 417.619 356.169ZM423.196 356.049V355.857L424.204 355.365V348.813L423.196 348.321V348.129H426.892C427.732 348.129 428.392 348.305 428.872 348.657C429.36 349.001 429.604 349.477 429.604 350.085C429.604 350.533 429.452 350.925 429.148 351.261C428.852 351.589 428.46 351.845 427.972 352.029L430.216 355.401L431.056 355.857V356.049H428.812L426.544 352.389H425.704V355.353L426.604 355.857V356.049H423.196ZM426.316 348.789H425.704V351.777H426.388C426.884 351.777 427.284 351.637 427.588 351.357C427.9 351.077 428.056 350.713 428.056 350.265C428.056 349.801 427.904 349.441 427.6 349.185C427.296 348.921 426.868 348.789 426.316 348.789ZM432.198 356.049V355.857L433.206 355.365V348.813L432.198 348.321V348.129H438.474V350.205H438.282L437.454 348.789H434.706V351.633H436.638L437.286 350.613H437.478V353.289H437.286L436.638 352.293H434.706V355.389H437.754L438.618 353.709H438.81V356.049H432.198ZM440.825 356.049V355.857L441.833 355.365V348.813L440.825 348.321V348.129H447.101V350.205H446.909L446.081 348.789H443.333V351.633H445.265L445.913 350.613H446.105V353.289H445.913L445.265 352.293H443.333V355.389H446.381L447.245 353.709H447.437V356.049H440.825ZM449.417 356.049V355.857L450.413 355.365L450.665 348.813L449.621 348.321V348.129H452.285L454.841 354.057L457.385 348.129H459.941V348.321L458.921 348.729L459.125 355.365L460.001 355.857V356.049H456.725V355.857L457.661 355.377L457.541 349.593L454.757 356.109H454.133L451.349 349.653L451.193 355.377L452.213 355.857V356.049H449.417ZM461.818 356.049V355.857L462.826 355.365V348.813L461.818 348.321V348.129H468.094V350.205H467.902L467.074 348.789H464.326V351.633H466.258L466.906 350.613H467.098V353.289H466.906L466.258 352.293H464.326V355.389H467.374L468.238 353.709H468.43V356.049H461.818ZM470.41 356.049V355.857L471.406 355.365V348.825L470.422 348.321V348.129H472.486L477.118 353.601V348.789L475.822 348.321V348.129H478.942V348.321L477.958 348.801V356.109H477.334L472.246 350.133V355.377L473.554 355.857V356.049H470.41ZM482.261 356.049V355.857L483.509 355.365V348.789H481.697L480.797 350.673H480.605V348.129H487.925V350.673H487.733L486.833 348.789H485.021V355.365L486.257 355.857V356.049H482.261ZM404.019 368.049V367.665C404.683 366.921 405.231 366.297 405.663 365.793C406.103 365.289 406.447 364.865 406.695 364.521C406.951 364.177 407.139 363.877 407.259 363.621C407.379 363.365 407.455 363.117 407.487 362.877C407.519 362.629 407.535 362.353 407.535 362.049C407.535 361.625 407.431 361.277 407.223 361.005C407.015 360.733 406.731 360.597 406.371 360.597C405.555 360.597 405.147 361.049 405.147 361.953V362.505L405.075 362.601H404.367C404.207 362.601 404.087 362.573 404.007 362.517C403.927 362.461 403.887 362.321 403.887 362.097C403.887 361.873 403.955 361.649 404.091 361.425C404.235 361.193 404.455 360.969 404.751 360.753C404.959 360.609 405.159 360.481 405.351 360.369C405.543 360.257 405.755 360.169 405.987 360.105C406.227 360.041 406.507 360.009 406.827 360.009C407.275 360.009 407.671 360.105 408.015 360.297C408.367 360.489 408.639 360.745 408.831 361.065C409.031 361.385 409.131 361.741 409.131 362.133C409.131 362.389 409.099 362.625 409.035 362.841C408.979 363.057 408.875 363.281 408.723 363.513C408.571 363.745 408.355 364.009 408.075 364.305C407.803 364.601 407.455 364.957 407.031 365.373C406.607 365.781 406.087 366.273 405.471 366.849H408.519L409.179 365.673H409.371L409.251 368.049H404.019ZM413.645 368.169C413.053 368.169 412.545 368.005 412.121 367.677C411.697 367.349 411.373 366.881 411.149 366.273C410.933 365.657 410.825 364.929 410.825 364.089C410.825 363.305 410.945 362.609 411.185 362.001C411.425 361.385 411.753 360.901 412.169 360.549C412.593 360.189 413.085 360.009 413.645 360.009C414.237 360.009 414.745 360.173 415.169 360.501C415.593 360.829 415.913 361.301 416.129 361.917C416.353 362.525 416.465 363.249 416.465 364.089C416.465 364.873 416.345 365.573 416.105 366.189C415.865 366.797 415.533 367.281 415.109 367.641C414.685 367.993 414.197 368.169 413.645 368.169ZM413.861 367.593C414.093 367.593 414.285 367.457 414.437 367.185C414.597 366.913 414.717 366.541 414.797 366.069C414.877 365.597 414.917 365.061 414.917 364.461C414.917 363.717 414.865 363.053 414.761 362.469C414.657 361.877 414.497 361.413 414.281 361.077C414.073 360.741 413.801 360.573 413.465 360.573C413.233 360.573 413.033 360.705 412.865 360.969C412.705 361.233 412.581 361.601 412.493 362.073C412.413 362.537 412.373 363.077 412.373 363.693C412.373 364.445 412.425 365.117 412.529 365.709C412.633 366.293 412.793 366.753 413.009 367.089C413.233 367.425 413.517 367.593 413.861 367.593ZM418.086 368.049V367.665C418.75 366.921 419.298 366.297 419.73 365.793C420.17 365.289 420.514 364.865 420.762 364.521C421.018 364.177 421.206 363.877 421.326 363.621C421.446 363.365 421.522 363.117 421.554 362.877C421.586 362.629 421.602 362.353 421.602 362.049C421.602 361.625 421.498 361.277 421.29 361.005C421.082 360.733 420.798 360.597 420.438 360.597C419.622 360.597 419.214 361.049 419.214 361.953V362.505L419.142 362.601H418.434C418.274 362.601 418.154 362.573 418.074 362.517C417.994 362.461 417.954 362.321 417.954 362.097C417.954 361.873 418.022 361.649 418.158 361.425C418.302 361.193 418.522 360.969 418.818 360.753C419.026 360.609 419.226 360.481 419.418 360.369C419.61 360.257 419.822 360.169 420.054 360.105C420.294 360.041 420.574 360.009 420.894 360.009C421.342 360.009 421.738 360.105 422.082 360.297C422.434 360.489 422.706 360.745 422.898 361.065C423.098 361.385 423.198 361.741 423.198 362.133C423.198 362.389 423.166 362.625 423.102 362.841C423.046 363.057 422.942 363.281 422.79 363.513C422.638 363.745 422.422 364.009 422.142 364.305C421.87 364.601 421.522 364.957 421.098 365.373C420.674 365.781 420.154 366.273 419.538 366.849H422.586L423.246 365.673H423.438L423.318 368.049H418.086ZM427.076 368.169C426.644 368.169 426.272 368.117 425.96 368.013C425.656 367.901 425.428 367.741 425.276 367.533C425.212 367.461 425.18 367.381 425.18 367.293C425.18 367.189 425.252 367.081 425.396 366.969L425.936 366.549H426.08L426.212 366.801C426.34 367.049 426.5 367.245 426.692 367.389C426.884 367.533 427.14 367.605 427.46 367.605C427.892 367.605 428.248 367.449 428.528 367.137C428.816 366.817 428.96 366.397 428.96 365.877C428.96 365.517 428.888 365.201 428.744 364.929C428.6 364.649 428.36 364.429 428.024 364.269C427.696 364.109 427.256 364.029 426.704 364.029C426.52 364.029 426.336 364.041 426.152 364.065C425.968 364.081 425.768 364.105 425.552 364.137V360.129H429.644V361.221H426.164V362.853C426.292 362.845 426.424 362.837 426.56 362.829C426.696 362.821 426.844 362.817 427.004 362.817C427.78 362.817 428.404 362.933 428.876 363.165C429.356 363.397 429.704 363.701 429.92 364.077C430.144 364.453 430.256 364.865 430.256 365.313C430.256 365.873 430.12 366.369 429.848 366.801C429.576 367.233 429.2 367.569 428.72 367.809C428.24 368.049 427.692 368.169 427.076 368.169ZM437.265 368.049V367.857L438.513 367.365V360.789H436.701L435.801 362.673H435.609V360.129H442.929V362.673H442.737L441.837 360.789H440.025V367.365L441.261 367.857V368.049H437.265ZM443.904 368.049V367.857L444.648 367.449L447.756 360.069H448.596L451.668 367.425L452.484 367.857V368.049H449.028V367.857L450.072 367.437L449.22 365.349H446.34L445.5 367.437L446.496 367.857V368.049H443.904ZM446.616 364.689H448.944L447.78 361.821L446.616 364.689ZM453.992 368.049V367.857L455 367.365V360.813L453.992 360.321V360.129H457.688C458.528 360.129 459.188 360.305 459.668 360.657C460.156 361.001 460.4 361.477 460.4 362.085C460.4 362.533 460.248 362.925 459.944 363.261C459.648 363.589 459.256 363.845 458.768 364.029L461.012 367.401L461.852 367.857V368.049H459.608L457.34 364.389H456.5V367.353L457.4 367.857V368.049H453.992ZM457.112 360.789H456.5V363.777H457.184C457.68 363.777 458.08 363.637 458.384 363.357C458.696 363.077 458.852 362.713 458.852 362.265C458.852 361.801 458.7 361.441 458.396 361.185C458.092 360.921 457.664 360.789 457.112 360.789ZM467.1 368.169C466.524 368.169 465.988 368.073 465.492 367.881C464.996 367.689 464.564 367.417 464.196 367.065C463.828 366.713 463.54 366.301 463.332 365.829C463.124 365.357 463.02 364.841 463.02 364.281C463.02 363.665 463.136 363.097 463.368 362.577C463.608 362.057 463.932 361.605 464.34 361.221C464.748 360.837 465.216 360.541 465.744 360.333C466.28 360.117 466.844 360.009 467.436 360.009C467.86 360.009 468.22 360.033 468.516 360.081C468.82 360.129 469.088 360.197 469.32 360.285C469.56 360.373 469.796 360.473 470.028 360.585L470.124 362.637H469.92L468.936 361.077C468.664 360.901 468.42 360.777 468.204 360.705C467.988 360.633 467.74 360.597 467.46 360.597C466.916 360.597 466.424 360.737 465.984 361.017C465.544 361.297 465.196 361.685 464.94 362.181C464.684 362.677 464.556 363.249 464.556 363.897C464.556 364.649 464.684 365.293 464.94 365.829C465.204 366.365 465.552 366.777 465.984 367.065C466.424 367.353 466.912 367.497 467.448 367.497C467.632 367.497 467.824 367.489 468.024 367.473C468.224 367.449 468.424 367.409 468.624 367.353V365.217L467.556 364.689V364.497H471V364.689L470.124 365.241V367.161C469.884 367.369 469.592 367.549 469.248 367.701C468.904 367.845 468.544 367.961 468.168 368.049C467.8 368.129 467.444 368.169 467.1 368.169ZM472.677 368.049V367.857L473.685 367.365V360.813L472.677 360.321V360.129H478.953V362.205H478.761L477.933 360.789H475.185V363.633H477.117L477.765 362.613H477.957V365.289H477.765L477.117 364.293H475.185V367.389H478.233L479.097 365.709H479.289V368.049H472.677ZM482.816 368.049V367.857L484.064 367.365V360.789H482.252L481.352 362.673H481.16V360.129H488.48V362.673H488.288L487.388 360.789H485.576V367.365L486.812 367.857V368.049H482.816Z" fill="black"/>
<rect x="784.5" y="434.549" width="99.1797" height="37" fill="white"/>
<rect x="784.5" y="434.549" width="99.1797" height="37" stroke="black"/>
<path d="M796.588 451.049V450.857L797.584 450.365L797.836 443.813L796.792 443.321V443.129H799.456L802.012 449.057L804.556 443.129H807.112V443.321L806.092 443.729L806.296 450.365L807.172 450.857V451.049H803.896V450.857L804.832 450.377L804.712 444.593L801.928 451.109H801.304L798.52 444.653L798.364 450.377L799.384 450.857V451.049H796.588ZM809.038 451.049V450.857L810.034 450.365V443.813L809.038 443.321V443.129H812.542V443.321L811.546 443.813V450.365L812.542 450.857V451.049H809.038ZM814.441 451.049V450.857L815.449 450.365V443.813L814.441 443.321V443.129H818.305C819.225 443.129 820.005 443.285 820.645 443.597C821.293 443.909 821.785 444.337 822.121 444.881C822.465 445.425 822.637 446.041 822.637 446.729C822.637 447.353 822.525 447.929 822.301 448.457C822.085 448.985 821.777 449.441 821.377 449.825C820.985 450.209 820.517 450.509 819.973 450.725C819.437 450.941 818.853 451.049 818.221 451.049H814.441ZM817.897 443.789H816.949V450.389H818.077C818.709 450.389 819.245 450.257 819.685 449.993C820.133 449.721 820.473 449.341 820.705 448.853C820.945 448.357 821.065 447.773 821.065 447.101C821.065 446.093 820.793 445.289 820.249 444.689C819.713 444.089 818.929 443.789 817.897 443.789ZM796.624 463.049V462.857L797.632 462.365V455.813L796.624 455.321V455.129H802.9V457.205H802.708L801.88 455.789H799.132V458.633H801.064L801.712 457.613H801.904V460.289H801.712L801.064 459.293H799.132V462.389H802.18L803.044 460.709H803.236V463.049H796.624ZM805.215 463.049V462.857L806.211 462.365L806.463 455.813L805.419 455.321V455.129H808.083L810.639 461.057L813.183 455.129H815.739V455.321L814.719 455.729L814.923 462.365L815.799 462.857V463.049H812.523V462.857L813.459 462.377L813.339 456.593L810.555 463.109H809.931L807.147 456.653L806.991 462.377L808.011 462.857V463.049H805.215ZM817.665 463.049V462.857L818.661 462.365V455.813L817.665 455.321V455.129H821.169V455.321L820.173 455.813V462.365L821.169 462.857V463.049H817.665ZM825.661 463.169C825.149 463.169 824.701 463.121 824.317 463.025C823.941 462.921 823.565 462.773 823.189 462.581L823.069 460.577H823.285L824.017 461.957C824.513 462.365 825.033 462.569 825.577 462.569C826.025 462.569 826.385 462.461 826.657 462.245C826.929 462.021 827.065 461.705 827.065 461.297C827.065 460.993 826.993 460.749 826.849 460.565C826.713 460.373 826.501 460.201 826.213 460.049C825.925 459.889 825.549 459.705 825.085 459.497C824.525 459.225 824.093 458.933 823.789 458.621C823.485 458.301 823.333 457.873 823.333 457.337C823.333 457.033 823.409 456.741 823.561 456.461C823.713 456.181 823.913 455.933 824.161 455.717C824.417 455.501 824.701 455.329 825.013 455.201C825.333 455.073 825.661 455.009 825.997 455.009C826.397 455.009 826.769 455.057 827.113 455.153C827.465 455.241 827.801 455.369 828.121 455.537L828.241 457.457H828.037L827.305 456.137C827.073 455.961 826.857 455.829 826.657 455.741C826.457 455.653 826.229 455.609 825.973 455.609C825.637 455.609 825.357 455.721 825.133 455.945C824.917 456.169 824.809 456.453 824.809 456.797C824.809 457.157 824.929 457.449 825.169 457.673C825.409 457.889 825.809 458.129 826.369 458.393C826.857 458.617 827.257 458.837 827.569 459.053C827.881 459.269 828.113 459.513 828.265 459.785C828.417 460.057 828.493 460.393 828.493 460.793C828.493 461.177 828.409 461.517 828.241 461.813C828.081 462.101 827.861 462.349 827.581 462.557C827.309 462.757 827.005 462.909 826.669 463.013C826.333 463.117 825.997 463.169 825.661 463.169ZM832.917 463.169C832.405 463.169 831.957 463.121 831.573 463.025C831.197 462.921 830.821 462.773 830.445 462.581L830.325 460.577H830.541L831.273 461.957C831.769 462.365 832.289 462.569 832.833 462.569C833.281 462.569 833.641 462.461 833.913 462.245C834.185 462.021 834.321 461.705 834.321 461.297C834.321 460.993 834.249 460.749 834.105 460.565C833.969 460.373 833.757 460.201 833.469 460.049C833.181 459.889 832.805 459.705 832.341 459.497C831.781 459.225 831.349 458.933 831.045 458.621C830.741 458.301 830.589 457.873 830.589 457.337C830.589 457.033 830.665 456.741 830.817 456.461C830.969 456.181 831.169 455.933 831.417 455.717C831.673 455.501 831.957 455.329 832.269 455.201C832.589 455.073 832.917 455.009 833.253 455.009C833.653 455.009 834.025 455.057 834.369 455.153C834.721 455.241 835.057 455.369 835.377 455.537L835.497 457.457H835.293L834.561 456.137C834.329 455.961 834.113 455.829 833.913 455.741C833.713 455.653 833.485 455.609 833.229 455.609C832.893 455.609 832.613 455.721 832.389 455.945C832.173 456.169 832.065 456.453 832.065 456.797C832.065 457.157 832.185 457.449 832.425 457.673C832.665 457.889 833.065 458.129 833.625 458.393C834.113 458.617 834.513 458.837 834.825 459.053C835.137 459.269 835.369 459.513 835.521 459.785C835.673 460.057 835.749 460.393 835.749 460.793C835.749 461.177 835.665 461.517 835.497 461.813C835.337 462.101 835.117 462.349 834.837 462.557C834.565 462.757 834.261 462.909 833.925 463.013C833.589 463.117 833.253 463.169 832.917 463.169ZM837.629 463.049V462.857L838.625 462.365V455.813L837.629 455.321V455.129H841.133V455.321L840.137 455.813V462.365L841.133 462.857V463.049H837.629ZM847.185 463.169C846.601 463.169 846.061 463.069 845.565 462.869C845.069 462.661 844.637 462.377 844.269 462.017C843.901 461.649 843.613 461.217 843.405 460.721C843.205 460.225 843.105 459.681 843.105 459.089C843.105 458.497 843.205 457.953 843.405 457.457C843.613 456.961 843.901 456.533 844.269 456.173C844.637 455.805 845.069 455.521 845.565 455.321C846.061 455.113 846.601 455.009 847.185 455.009C847.777 455.009 848.321 455.113 848.817 455.321C849.313 455.521 849.745 455.805 850.113 456.173C850.481 456.533 850.765 456.961 850.965 457.457C851.173 457.953 851.277 458.497 851.277 459.089C851.277 459.681 851.173 460.225 850.965 460.721C850.765 461.217 850.481 461.649 850.113 462.017C849.745 462.377 849.313 462.661 848.817 462.869C848.321 463.069 847.777 463.169 847.185 463.169ZM847.401 462.557C847.849 462.557 848.241 462.429 848.577 462.173C848.921 461.917 849.189 461.557 849.381 461.093C849.573 460.629 849.669 460.081 849.669 459.449C849.669 458.673 849.549 457.997 849.309 457.421C849.077 456.845 848.757 456.401 848.349 456.089C847.949 455.769 847.501 455.609 847.005 455.609C846.565 455.609 846.169 455.737 845.817 455.993C845.473 456.241 845.201 456.597 845.001 457.061C844.801 457.525 844.701 458.073 844.701 458.705C844.701 459.481 844.821 460.157 845.061 460.733C845.301 461.309 845.625 461.757 846.033 462.077C846.449 462.397 846.905 462.557 847.401 462.557ZM853.147 463.049V462.857L854.143 462.365V455.825L853.159 455.321V455.129H855.223L859.855 460.601V455.789L858.559 455.321V455.129H861.679V455.321L860.695 455.801V463.109H860.071L854.983 457.133V462.377L856.291 462.857V463.049H853.147ZM866.079 463.169C865.567 463.169 865.119 463.121 864.735 463.025C864.359 462.921 863.983 462.773 863.607 462.581L863.487 460.577H863.703L864.435 461.957C864.931 462.365 865.451 462.569 865.995 462.569C866.443 462.569 866.803 462.461 867.075 462.245C867.347 462.021 867.483 461.705 867.483 461.297C867.483 460.993 867.411 460.749 867.267 460.565C867.131 460.373 866.919 460.201 866.631 460.049C866.343 459.889 865.967 459.705 865.503 459.497C864.943 459.225 864.511 458.933 864.207 458.621C863.903 458.301 863.751 457.873 863.751 457.337C863.751 457.033 863.827 456.741 863.979 456.461C864.131 456.181 864.331 455.933 864.579 455.717C864.835 455.501 865.119 455.329 865.431 455.201C865.751 455.073 866.079 455.009 866.415 455.009C866.815 455.009 867.187 455.057 867.531 455.153C867.883 455.241 868.219 455.369 868.539 455.537L868.659 457.457H868.455L867.723 456.137C867.491 455.961 867.275 455.829 867.075 455.741C866.875 455.653 866.647 455.609 866.391 455.609C866.055 455.609 865.775 455.721 865.551 455.945C865.335 456.169 865.227 456.453 865.227 456.797C865.227 457.157 865.347 457.449 865.587 457.673C865.827 457.889 866.227 458.129 866.787 458.393C867.275 458.617 867.675 458.837 867.987 459.053C868.299 459.269 868.531 459.513 868.683 459.785C868.835 460.057 868.911 460.393 868.911 460.793C868.911 461.177 868.827 461.517 868.659 461.813C868.499 462.101 868.279 462.349 867.999 462.557C867.727 462.757 867.423 462.909 867.087 463.013C866.751 463.117 866.415 463.169 866.079 463.169Z" fill="black"/>
<rect x="784.5" y="498.549" width="99.1797" height="37" fill="white"/>
<rect x="784.5" y="498.549" width="99.1797" height="37" stroke="black"/>
<path d="M796.624 515.049V514.857L797.632 514.365V507.813L796.624 507.321V507.129H800.26V507.321L799.132 507.813V514.389H801.892L802.804 512.229H802.996V515.049H796.624ZM809.075 515.169C808.491 515.169 807.951 515.069 807.455 514.869C806.959 514.661 806.527 514.377 806.159 514.017C805.791 513.649 805.503 513.217 805.295 512.721C805.095 512.225 804.995 511.681 804.995 511.089C804.995 510.497 805.095 509.953 805.295 509.457C805.503 508.961 805.791 508.533 806.159 508.173C806.527 507.805 806.959 507.521 807.455 507.321C807.951 507.113 808.491 507.009 809.075 507.009C809.667 507.009 810.211 507.113 810.707 507.321C811.203 507.521 811.635 507.805 812.003 508.173C812.371 508.533 812.655 508.961 812.855 509.457C813.063 509.953 813.167 510.497 813.167 511.089C813.167 511.681 813.063 512.225 812.855 512.721C812.655 513.217 812.371 513.649 812.003 514.017C811.635 514.377 811.203 514.661 810.707 514.869C810.211 515.069 809.667 515.169 809.075 515.169ZM809.291 514.557C809.739 514.557 810.131 514.429 810.467 514.173C810.811 513.917 811.079 513.557 811.271 513.093C811.463 512.629 811.559 512.081 811.559 511.449C811.559 510.673 811.439 509.997 811.199 509.421C810.967 508.845 810.647 508.401 810.239 508.089C809.839 507.769 809.391 507.609 808.895 507.609C808.455 507.609 808.059 507.737 807.707 507.993C807.363 508.241 807.091 508.597 806.891 509.061C806.691 509.525 806.591 510.073 806.591 510.705C806.591 511.481 806.711 512.157 806.951 512.733C807.191 513.309 807.515 513.757 807.923 514.077C808.339 514.397 808.795 514.557 809.291 514.557ZM817.552 515.109L815.284 507.777L814.372 507.321V507.129H817.852V507.321L816.844 507.777L818.272 512.625H818.32L820.408 507.069H821.008L823.108 512.625H823.168L824.596 507.777L823.576 507.321V507.129H826.264V507.321L825.46 507.741L823.156 515.109H822.568L820.408 509.553H820.336L818.128 515.109H817.552ZM796.624 527.049V526.857L797.632 526.365V519.813L796.624 519.321V519.129H802.9V521.205H802.708L801.88 519.789H799.132V522.633H801.064L801.712 521.613H801.904V524.289H801.712L801.064 523.293H799.132V526.389H802.18L803.044 524.709H803.236V527.049H796.624ZM805.215 527.049V526.857L806.211 526.365L806.463 519.813L805.419 519.321V519.129H808.083L810.639 525.057L813.183 519.129H815.739V519.321L814.719 519.729L814.923 526.365L815.799 526.857V527.049H812.523V526.857L813.459 526.377L813.339 520.593L810.555 527.109H809.931L807.147 520.653L806.991 526.377L808.011 526.857V527.049H805.215ZM817.665 527.049V526.857L818.661 526.365V519.813L817.665 519.321V519.129H821.169V519.321L820.173 519.813V526.365L821.169 526.857V527.049H817.665ZM825.661 527.169C825.149 527.169 824.701 527.121 824.317 527.025C823.941 526.921 823.565 526.773 823.189 526.581L823.069 524.577H823.285L824.017 525.957C824.513 526.365 825.033 526.569 825.577 526.569C826.025 526.569 826.385 526.461 826.657 526.245C826.929 526.021 827.065 525.705 827.065 525.297C827.065 524.993 826.993 524.749 826.849 524.565C826.713 524.373 826.501 524.201 826.213 524.049C825.925 523.889 825.549 523.705 825.085 523.497C824.525 523.225 824.093 522.933 823.789 522.621C823.485 522.301 823.333 521.873 823.333 521.337C823.333 521.033 823.409 520.741 823.561 520.461C823.713 520.181 823.913 519.933 824.161 519.717C824.417 519.501 824.701 519.329 825.013 519.201C825.333 519.073 825.661 519.009 825.997 519.009C826.397 519.009 826.769 519.057 827.113 519.153C827.465 519.241 827.801 519.369 828.121 519.537L828.241 521.457H828.037L827.305 520.137C827.073 519.961 826.857 519.829 826.657 519.741C826.457 519.653 826.229 519.609 825.973 519.609C825.637 519.609 825.357 519.721 825.133 519.945C824.917 520.169 824.809 520.453 824.809 520.797C824.809 521.157 824.929 521.449 825.169 521.673C825.409 521.889 825.809 522.129 826.369 522.393C826.857 522.617 827.257 522.837 827.569 523.053C827.881 523.269 828.113 523.513 828.265 523.785C828.417 524.057 828.493 524.393 828.493 524.793C828.493 525.177 828.409 525.517 828.241 525.813C828.081 526.101 827.861 526.349 827.581 526.557C827.309 526.757 827.005 526.909 826.669 527.013C826.333 527.117 825.997 527.169 825.661 527.169ZM832.917 527.169C832.405 527.169 831.957 527.121 831.573 527.025C831.197 526.921 830.821 526.773 830.445 526.581L830.325 524.577H830.541L831.273 525.957C831.769 526.365 832.289 526.569 832.833 526.569C833.281 526.569 833.641 526.461 833.913 526.245C834.185 526.021 834.321 525.705 834.321 525.297C834.321 524.993 834.249 524.749 834.105 524.565C833.969 524.373 833.757 524.201 833.469 524.049C833.181 523.889 832.805 523.705 832.341 523.497C831.781 523.225 831.349 522.933 831.045 522.621C830.741 522.301 830.589 521.873 830.589 521.337C830.589 521.033 830.665 520.741 830.817 520.461C830.969 520.181 831.169 519.933 831.417 519.717C831.673 519.501 831.957 519.329 832.269 519.201C832.589 519.073 832.917 519.009 833.253 519.009C833.653 519.009 834.025 519.057 834.369 519.153C834.721 519.241 835.057 519.369 835.377 519.537L835.497 521.457H835.293L834.561 520.137C834.329 519.961 834.113 519.829 833.913 519.741C833.713 519.653 833.485 519.609 833.229 519.609C832.893 519.609 832.613 519.721 832.389 519.945C832.173 520.169 832.065 520.453 832.065 520.797C832.065 521.157 832.185 521.449 832.425 521.673C832.665 521.889 833.065 522.129 833.625 522.393C834.113 522.617 834.513 522.837 834.825 523.053C835.137 523.269 835.369 523.513 835.521 523.785C835.673 524.057 835.749 524.393 835.749 524.793C835.749 525.177 835.665 525.517 835.497 525.813C835.337 526.101 835.117 526.349 834.837 526.557C834.565 526.757 834.261 526.909 833.925 527.013C833.589 527.117 833.253 527.169 832.917 527.169ZM837.629 527.049V526.857L838.625 526.365V519.813L837.629 519.321V519.129H841.133V519.321L840.137 519.813V526.365L841.133 526.857V527.049H837.629ZM847.185 527.169C846.601 527.169 846.061 527.069 845.565 526.869C845.069 526.661 844.637 526.377 844.269 526.017C843.901 525.649 843.613 525.217 843.405 524.721C843.205 524.225 843.105 523.681 843.105 523.089C843.105 522.497 843.205 521.953 843.405 521.457C843.613 520.961 843.901 520.533 844.269 520.173C844.637 519.805 845.069 519.521 845.565 519.321C846.061 519.113 846.601 519.009 847.185 519.009C847.777 519.009 848.321 519.113 848.817 519.321C849.313 519.521 849.745 519.805 850.113 520.173C850.481 520.533 850.765 520.961 850.965 521.457C851.173 521.953 851.277 522.497 851.277 523.089C851.277 523.681 851.173 524.225 850.965 524.721C850.765 525.217 850.481 525.649 850.113 526.017C849.745 526.377 849.313 526.661 848.817 526.869C848.321 527.069 847.777 527.169 847.185 527.169ZM847.401 526.557C847.849 526.557 848.241 526.429 848.577 526.173C848.921 525.917 849.189 525.557 849.381 525.093C849.573 524.629 849.669 524.081 849.669 523.449C849.669 522.673 849.549 521.997 849.309 521.421C849.077 520.845 848.757 520.401 848.349 520.089C847.949 519.769 847.501 519.609 847.005 519.609C846.565 519.609 846.169 519.737 845.817 519.993C845.473 520.241 845.201 520.597 845.001 521.061C844.801 521.525 844.701 522.073 844.701 522.705C844.701 523.481 844.821 524.157 845.061 524.733C845.301 525.309 845.625 525.757 846.033 526.077C846.449 526.397 846.905 526.557 847.401 526.557ZM853.147 527.049V526.857L854.143 526.365V519.825L853.159 519.321V519.129H855.223L859.855 524.601V519.789L858.559 519.321V519.129H861.679V519.321L860.695 519.801V527.109H860.071L854.983 521.133V526.377L856.291 526.857V527.049H853.147ZM866.079 527.169C865.567 527.169 865.119 527.121 864.735 527.025C864.359 526.921 863.983 526.773 863.607 526.581L863.487 524.577H863.703L864.435 525.957C864.931 526.365 865.451 526.569 865.995 526.569C866.443 526.569 866.803 526.461 867.075 526.245C867.347 526.021 867.483 525.705 867.483 525.297C867.483 524.993 867.411 524.749 867.267 524.565C867.131 524.373 866.919 524.201 866.631 524.049C866.343 523.889 865.967 523.705 865.503 523.497C864.943 523.225 864.511 522.933 864.207 522.621C863.903 522.301 863.751 521.873 863.751 521.337C863.751 521.033 863.827 520.741 863.979 520.461C864.131 520.181 864.331 519.933 864.579 519.717C864.835 519.501 865.119 519.329 865.431 519.201C865.751 519.073 866.079 519.009 866.415 519.009C866.815 519.009 867.187 519.057 867.531 519.153C867.883 519.241 868.219 519.369 868.539 519.537L868.659 521.457H868.455L867.723 520.137C867.491 519.961 867.275 519.829 867.075 519.741C866.875 519.653 866.647 519.609 866.391 519.609C866.055 519.609 865.775 519.721 865.551 519.945C865.335 520.169 865.227 520.453 865.227 520.797C865.227 521.157 865.347 521.449 865.587 521.673C865.827 521.889 866.227 522.129 866.787 522.393C867.275 522.617 867.675 522.837 867.987 523.053C868.299 523.269 868.531 523.513 868.683 523.785C868.835 524.057 868.911 524.393 868.911 524.793C868.911 525.177 868.827 525.517 868.659 525.813C868.499 526.101 868.279 526.349 867.999 526.557C867.727 526.757 867.423 526.909 867.087 527.013C866.751 527.117 866.415 527.169 866.079 527.169Z" fill="black"/>
</svg>
