<svg width="951" height="651" viewBox="0 0 951 651" fill="none" xmlns="http://www.w3.org/2000/svg">
<g clip-path="url(#clip0_1615_3855)">
<path d="M184.842 546.973V561.079" stroke="black" stroke-width="0.935277"/>
<path d="M179.355 578.043C178.8 578.043 178.325 577.973 177.931 577.835C177.536 577.696 177.221 577.52 176.987 577.307C176.603 576.987 176.411 576.624 176.411 576.219C176.411 575.909 176.464 575.696 176.571 575.579C176.677 575.461 176.821 575.403 177.003 575.403H177.979L178.075 575.563L177.995 576.107C177.845 576.949 178.304 577.371 179.371 577.371C180.021 577.371 180.549 577.125 180.955 576.635C181.371 576.133 181.579 575.483 181.579 574.683C181.579 574.107 181.403 573.648 181.051 573.307C180.699 572.965 180.187 572.795 179.515 572.795H178.555L178.699 572.043H179.163C179.717 572.043 180.208 571.92 180.635 571.675C181.061 571.429 181.392 571.104 181.627 570.699C181.861 570.283 181.979 569.824 181.979 569.323C181.979 568.875 181.872 568.517 181.659 568.251C181.456 567.973 181.163 567.835 180.779 567.835C180.373 567.835 180.032 567.952 179.755 568.187C179.488 568.411 179.317 568.757 179.243 569.227L179.131 569.899L178.971 570.059H178.107C177.947 570.059 177.824 570.037 177.739 569.995C177.653 569.952 177.611 569.845 177.611 569.675C177.611 569.397 177.707 569.109 177.899 568.811C178.091 568.501 178.384 568.213 178.779 567.947C179.131 567.701 179.493 567.509 179.867 567.371C180.24 567.232 180.677 567.163 181.179 567.163C181.744 567.163 182.235 567.264 182.651 567.467C183.067 567.669 183.387 567.941 183.611 568.283C183.835 568.624 183.947 568.997 183.947 569.403C183.947 569.84 183.819 570.245 183.563 570.619C183.317 570.992 182.971 571.317 182.523 571.595C182.085 571.861 181.584 572.048 181.019 572.155C181.84 572.293 182.469 572.581 182.907 573.019C183.355 573.456 183.579 573.995 183.579 574.635C183.579 575.083 183.467 575.509 183.243 575.915C183.019 576.32 182.709 576.683 182.315 577.003C181.931 577.323 181.483 577.579 180.971 577.771C180.459 577.952 179.92 578.043 179.355 578.043ZM188.234 578.043C187.359 578.043 186.687 577.717 186.218 577.067C185.759 576.416 185.53 575.509 185.53 574.347C185.53 573.419 185.647 572.528 185.882 571.675C186.117 570.811 186.442 570.043 186.858 569.371C187.285 568.688 187.775 568.149 188.33 567.755C188.885 567.36 189.482 567.163 190.122 567.163C190.997 567.163 191.669 567.488 192.138 568.139C192.607 568.789 192.842 569.701 192.842 570.875C192.842 571.803 192.719 572.699 192.474 573.563C192.239 574.416 191.909 575.179 191.482 575.851C191.066 576.523 190.581 577.056 190.026 577.451C189.471 577.845 188.874 578.043 188.234 578.043ZM188.538 577.291C188.805 577.291 189.05 577.157 189.274 576.891C189.509 576.613 189.722 576.24 189.914 575.771C190.106 575.301 190.271 574.773 190.41 574.187C190.559 573.589 190.671 572.971 190.746 572.331C190.821 571.68 190.858 571.04 190.858 570.411C190.858 569.621 190.778 569.008 190.618 568.571C190.469 568.133 190.207 567.915 189.834 567.915C189.503 567.915 189.194 568.123 188.906 568.539C188.629 568.944 188.383 569.488 188.17 570.171C187.967 570.843 187.807 571.584 187.69 572.395C187.573 573.195 187.514 573.989 187.514 574.779C187.514 575.568 187.589 576.187 187.738 576.635C187.898 577.072 188.165 577.291 188.538 577.291Z" fill="black"/>
<path d="M278.663 546.973V561.079" stroke="black" stroke-width="0.935277"/>
<path d="M273.559 577.883L274.071 575.003H269.991L270.087 574.555L276.503 567.323H277.303L276.151 573.851H277.911L277.735 575.003H275.959L275.447 577.883H273.559ZM271.639 573.851H274.263L274.935 570.043L271.639 573.851ZM282.055 578.043C281.18 578.043 280.508 577.717 280.039 577.067C279.58 576.416 279.351 575.509 279.351 574.347C279.351 573.419 279.468 572.528 279.703 571.675C279.937 570.811 280.263 570.043 280.679 569.371C281.105 568.688 281.596 568.149 282.151 567.755C282.705 567.36 283.303 567.163 283.943 567.163C284.817 567.163 285.489 567.488 285.959 568.139C286.428 568.789 286.663 569.701 286.663 570.875C286.663 571.803 286.54 572.699 286.295 573.563C286.06 574.416 285.729 575.179 285.303 575.851C284.887 576.523 284.401 577.056 283.847 577.451C283.292 577.845 282.695 578.043 282.055 578.043ZM282.359 577.291C282.625 577.291 282.871 577.157 283.095 576.891C283.329 576.613 283.543 576.24 283.735 575.771C283.927 575.301 284.092 574.773 284.231 574.187C284.38 573.589 284.492 572.971 284.567 572.331C284.641 571.68 284.679 571.04 284.679 570.411C284.679 569.621 284.599 569.008 284.439 568.571C284.289 568.133 284.028 567.915 283.655 567.915C283.324 567.915 283.015 568.123 282.727 568.539C282.449 568.944 282.204 569.488 281.991 570.171C281.788 570.843 281.628 571.584 281.511 572.395C281.393 573.195 281.335 573.989 281.335 574.779C281.335 575.568 281.409 576.187 281.559 576.635C281.719 577.072 281.985 577.291 282.359 577.291Z" fill="black"/>
<path d="M372.483 546.973V561.079" stroke="black" stroke-width="0.935277"/>
<path d="M366.628 578.043C365.785 578.043 365.151 577.92 364.724 577.675C364.308 577.429 364.105 577.168 364.116 576.891C364.137 576.72 364.26 576.56 364.484 576.411L365.316 575.835H365.508L365.652 576.235C365.759 576.555 365.924 576.811 366.148 577.003C366.372 577.195 366.703 577.291 367.14 577.291C367.748 577.291 368.26 577.077 368.676 576.651C369.103 576.213 369.316 575.611 369.316 574.843C369.316 574.16 369.103 573.632 368.676 573.259C368.249 572.885 367.588 572.699 366.692 572.699C366.457 572.699 366.223 572.709 365.988 572.731C365.764 572.752 365.513 572.789 365.236 572.843L366.244 567.323H371.476L371.188 568.827H366.74L366.34 571.019C366.511 571.008 366.692 570.997 366.884 570.987C367.076 570.976 367.289 570.971 367.524 570.971C368.729 570.971 369.625 571.248 370.212 571.803C370.809 572.357 371.108 573.083 371.108 573.979C371.108 574.512 370.996 575.024 370.772 575.515C370.548 575.995 370.233 576.427 369.828 576.811C369.423 577.184 368.948 577.483 368.404 577.707C367.86 577.931 367.268 578.043 366.628 578.043ZM375.875 578.043C375.001 578.043 374.329 577.717 373.859 577.067C373.401 576.416 373.171 575.509 373.171 574.347C373.171 573.419 373.289 572.528 373.523 571.675C373.758 570.811 374.083 570.043 374.499 569.371C374.926 568.688 375.417 568.149 375.971 567.755C376.526 567.36 377.123 567.163 377.763 567.163C378.638 567.163 379.31 567.488 379.779 568.139C380.249 568.789 380.483 569.701 380.483 570.875C380.483 571.803 380.361 572.699 380.115 573.563C379.881 574.416 379.55 575.179 379.123 575.851C378.707 576.523 378.222 577.056 377.667 577.451C377.113 577.845 376.515 578.043 375.875 578.043ZM376.179 577.291C376.446 577.291 376.691 577.157 376.915 576.891C377.15 576.613 377.363 576.24 377.555 575.771C377.747 575.301 377.913 574.773 378.051 574.187C378.201 573.589 378.313 572.971 378.387 572.331C378.462 571.68 378.499 571.04 378.499 570.411C378.499 569.621 378.419 569.008 378.259 568.571C378.11 568.133 377.849 567.915 377.475 567.915C377.145 567.915 376.835 568.123 376.547 568.539C376.27 568.944 376.025 569.488 375.811 570.171C375.609 570.843 375.449 571.584 375.331 572.395C375.214 573.195 375.155 573.989 375.155 574.779C375.155 575.568 375.23 576.187 375.379 576.635C375.539 577.072 375.806 577.291 376.179 577.291Z" fill="black"/>
<path d="M466.304 546.973V561.079" stroke="black" stroke-width="0.935277"/>
<path d="M461.281 578.043C460.267 578.043 459.494 577.744 458.961 577.147C458.427 576.549 458.161 575.76 458.161 574.779C458.161 573.648 458.449 572.571 459.025 571.547C459.601 570.523 460.438 569.627 461.537 568.859C462.646 568.091 463.995 567.525 465.585 567.163L465.489 567.675C464.518 567.995 463.686 568.427 462.993 568.971C462.31 569.504 461.755 570.117 461.329 570.811C460.902 571.493 460.587 572.203 460.385 572.939C460.705 572.523 461.067 572.197 461.473 571.963C461.889 571.728 462.342 571.611 462.833 571.611C463.622 571.611 464.209 571.851 464.593 572.331C464.987 572.811 465.185 573.429 465.185 574.187C465.185 574.976 465.003 575.659 464.641 576.235C464.289 576.811 463.814 577.259 463.217 577.579C462.63 577.888 461.985 578.043 461.281 578.043ZM460.081 575.259C460.081 575.973 460.198 576.496 460.433 576.827C460.667 577.157 460.987 577.323 461.393 577.323C461.937 577.323 462.39 577.061 462.753 576.539C463.115 576.005 463.297 575.296 463.297 574.411C463.297 573.28 462.897 572.715 462.097 572.715C461.745 572.715 461.398 572.811 461.057 573.003C460.726 573.195 460.438 573.467 460.193 573.819C460.118 574.299 460.081 574.779 460.081 575.259ZM469.696 578.043C468.822 578.043 468.15 577.717 467.68 577.067C467.222 576.416 466.992 575.509 466.992 574.347C466.992 573.419 467.11 572.528 467.344 571.675C467.579 570.811 467.904 570.043 468.32 569.371C468.747 568.688 469.238 568.149 469.792 567.755C470.347 567.36 470.944 567.163 471.584 567.163C472.459 567.163 473.131 567.488 473.6 568.139C474.07 568.789 474.304 569.701 474.304 570.875C474.304 571.803 474.182 572.699 473.936 573.563C473.702 574.416 473.371 575.179 472.944 575.851C472.528 576.523 472.043 577.056 471.488 577.451C470.934 577.845 470.336 578.043 469.696 578.043ZM470 577.291C470.267 577.291 470.512 577.157 470.736 576.891C470.971 576.613 471.184 576.24 471.376 575.771C471.568 575.301 471.734 574.773 471.872 574.187C472.022 573.589 472.134 572.971 472.208 572.331C472.283 571.68 472.32 571.04 472.32 570.411C472.32 569.621 472.24 569.008 472.08 568.571C471.931 568.133 471.67 567.915 471.296 567.915C470.966 567.915 470.656 568.123 470.368 568.539C470.091 568.944 469.846 569.488 469.632 570.171C469.43 570.843 469.27 571.584 469.152 572.395C469.035 573.195 468.976 573.989 468.976 574.779C468.976 575.568 469.051 576.187 469.2 576.635C469.36 577.072 469.627 577.291 470 577.291Z" fill="black"/>
<path d="M560.125 546.973V561.079" stroke="black" stroke-width="0.935277"/>
<path d="M552.557 577.883C552.888 577.307 553.224 576.731 553.565 576.155C553.917 575.579 554.307 574.96 554.733 574.299C555.16 573.627 555.656 572.875 556.221 572.043C556.797 571.2 557.485 570.229 558.285 569.131H553.005L553.325 567.323H559.965L559.885 567.851C559.235 568.821 558.589 569.803 557.949 570.795C557.309 571.776 556.691 572.843 556.093 573.995C555.507 575.147 554.963 576.443 554.461 577.883H552.557ZM563.517 578.043C562.642 578.043 561.97 577.717 561.501 577.067C561.042 576.416 560.813 575.509 560.813 574.347C560.813 573.419 560.93 572.528 561.165 571.675C561.4 570.811 561.725 570.043 562.141 569.371C562.568 568.688 563.058 568.149 563.613 567.755C564.168 567.36 564.765 567.163 565.405 567.163C566.28 567.163 566.952 567.488 567.421 568.139C567.89 568.789 568.125 569.701 568.125 570.875C568.125 571.803 568.002 572.699 567.757 573.563C567.522 574.416 567.192 575.179 566.765 575.851C566.349 576.523 565.864 577.056 565.309 577.451C564.754 577.845 564.157 578.043 563.517 578.043ZM563.821 577.291C564.088 577.291 564.333 577.157 564.557 576.891C564.792 576.613 565.005 576.24 565.197 575.771C565.389 575.301 565.554 574.773 565.693 574.187C565.842 573.589 565.954 572.971 566.029 572.331C566.104 571.68 566.141 571.04 566.141 570.411C566.141 569.621 566.061 569.008 565.901 568.571C565.752 568.133 565.49 567.915 565.117 567.915C564.786 567.915 564.477 568.123 564.189 568.539C563.912 568.944 563.666 569.488 563.453 570.171C563.25 570.843 563.09 571.584 562.973 572.395C562.856 573.195 562.797 573.989 562.797 574.779C562.797 575.568 562.872 576.187 563.021 576.635C563.181 577.072 563.448 577.291 563.821 577.291Z" fill="black"/>
<path d="M653.946 546.973V561.079" stroke="black" stroke-width="0.935277"/>
<path d="M648.778 578.043C647.85 578.043 647.093 577.835 646.506 577.419C645.92 577.003 645.626 576.432 645.626 575.707C645.626 575.045 645.861 574.475 646.33 573.995C646.8 573.515 647.456 573.061 648.298 572.635C647.776 572.24 647.408 571.861 647.194 571.499C646.992 571.125 646.89 570.709 646.89 570.251C646.89 569.685 647.045 569.168 647.354 568.699C647.674 568.229 648.101 567.856 648.634 567.579C649.178 567.301 649.776 567.163 650.426 567.163C650.992 567.163 651.482 567.264 651.898 567.467C652.314 567.669 652.64 567.952 652.874 568.315C653.109 568.667 653.226 569.067 653.226 569.515C653.226 570.037 653.029 570.507 652.634 570.923C652.24 571.328 651.632 571.717 650.81 572.091C651.514 572.581 651.989 573.051 652.234 573.499C652.48 573.936 652.602 574.405 652.602 574.907C652.602 575.504 652.432 576.037 652.09 576.507C651.749 576.976 651.29 577.349 650.714 577.627C650.138 577.904 649.493 578.043 648.778 578.043ZM648.714 569.547C648.714 569.888 648.805 570.235 648.986 570.587C649.178 570.928 649.589 571.301 650.218 571.707C650.602 571.461 650.901 571.232 651.114 571.019C651.338 570.795 651.493 570.56 651.578 570.315C651.674 570.069 651.722 569.776 651.722 569.435C651.722 568.923 651.594 568.533 651.338 568.267C651.082 568 650.736 567.867 650.298 567.867C649.765 567.867 649.365 568.032 649.098 568.363C648.842 568.693 648.714 569.088 648.714 569.547ZM647.21 575.563C647.21 576.128 647.365 576.571 647.674 576.891C647.984 577.2 648.41 577.355 648.954 577.355C649.52 577.355 649.968 577.189 650.298 576.859C650.64 576.517 650.81 576.075 650.81 575.531C650.81 575.179 650.741 574.875 650.602 574.619C650.474 574.352 650.261 574.096 649.962 573.851C649.674 573.595 649.285 573.307 648.794 572.987C648.368 573.296 648.037 573.579 647.802 573.835C647.578 574.08 647.424 574.336 647.338 574.603C647.253 574.869 647.21 575.189 647.21 575.563ZM657.338 578.043C656.463 578.043 655.791 577.717 655.322 577.067C654.863 576.416 654.634 575.509 654.634 574.347C654.634 573.419 654.751 572.528 654.986 571.675C655.22 570.811 655.546 570.043 655.962 569.371C656.388 568.688 656.879 568.149 657.434 567.755C657.988 567.36 658.586 567.163 659.226 567.163C660.1 567.163 660.772 567.488 661.242 568.139C661.711 568.789 661.946 569.701 661.946 570.875C661.946 571.803 661.823 572.699 661.578 573.563C661.343 574.416 661.012 575.179 660.586 575.851C660.17 576.523 659.684 577.056 659.13 577.451C658.575 577.845 657.978 578.043 657.338 578.043ZM657.642 577.291C657.908 577.291 658.154 577.157 658.378 576.891C658.612 576.613 658.826 576.24 659.018 575.771C659.21 575.301 659.375 574.773 659.514 574.187C659.663 573.589 659.775 572.971 659.85 572.331C659.924 571.68 659.962 571.04 659.962 570.411C659.962 569.621 659.882 569.008 659.722 568.571C659.572 568.133 659.311 567.915 658.938 567.915C658.607 567.915 658.298 568.123 658.01 568.539C657.732 568.944 657.487 569.488 657.274 570.171C657.071 570.843 656.911 571.584 656.794 572.395C656.676 573.195 656.618 573.989 656.618 574.779C656.618 575.568 656.692 576.187 656.842 576.635C657.002 577.072 657.268 577.291 657.642 577.291Z" fill="black"/>
<path d="M747.767 546.973V561.079" stroke="black" stroke-width="0.935277"/>
<path d="M739.671 578.043L739.767 577.531C740.738 577.211 741.559 576.784 742.231 576.251C742.914 575.707 743.468 575.099 743.895 574.427C744.322 573.744 744.636 573.035 744.839 572.299C744.53 572.704 744.167 573.024 743.751 573.259C743.346 573.483 742.898 573.595 742.407 573.595C741.618 573.595 741.031 573.355 740.647 572.875C740.263 572.395 740.071 571.776 740.071 571.019C740.071 570.229 740.247 569.547 740.599 568.971C740.962 568.395 741.436 567.952 742.023 567.643C742.61 567.323 743.255 567.163 743.959 567.163C744.972 567.163 745.746 567.461 746.279 568.059C746.823 568.656 747.095 569.445 747.095 570.427C747.095 571.557 746.802 572.635 746.215 573.659C745.639 574.683 744.796 575.579 743.687 576.347C742.588 577.115 741.25 577.68 739.671 578.043ZM741.943 570.795C741.943 571.925 742.348 572.491 743.159 572.491C743.511 572.491 743.852 572.4 744.183 572.219C744.514 572.027 744.802 571.755 745.047 571.403C745.122 570.923 745.159 570.437 745.159 569.947C745.159 569.232 745.042 568.709 744.807 568.379C744.572 568.048 744.258 567.883 743.863 567.883C743.319 567.883 742.86 568.149 742.487 568.683C742.124 569.205 741.943 569.909 741.943 570.795ZM751.159 578.043C750.284 578.043 749.612 577.717 749.143 577.067C748.684 576.416 748.455 575.509 748.455 574.347C748.455 573.419 748.572 572.528 748.807 571.675C749.041 570.811 749.367 570.043 749.783 569.371C750.209 568.688 750.7 568.149 751.255 567.755C751.809 567.36 752.407 567.163 753.047 567.163C753.921 567.163 754.593 567.488 755.063 568.139C755.532 568.789 755.767 569.701 755.767 570.875C755.767 571.803 755.644 572.699 755.399 573.563C755.164 574.416 754.833 575.179 754.407 575.851C753.991 576.523 753.505 577.056 752.951 577.451C752.396 577.845 751.799 578.043 751.159 578.043ZM751.463 577.291C751.729 577.291 751.975 577.157 752.199 576.891C752.433 576.613 752.647 576.24 752.839 575.771C753.031 575.301 753.196 574.773 753.335 574.187C753.484 573.589 753.596 572.971 753.671 572.331C753.745 571.68 753.783 571.04 753.783 570.411C753.783 569.621 753.703 569.008 753.543 568.571C753.393 568.133 753.132 567.915 752.759 567.915C752.428 567.915 752.119 568.123 751.831 568.539C751.553 568.944 751.308 569.488 751.095 570.171C750.892 570.843 750.732 571.584 750.615 572.395C750.497 573.195 750.439 573.989 750.439 574.779C750.439 575.568 750.513 576.187 750.663 576.635C750.823 577.072 751.089 577.291 751.463 577.291Z" fill="black"/>
<path d="M841.587 546.973V561.079" stroke="black" stroke-width="0.935277"/>
<path d="M829.964 577.883L830.028 577.627L831.516 576.971L832.908 569.083L830.268 570.363L830.38 569.723L834.22 567.323H835.084L833.388 576.971L834.604 577.627L834.556 577.883H829.964ZM840.636 578.043C839.761 578.043 839.089 577.717 838.62 577.067C838.161 576.416 837.932 575.509 837.932 574.347C837.932 573.419 838.049 572.528 838.284 571.675C838.518 570.811 838.844 570.043 839.26 569.371C839.686 568.688 840.177 568.149 840.732 567.755C841.286 567.36 841.884 567.163 842.524 567.163C843.398 567.163 844.07 567.488 844.54 568.139C845.009 568.789 845.244 569.701 845.244 570.875C845.244 571.803 845.121 572.699 844.876 573.563C844.641 574.416 844.31 575.179 843.884 575.851C843.468 576.523 842.982 577.056 842.428 577.451C841.873 577.845 841.276 578.043 840.636 578.043ZM840.94 577.291C841.206 577.291 841.452 577.157 841.676 576.891C841.91 576.613 842.124 576.24 842.316 575.771C842.508 575.301 842.673 574.773 842.812 574.187C842.961 573.589 843.073 572.971 843.148 572.331C843.222 571.68 843.26 571.04 843.26 570.411C843.26 569.621 843.18 569.008 843.02 568.571C842.87 568.133 842.609 567.915 842.236 567.915C841.905 567.915 841.596 568.123 841.308 568.539C841.03 568.944 840.785 569.488 840.572 570.171C840.369 570.843 840.209 571.584 840.092 572.395C839.974 573.195 839.916 573.989 839.916 574.779C839.916 575.568 839.99 576.187 840.14 576.635C840.3 577.072 840.566 577.291 840.94 577.291ZM849.323 578.043C848.448 578.043 847.776 577.717 847.307 577.067C846.848 576.416 846.619 575.509 846.619 574.347C846.619 573.419 846.736 572.528 846.971 571.675C847.206 570.811 847.531 570.043 847.947 569.371C848.374 568.688 848.864 568.149 849.419 567.755C849.974 567.36 850.571 567.163 851.211 567.163C852.086 567.163 852.758 567.488 853.227 568.139C853.696 568.789 853.931 569.701 853.931 570.875C853.931 571.803 853.808 572.699 853.563 573.563C853.328 574.416 852.998 575.179 852.571 575.851C852.155 576.523 851.67 577.056 851.115 577.451C850.56 577.845 849.963 578.043 849.323 578.043ZM849.627 577.291C849.894 577.291 850.139 577.157 850.363 576.891C850.598 576.613 850.811 576.24 851.003 575.771C851.195 575.301 851.36 574.773 851.499 574.187C851.648 573.589 851.76 572.971 851.835 572.331C851.91 571.68 851.947 571.04 851.947 570.411C851.947 569.621 851.867 569.008 851.707 568.571C851.558 568.133 851.296 567.915 850.923 567.915C850.592 567.915 850.283 568.123 849.995 568.539C849.718 568.944 849.472 569.488 849.259 570.171C849.056 570.843 848.896 571.584 848.779 572.395C848.662 573.195 848.603 573.989 848.603 574.779C848.603 575.568 848.678 576.187 848.827 576.635C848.987 577.072 849.254 577.291 849.627 577.291Z" fill="black"/>
<path d="M45.0525 133.203L45.1165 132.947L46.6045 132.291L47.9965 124.403L45.3565 125.683L45.4685 125.043L49.3085 122.643H50.1725L48.4765 132.291L49.6925 132.947L49.6445 133.203H45.0525ZM55.724 133.363C54.8494 133.363 54.1774 133.038 53.708 132.387C53.2494 131.736 53.02 130.83 53.02 129.667C53.02 128.739 53.1374 127.848 53.372 126.995C53.6067 126.131 53.932 125.363 54.348 124.691C54.7747 124.008 55.2654 123.47 55.82 123.075C56.3747 122.68 56.972 122.483 57.612 122.483C58.4867 122.483 59.1587 122.808 59.628 123.459C60.0974 124.11 60.332 125.022 60.332 126.195C60.332 127.123 60.2094 128.019 59.964 128.883C59.7294 129.736 59.3987 130.499 58.972 131.171C58.556 131.843 58.0707 132.376 57.516 132.771C56.9614 133.166 56.364 133.363 55.724 133.363ZM56.028 132.611C56.2947 132.611 56.54 132.478 56.764 132.211C56.9987 131.934 57.212 131.56 57.404 131.091C57.596 130.622 57.7614 130.094 57.9 129.507C58.0494 128.91 58.1614 128.291 58.236 127.651C58.3107 127 58.348 126.36 58.348 125.731C58.348 124.942 58.268 124.328 58.108 123.891C57.9587 123.454 57.6974 123.235 57.324 123.235C56.9934 123.235 56.684 123.443 56.396 123.859C56.1187 124.264 55.8734 124.808 55.66 125.491C55.4574 126.163 55.2974 126.904 55.18 127.715C55.0627 128.515 55.004 129.31 55.004 130.099C55.004 130.888 55.0787 131.507 55.228 131.955C55.388 132.392 55.6547 132.611 56.028 132.611ZM64.4115 133.363C63.5369 133.363 62.8649 133.038 62.3955 132.387C61.9369 131.736 61.7075 130.83 61.7075 129.667C61.7075 128.739 61.8249 127.848 62.0595 126.995C62.2942 126.131 62.6195 125.363 63.0355 124.691C63.4622 124.008 63.9529 123.47 64.5075 123.075C65.0622 122.68 65.6595 122.483 66.2995 122.483C67.1742 122.483 67.8462 122.808 68.3155 123.459C68.7849 124.11 69.0195 125.022 69.0195 126.195C69.0195 127.123 68.8969 128.019 68.6515 128.883C68.4169 129.736 68.0862 130.499 67.6595 131.171C67.2435 131.843 66.7582 132.376 66.2035 132.771C65.6489 133.166 65.0515 133.363 64.4115 133.363ZM64.7155 132.611C64.9822 132.611 65.2275 132.478 65.4515 132.211C65.6862 131.934 65.8995 131.56 66.0915 131.091C66.2835 130.622 66.4489 130.094 66.5875 129.507C66.7369 128.91 66.8489 128.291 66.9235 127.651C66.9982 127 67.0355 126.36 67.0355 125.731C67.0355 124.942 66.9555 124.328 66.7955 123.891C66.6462 123.454 66.3849 123.235 66.0115 123.235C65.6809 123.235 65.3715 123.443 65.0835 123.859C64.8062 124.264 64.5609 124.808 64.3475 125.491C64.1449 126.163 63.9849 126.904 63.8675 127.715C63.7502 128.515 63.6915 129.31 63.6915 130.099C63.6915 130.888 63.7662 131.507 63.9155 131.955C64.0755 132.392 64.3422 132.611 64.7155 132.611Z" fill="black"/>
<path d="M91.2949 129.203L77.189 129.203" stroke="black" stroke-width="0.935277"/>
<path d="M55.852 216.906C54.924 216.906 54.1667 216.698 53.58 216.282C52.9934 215.866 52.7 215.295 52.7 214.57C52.7 213.909 52.9347 213.338 53.404 212.858C53.8734 212.378 54.5294 211.925 55.372 211.498C54.8494 211.103 54.4814 210.725 54.268 210.362C54.0654 209.989 53.964 209.573 53.964 209.114C53.964 208.549 54.1187 208.031 54.428 207.562C54.748 207.093 55.1747 206.719 55.708 206.442C56.252 206.165 56.8494 206.026 57.5 206.026C58.0654 206.026 58.556 206.127 58.972 206.33C59.388 206.533 59.7134 206.815 59.948 207.178C60.1827 207.53 60.3 207.93 60.3 208.378C60.3 208.901 60.1027 209.37 59.708 209.786C59.3134 210.191 58.7054 210.581 57.884 210.954C58.588 211.445 59.0627 211.914 59.308 212.362C59.5534 212.799 59.676 213.269 59.676 213.77C59.676 214.367 59.5054 214.901 59.164 215.37C58.8227 215.839 58.364 216.213 57.788 216.49C57.212 216.767 56.5667 216.906 55.852 216.906ZM55.788 208.41C55.788 208.751 55.8787 209.098 56.06 209.45C56.252 209.791 56.6627 210.165 57.292 210.57C57.676 210.325 57.9747 210.095 58.188 209.882C58.412 209.658 58.5667 209.423 58.652 209.178C58.748 208.933 58.796 208.639 58.796 208.298C58.796 207.786 58.668 207.397 58.412 207.13C58.156 206.863 57.8094 206.73 57.372 206.73C56.8387 206.73 56.4387 206.895 56.172 207.226C55.916 207.557 55.788 207.951 55.788 208.41ZM54.284 214.426C54.284 214.991 54.4387 215.434 54.748 215.754C55.0574 216.063 55.484 216.218 56.028 216.218C56.5934 216.218 57.0414 216.053 57.372 215.722C57.7134 215.381 57.884 214.938 57.884 214.394C57.884 214.042 57.8147 213.738 57.676 213.482C57.548 213.215 57.3347 212.959 57.036 212.714C56.748 212.458 56.3587 212.17 55.868 211.85C55.4414 212.159 55.1107 212.442 54.876 212.698C54.652 212.943 54.4974 213.199 54.412 213.466C54.3267 213.733 54.284 214.053 54.284 214.426ZM64.4115 216.906C63.5369 216.906 62.8649 216.581 62.3955 215.93C61.9369 215.279 61.7075 214.373 61.7075 213.21C61.7075 212.282 61.8249 211.391 62.0595 210.538C62.2942 209.674 62.6195 208.906 63.0355 208.234C63.4622 207.551 63.9529 207.013 64.5075 206.618C65.0622 206.223 65.6595 206.026 66.2995 206.026C67.1742 206.026 67.8462 206.351 68.3155 207.002C68.7849 207.653 69.0195 208.565 69.0195 209.738C69.0195 210.666 68.8969 211.562 68.6515 212.426C68.4169 213.279 68.0862 214.042 67.6595 214.714C67.2435 215.386 66.7582 215.919 66.2035 216.314C65.6489 216.709 65.0515 216.906 64.4115 216.906ZM64.7155 216.154C64.9822 216.154 65.2275 216.021 65.4515 215.754C65.6862 215.477 65.8995 215.103 66.0915 214.634C66.2835 214.165 66.4489 213.637 66.5875 213.05C66.7369 212.453 66.8489 211.834 66.9235 211.194C66.9982 210.543 67.0355 209.903 67.0355 209.274C67.0355 208.485 66.9555 207.871 66.7955 207.434C66.6462 206.997 66.3849 206.778 66.0115 206.778C65.6809 206.778 65.3715 206.986 65.0835 207.402C64.8062 207.807 64.5609 208.351 64.3475 209.034C64.1449 209.706 63.9849 210.447 63.8675 211.258C63.7502 212.058 63.6915 212.853 63.6915 213.642C63.6915 214.431 63.7662 215.05 63.9155 215.498C64.0755 215.935 64.3422 216.154 64.7155 216.154Z" fill="black"/>
<path d="M91.2949 212.746L77.189 212.746" stroke="black" stroke-width="0.935277"/>
<path d="M55.996 300.449C54.9827 300.449 54.2094 300.15 53.676 299.553C53.1427 298.956 52.876 298.166 52.876 297.185C52.876 296.054 53.164 294.977 53.74 293.953C54.316 292.929 55.1534 292.033 56.252 291.265C57.3614 290.497 58.7107 289.932 60.3 289.569L60.204 290.081C59.2334 290.401 58.4014 290.833 57.708 291.377C57.0254 291.91 56.4707 292.524 56.044 293.217C55.6174 293.9 55.3027 294.609 55.1 295.345C55.42 294.929 55.7827 294.604 56.188 294.369C56.604 294.134 57.0574 294.017 57.548 294.017C58.3374 294.017 58.924 294.257 59.308 294.737C59.7027 295.217 59.9 295.836 59.9 296.593C59.9 297.382 59.7187 298.065 59.356 298.641C59.004 299.217 58.5294 299.665 57.932 299.985C57.3454 300.294 56.7 300.449 55.996 300.449ZM54.796 297.665C54.796 298.38 54.9134 298.902 55.148 299.233C55.3827 299.564 55.7027 299.729 56.108 299.729C56.652 299.729 57.1054 299.468 57.468 298.945C57.8307 298.412 58.012 297.702 58.012 296.817C58.012 295.686 57.612 295.121 56.812 295.121C56.46 295.121 56.1134 295.217 55.772 295.409C55.4414 295.601 55.1534 295.873 54.908 296.225C54.8334 296.705 54.796 297.185 54.796 297.665ZM64.4115 300.449C63.5369 300.449 62.8649 300.124 62.3955 299.473C61.9369 298.822 61.7075 297.916 61.7075 296.753C61.7075 295.825 61.8249 294.934 62.0595 294.081C62.2942 293.217 62.6195 292.449 63.0355 291.777C63.4622 291.094 63.9529 290.556 64.5075 290.161C65.0622 289.766 65.6595 289.569 66.2995 289.569C67.1742 289.569 67.8462 289.894 68.3155 290.545C68.7849 291.196 69.0195 292.108 69.0195 293.281C69.0195 294.209 68.8969 295.105 68.6515 295.969C68.4169 296.822 68.0862 297.585 67.6595 298.257C67.2435 298.929 66.7582 299.462 66.2035 299.857C65.6489 300.252 65.0515 300.449 64.4115 300.449ZM64.7155 299.697C64.9822 299.697 65.2275 299.564 65.4515 299.297C65.6862 299.02 65.8995 298.646 66.0915 298.177C66.2835 297.708 66.4489 297.18 66.5875 296.593C66.7369 295.996 66.8489 295.377 66.9235 294.737C66.9982 294.086 67.0355 293.446 67.0355 292.817C67.0355 292.028 66.9555 291.414 66.7955 290.977C66.6462 290.54 66.3849 290.321 66.0115 290.321C65.6809 290.321 65.3715 290.529 65.0835 290.945C64.8062 291.35 64.5609 291.894 64.3475 292.577C64.1449 293.249 63.9849 293.99 63.8675 294.801C63.7502 295.601 63.6915 296.396 63.6915 297.185C63.6915 297.974 63.7662 298.593 63.9155 299.041C64.0755 299.478 64.3422 299.697 64.7155 299.697Z" fill="black"/>
<path d="M91.2949 296.289L77.189 296.289" stroke="black" stroke-width="0.935277"/>
<path d="M55.916 383.828L56.428 380.948H52.348L52.444 380.5L58.86 373.268H59.66L58.508 379.796H60.268L60.092 380.948H58.316L57.804 383.828H55.916ZM53.996 379.796H56.62L57.292 375.988L53.996 379.796ZM64.4115 383.988C63.5369 383.988 62.8649 383.663 62.3955 383.012C61.9369 382.361 61.7075 381.455 61.7075 380.292C61.7075 379.364 61.8249 378.473 62.0595 377.62C62.2942 376.756 62.6195 375.988 63.0355 375.316C63.4622 374.633 63.9529 374.095 64.5075 373.7C65.0622 373.305 65.6595 373.108 66.2995 373.108C67.1742 373.108 67.8462 373.433 68.3155 374.084C68.7849 374.735 69.0195 375.647 69.0195 376.82C69.0195 377.748 68.8969 378.644 68.6515 379.508C68.4169 380.361 68.0862 381.124 67.6595 381.796C67.2435 382.468 66.7582 383.001 66.2035 383.396C65.6489 383.791 65.0515 383.988 64.4115 383.988ZM64.7155 383.236C64.9822 383.236 65.2275 383.103 65.4515 382.836C65.6862 382.559 65.8995 382.185 66.0915 381.716C66.2835 381.247 66.4489 380.719 66.5875 380.132C66.7369 379.535 66.8489 378.916 66.9235 378.276C66.9982 377.625 67.0355 376.985 67.0355 376.356C67.0355 375.567 66.9555 374.953 66.7955 374.516C66.6462 374.079 66.3849 373.86 66.0115 373.86C65.6809 373.86 65.3715 374.068 65.0835 374.484C64.8062 374.889 64.5609 375.433 64.3475 376.116C64.1449 376.788 63.9849 377.529 63.8675 378.34C63.7502 379.14 63.6915 379.935 63.6915 380.724C63.6915 381.513 63.7662 382.132 63.9155 382.58C64.0755 383.017 64.3422 383.236 64.7155 383.236Z" fill="black"/>
<path d="M91.2949 379.828L77.189 379.828" stroke="black" stroke-width="0.935277"/>
<path d="M52.476 467.371L52.588 466.827C53.6227 465.814 54.4814 464.944 55.164 464.219C55.8574 463.483 56.4174 462.859 56.844 462.347C57.2707 461.824 57.5907 461.376 57.804 461.003C58.0174 460.619 58.1614 460.267 58.236 459.947C58.3107 459.627 58.348 459.302 58.348 458.971C58.348 458.512 58.2147 458.144 57.948 457.867C57.6814 457.59 57.34 457.451 56.924 457.451C56.4547 457.451 56.0867 457.606 55.82 457.915C55.564 458.224 55.388 458.672 55.292 459.259L55.18 459.883L55.02 460.059H54.204C54.0014 460.059 53.852 460.038 53.756 459.995C53.6707 459.942 53.6547 459.766 53.708 459.467C53.7507 459.168 53.868 458.859 54.06 458.539C54.252 458.219 54.5614 457.915 54.988 457.627C55.2547 457.446 55.5107 457.28 55.756 457.131C56.0014 456.982 56.2787 456.864 56.588 456.779C56.8974 456.694 57.276 456.651 57.724 456.651C58.2147 456.651 58.652 456.752 59.036 456.955C59.4307 457.147 59.74 457.424 59.964 457.787C60.1987 458.139 60.316 458.544 60.316 459.003C60.316 459.419 60.236 459.824 60.076 460.219C59.916 460.603 59.628 461.04 59.212 461.531C58.796 462.011 58.2094 462.592 57.452 463.275C56.7054 463.958 55.7454 464.8 54.572 465.803H58.348L59.468 464.139H59.724L59.036 467.371H52.476ZM64.4115 467.531C63.5369 467.531 62.8649 467.206 62.3955 466.555C61.9369 465.904 61.7075 464.998 61.7075 463.835C61.7075 462.907 61.8249 462.016 62.0595 461.163C62.2942 460.299 62.6195 459.531 63.0355 458.859C63.4622 458.176 63.9529 457.638 64.5075 457.243C65.0622 456.848 65.6595 456.651 66.2995 456.651C67.1742 456.651 67.8462 456.976 68.3155 457.627C68.7849 458.278 69.0195 459.19 69.0195 460.363C69.0195 461.291 68.8969 462.187 68.6515 463.051C68.4169 463.904 68.0862 464.667 67.6595 465.339C67.2435 466.011 66.7582 466.544 66.2035 466.939C65.6489 467.334 65.0515 467.531 64.4115 467.531ZM64.7155 466.779C64.9822 466.779 65.2275 466.646 65.4515 466.379C65.6862 466.102 65.8995 465.728 66.0915 465.259C66.2835 464.79 66.4489 464.262 66.5875 463.675C66.7369 463.078 66.8489 462.459 66.9235 461.819C66.9982 461.168 67.0355 460.528 67.0355 459.899C67.0355 459.11 66.9555 458.496 66.7955 458.059C66.6462 457.622 66.3849 457.403 66.0115 457.403C65.6809 457.403 65.3715 457.611 65.0835 458.027C64.8062 458.432 64.5609 458.976 64.3475 459.659C64.1449 460.331 63.9849 461.072 63.8675 461.883C63.7502 462.683 63.6915 463.478 63.6915 464.267C63.6915 465.056 63.7662 465.675 63.9155 466.123C64.0755 466.56 64.3422 466.779 64.7155 466.779Z" fill="black"/>
<path d="M91.2949 463.371L77.189 463.371" stroke="black" stroke-width="0.935277"/>
<path d="M64.4115 551.074C63.5369 551.074 62.8649 550.749 62.3955 550.098C61.9369 549.447 61.7075 548.541 61.7075 547.378C61.7075 546.45 61.8249 545.559 62.0595 544.706C62.2942 543.842 62.6195 543.074 63.0355 542.402C63.4622 541.719 63.9529 541.181 64.5075 540.786C65.0622 540.391 65.6595 540.194 66.2995 540.194C67.1742 540.194 67.8462 540.519 68.3155 541.17C68.7849 541.821 69.0195 542.733 69.0195 543.906C69.0195 544.834 68.8969 545.73 68.6515 546.594C68.4169 547.447 68.0862 548.21 67.6595 548.882C67.2435 549.554 66.7582 550.087 66.2035 550.482C65.6489 550.877 65.0515 551.074 64.4115 551.074ZM64.7155 550.322C64.9822 550.322 65.2275 550.189 65.4515 549.922C65.6862 549.645 65.8995 549.271 66.0915 548.802C66.2835 548.333 66.4489 547.805 66.5875 547.218C66.7369 546.621 66.8489 546.002 66.9235 545.362C66.9982 544.711 67.0355 544.071 67.0355 543.442C67.0355 542.653 66.9555 542.039 66.7955 541.602C66.6462 541.165 66.3849 540.946 66.0115 540.946C65.6809 540.946 65.3715 541.154 65.0835 541.57C64.8062 541.975 64.5609 542.519 64.3475 543.202C64.1449 543.874 63.9849 544.615 63.8675 545.426C63.7502 546.226 63.6915 547.021 63.6915 547.81C63.6915 548.599 63.7662 549.218 63.9155 549.666C64.0755 550.103 64.3422 550.322 64.7155 550.322Z" fill="black"/>
<path d="M91.2949 546.914L77.189 546.914" stroke="black" stroke-width="0.935277"/>
<path d="M386.869 57.618C386.029 57.618 385.309 57.538 384.709 57.378C384.123 57.218 383.516 56.9846 382.889 56.678L382.689 53.378H383.009L384.069 55.558C384.536 55.9446 384.996 56.2246 385.449 56.398C385.903 56.5713 386.356 56.658 386.809 56.658C387.583 56.658 388.189 56.458 388.629 56.058C389.083 55.658 389.309 55.1113 389.309 54.418C389.309 53.8713 389.183 53.438 388.929 53.118C388.689 52.7846 388.323 52.4913 387.829 52.238C387.349 51.9713 386.756 51.6646 386.049 51.318C385.103 50.8646 384.376 50.3913 383.869 49.898C383.363 49.3913 383.109 48.6846 383.109 47.778C383.109 47.298 383.223 46.838 383.449 46.398C383.689 45.9446 384.009 45.5446 384.409 45.198C384.809 44.838 385.256 44.5513 385.749 44.338C386.243 44.1246 386.756 44.018 387.289 44.018C387.916 44.018 388.503 44.0913 389.049 44.238C389.596 44.3846 390.136 44.598 390.669 44.878L390.869 48.078H390.549L389.509 45.938C389.083 45.6046 388.696 45.3646 388.349 45.218C388.003 45.0713 387.609 44.998 387.169 44.998C386.596 44.998 386.116 45.1913 385.729 45.578C385.356 45.9646 385.169 46.4513 385.169 47.038C385.169 47.6913 385.369 48.2046 385.769 48.578C386.183 48.9513 386.843 49.3513 387.749 49.778C388.549 50.1646 389.209 50.538 389.729 50.898C390.263 51.2446 390.656 51.638 390.909 52.078C391.163 52.518 391.289 53.078 391.289 53.758C391.289 54.3846 391.156 54.938 390.889 55.418C390.623 55.898 390.269 56.3046 389.829 56.638C389.389 56.958 388.909 57.2046 388.389 57.378C387.883 57.538 387.376 57.618 386.869 57.618ZM401.55 57.618C400.523 57.618 399.603 57.4313 398.79 57.058C397.976 56.6846 397.336 56.098 396.87 55.298C396.416 54.498 396.19 53.4513 396.19 52.158V45.338L394.57 44.538V44.218H399.91V44.538L398.29 45.338V51.938C398.29 53.0446 398.463 53.9246 398.81 54.578C399.156 55.218 399.623 55.678 400.21 55.958C400.796 56.238 401.456 56.378 402.19 56.378C402.776 56.378 403.316 56.258 403.81 56.018C404.316 55.7646 404.716 55.3646 405.01 54.818C405.316 54.258 405.47 53.5313 405.47 52.638V45.298L403.51 44.538V44.218H408.49V44.538L406.87 45.318V52.158C406.87 53.4513 406.636 54.498 406.17 55.298C405.716 56.098 405.09 56.6846 404.29 57.058C403.49 57.4313 402.576 57.618 401.55 57.618ZM411.898 57.418V57.098L413.518 56.298V45.338L411.898 44.538V44.218H417.458C418.858 44.218 419.958 44.5113 420.758 45.098C421.571 45.6713 421.978 46.4646 421.978 47.478C421.978 48.2246 421.725 48.8846 421.218 49.458C420.711 50.0313 420.045 50.4713 419.218 50.778L422.998 56.358L424.338 57.098V57.418H421.118L417.278 51.338H415.618V56.278L417.118 57.098V57.418H411.898ZM416.798 45.318H415.618V50.278H416.918C417.745 50.278 418.425 50.0446 418.958 49.578C419.505 49.098 419.778 48.4913 419.778 47.758C419.778 46.998 419.511 46.4046 418.978 45.978C418.458 45.538 417.731 45.318 416.798 45.318ZM431.748 57.518L426.628 45.258L425.248 44.538V44.218H430.548V44.538L428.808 45.298L432.548 54.298H432.648L436.348 45.238L434.688 44.538V44.218H438.908V44.538L437.768 45.158L432.548 57.518H431.748ZM441.829 57.418V57.098L443.469 56.298V45.338L441.829 44.538V44.218H447.169V44.538L445.549 45.338V56.298L447.169 57.098V57.418H441.829ZM456.56 57.518L451.44 45.258L450.06 44.538V44.218H455.36V44.538L453.62 45.298L457.36 54.298H457.46L461.16 45.238L459.5 44.538V44.218H463.72V44.538L462.58 45.158L457.36 57.518H456.56ZM464.302 57.418V57.098L465.562 56.438L470.702 44.118H471.802L476.882 56.378L478.222 57.098V57.418H472.942V57.098L474.702 56.398L473.222 52.798H468.402L466.942 56.418L468.622 57.098V57.418H464.302ZM468.862 51.698H472.782L470.822 46.878L468.862 51.698ZM481.019 57.418V57.098L482.639 56.298V45.338L481.019 44.538V44.218H486.559V44.538L484.739 45.338V56.318H489.479L490.899 52.878H491.219V57.418H481.019ZM500.734 57.418V57.098L502.354 56.298V45.338L500.734 44.538V44.218H506.294C507.694 44.218 508.794 44.5113 509.594 45.098C510.407 45.6713 510.814 46.4646 510.814 47.478C510.814 48.2246 510.56 48.8846 510.054 49.458C509.547 50.0313 508.88 50.4713 508.054 50.778L511.834 56.358L513.174 57.098V57.418H509.954L506.114 51.338H504.454V56.278L505.954 57.098V57.418H500.734ZM505.634 45.318H504.454V50.278H505.754C506.58 50.278 507.26 50.0446 507.794 49.578C508.34 49.098 508.614 48.4913 508.614 47.758C508.614 46.998 508.347 46.4046 507.814 45.978C507.294 45.538 506.567 45.318 505.634 45.318ZM514.552 57.418V57.098L515.812 56.438L520.952 44.118H522.052L527.132 56.378L528.472 57.098V57.418H523.192V57.098L524.952 56.398L523.472 52.798H518.652L517.192 56.418L518.872 57.098V57.418H514.552ZM519.112 51.698H523.032L521.072 46.878L519.112 51.698ZM533.184 57.418V57.098L535.204 56.298V45.318H532.044L530.624 48.338H530.304V44.218H542.184V48.338H541.864L540.464 45.318H537.284V56.298L539.324 57.098V57.418H533.184ZM545.238 57.418V57.098L546.858 56.298V45.338L545.238 44.538V44.218H555.278V47.658H554.958L553.658 45.318H548.958V50.058H552.278L553.298 48.378H553.618V52.798H553.298L552.278 51.158H548.958V56.318H554.198L555.518 53.678H555.838V57.418H545.238ZM563.541 57.618C562.701 57.618 561.981 57.538 561.381 57.378C560.795 57.218 560.188 56.9846 559.561 56.678L559.361 53.378H559.681L560.741 55.558C561.208 55.9446 561.668 56.2246 562.121 56.398C562.575 56.5713 563.028 56.658 563.481 56.658C564.255 56.658 564.861 56.458 565.301 56.058C565.755 55.658 565.981 55.1113 565.981 54.418C565.981 53.8713 565.855 53.438 565.601 53.118C565.361 52.7846 564.995 52.4913 564.501 52.238C564.021 51.9713 563.428 51.6646 562.721 51.318C561.775 50.8646 561.048 50.3913 560.541 49.898C560.035 49.3913 559.781 48.6846 559.781 47.778C559.781 47.298 559.895 46.838 560.121 46.398C560.361 45.9446 560.681 45.5446 561.081 45.198C561.481 44.838 561.928 44.5513 562.421 44.338C562.915 44.1246 563.428 44.018 563.961 44.018C564.588 44.018 565.175 44.0913 565.721 44.238C566.268 44.3846 566.808 44.598 567.341 44.878L567.541 48.078H567.221L566.181 45.938C565.755 45.6046 565.368 45.3646 565.021 45.218C564.675 45.0713 564.281 44.998 563.841 44.998C563.268 44.998 562.788 45.1913 562.401 45.578C562.028 45.9646 561.841 46.4513 561.841 47.038C561.841 47.6913 562.041 48.2046 562.441 48.578C562.855 48.9513 563.515 49.3513 564.421 49.778C565.221 50.1646 565.881 50.538 566.401 50.898C566.935 51.2446 567.328 51.638 567.581 52.078C567.835 52.518 567.961 53.078 567.961 53.758C567.961 54.3846 567.828 54.938 567.561 55.418C567.295 55.898 566.941 56.3046 566.501 56.638C566.061 56.958 565.581 57.2046 565.061 57.378C564.555 57.538 564.048 57.618 563.541 57.618Z" fill="black"/>
<path d="M381.549 60.318H569.041V61.318H381.549V60.318Z" fill="black"/>
<path d="M20.2949 355.856H20.0389L19.3829 354.496H10.6469L9.99092 355.856H9.73492V350.32C9.73492 349.061 9.96425 348.053 10.4229 347.296C10.8709 346.528 11.5909 346.144 12.5829 346.144C13.1803 346.144 13.7083 346.347 14.1669 346.752C14.6149 347.147 14.9669 347.685 15.2229 348.368C15.4683 349.051 15.5909 349.829 15.5909 350.704V352.08H19.3829L20.0389 350.448H20.2949V355.856ZM10.6149 352.08H14.8069V351.312C14.8069 350.459 14.6096 349.792 14.2149 349.312C13.8203 348.832 13.3243 348.592 12.7269 348.592C11.9803 348.592 11.4416 348.837 11.1109 349.328C10.7803 349.819 10.6149 350.512 10.6149 351.408V352.08ZM20.2949 344.119H20.0389L19.3829 342.759H10.6469L9.99092 344.119H9.73492L9.73492 335.399H12.5029V335.655L10.6149 336.839L10.6149 340.343H14.4069V337.879L13.0309 336.983V336.727H16.6309V336.983L15.2869 337.879V340.343H19.4149V336.455L17.0309 335.207V334.951H20.2949V344.119ZM20.2949 332.428H20.0389L19.3829 331.068H10.6469L9.99092 332.428H9.73492V326.956C9.73492 325.836 9.96959 324.956 10.4389 324.316C10.8976 323.665 11.5323 323.34 12.3429 323.34C12.9296 323.34 13.4363 323.537 13.8629 323.932C14.2789 324.327 14.6096 324.844 14.8549 325.484L19.3989 322.524L20.0389 321.372H20.2949V324.844L15.3989 327.804V328.652H19.3669L20.0389 327.452H20.2949V332.428ZM10.6149 328.012V328.652H14.6149V327.916C14.6149 327.255 14.4283 326.732 14.0549 326.348C13.6816 325.964 13.1963 325.772 12.5989 325.772C11.9696 325.772 11.4843 325.964 11.1429 326.348C10.7909 326.721 10.6149 327.276 10.6149 328.012ZM20.4549 314.417C20.4549 315.537 20.2256 316.518 19.7669 317.361C19.3083 318.203 18.6896 318.859 17.9109 319.329C17.1216 319.787 16.2309 320.017 15.2389 320.017C14.4389 320.017 13.6976 319.857 13.0149 319.537C12.3323 319.217 11.7349 318.785 11.2229 318.241C10.7003 317.686 10.2949 317.062 10.0069 316.369C9.71892 315.665 9.57492 314.929 9.57492 314.161C9.57492 313.595 9.60692 313.126 9.67092 312.753C9.73492 312.379 9.82559 312.043 9.94292 311.745C10.0603 311.446 10.1936 311.147 10.3429 310.849L13.3349 310.673V310.961L10.8549 312.481C10.6843 312.747 10.5616 312.998 10.4869 313.233C10.4123 313.467 10.3749 313.75 10.3749 314.081C10.3749 314.731 10.5723 315.318 10.9669 315.841C11.3509 316.353 11.9003 316.758 12.6149 317.057C13.3189 317.355 14.1403 317.505 15.0789 317.505C16.0069 317.505 16.8123 317.361 17.4949 317.073C18.1669 316.785 18.6896 316.395 19.0629 315.905C19.4256 315.403 19.6069 314.843 19.6069 314.225C19.6069 313.83 19.5589 313.478 19.4629 313.169C19.3563 312.849 19.2229 312.545 19.0629 312.257L16.9189 310.817V310.545L19.6229 310.769C19.8789 311.206 20.0816 311.734 20.2309 312.353C20.3803 312.961 20.4549 313.649 20.4549 314.417ZM20.2949 307.922H20.0389L19.3829 306.562H10.6469L9.99092 307.922H9.73492V299.202H12.5029V299.458L10.6149 300.642V304.146H14.4069V301.682L13.0309 300.786V300.53H16.6309V300.786L15.2869 301.682V304.146H19.4149V300.258L17.0309 299.01V298.754H20.2949V307.922ZM20.2949 296.263H20.0389L19.3829 294.903H10.6629L9.99092 296.263H9.73492V293.223L16.7429 287.015H10.6309L9.99092 288.839H9.73492V284.551H9.99092L10.6469 285.895H20.3749V286.887L12.6629 293.783H19.3829L20.0389 291.959H20.2949V296.263ZM20.2949 280.369H20.0389L19.3829 278.673H10.6149L10.6149 280.961L13.2549 282.241V282.497H9.73492L9.73492 272.433H13.2549V272.689L10.6149 273.969V276.257H19.3829L20.0389 274.561H20.2949V280.369Z" fill="black"/>
<path d="M91.5898 546.797L91.5899 123.688" stroke="black" stroke-width="0.935277"/>
<path d="M184.842 547.273L184.842 128.582" stroke="black" stroke-width="0.446492" stroke-dasharray="1.87 1.87"/>
<path d="M91.5898 463.324L910.482 463.324" stroke="black" stroke-width="0.446492" stroke-dasharray="1.87 1.87"/>
<path d="M91.5898 379.793L910.482 379.793" stroke="black" stroke-width="0.446492" stroke-dasharray="1.87 1.87"/>
<path d="M91.5898 296.266L910.482 296.266" stroke="black" stroke-width="0.446492" stroke-dasharray="1.87 1.87"/>
<path d="M91.5898 212.734L910.482 212.734" stroke="black" stroke-width="0.446492" stroke-dasharray="1.87 1.87"/>
<path d="M91.5898 129.203L910.482 129.203" stroke="black" stroke-width="0.446492" stroke-dasharray="1.87 1.87"/>
<path d="M278.662 547.273L278.662 128.582" stroke="black" stroke-width="0.446492" stroke-dasharray="1.87 1.87"/>
<path d="M372.484 547.273L372.484 128.582" stroke="black" stroke-width="0.446492" stroke-dasharray="1.87 1.87"/>
<path d="M466.305 547.273L466.305 128.582" stroke="black" stroke-width="0.446492" stroke-dasharray="1.87 1.87"/>
<path d="M560.125 547.273L560.125 128.582" stroke="black" stroke-width="0.446492" stroke-dasharray="1.87 1.87"/>
<path d="M653.945 547.273L653.945 128.582" stroke="black" stroke-width="0.446492" stroke-dasharray="1.87 1.87"/>
<path d="M747.768 547.273L747.768 123.689" stroke="black" stroke-width="0.446492" stroke-dasharray="1.87 1.87"/>
<path d="M841.588 547.273L841.588 123.689" stroke="black" stroke-width="0.446492" stroke-dasharray="1.87 1.87"/>
<path d="M91.5898 546.914L910.482 546.914" stroke="black" stroke-width="0.935277"/>
<path d="M457.307 623.711V623.455L458.283 622.911L462.459 613.071H463.867L467.995 622.879L469.083 623.455V623.711H464.027V623.455L465.419 622.879L464.331 620.223H460.539L459.451 622.879L460.779 623.455V623.711H457.307ZM460.907 619.343H463.963L462.443 615.615L460.907 619.343ZM476.123 623.871C475.355 623.871 474.635 623.743 473.963 623.487C473.301 623.22 472.715 622.852 472.203 622.383C471.701 621.914 471.307 621.364 471.019 620.735C470.741 620.095 470.603 619.402 470.603 618.655C470.603 617.834 470.763 617.082 471.083 616.399C471.403 615.706 471.845 615.103 472.411 614.591C472.976 614.079 473.621 613.684 474.347 613.407C475.072 613.13 475.835 612.991 476.635 612.991C477.2 612.991 477.68 613.023 478.075 613.087C478.48 613.151 478.837 613.242 479.147 613.359C479.467 613.476 479.781 613.61 480.091 613.759L480.267 616.575H479.979L478.443 614.255C478.155 614.074 477.877 613.951 477.611 613.887C477.344 613.812 477.04 613.775 476.699 613.775C476.027 613.775 475.419 613.967 474.875 614.351C474.331 614.735 473.899 615.274 473.579 615.967C473.259 616.65 473.099 617.45 473.099 618.367C473.099 619.327 473.253 620.154 473.563 620.847C473.872 621.53 474.288 622.058 474.811 622.431C475.344 622.804 475.936 622.991 476.587 622.991C476.768 622.991 476.965 622.986 477.179 622.975C477.392 622.954 477.605 622.922 477.819 622.879V619.919L476.395 619.167V618.911H481.419V619.167L480.219 619.935V622.527C479.888 622.804 479.488 623.044 479.019 623.247C478.56 623.439 478.075 623.594 477.563 623.711C477.061 623.818 476.581 623.871 476.123 623.871ZM483.4 623.711V623.455L484.76 622.799V614.063L483.4 613.407V613.151H492.12V615.919H491.864L490.68 614.031H487.176V617.823H489.64L490.536 616.447H490.792V620.047H490.536L489.64 618.703H487.176V622.831H491.064L492.312 620.447H492.568V623.711H483.4Z" fill="black"/>
<path d="M93.0215 130.305C150.773 134.813 169.709 133.269 296.064 143.054C479.268 157.241 576.277 225.834 616.958 263.592C668.354 311.294 768.775 475.631 786.739 501.262C801.109 521.766 828.581 534.819 831.945 536.51C835.309 538.201 841.588 546.852 841.588 546.852" stroke="#FF84AB" stroke-width="3"/>
<path d="M93.0215 130.305C172.663 131.773 349.57 139.558 420.068 158.949C508.189 183.189 567.303 215.141 586.461 228.913C605.618 242.686 655.089 285.655 680.163 322.014C705.236 358.374 787.339 489.487 796.644 499.403C805.949 509.319 812.163 520.504 837.931 535.23" stroke="#3C4CA6" stroke-width="3" stroke-dasharray="5.36 5.36"/>
<rect x="752.049" y="159.758" width="167.352" height="104.642" fill="#FFF5E5"/>
<path d="M766.51 203.18H817.162" stroke="#FF84AB" stroke-width="3"/>
<path d="M767.132 184.031V183.839L768.14 183.347V176.795L767.132 176.303V176.111H770.648C771.2 176.111 771.696 176.179 772.136 176.315C772.576 176.443 772.92 176.639 773.168 176.903C773.424 177.159 773.552 177.487 773.552 177.887C773.552 178.295 773.404 178.671 773.108 179.015C772.82 179.351 772.404 179.591 771.86 179.735C772.604 179.839 773.188 180.063 773.612 180.407C774.044 180.751 774.26 181.191 774.26 181.727C774.26 182.167 774.116 182.563 773.828 182.915C773.54 183.259 773.144 183.531 772.64 183.731C772.136 183.931 771.564 184.031 770.924 184.031H767.132ZM770.18 176.771H769.64V179.639H770.252C770.796 179.639 771.22 179.515 771.524 179.267C771.836 179.019 771.992 178.675 771.992 178.235C771.992 177.259 771.388 176.771 770.18 176.771ZM770.624 180.251H769.64V183.371H770.708C771.308 183.371 771.78 183.227 772.124 182.939C772.476 182.643 772.652 182.263 772.652 181.799C772.652 181.271 772.476 180.883 772.124 180.635C771.772 180.379 771.272 180.251 770.624 180.251ZM775.482 184.031V183.839L776.226 183.431L779.334 176.051H780.174L783.246 183.407L784.062 183.839V184.031H780.606V183.839L781.65 183.419L780.798 181.331H777.918L777.078 183.419L778.074 183.839V184.031H775.482ZM778.194 180.671H780.522L779.358 177.803L778.194 180.671ZM788.162 184.151C787.65 184.151 787.202 184.103 786.818 184.007C786.442 183.903 786.066 183.755 785.69 183.563L785.57 181.559H785.786L786.518 182.939C787.014 183.347 787.534 183.551 788.078 183.551C788.526 183.551 788.886 183.443 789.158 183.227C789.43 183.003 789.566 182.687 789.566 182.279C789.566 181.975 789.494 181.731 789.35 181.547C789.214 181.355 789.002 181.183 788.714 181.031C788.426 180.871 788.05 180.687 787.586 180.479C787.026 180.207 786.594 179.915 786.29 179.603C785.986 179.283 785.834 178.855 785.834 178.319C785.834 178.015 785.91 177.723 786.062 177.443C786.214 177.163 786.414 176.915 786.662 176.699C786.918 176.483 787.202 176.311 787.514 176.183C787.834 176.055 788.162 175.991 788.498 175.991C788.898 175.991 789.27 176.039 789.614 176.135C789.966 176.223 790.302 176.351 790.622 176.519L790.742 178.439H790.538L789.806 177.119C789.574 176.943 789.358 176.811 789.158 176.723C788.958 176.635 788.73 176.591 788.474 176.591C788.138 176.591 787.858 176.703 787.634 176.927C787.418 177.151 787.31 177.435 787.31 177.779C787.31 178.139 787.43 178.431 787.67 178.655C787.91 178.871 788.31 179.111 788.87 179.375C789.358 179.599 789.758 179.819 790.07 180.035C790.382 180.251 790.614 180.495 790.766 180.767C790.918 181.039 790.994 181.375 790.994 181.775C790.994 182.159 790.91 182.499 790.742 182.795C790.582 183.083 790.362 183.331 790.082 183.539C789.81 183.739 789.506 183.891 789.17 183.995C788.834 184.099 788.498 184.151 788.162 184.151ZM792.826 184.031V183.839L793.834 183.347V176.795L792.826 176.303V176.111H799.102V178.187H798.91L798.082 176.771H795.334V179.615H797.266L797.914 178.595H798.106V181.271H797.914L797.266 180.275H795.334V183.371H798.382L799.246 181.691H799.438V184.031H792.826ZM801.454 184.031V183.839L802.462 183.347V176.795L801.454 176.303V176.111H805.09V176.303L803.962 176.795V183.371H806.722L807.634 181.211H807.826V184.031H801.454ZM809.731 184.031V183.839L810.727 183.347V176.795L809.731 176.303V176.111H813.235V176.303L812.239 176.795V183.347L813.235 183.839V184.031H809.731ZM815.098 184.031V183.839L816.094 183.347V176.807L815.11 176.303V176.111H817.174L821.806 181.583V176.771L820.51 176.303V176.111H823.63V176.303L822.646 176.783V184.091H822.022L816.934 178.115V183.359L818.242 183.839V184.031H815.098ZM825.367 184.031V183.839L826.375 183.347V176.795L825.367 176.303V176.111H831.643V178.187H831.451L830.623 176.771H827.875V179.615H829.807L830.455 178.595H830.647V181.271H830.455L829.807 180.275H827.875V183.371H830.923L831.787 181.691H831.979V184.031H825.367ZM767.132 196.031V195.647C767.796 194.903 768.344 194.279 768.776 193.775C769.216 193.271 769.56 192.847 769.808 192.503C770.064 192.159 770.252 191.859 770.372 191.603C770.492 191.347 770.568 191.099 770.6 190.859C770.632 190.611 770.648 190.335 770.648 190.031C770.648 189.607 770.544 189.259 770.336 188.987C770.128 188.715 769.844 188.579 769.484 188.579C768.668 188.579 768.26 189.031 768.26 189.935V190.487L768.188 190.583H767.48C767.32 190.583 767.2 190.555 767.12 190.499C767.04 190.443 767 190.303 767 190.079C767 189.855 767.068 189.631 767.204 189.407C767.348 189.175 767.568 188.951 767.864 188.735C768.072 188.591 768.272 188.463 768.464 188.351C768.656 188.239 768.868 188.151 769.1 188.087C769.34 188.023 769.62 187.991 769.94 187.991C770.388 187.991 770.784 188.087 771.128 188.279C771.48 188.471 771.752 188.727 771.944 189.047C772.144 189.367 772.244 189.723 772.244 190.115C772.244 190.371 772.212 190.607 772.148 190.823C772.092 191.039 771.988 191.263 771.836 191.495C771.684 191.727 771.468 191.991 771.188 192.287C770.916 192.583 770.568 192.939 770.144 193.355C769.72 193.763 769.2 194.255 768.584 194.831H771.632L772.292 193.655H772.484L772.364 196.031H767.132ZM776.757 196.151C776.165 196.151 775.657 195.987 775.233 195.659C774.809 195.331 774.485 194.863 774.261 194.255C774.045 193.639 773.937 192.911 773.937 192.071C773.937 191.287 774.057 190.591 774.297 189.983C774.537 189.367 774.865 188.883 775.281 188.531C775.705 188.171 776.197 187.991 776.757 187.991C777.349 187.991 777.857 188.155 778.281 188.483C778.705 188.811 779.025 189.283 779.241 189.899C779.465 190.507 779.577 191.231 779.577 192.071C779.577 192.855 779.457 193.555 779.217 194.171C778.977 194.779 778.645 195.263 778.221 195.623C777.797 195.975 777.309 196.151 776.757 196.151ZM776.973 195.575C777.205 195.575 777.397 195.439 777.549 195.167C777.709 194.895 777.829 194.523 777.909 194.051C777.989 193.579 778.029 193.043 778.029 192.443C778.029 191.699 777.977 191.035 777.873 190.451C777.769 189.859 777.609 189.395 777.393 189.059C777.185 188.723 776.913 188.555 776.577 188.555C776.345 188.555 776.145 188.687 775.977 188.951C775.817 189.215 775.693 189.583 775.605 190.055C775.525 190.519 775.485 191.059 775.485 191.675C775.485 192.427 775.537 193.099 775.641 193.691C775.745 194.275 775.905 194.735 776.121 195.071C776.345 195.407 776.629 195.575 776.973 195.575ZM781.199 196.031V195.647C781.863 194.903 782.411 194.279 782.843 193.775C783.283 193.271 783.627 192.847 783.875 192.503C784.131 192.159 784.319 191.859 784.439 191.603C784.559 191.347 784.635 191.099 784.667 190.859C784.699 190.611 784.715 190.335 784.715 190.031C784.715 189.607 784.611 189.259 784.403 188.987C784.195 188.715 783.911 188.579 783.551 188.579C782.735 188.579 782.327 189.031 782.327 189.935V190.487L782.255 190.583H781.547C781.387 190.583 781.267 190.555 781.187 190.499C781.107 190.443 781.067 190.303 781.067 190.079C781.067 189.855 781.135 189.631 781.271 189.407C781.415 189.175 781.635 188.951 781.931 188.735C782.139 188.591 782.339 188.463 782.531 188.351C782.723 188.239 782.935 188.151 783.167 188.087C783.407 188.023 783.687 187.991 784.007 187.991C784.455 187.991 784.851 188.087 785.195 188.279C785.547 188.471 785.819 188.727 786.011 189.047C786.211 189.367 786.311 189.723 786.311 190.115C786.311 190.371 786.279 190.607 786.215 190.823C786.159 191.039 786.055 191.263 785.903 191.495C785.751 191.727 785.535 191.991 785.255 192.287C784.983 192.583 784.635 192.939 784.211 193.355C783.787 193.763 783.267 194.255 782.651 194.831H785.699L786.359 193.655H786.551L786.431 196.031H781.199ZM790.189 196.151C789.757 196.151 789.385 196.099 789.073 195.995C788.769 195.883 788.541 195.723 788.389 195.515C788.325 195.443 788.293 195.363 788.293 195.275C788.293 195.171 788.365 195.063 788.509 194.951L789.049 194.531H789.193L789.325 194.783C789.453 195.031 789.613 195.227 789.805 195.371C789.997 195.515 790.253 195.587 790.573 195.587C791.005 195.587 791.361 195.431 791.641 195.119C791.929 194.799 792.073 194.379 792.073 193.859C792.073 193.499 792.001 193.183 791.857 192.911C791.713 192.631 791.473 192.411 791.137 192.251C790.809 192.091 790.369 192.011 789.817 192.011C789.633 192.011 789.449 192.023 789.265 192.047C789.081 192.063 788.881 192.087 788.665 192.119V188.111H792.757V189.203H789.277V190.835C789.405 190.827 789.537 190.819 789.673 190.811C789.809 190.803 789.957 190.799 790.117 190.799C790.893 190.799 791.517 190.915 791.989 191.147C792.469 191.379 792.817 191.683 793.033 192.059C793.257 192.435 793.369 192.847 793.369 193.295C793.369 193.855 793.233 194.351 792.961 194.783C792.689 195.215 792.313 195.551 791.833 195.791C791.353 196.031 790.805 196.151 790.189 196.151Z" fill="black"/>
<path d="M766.508 251.434H817.16" stroke="#3C4CA6" stroke-width="3" stroke-dasharray="5.36 5.36"/>
<path d="M771.284 232.554C770.7 232.554 770.16 232.454 769.664 232.254C769.168 232.046 768.736 231.762 768.368 231.402C768 231.034 767.712 230.602 767.504 230.106C767.304 229.61 767.204 229.066 767.204 228.474C767.204 227.882 767.304 227.338 767.504 226.842C767.712 226.346 768 225.918 768.368 225.558C768.736 225.19 769.168 224.906 769.664 224.706C770.16 224.498 770.7 224.394 771.284 224.394C771.876 224.394 772.42 224.498 772.916 224.706C773.412 224.906 773.844 225.19 774.212 225.558C774.58 225.918 774.864 226.346 775.064 226.842C775.272 227.338 775.376 227.882 775.376 228.474C775.376 229.066 775.272 229.61 775.064 230.106C774.864 230.602 774.58 231.034 774.212 231.402C773.844 231.762 773.412 232.046 772.916 232.254C772.42 232.454 771.876 232.554 771.284 232.554ZM771.5 231.942C771.948 231.942 772.34 231.814 772.676 231.558C773.02 231.302 773.288 230.942 773.48 230.478C773.672 230.014 773.768 229.466 773.768 228.834C773.768 228.058 773.648 227.382 773.408 226.806C773.176 226.23 772.856 225.786 772.448 225.474C772.048 225.154 771.6 224.994 771.104 224.994C770.664 224.994 770.268 225.122 769.916 225.378C769.572 225.626 769.3 225.982 769.1 226.446C768.9 226.91 768.8 227.458 768.8 228.09C768.8 228.866 768.92 229.542 769.16 230.118C769.4 230.694 769.724 231.142 770.132 231.462C770.548 231.782 771.004 231.942 771.5 231.942ZM777.247 232.434V232.242L778.243 231.75V225.21L777.259 224.706V224.514H779.323L783.955 229.986V225.174L782.659 224.706V224.514H785.779V224.706L784.795 225.186V232.494H784.171L779.083 226.518V231.762L780.391 232.242V232.434H777.247ZM787.515 232.434V232.242L788.523 231.75V225.198L787.515 224.706V224.514H793.791V226.59H793.599L792.771 225.174H790.023V228.018H791.955L792.603 226.998H792.795V229.674H792.603L791.955 228.678H790.023V231.774H793.071L793.935 230.094H794.127V232.434H787.515ZM801.771 232.434V232.242L802.851 231.75V228.738L800.211 225.138L799.431 224.706V224.514H802.815V224.706L801.915 225.138V225.186L804.027 228.054L805.935 225.21V225.162L805.023 224.706V224.514H807.675V224.706L806.907 225.102L804.363 228.726V231.75L805.431 232.242V232.434H801.771ZM809.214 232.434V232.242L810.222 231.75V225.198L809.214 224.706V224.514H815.49V226.59H815.298L814.47 225.174H811.722V228.018H813.654L814.302 226.998H814.494V229.674H814.302L813.654 228.678H811.722V231.774H814.77L815.634 230.094H815.826V232.434H809.214ZM817.517 232.434V232.242L818.261 231.834L821.369 224.454H822.209L825.281 231.81L826.097 232.242V232.434H822.641V232.242L823.685 231.822L822.833 229.734H819.953L819.113 231.822L820.109 232.242V232.434H817.517ZM820.229 229.074H822.557L821.393 226.206L820.229 229.074ZM827.605 232.434V232.242L828.613 231.75V225.198L827.605 224.706V224.514H831.301C832.141 224.514 832.801 224.69 833.281 225.042C833.769 225.386 834.013 225.862 834.013 226.47C834.013 226.918 833.861 227.31 833.557 227.646C833.261 227.974 832.869 228.23 832.381 228.414L834.625 231.786L835.465 232.242V232.434H833.221L830.953 228.774H830.113V231.738L831.013 232.242V232.434H827.605ZM830.725 225.174H830.113V228.162H830.797C831.293 228.162 831.693 228.022 831.997 227.742C832.309 227.462 832.465 227.098 832.465 226.65C832.465 226.186 832.313 225.826 832.009 225.57C831.705 225.306 831.277 225.174 830.725 225.174ZM842.8 232.554C842.288 232.554 841.84 232.506 841.456 232.41C841.08 232.306 840.704 232.158 840.328 231.966L840.208 229.962H840.424L841.156 231.342C841.652 231.75 842.172 231.954 842.716 231.954C843.164 231.954 843.524 231.846 843.796 231.63C844.068 231.406 844.204 231.09 844.204 230.682C844.204 230.378 844.132 230.134 843.988 229.95C843.852 229.758 843.64 229.586 843.352 229.434C843.064 229.274 842.688 229.09 842.224 228.882C841.664 228.61 841.232 228.318 840.928 228.006C840.624 227.686 840.472 227.258 840.472 226.722C840.472 226.418 840.548 226.126 840.7 225.846C840.852 225.566 841.052 225.318 841.3 225.102C841.556 224.886 841.84 224.714 842.152 224.586C842.472 224.458 842.8 224.394 843.136 224.394C843.536 224.394 843.908 224.442 844.252 224.538C844.604 224.626 844.94 224.754 845.26 224.922L845.38 226.842H845.176L844.444 225.522C844.212 225.346 843.996 225.214 843.796 225.126C843.596 225.038 843.368 224.994 843.112 224.994C842.776 224.994 842.496 225.106 842.272 225.33C842.056 225.554 841.948 225.838 841.948 226.182C841.948 226.542 842.068 226.834 842.308 227.058C842.548 227.274 842.948 227.514 843.508 227.778C843.996 228.002 844.396 228.222 844.708 228.438C845.02 228.654 845.252 228.898 845.404 229.17C845.556 229.442 845.632 229.778 845.632 230.178C845.632 230.562 845.548 230.902 845.38 231.198C845.22 231.486 845 231.734 844.72 231.942C844.448 232.142 844.144 232.294 843.808 232.398C843.472 232.502 843.136 232.554 842.8 232.554ZM847.464 232.434V232.242L848.472 231.75V225.198L847.464 224.706V224.514H850.92V224.706L849.972 225.198V228.018H853.608V225.198L852.66 224.706V224.514H856.104V224.706L855.12 225.198V231.75L856.104 232.242V232.434H852.66V232.242L853.608 231.75V228.678H849.972V231.75L850.92 232.242V232.434H847.464ZM858.014 232.434V232.242L859.01 231.75V225.198L858.014 224.706V224.514H861.518V224.706L860.522 225.198V231.75L861.518 232.242V232.434H858.014ZM863.418 232.434V232.242L864.426 231.75V225.198L863.418 224.706V224.514H869.574V226.59H869.382L868.59 225.174H865.926V228.042H867.738L868.386 227.022H868.578V229.65H868.386L867.738 228.654H865.926V231.75L867.102 232.242V232.434H863.418ZM873.018 232.434V232.242L874.266 231.75V225.174H872.454L871.554 227.058H871.362V224.514H878.682V227.058H878.49L877.59 225.174H875.778V231.75L877.014 232.242V232.434H873.018ZM767.132 244.434V244.05C767.796 243.306 768.344 242.682 768.776 242.178C769.216 241.674 769.56 241.25 769.808 240.906C770.064 240.562 770.252 240.262 770.372 240.006C770.492 239.75 770.568 239.502 770.6 239.262C770.632 239.014 770.648 238.738 770.648 238.434C770.648 238.01 770.544 237.662 770.336 237.39C770.128 237.118 769.844 236.982 769.484 236.982C768.668 236.982 768.26 237.434 768.26 238.338V238.89L768.188 238.986H767.48C767.32 238.986 767.2 238.958 767.12 238.902C767.04 238.846 767 238.706 767 238.482C767 238.258 767.068 238.034 767.204 237.81C767.348 237.578 767.568 237.354 767.864 237.138C768.072 236.994 768.272 236.866 768.464 236.754C768.656 236.642 768.868 236.554 769.1 236.49C769.34 236.426 769.62 236.394 769.94 236.394C770.388 236.394 770.784 236.49 771.128 236.682C771.48 236.874 771.752 237.13 771.944 237.45C772.144 237.77 772.244 238.126 772.244 238.518C772.244 238.774 772.212 239.01 772.148 239.226C772.092 239.442 771.988 239.666 771.836 239.898C771.684 240.13 771.468 240.394 771.188 240.69C770.916 240.986 770.568 241.342 770.144 241.758C769.72 242.166 769.2 242.658 768.584 243.234H771.632L772.292 242.058H772.484L772.364 244.434H767.132ZM776.757 244.554C776.165 244.554 775.657 244.39 775.233 244.062C774.809 243.734 774.485 243.266 774.261 242.658C774.045 242.042 773.937 241.314 773.937 240.474C773.937 239.69 774.057 238.994 774.297 238.386C774.537 237.77 774.865 237.286 775.281 236.934C775.705 236.574 776.197 236.394 776.757 236.394C777.349 236.394 777.857 236.558 778.281 236.886C778.705 237.214 779.025 237.686 779.241 238.302C779.465 238.91 779.577 239.634 779.577 240.474C779.577 241.258 779.457 241.958 779.217 242.574C778.977 243.182 778.645 243.666 778.221 244.026C777.797 244.378 777.309 244.554 776.757 244.554ZM776.973 243.978C777.205 243.978 777.397 243.842 777.549 243.57C777.709 243.298 777.829 242.926 777.909 242.454C777.989 241.982 778.029 241.446 778.029 240.846C778.029 240.102 777.977 239.438 777.873 238.854C777.769 238.262 777.609 237.798 777.393 237.462C777.185 237.126 776.913 236.958 776.577 236.958C776.345 236.958 776.145 237.09 775.977 237.354C775.817 237.618 775.693 237.986 775.605 238.458C775.525 238.922 775.485 239.462 775.485 240.078C775.485 240.83 775.537 241.502 775.641 242.094C775.745 242.678 775.905 243.138 776.121 243.474C776.345 243.81 776.629 243.978 776.973 243.978ZM781.199 244.434V244.05C781.863 243.306 782.411 242.682 782.843 242.178C783.283 241.674 783.627 241.25 783.875 240.906C784.131 240.562 784.319 240.262 784.439 240.006C784.559 239.75 784.635 239.502 784.667 239.262C784.699 239.014 784.715 238.738 784.715 238.434C784.715 238.01 784.611 237.662 784.403 237.39C784.195 237.118 783.911 236.982 783.551 236.982C782.735 236.982 782.327 237.434 782.327 238.338V238.89L782.255 238.986H781.547C781.387 238.986 781.267 238.958 781.187 238.902C781.107 238.846 781.067 238.706 781.067 238.482C781.067 238.258 781.135 238.034 781.271 237.81C781.415 237.578 781.635 237.354 781.931 237.138C782.139 236.994 782.339 236.866 782.531 236.754C782.723 236.642 782.935 236.554 783.167 236.49C783.407 236.426 783.687 236.394 784.007 236.394C784.455 236.394 784.851 236.49 785.195 236.682C785.547 236.874 785.819 237.13 786.011 237.45C786.211 237.77 786.311 238.126 786.311 238.518C786.311 238.774 786.279 239.01 786.215 239.226C786.159 239.442 786.055 239.666 785.903 239.898C785.751 240.13 785.535 240.394 785.255 240.69C784.983 240.986 784.635 241.342 784.211 241.758C783.787 242.166 783.267 242.658 782.651 243.234H785.699L786.359 242.058H786.551L786.431 244.434H781.199ZM790.189 244.554C789.757 244.554 789.385 244.502 789.073 244.398C788.769 244.286 788.541 244.126 788.389 243.918C788.325 243.846 788.293 243.766 788.293 243.678C788.293 243.574 788.365 243.466 788.509 243.354L789.049 242.934H789.193L789.325 243.186C789.453 243.434 789.613 243.63 789.805 243.774C789.997 243.918 790.253 243.99 790.573 243.99C791.005 243.99 791.361 243.834 791.641 243.522C791.929 243.202 792.073 242.782 792.073 242.262C792.073 241.902 792.001 241.586 791.857 241.314C791.713 241.034 791.473 240.814 791.137 240.654C790.809 240.494 790.369 240.414 789.817 240.414C789.633 240.414 789.449 240.426 789.265 240.45C789.081 240.466 788.881 240.49 788.665 240.522V236.514H792.757V237.606H789.277V239.238C789.405 239.23 789.537 239.222 789.673 239.214C789.809 239.206 789.957 239.202 790.117 239.202C790.893 239.202 791.517 239.318 791.989 239.55C792.469 239.782 792.817 240.086 793.033 240.462C793.257 240.838 793.369 241.25 793.369 241.698C793.369 242.258 793.233 242.754 792.961 243.186C792.689 243.618 792.313 243.954 791.833 244.194C791.353 244.434 790.805 244.554 790.189 244.554Z" fill="black"/>
</g>
<defs>
<clipPath id="clip0_1615_3855">
<rect width="950" height="650" fill="white" transform="translate(0.294922 0.203125)"/>
</clipPath>
</defs>
</svg>
