<svg width="951" height="651" viewBox="0 0 951 651" fill="none" xmlns="http://www.w3.org/2000/svg">
<g clip-path="url(#clip0_2147_11786)">
<path d="M184.842 546.973V561.079" stroke="black" stroke-width="0.935277"/>
<path d="M179.355 578.043C178.8 578.043 178.325 577.973 177.931 577.835C177.536 577.696 177.221 577.52 176.987 577.307C176.603 576.987 176.411 576.624 176.411 576.219C176.411 575.909 176.464 575.696 176.571 575.579C176.677 575.461 176.821 575.403 177.003 575.403H177.979L178.075 575.563L177.995 576.107C177.845 576.949 178.304 577.371 179.371 577.371C180.021 577.371 180.549 577.125 180.955 576.635C181.371 576.133 181.579 575.483 181.579 574.683C181.579 574.107 181.403 573.648 181.051 573.307C180.699 572.965 180.187 572.795 179.515 572.795H178.555L178.699 572.043H179.163C179.717 572.043 180.208 571.92 180.635 571.675C181.061 571.429 181.392 571.104 181.627 570.699C181.861 570.283 181.979 569.824 181.979 569.323C181.979 568.875 181.872 568.517 181.659 568.251C181.456 567.973 181.163 567.835 180.779 567.835C180.373 567.835 180.032 567.952 179.755 568.187C179.488 568.411 179.317 568.757 179.243 569.227L179.131 569.899L178.971 570.059H178.107C177.947 570.059 177.824 570.037 177.739 569.995C177.653 569.952 177.611 569.845 177.611 569.675C177.611 569.397 177.707 569.109 177.899 568.811C178.091 568.501 178.384 568.213 178.779 567.947C179.131 567.701 179.493 567.509 179.867 567.371C180.24 567.232 180.677 567.163 181.179 567.163C181.744 567.163 182.235 567.264 182.651 567.467C183.067 567.669 183.387 567.941 183.611 568.283C183.835 568.624 183.947 568.997 183.947 569.403C183.947 569.84 183.819 570.245 183.563 570.619C183.317 570.992 182.971 571.317 182.523 571.595C182.085 571.861 181.584 572.048 181.019 572.155C181.84 572.293 182.469 572.581 182.907 573.019C183.355 573.456 183.579 573.995 183.579 574.635C183.579 575.083 183.467 575.509 183.243 575.915C183.019 576.32 182.709 576.683 182.315 577.003C181.931 577.323 181.483 577.579 180.971 577.771C180.459 577.952 179.92 578.043 179.355 578.043ZM188.234 578.043C187.359 578.043 186.687 577.717 186.218 577.067C185.759 576.416 185.53 575.509 185.53 574.347C185.53 573.419 185.647 572.528 185.882 571.675C186.117 570.811 186.442 570.043 186.858 569.371C187.285 568.688 187.775 568.149 188.33 567.755C188.885 567.36 189.482 567.163 190.122 567.163C190.997 567.163 191.669 567.488 192.138 568.139C192.607 568.789 192.842 569.701 192.842 570.875C192.842 571.803 192.719 572.699 192.474 573.563C192.239 574.416 191.909 575.179 191.482 575.851C191.066 576.523 190.581 577.056 190.026 577.451C189.471 577.845 188.874 578.043 188.234 578.043ZM188.538 577.291C188.805 577.291 189.05 577.157 189.274 576.891C189.509 576.613 189.722 576.24 189.914 575.771C190.106 575.301 190.271 574.773 190.41 574.187C190.559 573.589 190.671 572.971 190.746 572.331C190.821 571.68 190.858 571.04 190.858 570.411C190.858 569.621 190.778 569.008 190.618 568.571C190.469 568.133 190.207 567.915 189.834 567.915C189.503 567.915 189.194 568.123 188.906 568.539C188.629 568.944 188.383 569.488 188.17 570.171C187.967 570.843 187.807 571.584 187.69 572.395C187.573 573.195 187.514 573.989 187.514 574.779C187.514 575.568 187.589 576.187 187.738 576.635C187.898 577.072 188.165 577.291 188.538 577.291Z" fill="black"/>
<path d="M278.663 546.973V561.079" stroke="black" stroke-width="0.935277"/>
<path d="M273.56 577.883L274.072 575.003H269.992L270.088 574.555L276.504 567.323H277.304L276.152 573.851H277.912L277.736 575.003H275.96L275.448 577.883H273.56ZM271.64 573.851H274.264L274.936 570.043L271.64 573.851ZM282.055 578.043C281.181 578.043 280.509 577.717 280.039 577.067C279.581 576.416 279.351 575.509 279.351 574.347C279.351 573.419 279.469 572.528 279.703 571.675C279.938 570.811 280.263 570.043 280.679 569.371C281.106 568.688 281.597 568.149 282.151 567.755C282.706 567.36 283.303 567.163 283.943 567.163C284.818 567.163 285.49 567.488 285.959 568.139C286.429 568.789 286.663 569.701 286.663 570.875C286.663 571.803 286.541 572.699 286.295 573.563C286.061 574.416 285.73 575.179 285.303 575.851C284.887 576.523 284.402 577.056 283.847 577.451C283.293 577.845 282.695 578.043 282.055 578.043ZM282.359 577.291C282.626 577.291 282.871 577.157 283.095 576.891C283.33 576.613 283.543 576.24 283.735 575.771C283.927 575.301 284.093 574.773 284.231 574.187C284.381 573.589 284.493 572.971 284.567 572.331C284.642 571.68 284.679 571.04 284.679 570.411C284.679 569.621 284.599 569.008 284.439 568.571C284.29 568.133 284.029 567.915 283.655 567.915C283.325 567.915 283.015 568.123 282.727 568.539C282.45 568.944 282.205 569.488 281.991 570.171C281.789 570.843 281.629 571.584 281.511 572.395C281.394 573.195 281.335 573.989 281.335 574.779C281.335 575.568 281.41 576.187 281.559 576.635C281.719 577.072 281.986 577.291 282.359 577.291Z" fill="black"/>
<path d="M372.483 546.973V561.079" stroke="black" stroke-width="0.935277"/>
<path d="M366.628 578.043C365.785 578.043 365.151 577.92 364.724 577.675C364.308 577.429 364.105 577.168 364.116 576.891C364.137 576.72 364.26 576.56 364.484 576.411L365.316 575.835H365.508L365.652 576.235C365.759 576.555 365.924 576.811 366.148 577.003C366.372 577.195 366.703 577.291 367.14 577.291C367.748 577.291 368.26 577.077 368.676 576.651C369.103 576.213 369.316 575.611 369.316 574.843C369.316 574.16 369.103 573.632 368.676 573.259C368.249 572.885 367.588 572.699 366.692 572.699C366.457 572.699 366.223 572.709 365.988 572.731C365.764 572.752 365.513 572.789 365.236 572.843L366.244 567.323H371.476L371.188 568.827H366.74L366.34 571.019C366.511 571.008 366.692 570.997 366.884 570.987C367.076 570.976 367.289 570.971 367.524 570.971C368.729 570.971 369.625 571.248 370.212 571.803C370.809 572.357 371.108 573.083 371.108 573.979C371.108 574.512 370.996 575.024 370.772 575.515C370.548 575.995 370.233 576.427 369.828 576.811C369.423 577.184 368.948 577.483 368.404 577.707C367.86 577.931 367.268 578.043 366.628 578.043ZM375.875 578.043C375.001 578.043 374.329 577.717 373.859 577.067C373.401 576.416 373.171 575.509 373.171 574.347C373.171 573.419 373.289 572.528 373.523 571.675C373.758 570.811 374.083 570.043 374.499 569.371C374.926 568.688 375.417 568.149 375.971 567.755C376.526 567.36 377.123 567.163 377.763 567.163C378.638 567.163 379.31 567.488 379.779 568.139C380.249 568.789 380.483 569.701 380.483 570.875C380.483 571.803 380.361 572.699 380.115 573.563C379.881 574.416 379.55 575.179 379.123 575.851C378.707 576.523 378.222 577.056 377.667 577.451C377.113 577.845 376.515 578.043 375.875 578.043ZM376.179 577.291C376.446 577.291 376.691 577.157 376.915 576.891C377.15 576.613 377.363 576.24 377.555 575.771C377.747 575.301 377.913 574.773 378.051 574.187C378.201 573.589 378.313 572.971 378.387 572.331C378.462 571.68 378.499 571.04 378.499 570.411C378.499 569.621 378.419 569.008 378.259 568.571C378.11 568.133 377.849 567.915 377.475 567.915C377.145 567.915 376.835 568.123 376.547 568.539C376.27 568.944 376.025 569.488 375.811 570.171C375.609 570.843 375.449 571.584 375.331 572.395C375.214 573.195 375.155 573.989 375.155 574.779C375.155 575.568 375.23 576.187 375.379 576.635C375.539 577.072 375.806 577.291 376.179 577.291Z" fill="black"/>
<path d="M466.305 546.973V561.079" stroke="black" stroke-width="0.935277"/>
<path d="M461.281 578.043C460.268 578.043 459.495 577.744 458.961 577.147C458.428 576.549 458.161 575.76 458.161 574.779C458.161 573.648 458.449 572.571 459.025 571.547C459.601 570.523 460.439 569.627 461.537 568.859C462.647 568.091 463.996 567.525 465.585 567.163L465.489 567.675C464.519 567.995 463.687 568.427 462.993 568.971C462.311 569.504 461.756 570.117 461.329 570.811C460.903 571.493 460.588 572.203 460.385 572.939C460.705 572.523 461.068 572.197 461.473 571.963C461.889 571.728 462.343 571.611 462.833 571.611C463.623 571.611 464.209 571.851 464.593 572.331C464.988 572.811 465.185 573.429 465.185 574.187C465.185 574.976 465.004 575.659 464.641 576.235C464.289 576.811 463.815 577.259 463.217 577.579C462.631 577.888 461.985 578.043 461.281 578.043ZM460.081 575.259C460.081 575.973 460.199 576.496 460.433 576.827C460.668 577.157 460.988 577.323 461.393 577.323C461.937 577.323 462.391 577.061 462.753 576.539C463.116 576.005 463.297 575.296 463.297 574.411C463.297 573.28 462.897 572.715 462.097 572.715C461.745 572.715 461.399 572.811 461.057 573.003C460.727 573.195 460.439 573.467 460.193 573.819C460.119 574.299 460.081 574.779 460.081 575.259ZM469.697 578.043C468.822 578.043 468.15 577.717 467.681 577.067C467.222 576.416 466.993 575.509 466.993 574.347C466.993 573.419 467.11 572.528 467.345 571.675C467.579 570.811 467.905 570.043 468.321 569.371C468.747 568.688 469.238 568.149 469.793 567.755C470.347 567.36 470.945 567.163 471.585 567.163C472.459 567.163 473.131 567.488 473.601 568.139C474.07 568.789 474.305 569.701 474.305 570.875C474.305 571.803 474.182 572.699 473.937 573.563C473.702 574.416 473.371 575.179 472.945 575.851C472.529 576.523 472.043 577.056 471.489 577.451C470.934 577.845 470.337 578.043 469.697 578.043ZM470.001 577.291C470.267 577.291 470.513 577.157 470.737 576.891C470.971 576.613 471.185 576.24 471.377 575.771C471.569 575.301 471.734 574.773 471.873 574.187C472.022 573.589 472.134 572.971 472.209 572.331C472.283 571.68 472.321 571.04 472.321 570.411C472.321 569.621 472.241 569.008 472.081 568.571C471.931 568.133 471.67 567.915 471.297 567.915C470.966 567.915 470.657 568.123 470.369 568.539C470.091 568.944 469.846 569.488 469.633 570.171C469.43 570.843 469.27 571.584 469.153 572.395C469.035 573.195 468.977 573.989 468.977 574.779C468.977 575.568 469.051 576.187 469.201 576.635C469.361 577.072 469.627 577.291 470.001 577.291Z" fill="black"/>
<path d="M560.125 546.973V561.079" stroke="black" stroke-width="0.935277"/>
<path d="M552.557 577.883C552.888 577.307 553.224 576.731 553.565 576.155C553.917 575.579 554.307 574.96 554.733 574.299C555.16 573.627 555.656 572.875 556.221 572.043C556.797 571.2 557.485 570.229 558.285 569.131H553.005L553.325 567.323H559.965L559.885 567.851C559.235 568.821 558.589 569.803 557.949 570.795C557.309 571.776 556.691 572.843 556.093 573.995C555.507 575.147 554.963 576.443 554.461 577.883H552.557ZM563.517 578.043C562.642 578.043 561.97 577.717 561.501 577.067C561.042 576.416 560.813 575.509 560.813 574.347C560.813 573.419 560.93 572.528 561.165 571.675C561.4 570.811 561.725 570.043 562.141 569.371C562.568 568.688 563.058 568.149 563.613 567.755C564.168 567.36 564.765 567.163 565.405 567.163C566.28 567.163 566.952 567.488 567.421 568.139C567.89 568.789 568.125 569.701 568.125 570.875C568.125 571.803 568.002 572.699 567.757 573.563C567.522 574.416 567.192 575.179 566.765 575.851C566.349 576.523 565.864 577.056 565.309 577.451C564.754 577.845 564.157 578.043 563.517 578.043ZM563.821 577.291C564.088 577.291 564.333 577.157 564.557 576.891C564.792 576.613 565.005 576.24 565.197 575.771C565.389 575.301 565.554 574.773 565.693 574.187C565.842 573.589 565.954 572.971 566.029 572.331C566.104 571.68 566.141 571.04 566.141 570.411C566.141 569.621 566.061 569.008 565.901 568.571C565.752 568.133 565.49 567.915 565.117 567.915C564.786 567.915 564.477 568.123 564.189 568.539C563.912 568.944 563.666 569.488 563.453 570.171C563.25 570.843 563.09 571.584 562.973 572.395C562.856 573.195 562.797 573.989 562.797 574.779C562.797 575.568 562.872 576.187 563.021 576.635C563.181 577.072 563.448 577.291 563.821 577.291Z" fill="black"/>
<path d="M653.946 546.973V561.079" stroke="black" stroke-width="0.935277"/>
<path d="M648.779 578.043C647.851 578.043 647.093 577.835 646.507 577.419C645.92 577.003 645.627 576.432 645.627 575.707C645.627 575.045 645.861 574.475 646.331 573.995C646.8 573.515 647.456 573.061 648.299 572.635C647.776 572.24 647.408 571.861 647.195 571.499C646.992 571.125 646.891 570.709 646.891 570.251C646.891 569.685 647.045 569.168 647.355 568.699C647.675 568.229 648.101 567.856 648.635 567.579C649.179 567.301 649.776 567.163 650.427 567.163C650.992 567.163 651.483 567.264 651.899 567.467C652.315 567.669 652.64 567.952 652.875 568.315C653.109 568.667 653.227 569.067 653.227 569.515C653.227 570.037 653.029 570.507 652.635 570.923C652.24 571.328 651.632 571.717 650.811 572.091C651.515 572.581 651.989 573.051 652.235 573.499C652.48 573.936 652.603 574.405 652.603 574.907C652.603 575.504 652.432 576.037 652.091 576.507C651.749 576.976 651.291 577.349 650.715 577.627C650.139 577.904 649.493 578.043 648.779 578.043ZM648.715 569.547C648.715 569.888 648.805 570.235 648.987 570.587C649.179 570.928 649.589 571.301 650.219 571.707C650.603 571.461 650.901 571.232 651.115 571.019C651.339 570.795 651.493 570.56 651.579 570.315C651.675 570.069 651.723 569.776 651.723 569.435C651.723 568.923 651.595 568.533 651.339 568.267C651.083 568 650.736 567.867 650.299 567.867C649.765 567.867 649.365 568.032 649.099 568.363C648.843 568.693 648.715 569.088 648.715 569.547ZM647.211 575.563C647.211 576.128 647.365 576.571 647.675 576.891C647.984 577.2 648.411 577.355 648.955 577.355C649.52 577.355 649.968 577.189 650.299 576.859C650.64 576.517 650.811 576.075 650.811 575.531C650.811 575.179 650.741 574.875 650.603 574.619C650.475 574.352 650.261 574.096 649.963 573.851C649.675 573.595 649.285 573.307 648.795 572.987C648.368 573.296 648.037 573.579 647.803 573.835C647.579 574.08 647.424 574.336 647.339 574.603C647.253 574.869 647.211 575.189 647.211 575.563ZM657.338 578.043C656.464 578.043 655.792 577.717 655.322 577.067C654.864 576.416 654.634 575.509 654.634 574.347C654.634 573.419 654.752 572.528 654.986 571.675C655.221 570.811 655.546 570.043 655.962 569.371C656.389 568.688 656.88 568.149 657.434 567.755C657.989 567.36 658.586 567.163 659.226 567.163C660.101 567.163 660.773 567.488 661.242 568.139C661.712 568.789 661.946 569.701 661.946 570.875C661.946 571.803 661.824 572.699 661.578 573.563C661.344 574.416 661.013 575.179 660.586 575.851C660.17 576.523 659.685 577.056 659.13 577.451C658.576 577.845 657.978 578.043 657.338 578.043ZM657.642 577.291C657.909 577.291 658.154 577.157 658.378 576.891C658.613 576.613 658.826 576.24 659.018 575.771C659.21 575.301 659.376 574.773 659.514 574.187C659.664 573.589 659.776 572.971 659.85 572.331C659.925 571.68 659.962 571.04 659.962 570.411C659.962 569.621 659.882 569.008 659.722 568.571C659.573 568.133 659.312 567.915 658.938 567.915C658.608 567.915 658.298 568.123 658.01 568.539C657.733 568.944 657.488 569.488 657.274 570.171C657.072 570.843 656.912 571.584 656.794 572.395C656.677 573.195 656.618 573.989 656.618 574.779C656.618 575.568 656.693 576.187 656.842 576.635C657.002 577.072 657.269 577.291 657.642 577.291Z" fill="black"/>
<path d="M747.767 546.973V561.079" stroke="black" stroke-width="0.935277"/>
<path d="M739.671 578.043L739.767 577.531C740.738 577.211 741.559 576.784 742.231 576.251C742.914 575.707 743.468 575.099 743.895 574.427C744.322 573.744 744.636 573.035 744.839 572.299C744.53 572.704 744.167 573.024 743.751 573.259C743.346 573.483 742.898 573.595 742.407 573.595C741.618 573.595 741.031 573.355 740.647 572.875C740.263 572.395 740.071 571.776 740.071 571.019C740.071 570.229 740.247 569.547 740.599 568.971C740.962 568.395 741.436 567.952 742.023 567.643C742.61 567.323 743.255 567.163 743.959 567.163C744.972 567.163 745.746 567.461 746.279 568.059C746.823 568.656 747.095 569.445 747.095 570.427C747.095 571.557 746.802 572.635 746.215 573.659C745.639 574.683 744.796 575.579 743.687 576.347C742.588 577.115 741.25 577.68 739.671 578.043ZM741.943 570.795C741.943 571.925 742.348 572.491 743.159 572.491C743.511 572.491 743.852 572.4 744.183 572.219C744.514 572.027 744.802 571.755 745.047 571.403C745.122 570.923 745.159 570.437 745.159 569.947C745.159 569.232 745.042 568.709 744.807 568.379C744.572 568.048 744.258 567.883 743.863 567.883C743.319 567.883 742.86 568.149 742.487 568.683C742.124 569.205 741.943 569.909 741.943 570.795ZM751.159 578.043C750.284 578.043 749.612 577.717 749.143 577.067C748.684 576.416 748.455 575.509 748.455 574.347C748.455 573.419 748.572 572.528 748.807 571.675C749.041 570.811 749.367 570.043 749.783 569.371C750.209 568.688 750.7 568.149 751.255 567.755C751.809 567.36 752.407 567.163 753.047 567.163C753.921 567.163 754.593 567.488 755.063 568.139C755.532 568.789 755.767 569.701 755.767 570.875C755.767 571.803 755.644 572.699 755.399 573.563C755.164 574.416 754.833 575.179 754.407 575.851C753.991 576.523 753.505 577.056 752.951 577.451C752.396 577.845 751.799 578.043 751.159 578.043ZM751.463 577.291C751.729 577.291 751.975 577.157 752.199 576.891C752.433 576.613 752.647 576.24 752.839 575.771C753.031 575.301 753.196 574.773 753.335 574.187C753.484 573.589 753.596 572.971 753.671 572.331C753.745 571.68 753.783 571.04 753.783 570.411C753.783 569.621 753.703 569.008 753.543 568.571C753.393 568.133 753.132 567.915 752.759 567.915C752.428 567.915 752.119 568.123 751.831 568.539C751.553 568.944 751.308 569.488 751.095 570.171C750.892 570.843 750.732 571.584 750.615 572.395C750.497 573.195 750.439 573.989 750.439 574.779C750.439 575.568 750.513 576.187 750.663 576.635C750.823 577.072 751.089 577.291 751.463 577.291Z" fill="black"/>
<path d="M841.588 546.973V561.079" stroke="black" stroke-width="0.935277"/>
<path d="M829.965 577.883L830.029 577.627L831.517 576.971L832.909 569.083L830.269 570.363L830.381 569.723L834.221 567.323H835.085L833.389 576.971L834.605 577.627L834.557 577.883H829.965ZM840.636 578.043C839.761 578.043 839.089 577.717 838.62 577.067C838.161 576.416 837.932 575.509 837.932 574.347C837.932 573.419 838.049 572.528 838.284 571.675C838.519 570.811 838.844 570.043 839.26 569.371C839.687 568.688 840.177 568.149 840.732 567.755C841.287 567.36 841.884 567.163 842.524 567.163C843.399 567.163 844.071 567.488 844.54 568.139C845.009 568.789 845.244 569.701 845.244 570.875C845.244 571.803 845.121 572.699 844.876 573.563C844.641 574.416 844.311 575.179 843.884 575.851C843.468 576.523 842.983 577.056 842.428 577.451C841.873 577.845 841.276 578.043 840.636 578.043ZM840.94 577.291C841.207 577.291 841.452 577.157 841.676 576.891C841.911 576.613 842.124 576.24 842.316 575.771C842.508 575.301 842.673 574.773 842.812 574.187C842.961 573.589 843.073 572.971 843.148 572.331C843.223 571.68 843.26 571.04 843.26 570.411C843.26 569.621 843.18 569.008 843.02 568.571C842.871 568.133 842.609 567.915 842.236 567.915C841.905 567.915 841.596 568.123 841.308 568.539C841.031 568.944 840.785 569.488 840.572 570.171C840.369 570.843 840.209 571.584 840.092 572.395C839.975 573.195 839.916 573.989 839.916 574.779C839.916 575.568 839.991 576.187 840.14 576.635C840.3 577.072 840.567 577.291 840.94 577.291ZM849.324 578.043C848.449 578.043 847.777 577.717 847.308 577.067C846.849 576.416 846.62 575.509 846.62 574.347C846.62 573.419 846.737 572.528 846.972 571.675C847.206 570.811 847.532 570.043 847.948 569.371C848.374 568.688 848.865 568.149 849.42 567.755C849.974 567.36 850.572 567.163 851.212 567.163C852.086 567.163 852.758 567.488 853.228 568.139C853.697 568.789 853.932 569.701 853.932 570.875C853.932 571.803 853.809 572.699 853.564 573.563C853.329 574.416 852.998 575.179 852.572 575.851C852.156 576.523 851.67 577.056 851.116 577.451C850.561 577.845 849.964 578.043 849.324 578.043ZM849.628 577.291C849.894 577.291 850.14 577.157 850.364 576.891C850.598 576.613 850.812 576.24 851.004 575.771C851.196 575.301 851.361 574.773 851.5 574.187C851.649 573.589 851.761 572.971 851.836 572.331C851.91 571.68 851.948 571.04 851.948 570.411C851.948 569.621 851.868 569.008 851.708 568.571C851.558 568.133 851.297 567.915 850.924 567.915C850.593 567.915 850.284 568.123 849.996 568.539C849.718 568.944 849.473 569.488 849.26 570.171C849.057 570.843 848.897 571.584 848.78 572.395C848.662 573.195 848.604 573.989 848.604 574.779C848.604 575.568 848.678 576.187 848.828 576.635C848.988 577.072 849.254 577.291 849.628 577.291Z" fill="black"/>
<path d="M45.0525 133.203L45.1165 132.947L46.6045 132.291L47.9965 124.403L45.3565 125.683L45.4685 125.043L49.3085 122.643H50.1725L48.4765 132.291L49.6925 132.947L49.6445 133.203H45.0525ZM55.724 133.363C54.8494 133.363 54.1774 133.038 53.708 132.387C53.2494 131.736 53.02 130.83 53.02 129.667C53.02 128.739 53.1374 127.848 53.372 126.995C53.6067 126.131 53.932 125.363 54.348 124.691C54.7747 124.008 55.2654 123.47 55.82 123.075C56.3747 122.68 56.972 122.483 57.612 122.483C58.4867 122.483 59.1587 122.808 59.628 123.459C60.0974 124.11 60.332 125.022 60.332 126.195C60.332 127.123 60.2094 128.019 59.964 128.883C59.7294 129.736 59.3987 130.499 58.972 131.171C58.556 131.843 58.0707 132.376 57.516 132.771C56.9614 133.166 56.364 133.363 55.724 133.363ZM56.028 132.611C56.2947 132.611 56.54 132.478 56.764 132.211C56.9987 131.934 57.212 131.56 57.404 131.091C57.596 130.622 57.7614 130.094 57.9 129.507C58.0494 128.91 58.1614 128.291 58.236 127.651C58.3107 127 58.348 126.36 58.348 125.731C58.348 124.942 58.268 124.328 58.108 123.891C57.9587 123.454 57.6974 123.235 57.324 123.235C56.9934 123.235 56.684 123.443 56.396 123.859C56.1187 124.264 55.8734 124.808 55.66 125.491C55.4574 126.163 55.2974 126.904 55.18 127.715C55.0627 128.515 55.004 129.31 55.004 130.099C55.004 130.888 55.0787 131.507 55.228 131.955C55.388 132.392 55.6547 132.611 56.028 132.611ZM64.4115 133.363C63.5369 133.363 62.8649 133.038 62.3955 132.387C61.9369 131.736 61.7075 130.83 61.7075 129.667C61.7075 128.739 61.8249 127.848 62.0595 126.995C62.2942 126.131 62.6195 125.363 63.0355 124.691C63.4622 124.008 63.9529 123.47 64.5075 123.075C65.0622 122.68 65.6595 122.483 66.2995 122.483C67.1742 122.483 67.8462 122.808 68.3155 123.459C68.7849 124.11 69.0195 125.022 69.0195 126.195C69.0195 127.123 68.8969 128.019 68.6515 128.883C68.4169 129.736 68.0862 130.499 67.6595 131.171C67.2435 131.843 66.7582 132.376 66.2035 132.771C65.6489 133.166 65.0515 133.363 64.4115 133.363ZM64.7155 132.611C64.9822 132.611 65.2275 132.478 65.4515 132.211C65.6862 131.934 65.8995 131.56 66.0915 131.091C66.2835 130.622 66.4489 130.094 66.5875 129.507C66.7369 128.91 66.8489 128.291 66.9235 127.651C66.9982 127 67.0355 126.36 67.0355 125.731C67.0355 124.942 66.9555 124.328 66.7955 123.891C66.6462 123.454 66.3849 123.235 66.0115 123.235C65.6809 123.235 65.3715 123.443 65.0835 123.859C64.8062 124.264 64.5609 124.808 64.3475 125.491C64.1449 126.163 63.9849 126.904 63.8675 127.715C63.7502 128.515 63.6915 129.31 63.6915 130.099C63.6915 130.888 63.7662 131.507 63.9155 131.955C64.0755 132.392 64.3422 132.611 64.7155 132.611Z" fill="black"/>
<path d="M91.2949 129.203L77.189 129.203" stroke="black" stroke-width="0.935277"/>
<path d="M55.852 216.906C54.924 216.906 54.1667 216.698 53.58 216.282C52.9934 215.866 52.7 215.295 52.7 214.57C52.7 213.909 52.9347 213.338 53.404 212.858C53.8734 212.378 54.5294 211.925 55.372 211.498C54.8494 211.103 54.4814 210.725 54.268 210.362C54.0654 209.989 53.964 209.573 53.964 209.114C53.964 208.549 54.1187 208.031 54.428 207.562C54.748 207.093 55.1747 206.719 55.708 206.442C56.252 206.165 56.8494 206.026 57.5 206.026C58.0654 206.026 58.556 206.127 58.972 206.33C59.388 206.533 59.7134 206.815 59.948 207.178C60.1827 207.53 60.3 207.93 60.3 208.378C60.3 208.901 60.1027 209.37 59.708 209.786C59.3134 210.191 58.7054 210.581 57.884 210.954C58.588 211.445 59.0627 211.914 59.308 212.362C59.5534 212.799 59.676 213.269 59.676 213.77C59.676 214.367 59.5054 214.901 59.164 215.37C58.8227 215.839 58.364 216.213 57.788 216.49C57.212 216.767 56.5667 216.906 55.852 216.906ZM55.788 208.41C55.788 208.751 55.8787 209.098 56.06 209.45C56.252 209.791 56.6627 210.165 57.292 210.57C57.676 210.325 57.9747 210.095 58.188 209.882C58.412 209.658 58.5667 209.423 58.652 209.178C58.748 208.933 58.796 208.639 58.796 208.298C58.796 207.786 58.668 207.397 58.412 207.13C58.156 206.863 57.8094 206.73 57.372 206.73C56.8387 206.73 56.4387 206.895 56.172 207.226C55.916 207.557 55.788 207.951 55.788 208.41ZM54.284 214.426C54.284 214.991 54.4387 215.434 54.748 215.754C55.0574 216.063 55.484 216.218 56.028 216.218C56.5934 216.218 57.0414 216.053 57.372 215.722C57.7134 215.381 57.884 214.938 57.884 214.394C57.884 214.042 57.8147 213.738 57.676 213.482C57.548 213.215 57.3347 212.959 57.036 212.714C56.748 212.458 56.3587 212.17 55.868 211.85C55.4414 212.159 55.1107 212.442 54.876 212.698C54.652 212.943 54.4974 213.199 54.412 213.466C54.3267 213.733 54.284 214.053 54.284 214.426ZM64.4115 216.906C63.5369 216.906 62.8649 216.581 62.3955 215.93C61.9369 215.279 61.7075 214.373 61.7075 213.21C61.7075 212.282 61.8249 211.391 62.0595 210.538C62.2942 209.674 62.6195 208.906 63.0355 208.234C63.4622 207.551 63.9529 207.013 64.5075 206.618C65.0622 206.223 65.6595 206.026 66.2995 206.026C67.1742 206.026 67.8462 206.351 68.3155 207.002C68.7849 207.653 69.0195 208.565 69.0195 209.738C69.0195 210.666 68.8969 211.562 68.6515 212.426C68.4169 213.279 68.0862 214.042 67.6595 214.714C67.2435 215.386 66.7582 215.919 66.2035 216.314C65.6489 216.709 65.0515 216.906 64.4115 216.906ZM64.7155 216.154C64.9822 216.154 65.2275 216.021 65.4515 215.754C65.6862 215.477 65.8995 215.103 66.0915 214.634C66.2835 214.165 66.4489 213.637 66.5875 213.05C66.7369 212.453 66.8489 211.834 66.9235 211.194C66.9982 210.543 67.0355 209.903 67.0355 209.274C67.0355 208.485 66.9555 207.871 66.7955 207.434C66.6462 206.997 66.3849 206.778 66.0115 206.778C65.6809 206.778 65.3715 206.986 65.0835 207.402C64.8062 207.807 64.5609 208.351 64.3475 209.034C64.1449 209.706 63.9849 210.447 63.8675 211.258C63.7502 212.058 63.6915 212.853 63.6915 213.642C63.6915 214.431 63.7662 215.05 63.9155 215.498C64.0755 215.935 64.3422 216.154 64.7155 216.154Z" fill="black"/>
<path d="M91.2949 212.746L77.189 212.746" stroke="black" stroke-width="0.935277"/>
<path d="M55.996 300.449C54.9827 300.449 54.2094 300.15 53.676 299.553C53.1427 298.956 52.876 298.166 52.876 297.185C52.876 296.054 53.164 294.977 53.74 293.953C54.316 292.929 55.1534 292.033 56.252 291.265C57.3614 290.497 58.7107 289.932 60.3 289.569L60.204 290.081C59.2334 290.401 58.4014 290.833 57.708 291.377C57.0254 291.91 56.4707 292.524 56.044 293.217C55.6174 293.9 55.3027 294.609 55.1 295.345C55.42 294.929 55.7827 294.604 56.188 294.369C56.604 294.134 57.0574 294.017 57.548 294.017C58.3374 294.017 58.924 294.257 59.308 294.737C59.7027 295.217 59.9 295.836 59.9 296.593C59.9 297.382 59.7187 298.065 59.356 298.641C59.004 299.217 58.5294 299.665 57.932 299.985C57.3454 300.294 56.7 300.449 55.996 300.449ZM54.796 297.665C54.796 298.38 54.9134 298.902 55.148 299.233C55.3827 299.564 55.7027 299.729 56.108 299.729C56.652 299.729 57.1054 299.468 57.468 298.945C57.8307 298.412 58.012 297.702 58.012 296.817C58.012 295.686 57.612 295.121 56.812 295.121C56.46 295.121 56.1134 295.217 55.772 295.409C55.4414 295.601 55.1534 295.873 54.908 296.225C54.8334 296.705 54.796 297.185 54.796 297.665ZM64.4115 300.449C63.5369 300.449 62.8649 300.124 62.3955 299.473C61.9369 298.822 61.7075 297.916 61.7075 296.753C61.7075 295.825 61.8249 294.934 62.0595 294.081C62.2942 293.217 62.6195 292.449 63.0355 291.777C63.4622 291.094 63.9529 290.556 64.5075 290.161C65.0622 289.766 65.6595 289.569 66.2995 289.569C67.1742 289.569 67.8462 289.894 68.3155 290.545C68.7849 291.196 69.0195 292.108 69.0195 293.281C69.0195 294.209 68.8969 295.105 68.6515 295.969C68.4169 296.822 68.0862 297.585 67.6595 298.257C67.2435 298.929 66.7582 299.462 66.2035 299.857C65.6489 300.252 65.0515 300.449 64.4115 300.449ZM64.7155 299.697C64.9822 299.697 65.2275 299.564 65.4515 299.297C65.6862 299.02 65.8995 298.646 66.0915 298.177C66.2835 297.708 66.4489 297.18 66.5875 296.593C66.7369 295.996 66.8489 295.377 66.9235 294.737C66.9982 294.086 67.0355 293.446 67.0355 292.817C67.0355 292.028 66.9555 291.414 66.7955 290.977C66.6462 290.54 66.3849 290.321 66.0115 290.321C65.6809 290.321 65.3715 290.529 65.0835 290.945C64.8062 291.35 64.5609 291.894 64.3475 292.577C64.1449 293.249 63.9849 293.99 63.8675 294.801C63.7502 295.601 63.6915 296.396 63.6915 297.185C63.6915 297.974 63.7662 298.593 63.9155 299.041C64.0755 299.478 64.3422 299.697 64.7155 299.697Z" fill="black"/>
<path d="M91.2949 296.289L77.189 296.289" stroke="black" stroke-width="0.935277"/>
<path d="M55.916 383.828L56.428 380.948H52.348L52.444 380.5L58.86 373.268H59.66L58.508 379.796H60.268L60.092 380.948H58.316L57.804 383.828H55.916ZM53.996 379.796H56.62L57.292 375.988L53.996 379.796ZM64.4115 383.988C63.5369 383.988 62.8649 383.663 62.3955 383.012C61.9369 382.361 61.7075 381.455 61.7075 380.292C61.7075 379.364 61.8249 378.473 62.0595 377.62C62.2942 376.756 62.6195 375.988 63.0355 375.316C63.4622 374.633 63.9529 374.095 64.5075 373.7C65.0622 373.305 65.6595 373.108 66.2995 373.108C67.1742 373.108 67.8462 373.433 68.3155 374.084C68.7849 374.735 69.0195 375.647 69.0195 376.82C69.0195 377.748 68.8969 378.644 68.6515 379.508C68.4169 380.361 68.0862 381.124 67.6595 381.796C67.2435 382.468 66.7582 383.001 66.2035 383.396C65.6489 383.791 65.0515 383.988 64.4115 383.988ZM64.7155 383.236C64.9822 383.236 65.2275 383.103 65.4515 382.836C65.6862 382.559 65.8995 382.185 66.0915 381.716C66.2835 381.247 66.4489 380.719 66.5875 380.132C66.7369 379.535 66.8489 378.916 66.9235 378.276C66.9982 377.625 67.0355 376.985 67.0355 376.356C67.0355 375.567 66.9555 374.953 66.7955 374.516C66.6462 374.079 66.3849 373.86 66.0115 373.86C65.6809 373.86 65.3715 374.068 65.0835 374.484C64.8062 374.889 64.5609 375.433 64.3475 376.116C64.1449 376.788 63.9849 377.529 63.8675 378.34C63.7502 379.14 63.6915 379.935 63.6915 380.724C63.6915 381.513 63.7662 382.132 63.9155 382.58C64.0755 383.017 64.3422 383.236 64.7155 383.236Z" fill="black"/>
<path d="M91.2949 379.828L77.189 379.828" stroke="black" stroke-width="0.935277"/>
<path d="M52.476 467.371L52.588 466.827C53.6227 465.814 54.4814 464.944 55.164 464.219C55.8574 463.483 56.4174 462.859 56.844 462.347C57.2707 461.824 57.5907 461.376 57.804 461.003C58.0174 460.619 58.1614 460.267 58.236 459.947C58.3107 459.627 58.348 459.302 58.348 458.971C58.348 458.512 58.2147 458.144 57.948 457.867C57.6814 457.59 57.34 457.451 56.924 457.451C56.4547 457.451 56.0867 457.606 55.82 457.915C55.564 458.224 55.388 458.672 55.292 459.259L55.18 459.883L55.02 460.059H54.204C54.0014 460.059 53.852 460.038 53.756 459.995C53.6707 459.942 53.6547 459.766 53.708 459.467C53.7507 459.168 53.868 458.859 54.06 458.539C54.252 458.219 54.5614 457.915 54.988 457.627C55.2547 457.446 55.5107 457.28 55.756 457.131C56.0014 456.982 56.2787 456.864 56.588 456.779C56.8974 456.694 57.276 456.651 57.724 456.651C58.2147 456.651 58.652 456.752 59.036 456.955C59.4307 457.147 59.74 457.424 59.964 457.787C60.1987 458.139 60.316 458.544 60.316 459.003C60.316 459.419 60.236 459.824 60.076 460.219C59.916 460.603 59.628 461.04 59.212 461.531C58.796 462.011 58.2094 462.592 57.452 463.275C56.7054 463.958 55.7454 464.8 54.572 465.803H58.348L59.468 464.139H59.724L59.036 467.371H52.476ZM64.4115 467.531C63.5369 467.531 62.8649 467.206 62.3955 466.555C61.9369 465.904 61.7075 464.998 61.7075 463.835C61.7075 462.907 61.8249 462.016 62.0595 461.163C62.2942 460.299 62.6195 459.531 63.0355 458.859C63.4622 458.176 63.9529 457.638 64.5075 457.243C65.0622 456.848 65.6595 456.651 66.2995 456.651C67.1742 456.651 67.8462 456.976 68.3155 457.627C68.7849 458.278 69.0195 459.19 69.0195 460.363C69.0195 461.291 68.8969 462.187 68.6515 463.051C68.4169 463.904 68.0862 464.667 67.6595 465.339C67.2435 466.011 66.7582 466.544 66.2035 466.939C65.6489 467.334 65.0515 467.531 64.4115 467.531ZM64.7155 466.779C64.9822 466.779 65.2275 466.646 65.4515 466.379C65.6862 466.102 65.8995 465.728 66.0915 465.259C66.2835 464.79 66.4489 464.262 66.5875 463.675C66.7369 463.078 66.8489 462.459 66.9235 461.819C66.9982 461.168 67.0355 460.528 67.0355 459.899C67.0355 459.11 66.9555 458.496 66.7955 458.059C66.6462 457.622 66.3849 457.403 66.0115 457.403C65.6809 457.403 65.3715 457.611 65.0835 458.027C64.8062 458.432 64.5609 458.976 64.3475 459.659C64.1449 460.331 63.9849 461.072 63.8675 461.883C63.7502 462.683 63.6915 463.478 63.6915 464.267C63.6915 465.056 63.7662 465.675 63.9155 466.123C64.0755 466.56 64.3422 466.779 64.7155 466.779Z" fill="black"/>
<path d="M91.2949 463.371L77.189 463.371" stroke="black" stroke-width="0.935277"/>
<path d="M64.4115 551.074C63.5369 551.074 62.8649 550.749 62.3955 550.098C61.9369 549.447 61.7075 548.541 61.7075 547.378C61.7075 546.45 61.8249 545.559 62.0595 544.706C62.2942 543.842 62.6195 543.074 63.0355 542.402C63.4622 541.719 63.9529 541.181 64.5075 540.786C65.0622 540.391 65.6595 540.194 66.2995 540.194C67.1742 540.194 67.8462 540.519 68.3155 541.17C68.7849 541.821 69.0195 542.733 69.0195 543.906C69.0195 544.834 68.8969 545.73 68.6515 546.594C68.4169 547.447 68.0862 548.21 67.6595 548.882C67.2435 549.554 66.7582 550.087 66.2035 550.482C65.6489 550.877 65.0515 551.074 64.4115 551.074ZM64.7155 550.322C64.9822 550.322 65.2275 550.189 65.4515 549.922C65.6862 549.645 65.8995 549.271 66.0915 548.802C66.2835 548.333 66.4489 547.805 66.5875 547.218C66.7369 546.621 66.8489 546.002 66.9235 545.362C66.9982 544.711 67.0355 544.071 67.0355 543.442C67.0355 542.653 66.9555 542.039 66.7955 541.602C66.6462 541.165 66.3849 540.946 66.0115 540.946C65.6809 540.946 65.3715 541.154 65.0835 541.57C64.8062 541.975 64.5609 542.519 64.3475 543.202C64.1449 543.874 63.9849 544.615 63.8675 545.426C63.7502 546.226 63.6915 547.021 63.6915 547.81C63.6915 548.599 63.7662 549.218 63.9155 549.666C64.0755 550.103 64.3422 550.322 64.7155 550.322Z" fill="black"/>
<path d="M91.2949 546.914L77.189 546.914" stroke="black" stroke-width="0.935277"/>
<path d="M386.869 57.618C386.029 57.618 385.309 57.538 384.709 57.378C384.123 57.218 383.516 56.9846 382.889 56.678L382.689 53.378H383.009L384.069 55.558C384.536 55.9446 384.996 56.2246 385.449 56.398C385.903 56.5713 386.356 56.658 386.809 56.658C387.583 56.658 388.189 56.458 388.629 56.058C389.083 55.658 389.309 55.1113 389.309 54.418C389.309 53.8713 389.183 53.438 388.929 53.118C388.689 52.7846 388.323 52.4913 387.829 52.238C387.349 51.9713 386.756 51.6646 386.049 51.318C385.103 50.8646 384.376 50.3913 383.869 49.898C383.363 49.3913 383.109 48.6846 383.109 47.778C383.109 47.298 383.223 46.838 383.449 46.398C383.689 45.9446 384.009 45.5446 384.409 45.198C384.809 44.838 385.256 44.5513 385.749 44.338C386.243 44.1246 386.756 44.018 387.289 44.018C387.916 44.018 388.503 44.0913 389.049 44.238C389.596 44.3846 390.136 44.598 390.669 44.878L390.869 48.078H390.549L389.509 45.938C389.083 45.6046 388.696 45.3646 388.349 45.218C388.003 45.0713 387.609 44.998 387.169 44.998C386.596 44.998 386.116 45.1913 385.729 45.578C385.356 45.9646 385.169 46.4513 385.169 47.038C385.169 47.6913 385.369 48.2046 385.769 48.578C386.183 48.9513 386.843 49.3513 387.749 49.778C388.549 50.1646 389.209 50.538 389.729 50.898C390.263 51.2446 390.656 51.638 390.909 52.078C391.163 52.518 391.289 53.078 391.289 53.758C391.289 54.3846 391.156 54.938 390.889 55.418C390.623 55.898 390.269 56.3046 389.829 56.638C389.389 56.958 388.909 57.2046 388.389 57.378C387.883 57.538 387.376 57.618 386.869 57.618ZM401.55 57.618C400.523 57.618 399.603 57.4313 398.79 57.058C397.976 56.6846 397.336 56.098 396.87 55.298C396.416 54.498 396.19 53.4513 396.19 52.158V45.338L394.57 44.538V44.218H399.91V44.538L398.29 45.338V51.938C398.29 53.0446 398.463 53.9246 398.81 54.578C399.156 55.218 399.623 55.678 400.21 55.958C400.796 56.238 401.456 56.378 402.19 56.378C402.776 56.378 403.316 56.258 403.81 56.018C404.316 55.7646 404.716 55.3646 405.01 54.818C405.316 54.258 405.47 53.5313 405.47 52.638V45.298L403.51 44.538V44.218H408.49V44.538L406.87 45.318V52.158C406.87 53.4513 406.636 54.498 406.17 55.298C405.716 56.098 405.09 56.6846 404.29 57.058C403.49 57.4313 402.576 57.618 401.55 57.618ZM411.898 57.418V57.098L413.518 56.298V45.338L411.898 44.538V44.218H417.458C418.858 44.218 419.958 44.5113 420.758 45.098C421.571 45.6713 421.978 46.4646 421.978 47.478C421.978 48.2246 421.725 48.8846 421.218 49.458C420.711 50.0313 420.045 50.4713 419.218 50.778L422.998 56.358L424.338 57.098V57.418H421.118L417.278 51.338H415.618V56.278L417.118 57.098V57.418H411.898ZM416.798 45.318H415.618V50.278H416.918C417.745 50.278 418.425 50.0446 418.958 49.578C419.505 49.098 419.778 48.4913 419.778 47.758C419.778 46.998 419.511 46.4046 418.978 45.978C418.458 45.538 417.731 45.318 416.798 45.318ZM431.748 57.518L426.628 45.258L425.248 44.538V44.218H430.548V44.538L428.808 45.298L432.548 54.298H432.648L436.348 45.238L434.688 44.538V44.218H438.908V44.538L437.768 45.158L432.548 57.518H431.748ZM441.829 57.418V57.098L443.469 56.298V45.338L441.829 44.538V44.218H447.169V44.538L445.549 45.338V56.298L447.169 57.098V57.418H441.829ZM456.56 57.518L451.44 45.258L450.06 44.538V44.218H455.36V44.538L453.62 45.298L457.36 54.298H457.46L461.16 45.238L459.5 44.538V44.218H463.72V44.538L462.58 45.158L457.36 57.518H456.56ZM464.302 57.418V57.098L465.562 56.438L470.702 44.118H471.802L476.882 56.378L478.222 57.098V57.418H472.942V57.098L474.702 56.398L473.222 52.798H468.402L466.942 56.418L468.622 57.098V57.418H464.302ZM468.862 51.698H472.782L470.822 46.878L468.862 51.698ZM481.019 57.418V57.098L482.639 56.298V45.338L481.019 44.538V44.218H486.559V44.538L484.739 45.338V56.318H489.479L490.899 52.878H491.219V57.418H481.019ZM500.734 57.418V57.098L502.354 56.298V45.338L500.734 44.538V44.218H506.294C507.694 44.218 508.794 44.5113 509.594 45.098C510.407 45.6713 510.814 46.4646 510.814 47.478C510.814 48.2246 510.56 48.8846 510.054 49.458C509.547 50.0313 508.88 50.4713 508.054 50.778L511.834 56.358L513.174 57.098V57.418H509.954L506.114 51.338H504.454V56.278L505.954 57.098V57.418H500.734ZM505.634 45.318H504.454V50.278H505.754C506.58 50.278 507.26 50.0446 507.794 49.578C508.34 49.098 508.614 48.4913 508.614 47.758C508.614 46.998 508.347 46.4046 507.814 45.978C507.294 45.538 506.567 45.318 505.634 45.318ZM514.552 57.418V57.098L515.812 56.438L520.952 44.118H522.052L527.132 56.378L528.472 57.098V57.418H523.192V57.098L524.952 56.398L523.472 52.798H518.652L517.192 56.418L518.872 57.098V57.418H514.552ZM519.112 51.698H523.032L521.072 46.878L519.112 51.698ZM533.184 57.418V57.098L535.204 56.298V45.318H532.044L530.624 48.338H530.304V44.218H542.184V48.338H541.864L540.464 45.318H537.284V56.298L539.324 57.098V57.418H533.184ZM545.238 57.418V57.098L546.858 56.298V45.338L545.238 44.538V44.218H555.278V47.658H554.958L553.658 45.318H548.958V50.058H552.278L553.298 48.378H553.618V52.798H553.298L552.278 51.158H548.958V56.318H554.198L555.518 53.678H555.838V57.418H545.238ZM563.541 57.618C562.701 57.618 561.981 57.538 561.381 57.378C560.795 57.218 560.188 56.9846 559.561 56.678L559.361 53.378H559.681L560.741 55.558C561.208 55.9446 561.668 56.2246 562.121 56.398C562.575 56.5713 563.028 56.658 563.481 56.658C564.255 56.658 564.861 56.458 565.301 56.058C565.755 55.658 565.981 55.1113 565.981 54.418C565.981 53.8713 565.855 53.438 565.601 53.118C565.361 52.7846 564.995 52.4913 564.501 52.238C564.021 51.9713 563.428 51.6646 562.721 51.318C561.775 50.8646 561.048 50.3913 560.541 49.898C560.035 49.3913 559.781 48.6846 559.781 47.778C559.781 47.298 559.895 46.838 560.121 46.398C560.361 45.9446 560.681 45.5446 561.081 45.198C561.481 44.838 561.928 44.5513 562.421 44.338C562.915 44.1246 563.428 44.018 563.961 44.018C564.588 44.018 565.175 44.0913 565.721 44.238C566.268 44.3846 566.808 44.598 567.341 44.878L567.541 48.078H567.221L566.181 45.938C565.755 45.6046 565.368 45.3646 565.021 45.218C564.675 45.0713 564.281 44.998 563.841 44.998C563.268 44.998 562.788 45.1913 562.401 45.578C562.028 45.9646 561.841 46.4513 561.841 47.038C561.841 47.6913 562.041 48.2046 562.441 48.578C562.855 48.9513 563.515 49.3513 564.421 49.778C565.221 50.1646 565.881 50.538 566.401 50.898C566.935 51.2446 567.328 51.638 567.581 52.078C567.835 52.518 567.961 53.078 567.961 53.758C567.961 54.3846 567.828 54.938 567.561 55.418C567.295 55.898 566.941 56.3046 566.501 56.638C566.061 56.958 565.581 57.2046 565.061 57.378C564.555 57.538 564.048 57.618 563.541 57.618Z" fill="black"/>
<path d="M381.549 60.318H569.041V61.318H381.549V60.318Z" fill="black"/>
<path d="M20.2949 355.856H20.0389L19.3829 354.496H10.6469L9.99092 355.856H9.73492V350.32C9.73492 349.061 9.96425 348.053 10.4229 347.296C10.8709 346.528 11.5909 346.144 12.5829 346.144C13.1803 346.144 13.7083 346.347 14.1669 346.752C14.6149 347.147 14.9669 347.685 15.2229 348.368C15.4683 349.051 15.5909 349.829 15.5909 350.704V352.08H19.3829L20.0389 350.448H20.2949V355.856ZM10.6149 352.08H14.8069V351.312C14.8069 350.459 14.6096 349.792 14.2149 349.312C13.8203 348.832 13.3243 348.592 12.7269 348.592C11.9803 348.592 11.4416 348.837 11.1109 349.328C10.7803 349.819 10.6149 350.512 10.6149 351.408V352.08ZM20.2949 344.119H20.0389L19.3829 342.759H10.6469L9.99092 344.119H9.73492L9.73492 335.399H12.5029V335.655L10.6149 336.839L10.6149 340.343H14.4069V337.879L13.0309 336.983V336.727H16.6309V336.983L15.2869 337.879V340.343H19.4149V336.455L17.0309 335.207V334.951H20.2949V344.119ZM20.2949 332.428H20.0389L19.3829 331.068H10.6469L9.99092 332.428H9.73492V326.956C9.73492 325.836 9.96959 324.956 10.4389 324.316C10.8976 323.665 11.5323 323.34 12.3429 323.34C12.9296 323.34 13.4363 323.537 13.8629 323.932C14.2789 324.327 14.6096 324.844 14.8549 325.484L19.3989 322.524L20.0389 321.372H20.2949V324.844L15.3989 327.804V328.652H19.3669L20.0389 327.452H20.2949V332.428ZM10.6149 328.012V328.652H14.6149V327.916C14.6149 327.255 14.4283 326.732 14.0549 326.348C13.6816 325.964 13.1963 325.772 12.5989 325.772C11.9696 325.772 11.4843 325.964 11.1429 326.348C10.7909 326.721 10.6149 327.276 10.6149 328.012ZM20.4549 314.417C20.4549 315.537 20.2256 316.518 19.7669 317.361C19.3083 318.203 18.6896 318.859 17.9109 319.329C17.1216 319.787 16.2309 320.017 15.2389 320.017C14.4389 320.017 13.6976 319.857 13.0149 319.537C12.3323 319.217 11.7349 318.785 11.2229 318.241C10.7003 317.686 10.2949 317.062 10.0069 316.369C9.71892 315.665 9.57492 314.929 9.57492 314.161C9.57492 313.595 9.60692 313.126 9.67092 312.753C9.73492 312.379 9.82559 312.043 9.94292 311.745C10.0603 311.446 10.1936 311.147 10.3429 310.849L13.3349 310.673V310.961L10.8549 312.481C10.6843 312.747 10.5616 312.998 10.4869 313.233C10.4123 313.467 10.3749 313.75 10.3749 314.081C10.3749 314.731 10.5723 315.318 10.9669 315.841C11.3509 316.353 11.9003 316.758 12.6149 317.057C13.3189 317.355 14.1403 317.505 15.0789 317.505C16.0069 317.505 16.8123 317.361 17.4949 317.073C18.1669 316.785 18.6896 316.395 19.0629 315.905C19.4256 315.403 19.6069 314.843 19.6069 314.225C19.6069 313.83 19.5589 313.478 19.4629 313.169C19.3563 312.849 19.2229 312.545 19.0629 312.257L16.9189 310.817V310.545L19.6229 310.769C19.8789 311.206 20.0816 311.734 20.2309 312.353C20.3803 312.961 20.4549 313.649 20.4549 314.417ZM20.2949 307.922H20.0389L19.3829 306.562H10.6469L9.99092 307.922H9.73492V299.202H12.5029V299.458L10.6149 300.642V304.146H14.4069V301.682L13.0309 300.786V300.53H16.6309V300.786L15.2869 301.682V304.146H19.4149V300.258L17.0309 299.01V298.754H20.2949V307.922ZM20.2949 296.263H20.0389L19.3829 294.903H10.6629L9.99092 296.263H9.73492V293.223L16.7429 287.015H10.6309L9.99092 288.839H9.73492V284.551H9.99092L10.6469 285.895H20.3749V286.887L12.6629 293.783H19.3829L20.0389 291.959H20.2949V296.263ZM20.2949 280.369H20.0389L19.3829 278.673H10.6149L10.6149 280.961L13.2549 282.241V282.497H9.73492L9.73492 272.433H13.2549V272.689L10.6149 273.969V276.257H19.3829L20.0389 274.561H20.2949V280.369Z" fill="black"/>
<path d="M91.5898 546.797L91.5899 123.688" stroke="black" stroke-width="0.935277"/>
<path d="M184.842 547.273L184.842 128.582" stroke="black" stroke-width="0.446492" stroke-dasharray="1.87 1.87"/>
<path d="M91.5898 463.324L910.482 463.324" stroke="black" stroke-width="0.446492" stroke-dasharray="1.87 1.87"/>
<path d="M91.5898 379.793L910.482 379.793" stroke="black" stroke-width="0.446492" stroke-dasharray="1.87 1.87"/>
<path d="M91.5898 296.266L910.482 296.266" stroke="black" stroke-width="0.446492" stroke-dasharray="1.87 1.87"/>
<path d="M91.5898 212.734L910.482 212.734" stroke="black" stroke-width="0.446492" stroke-dasharray="1.87 1.87"/>
<path d="M91.5898 129.203L910.482 129.203" stroke="black" stroke-width="0.446492" stroke-dasharray="1.87 1.87"/>
<path d="M278.662 547.273L278.662 128.582" stroke="black" stroke-width="0.446492" stroke-dasharray="1.87 1.87"/>
<path d="M372.484 547.273L372.484 128.582" stroke="black" stroke-width="0.446492" stroke-dasharray="1.87 1.87"/>
<path d="M466.305 547.273L466.305 128.582" stroke="black" stroke-width="0.446492" stroke-dasharray="1.87 1.87"/>
<path d="M560.125 547.273L560.125 128.582" stroke="black" stroke-width="0.446492" stroke-dasharray="1.87 1.87"/>
<path d="M653.945 547.273L653.945 128.582" stroke="black" stroke-width="0.446492" stroke-dasharray="1.87 1.87"/>
<path d="M747.768 547.273L747.768 123.689" stroke="black" stroke-width="0.446492" stroke-dasharray="1.87 1.87"/>
<path d="M841.588 547.273L841.588 123.689" stroke="black" stroke-width="0.446492" stroke-dasharray="1.87 1.87"/>
<path d="M91.5898 546.914L910.482 546.914" stroke="black" stroke-width="0.935277"/>
<path d="M457.307 623.711V623.455L458.283 622.911L462.459 613.071H463.867L467.995 622.879L469.083 623.455V623.711H464.027V623.455L465.419 622.879L464.331 620.223H460.539L459.451 622.879L460.779 623.455V623.711H457.307ZM460.907 619.343H463.963L462.443 615.615L460.907 619.343ZM476.123 623.871C475.355 623.871 474.635 623.743 473.963 623.487C473.301 623.22 472.715 622.852 472.203 622.383C471.701 621.914 471.307 621.364 471.019 620.735C470.741 620.095 470.603 619.402 470.603 618.655C470.603 617.834 470.763 617.082 471.083 616.399C471.403 615.706 471.845 615.103 472.411 614.591C472.976 614.079 473.621 613.684 474.347 613.407C475.072 613.13 475.835 612.991 476.635 612.991C477.2 612.991 477.68 613.023 478.075 613.087C478.48 613.151 478.837 613.242 479.147 613.359C479.467 613.476 479.781 613.61 480.091 613.759L480.267 616.575H479.979L478.443 614.255C478.155 614.074 477.877 613.951 477.611 613.887C477.344 613.812 477.04 613.775 476.699 613.775C476.027 613.775 475.419 613.967 474.875 614.351C474.331 614.735 473.899 615.274 473.579 615.967C473.259 616.65 473.099 617.45 473.099 618.367C473.099 619.327 473.253 620.154 473.563 620.847C473.872 621.53 474.288 622.058 474.811 622.431C475.344 622.804 475.936 622.991 476.587 622.991C476.768 622.991 476.965 622.986 477.179 622.975C477.392 622.954 477.605 622.922 477.819 622.879V619.919L476.395 619.167V618.911H481.419V619.167L480.219 619.935V622.527C479.888 622.804 479.488 623.044 479.019 623.247C478.56 623.439 478.075 623.594 477.563 623.711C477.061 623.818 476.581 623.871 476.123 623.871ZM483.4 623.711V623.455L484.76 622.799V614.063L483.4 613.407V613.151H492.12V615.919H491.864L490.68 614.031H487.176V617.823H489.64L490.536 616.447H490.792V620.047H490.536L489.64 618.703H487.176V622.831H491.064L492.312 620.447H492.568V623.711H483.4Z" fill="black"/>
<path d="M93.0215 130.305C150.773 134.813 169.709 133.269 296.064 143.054C479.268 157.241 576.277 225.834 616.958 263.592C668.354 311.294 768.775 475.631 786.739 501.262C801.109 521.766 828.581 534.819 831.945 536.51C835.309 538.201 841.588 546.852 841.588 546.852" stroke="#F0696B" stroke-width="3"/>
<path d="M93.0215 130.305C172.663 131.773 349.57 139.558 420.068 158.949C508.189 183.189 567.303 215.141 586.461 228.913C605.618 242.686 655.089 285.655 680.163 322.014C705.236 358.374 787.339 489.487 796.644 499.403C805.949 509.319 812.163 520.504 837.931 535.23" stroke="#3C4CA6" stroke-width="3" stroke-dasharray="5.36 5.36"/>
<path d="M93.0215 130.305C172.663 131.773 349.57 139.558 420.068 158.949C508.189 183.189 567.303 215.141 586.461 228.913C605.618 242.686 655.089 285.655 680.163 322.014C705.236 358.374 787.339 489.487 796.644 499.403C805.949 509.319 812.163 520.504 837.931 535.23" stroke="#3C4CA6" stroke-width="3" stroke-dasharray="5.36 5.36"/>
<rect x="748.996" y="159.758" width="170.404" height="104.642" fill="#FFF5E5"/>
<path d="M766.297 197.152H816.949" stroke="#F0696B" stroke-width="3"/>
<path d="M766.919 178.004V177.812L767.927 177.32V170.768L766.919 170.276V170.084H770.435C770.987 170.084 771.483 170.152 771.923 170.288C772.363 170.416 772.707 170.612 772.955 170.876C773.211 171.132 773.339 171.46 773.339 171.86C773.339 172.268 773.191 172.644 772.895 172.988C772.607 173.324 772.191 173.564 771.647 173.708C772.391 173.812 772.975 174.036 773.399 174.38C773.831 174.724 774.047 175.164 774.047 175.7C774.047 176.14 773.903 176.536 773.615 176.888C773.327 177.232 772.931 177.504 772.427 177.704C771.923 177.904 771.351 178.004 770.711 178.004H766.919ZM769.967 170.744H769.427V173.612H770.039C770.583 173.612 771.007 173.488 771.311 173.24C771.623 172.992 771.779 172.648 771.779 172.208C771.779 171.232 771.175 170.744 769.967 170.744ZM770.411 174.224H769.427V177.344H770.495C771.095 177.344 771.567 177.2 771.911 176.912C772.263 176.616 772.439 176.236 772.439 175.772C772.439 175.244 772.263 174.856 771.911 174.608C771.559 174.352 771.059 174.224 770.411 174.224ZM775.269 178.004V177.812L776.013 177.404L779.121 170.024H779.961L783.033 177.38L783.849 177.812V178.004H780.393V177.812L781.437 177.392L780.585 175.304H777.705L776.865 177.392L777.861 177.812V178.004H775.269ZM777.981 174.644H780.309L779.145 171.776L777.981 174.644ZM787.949 178.124C787.437 178.124 786.989 178.076 786.605 177.98C786.229 177.876 785.853 177.728 785.477 177.536L785.357 175.532H785.573L786.305 176.912C786.801 177.32 787.321 177.524 787.865 177.524C788.313 177.524 788.673 177.416 788.945 177.2C789.217 176.976 789.353 176.66 789.353 176.252C789.353 175.948 789.281 175.704 789.137 175.52C789.001 175.328 788.789 175.156 788.501 175.004C788.213 174.844 787.837 174.66 787.373 174.452C786.813 174.18 786.381 173.888 786.077 173.576C785.773 173.256 785.621 172.828 785.621 172.292C785.621 171.988 785.697 171.696 785.849 171.416C786.001 171.136 786.201 170.888 786.449 170.672C786.705 170.456 786.989 170.284 787.301 170.156C787.621 170.028 787.949 169.964 788.285 169.964C788.685 169.964 789.057 170.012 789.401 170.108C789.753 170.196 790.089 170.324 790.409 170.492L790.529 172.412H790.325L789.593 171.092C789.361 170.916 789.145 170.784 788.945 170.696C788.745 170.608 788.517 170.564 788.261 170.564C787.925 170.564 787.645 170.676 787.421 170.9C787.205 171.124 787.097 171.408 787.097 171.752C787.097 172.112 787.217 172.404 787.457 172.628C787.697 172.844 788.097 173.084 788.657 173.348C789.145 173.572 789.545 173.792 789.857 174.008C790.169 174.224 790.401 174.468 790.553 174.74C790.705 175.012 790.781 175.348 790.781 175.748C790.781 176.132 790.697 176.472 790.529 176.768C790.369 177.056 790.149 177.304 789.869 177.512C789.597 177.712 789.293 177.864 788.957 177.968C788.621 178.072 788.285 178.124 787.949 178.124ZM792.613 178.004V177.812L793.621 177.32V170.768L792.613 170.276V170.084H798.889V172.16H798.697L797.869 170.744H795.121V173.588H797.053L797.701 172.568H797.893V175.244H797.701L797.053 174.248H795.121V177.344H798.169L799.033 175.664H799.225V178.004H792.613ZM801.241 178.004V177.812L802.249 177.32V170.768L801.241 170.276V170.084H804.877V170.276L803.749 170.768V177.344H806.509L807.421 175.184H807.613V178.004H801.241ZM809.518 178.004V177.812L810.514 177.32V170.768L809.518 170.276V170.084H813.022V170.276L812.026 170.768V177.32L813.022 177.812V178.004H809.518ZM814.885 178.004V177.812L815.881 177.32V170.78L814.897 170.276V170.084H816.961L821.593 175.556V170.744L820.297 170.276V170.084H823.417V170.276L822.433 170.756V178.064H821.809L816.721 172.088V177.332L818.029 177.812V178.004H814.885ZM825.154 178.004V177.812L826.162 177.32V170.768L825.154 170.276V170.084H831.43V172.16H831.238L830.41 170.744H827.662V173.588H829.594L830.242 172.568H830.434V175.244H830.242L829.594 174.248H827.662V177.344H830.71L831.574 175.664H831.766V178.004H825.154ZM766.919 190.004V189.62C767.583 188.876 768.131 188.252 768.563 187.748C769.003 187.244 769.347 186.82 769.595 186.476C769.851 186.132 770.039 185.832 770.159 185.576C770.279 185.32 770.355 185.072 770.387 184.832C770.419 184.584 770.435 184.308 770.435 184.004C770.435 183.58 770.331 183.232 770.123 182.96C769.915 182.688 769.631 182.552 769.271 182.552C768.455 182.552 768.047 183.004 768.047 183.908V184.46L767.975 184.556H767.267C767.107 184.556 766.987 184.528 766.907 184.472C766.827 184.416 766.787 184.276 766.787 184.052C766.787 183.828 766.855 183.604 766.991 183.38C767.135 183.148 767.355 182.924 767.651 182.708C767.859 182.564 768.059 182.436 768.251 182.324C768.443 182.212 768.655 182.124 768.887 182.06C769.127 181.996 769.407 181.964 769.727 181.964C770.175 181.964 770.571 182.06 770.915 182.252C771.267 182.444 771.539 182.7 771.731 183.02C771.931 183.34 772.031 183.696 772.031 184.088C772.031 184.344 771.999 184.58 771.935 184.796C771.879 185.012 771.775 185.236 771.623 185.468C771.471 185.7 771.255 185.964 770.975 186.26C770.703 186.556 770.355 186.912 769.931 187.328C769.507 187.736 768.987 188.228 768.371 188.804H771.419L772.079 187.628H772.271L772.151 190.004H766.919ZM776.545 190.124C775.953 190.124 775.445 189.96 775.021 189.632C774.597 189.304 774.273 188.836 774.049 188.228C773.833 187.612 773.725 186.884 773.725 186.044C773.725 185.26 773.845 184.564 774.085 183.956C774.325 183.34 774.653 182.856 775.069 182.504C775.493 182.144 775.985 181.964 776.545 181.964C777.137 181.964 777.645 182.128 778.069 182.456C778.493 182.784 778.813 183.256 779.029 183.872C779.253 184.48 779.365 185.204 779.365 186.044C779.365 186.828 779.245 187.528 779.005 188.144C778.765 188.752 778.433 189.236 778.009 189.596C777.585 189.948 777.097 190.124 776.545 190.124ZM776.761 189.548C776.993 189.548 777.185 189.412 777.337 189.14C777.497 188.868 777.617 188.496 777.697 188.024C777.777 187.552 777.817 187.016 777.817 186.416C777.817 185.672 777.765 185.008 777.661 184.424C777.557 183.832 777.397 183.368 777.181 183.032C776.973 182.696 776.701 182.528 776.365 182.528C776.133 182.528 775.933 182.66 775.765 182.924C775.605 183.188 775.481 183.556 775.393 184.028C775.313 184.492 775.273 185.032 775.273 185.648C775.273 186.4 775.325 187.072 775.429 187.664C775.533 188.248 775.693 188.708 775.909 189.044C776.133 189.38 776.417 189.548 776.761 189.548ZM780.986 190.004V189.62C781.65 188.876 782.198 188.252 782.63 187.748C783.07 187.244 783.414 186.82 783.662 186.476C783.918 186.132 784.106 185.832 784.226 185.576C784.346 185.32 784.422 185.072 784.454 184.832C784.486 184.584 784.502 184.308 784.502 184.004C784.502 183.58 784.398 183.232 784.19 182.96C783.982 182.688 783.698 182.552 783.338 182.552C782.522 182.552 782.114 183.004 782.114 183.908V184.46L782.042 184.556H781.334C781.174 184.556 781.054 184.528 780.974 184.472C780.894 184.416 780.854 184.276 780.854 184.052C780.854 183.828 780.922 183.604 781.058 183.38C781.202 183.148 781.422 182.924 781.718 182.708C781.926 182.564 782.126 182.436 782.318 182.324C782.51 182.212 782.722 182.124 782.954 182.06C783.194 181.996 783.474 181.964 783.794 181.964C784.242 181.964 784.638 182.06 784.982 182.252C785.334 182.444 785.606 182.7 785.798 183.02C785.998 183.34 786.098 183.696 786.098 184.088C786.098 184.344 786.066 184.58 786.002 184.796C785.946 185.012 785.842 185.236 785.69 185.468C785.538 185.7 785.322 185.964 785.042 186.26C784.77 186.556 784.422 186.912 783.998 187.328C783.574 187.736 783.054 188.228 782.438 188.804H785.486L786.146 187.628H786.338L786.218 190.004H780.986ZM789.976 190.124C789.544 190.124 789.172 190.072 788.86 189.968C788.556 189.856 788.328 189.696 788.176 189.488C788.112 189.416 788.08 189.336 788.08 189.248C788.08 189.144 788.152 189.036 788.296 188.924L788.836 188.504H788.98L789.112 188.756C789.24 189.004 789.4 189.2 789.592 189.344C789.784 189.488 790.04 189.56 790.36 189.56C790.792 189.56 791.148 189.404 791.428 189.092C791.716 188.772 791.86 188.352 791.86 187.832C791.86 187.472 791.788 187.156 791.644 186.884C791.5 186.604 791.26 186.384 790.924 186.224C790.596 186.064 790.156 185.984 789.604 185.984C789.42 185.984 789.236 185.996 789.052 186.02C788.868 186.036 788.668 186.06 788.452 186.092V182.084H792.544V183.176H789.064V184.808C789.192 184.8 789.324 184.792 789.46 184.784C789.596 184.776 789.744 184.772 789.904 184.772C790.68 184.772 791.304 184.888 791.776 185.12C792.256 185.352 792.604 185.656 792.82 186.032C793.044 186.408 793.156 186.82 793.156 187.268C793.156 187.828 793.02 188.324 792.748 188.756C792.476 189.188 792.1 189.524 791.62 189.764C791.14 190.004 790.592 190.124 789.976 190.124Z" fill="black"/>
<path d="M766.295 256.152H816.947" stroke="#3C4CA6" stroke-width="3" stroke-dasharray="5.36 5.36"/>
<path d="M771.071 237.272C770.487 237.272 769.947 237.172 769.451 236.972C768.955 236.764 768.523 236.48 768.155 236.12C767.787 235.752 767.499 235.32 767.291 234.824C767.091 234.328 766.991 233.784 766.991 233.192C766.991 232.6 767.091 232.056 767.291 231.56C767.499 231.064 767.787 230.636 768.155 230.276C768.523 229.908 768.955 229.624 769.451 229.424C769.947 229.216 770.487 229.112 771.071 229.112C771.663 229.112 772.207 229.216 772.703 229.424C773.199 229.624 773.631 229.908 773.999 230.276C774.367 230.636 774.651 231.064 774.851 231.56C775.059 232.056 775.163 232.6 775.163 233.192C775.163 233.784 775.059 234.328 774.851 234.824C774.651 235.32 774.367 235.752 773.999 236.12C773.631 236.48 773.199 236.764 772.703 236.972C772.207 237.172 771.663 237.272 771.071 237.272ZM771.287 236.66C771.735 236.66 772.127 236.532 772.463 236.276C772.807 236.02 773.075 235.66 773.267 235.196C773.459 234.732 773.555 234.184 773.555 233.552C773.555 232.776 773.435 232.1 773.195 231.524C772.963 230.948 772.643 230.504 772.235 230.192C771.835 229.872 771.387 229.712 770.891 229.712C770.451 229.712 770.055 229.84 769.703 230.096C769.359 230.344 769.087 230.7 768.887 231.164C768.687 231.628 768.587 232.176 768.587 232.808C768.587 233.584 768.707 234.26 768.947 234.836C769.187 235.412 769.511 235.86 769.919 236.18C770.335 236.5 770.791 236.66 771.287 236.66ZM777.034 237.152V236.96L778.03 236.468V229.928L777.046 229.424V229.232H779.11L783.742 234.704V229.892L782.446 229.424V229.232H785.566V229.424L784.582 229.904V237.212H783.958L778.87 231.236V236.48L780.178 236.96V237.152H777.034ZM787.303 237.152V236.96L788.311 236.468V229.916L787.303 229.424V229.232H793.579V231.308H793.387L792.559 229.892H789.811V232.736H791.743L792.391 231.716H792.583V234.392H792.391L791.743 233.396H789.811V236.492H792.859L793.723 234.812H793.915V237.152H787.303ZM801.558 237.152V236.96L802.638 236.468V233.456L799.998 229.856L799.218 229.424V229.232H802.602V229.424L801.702 229.856V229.904L803.814 232.772L805.722 229.928V229.88L804.81 229.424V229.232H807.462V229.424L806.694 229.82L804.15 233.444V236.468L805.218 236.96V237.152H801.558ZM809.001 237.152V236.96L810.009 236.468V229.916L809.001 229.424V229.232H815.277V231.308H815.085L814.257 229.892H811.509V232.736H813.441L814.089 231.716H814.281V234.392H814.089L813.441 233.396H811.509V236.492H814.557L815.421 234.812H815.613V237.152H809.001ZM817.304 237.152V236.96L818.048 236.552L821.156 229.172H821.996L825.068 236.528L825.884 236.96V237.152H822.428V236.96L823.472 236.54L822.62 234.452H819.74L818.9 236.54L819.896 236.96V237.152H817.304ZM820.016 233.792H822.344L821.18 230.924L820.016 233.792ZM827.392 237.152V236.96L828.4 236.468V229.916L827.392 229.424V229.232H831.088C831.928 229.232 832.588 229.408 833.068 229.76C833.556 230.104 833.8 230.58 833.8 231.188C833.8 231.636 833.648 232.028 833.344 232.364C833.048 232.692 832.656 232.948 832.168 233.132L834.412 236.504L835.252 236.96V237.152H833.008L830.74 233.492H829.9V236.456L830.8 236.96V237.152H827.392ZM830.512 229.892H829.9V232.88H830.584C831.08 232.88 831.48 232.74 831.784 232.46C832.096 232.18 832.252 231.816 832.252 231.368C832.252 230.904 832.1 230.544 831.796 230.288C831.492 230.024 831.064 229.892 830.512 229.892ZM842.587 237.272C842.075 237.272 841.627 237.224 841.243 237.128C840.867 237.024 840.491 236.876 840.115 236.684L839.995 234.68H840.211L840.943 236.06C841.439 236.468 841.959 236.672 842.503 236.672C842.951 236.672 843.311 236.564 843.583 236.348C843.855 236.124 843.991 235.808 843.991 235.4C843.991 235.096 843.919 234.852 843.775 234.668C843.639 234.476 843.427 234.304 843.139 234.152C842.851 233.992 842.475 233.808 842.011 233.6C841.451 233.328 841.019 233.036 840.715 232.724C840.411 232.404 840.259 231.976 840.259 231.44C840.259 231.136 840.335 230.844 840.487 230.564C840.639 230.284 840.839 230.036 841.087 229.82C841.343 229.604 841.627 229.432 841.939 229.304C842.259 229.176 842.587 229.112 842.923 229.112C843.323 229.112 843.695 229.16 844.039 229.256C844.391 229.344 844.727 229.472 845.047 229.64L845.167 231.56H844.963L844.231 230.24C843.999 230.064 843.783 229.932 843.583 229.844C843.383 229.756 843.155 229.712 842.899 229.712C842.563 229.712 842.283 229.824 842.059 230.048C841.843 230.272 841.735 230.556 841.735 230.9C841.735 231.26 841.855 231.552 842.095 231.776C842.335 231.992 842.735 232.232 843.295 232.496C843.783 232.72 844.183 232.94 844.495 233.156C844.807 233.372 845.039 233.616 845.191 233.888C845.343 234.16 845.419 234.496 845.419 234.896C845.419 235.28 845.335 235.62 845.167 235.916C845.007 236.204 844.787 236.452 844.507 236.66C844.235 236.86 843.931 237.012 843.595 237.116C843.259 237.22 842.923 237.272 842.587 237.272ZM847.251 237.152V236.96L848.259 236.468V229.916L847.251 229.424V229.232H850.707V229.424L849.759 229.916V232.736H853.395V229.916L852.447 229.424V229.232H855.891V229.424L854.907 229.916V236.468L855.891 236.96V237.152H852.447V236.96L853.395 236.468V233.396H849.759V236.468L850.707 236.96V237.152H847.251ZM857.801 237.152V236.96L858.797 236.468V229.916L857.801 229.424V229.232H861.305V229.424L860.309 229.916V236.468L861.305 236.96V237.152H857.801ZM863.205 237.152V236.96L864.213 236.468V229.916L863.205 229.424V229.232H869.361V231.308H869.169L868.377 229.892H865.713V232.76H867.525L868.173 231.74H868.365V234.368H868.173L867.525 233.372H865.713V236.468L866.889 236.96V237.152H863.205ZM872.805 237.152V236.96L874.053 236.468V229.892H872.241L871.341 231.776H871.149V229.232H878.469V231.776H878.277L877.377 229.892H875.565V236.468L876.801 236.96V237.152H872.805ZM766.919 249.152V248.768C767.583 248.024 768.131 247.4 768.563 246.896C769.003 246.392 769.347 245.968 769.595 245.624C769.851 245.28 770.039 244.98 770.159 244.724C770.279 244.468 770.355 244.22 770.387 243.98C770.419 243.732 770.435 243.456 770.435 243.152C770.435 242.728 770.331 242.38 770.123 242.108C769.915 241.836 769.631 241.7 769.271 241.7C768.455 241.7 768.047 242.152 768.047 243.056V243.608L767.975 243.704H767.267C767.107 243.704 766.987 243.676 766.907 243.62C766.827 243.564 766.787 243.424 766.787 243.2C766.787 242.976 766.855 242.752 766.991 242.528C767.135 242.296 767.355 242.072 767.651 241.856C767.859 241.712 768.059 241.584 768.251 241.472C768.443 241.36 768.655 241.272 768.887 241.208C769.127 241.144 769.407 241.112 769.727 241.112C770.175 241.112 770.571 241.208 770.915 241.4C771.267 241.592 771.539 241.848 771.731 242.168C771.931 242.488 772.031 242.844 772.031 243.236C772.031 243.492 771.999 243.728 771.935 243.944C771.879 244.16 771.775 244.384 771.623 244.616C771.471 244.848 771.255 245.112 770.975 245.408C770.703 245.704 770.355 246.06 769.931 246.476C769.507 246.884 768.987 247.376 768.371 247.952H771.419L772.079 246.776H772.271L772.151 249.152H766.919ZM776.545 249.272C775.953 249.272 775.445 249.108 775.021 248.78C774.597 248.452 774.273 247.984 774.049 247.376C773.833 246.76 773.725 246.032 773.725 245.192C773.725 244.408 773.845 243.712 774.085 243.104C774.325 242.488 774.653 242.004 775.069 241.652C775.493 241.292 775.985 241.112 776.545 241.112C777.137 241.112 777.645 241.276 778.069 241.604C778.493 241.932 778.813 242.404 779.029 243.02C779.253 243.628 779.365 244.352 779.365 245.192C779.365 245.976 779.245 246.676 779.005 247.292C778.765 247.9 778.433 248.384 778.009 248.744C777.585 249.096 777.097 249.272 776.545 249.272ZM776.761 248.696C776.993 248.696 777.185 248.56 777.337 248.288C777.497 248.016 777.617 247.644 777.697 247.172C777.777 246.7 777.817 246.164 777.817 245.564C777.817 244.82 777.765 244.156 777.661 243.572C777.557 242.98 777.397 242.516 777.181 242.18C776.973 241.844 776.701 241.676 776.365 241.676C776.133 241.676 775.933 241.808 775.765 242.072C775.605 242.336 775.481 242.704 775.393 243.176C775.313 243.64 775.273 244.18 775.273 244.796C775.273 245.548 775.325 246.22 775.429 246.812C775.533 247.396 775.693 247.856 775.909 248.192C776.133 248.528 776.417 248.696 776.761 248.696ZM780.986 249.152V248.768C781.65 248.024 782.198 247.4 782.63 246.896C783.07 246.392 783.414 245.968 783.662 245.624C783.918 245.28 784.106 244.98 784.226 244.724C784.346 244.468 784.422 244.22 784.454 243.98C784.486 243.732 784.502 243.456 784.502 243.152C784.502 242.728 784.398 242.38 784.19 242.108C783.982 241.836 783.698 241.7 783.338 241.7C782.522 241.7 782.114 242.152 782.114 243.056V243.608L782.042 243.704H781.334C781.174 243.704 781.054 243.676 780.974 243.62C780.894 243.564 780.854 243.424 780.854 243.2C780.854 242.976 780.922 242.752 781.058 242.528C781.202 242.296 781.422 242.072 781.718 241.856C781.926 241.712 782.126 241.584 782.318 241.472C782.51 241.36 782.722 241.272 782.954 241.208C783.194 241.144 783.474 241.112 783.794 241.112C784.242 241.112 784.638 241.208 784.982 241.4C785.334 241.592 785.606 241.848 785.798 242.168C785.998 242.488 786.098 242.844 786.098 243.236C786.098 243.492 786.066 243.728 786.002 243.944C785.946 244.16 785.842 244.384 785.69 244.616C785.538 244.848 785.322 245.112 785.042 245.408C784.77 245.704 784.422 246.06 783.998 246.476C783.574 246.884 783.054 247.376 782.438 247.952H785.486L786.146 246.776H786.338L786.218 249.152H780.986ZM789.976 249.272C789.544 249.272 789.172 249.22 788.86 249.116C788.556 249.004 788.328 248.844 788.176 248.636C788.112 248.564 788.08 248.484 788.08 248.396C788.08 248.292 788.152 248.184 788.296 248.072L788.836 247.652H788.98L789.112 247.904C789.24 248.152 789.4 248.348 789.592 248.492C789.784 248.636 790.04 248.708 790.36 248.708C790.792 248.708 791.148 248.552 791.428 248.24C791.716 247.92 791.86 247.5 791.86 246.98C791.86 246.62 791.788 246.304 791.644 246.032C791.5 245.752 791.26 245.532 790.924 245.372C790.596 245.212 790.156 245.132 789.604 245.132C789.42 245.132 789.236 245.144 789.052 245.168C788.868 245.184 788.668 245.208 788.452 245.24V241.232H792.544V242.324H789.064V243.956C789.192 243.948 789.324 243.94 789.46 243.932C789.596 243.924 789.744 243.92 789.904 243.92C790.68 243.92 791.304 244.036 791.776 244.268C792.256 244.5 792.604 244.804 792.82 245.18C793.044 245.556 793.156 245.968 793.156 246.416C793.156 246.976 793.02 247.472 792.748 247.904C792.476 248.336 792.1 248.672 791.62 248.912C791.14 249.152 790.592 249.272 789.976 249.272Z" fill="black"/>
</g>
<defs>
<clipPath id="clip0_2147_11786">
<rect width="950" height="650" fill="white" transform="translate(0.294922 0.203125)"/>
</clipPath>
</defs>
</svg>
