<?xml version="1.0" encoding="utf-8"?>
<!-- Generator: Adobe Illustrator 28.1.0, SVG Export Plug-In . SVG Version: 6.00 Build 0)  -->
<svg version="1.1" id="Layer_1" xmlns="http://www.w3.org/2000/svg" xmlns:xlink="http://www.w3.org/1999/xlink" x="0px" y="0px"
	 viewBox="0 0 24 24" style="enable-background:new 0 0 24 24;" xml:space="preserve">
<path d="M16.1,13.3l-1.4-1.5c0.1-0.8-0.1-1.5-0.7-2.2c-0.6-0.7-1.4-0.9-2.3-0.8l-1.5-1.4c0.3-0.1,0.6-0.2,0.9-0.3
	C11.4,7,11.7,7,12,7c1.2,0,2.3,0.4,3.2,1.3s1.3,1.9,1.3,3.2c0,0.3,0,0.6-0.1,0.9C16.3,12.7,16.2,13,16.1,13.3z M19.3,16.5l-1.5-1.4
	c0.6-0.5,1.2-1,1.7-1.6s0.9-1.2,1.3-2c-0.8-1.7-2-3-3.6-4C15.7,6.5,13.9,6,12,6c-0.5,0-1,0-1.4,0.1c-0.5,0.1-0.9,0.2-1.4,0.3
	L7.7,4.8C8.3,4.6,9,4.4,9.8,4.2C10.5,4.1,11.2,4,12,4c2.5,0,4.8,0.7,6.7,2.1s3.4,3.2,4.3,5.4c-0.4,1-0.9,1.9-1.5,2.7
	C20.9,15.1,20.1,15.8,19.3,16.5z M19.8,22.6l-4.2-4.1c-0.6,0.2-1.2,0.3-1.8,0.4C13.2,19,12.6,19,12,19c-2.5,0-4.8-0.7-6.7-2.1
	S1.9,13.7,1,11.5C1.4,10.6,1.8,9.8,2.3,9c0.5-0.8,1.1-1.4,1.8-2L1.4,4.2l1.4-1.4l18.4,18.4L19.8,22.6z M5.6,8.4
	C5.1,8.8,4.6,9.3,4.2,9.8s-0.7,1.1-1,1.7c0.8,1.7,2,3,3.6,4S10.1,17,12,17c0.3,0,0.7,0,1-0.1s0.6-0.1,1-0.1l-0.9-0.9
	c-0.2,0.1-0.4,0.1-0.5,0.1c-0.2,0-0.3,0-0.5,0c-1.2,0-2.3-0.4-3.2-1.3s-1.3-1.9-1.3-3.2c0-0.2,0-0.4,0-0.5c0-0.2,0.1-0.3,0.1-0.5
	L5.6,8.4z"/>
</svg>
