<svg width="176" height="486" viewBox="0 0 176 486" fill="none" xmlns="http://www.w3.org/2000/svg">
<circle cx="36.7109" cy="33.7109" r="7.57031" fill="#7FA8E9"/>
<circle cx="65.8516" cy="33.7109" r="7.57031" fill="#7FA8E9"/>
<circle cx="36.7109" cy="59.8516" r="7.57031" fill="#7FA8E9"/>
<circle cx="65.8516" cy="59.8516" r="7.57031" fill="#7FA8E9"/>
<circle cx="36.7109" cy="85.9922" r="7.57031" fill="#7FA8E9"/>
<circle cx="65.8516" cy="85.9922" r="7.57031" fill="#7FA8E9"/>
<circle cx="94.9922" cy="85.9922" r="7.57031" fill="#7FA8E9"/>
<circle cx="7.57031" cy="112.133" r="7.57031" fill="#7FA8E9"/>
<circle cx="36.7109" cy="112.133" r="7.57031" fill="#7FA8E9"/>
<circle cx="65.8516" cy="112.133" r="7.57031" fill="#7FA8E9"/>
<circle cx="94.9922" cy="112.133" r="7.57031" fill="#7FA8E9"/>
<circle cx="7.57031" cy="138.273" r="7.57031" fill="#7FA8E9"/>
<circle cx="36.7109" cy="138.273" r="7.57031" fill="#7FA8E9"/>
<circle cx="65.8516" cy="138.273" r="7.57031" fill="#7FA8E9"/>
<circle cx="94.9922" cy="138.273" r="7.57031" fill="#7FA8E9"/>
<circle cx="7.57031" cy="164.414" r="7.57031" fill="#7FA8E9"/>
<circle cx="36.7109" cy="164.414" r="7.57031" fill="#7FA8E9"/>
<circle cx="65.8516" cy="164.414" r="7.57031" fill="#7FA8E9"/>
<circle cx="94.9922" cy="164.414" r="7.57031" fill="#7FA8E9"/>
<circle cx="124.133" cy="164.414" r="7.57031" fill="#7FA8E9"/>
<circle cx="7.57031" cy="190.555" r="7.57031" fill="#7FA8E9"/>
<circle cx="36.7109" cy="190.555" r="7.57031" fill="#7FA8E9"/>
<circle cx="65.8516" cy="190.555" r="7.57031" fill="#7FA8E9"/>
<circle cx="94.9922" cy="190.555" r="7.57031" fill="#7FA8E9"/>
<circle cx="124.133" cy="190.555" r="7.57031" fill="#7FA8E9"/>
<circle cx="7.57031" cy="216.695" r="7.57031" fill="#7FA8E9"/>
<circle cx="36.7109" cy="216.695" r="7.57031" fill="#7FA8E9"/>
<circle cx="65.8516" cy="216.695" r="7.57031" fill="#7FA8E9"/>
<circle cx="94.9922" cy="216.695" r="7.57031" fill="#7FA8E9"/>
<circle cx="124.133" cy="216.695" r="7.57031" fill="#7FA8E9"/>
<circle cx="7.57031" cy="242.836" r="7.57031" fill="#7FA8E9"/>
<circle cx="36.7109" cy="242.836" r="7.57031" fill="#7FA8E9"/>
<circle cx="65.8516" cy="242.836" r="7.57031" fill="#7FA8E9"/>
<circle cx="94.9922" cy="242.836" r="7.57031" fill="#7FA8E9"/>
<circle cx="124.133" cy="242.836" r="7.57031" fill="#7FA8E9"/>
<circle cx="7.57031" cy="268.977" r="7.57031" fill="#7FA8E9"/>
<circle cx="36.7109" cy="268.977" r="7.57031" fill="#7FA8E9"/>
<circle cx="65.8516" cy="268.977" r="7.57031" fill="#7FA8E9"/>
<circle cx="94.9922" cy="268.977" r="7.57031" fill="#7FA8E9"/>
<circle cx="124.133" cy="268.977" r="7.57031" fill="#7FA8E9"/>
<circle cx="7.57031" cy="295.117" r="7.57031" fill="#7FA8E9"/>
<circle cx="36.7109" cy="295.117" r="7.57031" fill="#7FA8E9"/>
<circle cx="65.8516" cy="295.117" r="7.57031" fill="#7FA8E9"/>
<circle cx="94.9922" cy="295.117" r="7.57031" fill="#7FA8E9"/>
<circle cx="124.133" cy="295.117" r="7.57031" fill="#7FA8E9"/>
<circle cx="153.273" cy="295.117" r="7.57031" fill="#7FA8E9"/>
<circle cx="7.57031" cy="321.258" r="7.57031" fill="#7FA8E9"/>
<circle cx="36.7109" cy="321.258" r="7.57031" fill="#7FA8E9"/>
<circle cx="65.8516" cy="321.258" r="7.57031" fill="#7FA8E9"/>
<circle cx="94.9922" cy="321.258" r="7.57031" fill="#7FA8E9"/>
<circle cx="124.133" cy="321.258" r="7.57031" fill="#7FA8E9"/>
<circle cx="153.273" cy="321.258" r="7.57031" fill="#7FA8E9"/>
<circle cx="7.57031" cy="347.398" r="7.57031" fill="#7FA8E9"/>
<circle cx="36.7109" cy="347.398" r="7.57031" fill="#7FA8E9"/>
<circle cx="65.8516" cy="347.398" r="7.57031" fill="#7FA8E9"/>
<circle cx="94.9922" cy="347.398" r="7.57031" fill="#7FA8E9"/>
<circle cx="124.133" cy="347.398" r="7.57031" fill="#7FA8E9"/>
<circle cx="153.273" cy="347.398" r="7.57031" fill="#7FA8E9"/>
<circle cx="7.57031" cy="373.539" r="7.57031" fill="#7FA8E9"/>
<circle cx="36.7109" cy="373.539" r="7.57031" fill="#7FA8E9"/>
<circle cx="65.8516" cy="373.539" r="7.57031" fill="#7FA8E9"/>
<circle cx="94.9922" cy="373.539" r="7.57031" fill="#7FA8E9"/>
<circle cx="124.133" cy="373.539" r="7.57031" fill="#7FA8E9"/>
<circle cx="153.273" cy="373.539" r="7.57031" fill="#7FA8E9"/>
<circle cx="7.57031" cy="399.68" r="7.57031" fill="#7FA8E9"/>
<circle cx="36.7109" cy="399.68" r="7.57031" fill="#7FA8E9"/>
<circle cx="65.8516" cy="399.68" r="7.57031" fill="#7FA8E9"/>
<circle cx="94.9922" cy="399.68" r="7.57031" fill="#7FA8E9"/>
<circle cx="7.57031" cy="425.82" r="7.57031" fill="#7FA8E9"/>
<circle cx="36.7109" cy="425.82" r="7.57031" fill="#7FA8E9"/>
<circle cx="65.8516" cy="425.82" r="7.57031" fill="#7FA8E9"/>
<circle cx="7.57031" cy="451.961" r="7.57031" fill="#7FA8E9"/>
<circle cx="36.7109" cy="451.961" r="7.57031" fill="#7FA8E9"/>
<circle cx="7.57031" cy="478.102" r="7.57031" fill="#7FA8E9"/>
</svg>
